%TF.GenerationSoftware,KiCad,Pcbnew,7.0.2*%
%TF.CreationDate,2023-10-01T22:33:36-04:00*%
%TF.ProjectId,usbc-car-module,75736263-2d63-4617-922d-6d6f64756c65,rev?*%
%TF.SameCoordinates,Original*%
%TF.FileFunction,Legend,Bot*%
%TF.FilePolarity,Positive*%
%FSLAX46Y46*%
G04 Gerber Fmt 4.6, Leading zero omitted, Abs format (unit mm)*
G04 Created by KiCad (PCBNEW 7.0.2) date 2023-10-01 22:33:36*
%MOMM*%
%LPD*%
G01*
G04 APERTURE LIST*
%ADD10C,0.150000*%
%ADD11C,0.120000*%
%ADD12C,0.152400*%
G04 APERTURE END LIST*
D10*
%TO.C,C53*%
X51379880Y-73632142D02*
X51427500Y-73584523D01*
X51427500Y-73584523D02*
X51475119Y-73441666D01*
X51475119Y-73441666D02*
X51475119Y-73346428D01*
X51475119Y-73346428D02*
X51427500Y-73203571D01*
X51427500Y-73203571D02*
X51332261Y-73108333D01*
X51332261Y-73108333D02*
X51237023Y-73060714D01*
X51237023Y-73060714D02*
X51046547Y-73013095D01*
X51046547Y-73013095D02*
X50903690Y-73013095D01*
X50903690Y-73013095D02*
X50713214Y-73060714D01*
X50713214Y-73060714D02*
X50617976Y-73108333D01*
X50617976Y-73108333D02*
X50522738Y-73203571D01*
X50522738Y-73203571D02*
X50475119Y-73346428D01*
X50475119Y-73346428D02*
X50475119Y-73441666D01*
X50475119Y-73441666D02*
X50522738Y-73584523D01*
X50522738Y-73584523D02*
X50570357Y-73632142D01*
X50475119Y-74536904D02*
X50475119Y-74060714D01*
X50475119Y-74060714D02*
X50951309Y-74013095D01*
X50951309Y-74013095D02*
X50903690Y-74060714D01*
X50903690Y-74060714D02*
X50856071Y-74155952D01*
X50856071Y-74155952D02*
X50856071Y-74394047D01*
X50856071Y-74394047D02*
X50903690Y-74489285D01*
X50903690Y-74489285D02*
X50951309Y-74536904D01*
X50951309Y-74536904D02*
X51046547Y-74584523D01*
X51046547Y-74584523D02*
X51284642Y-74584523D01*
X51284642Y-74584523D02*
X51379880Y-74536904D01*
X51379880Y-74536904D02*
X51427500Y-74489285D01*
X51427500Y-74489285D02*
X51475119Y-74394047D01*
X51475119Y-74394047D02*
X51475119Y-74155952D01*
X51475119Y-74155952D02*
X51427500Y-74060714D01*
X51427500Y-74060714D02*
X51379880Y-74013095D01*
X50475119Y-74917857D02*
X50475119Y-75536904D01*
X50475119Y-75536904D02*
X50856071Y-75203571D01*
X50856071Y-75203571D02*
X50856071Y-75346428D01*
X50856071Y-75346428D02*
X50903690Y-75441666D01*
X50903690Y-75441666D02*
X50951309Y-75489285D01*
X50951309Y-75489285D02*
X51046547Y-75536904D01*
X51046547Y-75536904D02*
X51284642Y-75536904D01*
X51284642Y-75536904D02*
X51379880Y-75489285D01*
X51379880Y-75489285D02*
X51427500Y-75441666D01*
X51427500Y-75441666D02*
X51475119Y-75346428D01*
X51475119Y-75346428D02*
X51475119Y-75060714D01*
X51475119Y-75060714D02*
X51427500Y-74965476D01*
X51427500Y-74965476D02*
X51379880Y-74917857D01*
%TO.C,C60*%
X62279880Y-84032142D02*
X62327500Y-83984523D01*
X62327500Y-83984523D02*
X62375119Y-83841666D01*
X62375119Y-83841666D02*
X62375119Y-83746428D01*
X62375119Y-83746428D02*
X62327500Y-83603571D01*
X62327500Y-83603571D02*
X62232261Y-83508333D01*
X62232261Y-83508333D02*
X62137023Y-83460714D01*
X62137023Y-83460714D02*
X61946547Y-83413095D01*
X61946547Y-83413095D02*
X61803690Y-83413095D01*
X61803690Y-83413095D02*
X61613214Y-83460714D01*
X61613214Y-83460714D02*
X61517976Y-83508333D01*
X61517976Y-83508333D02*
X61422738Y-83603571D01*
X61422738Y-83603571D02*
X61375119Y-83746428D01*
X61375119Y-83746428D02*
X61375119Y-83841666D01*
X61375119Y-83841666D02*
X61422738Y-83984523D01*
X61422738Y-83984523D02*
X61470357Y-84032142D01*
X61375119Y-84889285D02*
X61375119Y-84698809D01*
X61375119Y-84698809D02*
X61422738Y-84603571D01*
X61422738Y-84603571D02*
X61470357Y-84555952D01*
X61470357Y-84555952D02*
X61613214Y-84460714D01*
X61613214Y-84460714D02*
X61803690Y-84413095D01*
X61803690Y-84413095D02*
X62184642Y-84413095D01*
X62184642Y-84413095D02*
X62279880Y-84460714D01*
X62279880Y-84460714D02*
X62327500Y-84508333D01*
X62327500Y-84508333D02*
X62375119Y-84603571D01*
X62375119Y-84603571D02*
X62375119Y-84794047D01*
X62375119Y-84794047D02*
X62327500Y-84889285D01*
X62327500Y-84889285D02*
X62279880Y-84936904D01*
X62279880Y-84936904D02*
X62184642Y-84984523D01*
X62184642Y-84984523D02*
X61946547Y-84984523D01*
X61946547Y-84984523D02*
X61851309Y-84936904D01*
X61851309Y-84936904D02*
X61803690Y-84889285D01*
X61803690Y-84889285D02*
X61756071Y-84794047D01*
X61756071Y-84794047D02*
X61756071Y-84603571D01*
X61756071Y-84603571D02*
X61803690Y-84508333D01*
X61803690Y-84508333D02*
X61851309Y-84460714D01*
X61851309Y-84460714D02*
X61946547Y-84413095D01*
X61375119Y-85603571D02*
X61375119Y-85698809D01*
X61375119Y-85698809D02*
X61422738Y-85794047D01*
X61422738Y-85794047D02*
X61470357Y-85841666D01*
X61470357Y-85841666D02*
X61565595Y-85889285D01*
X61565595Y-85889285D02*
X61756071Y-85936904D01*
X61756071Y-85936904D02*
X61994166Y-85936904D01*
X61994166Y-85936904D02*
X62184642Y-85889285D01*
X62184642Y-85889285D02*
X62279880Y-85841666D01*
X62279880Y-85841666D02*
X62327500Y-85794047D01*
X62327500Y-85794047D02*
X62375119Y-85698809D01*
X62375119Y-85698809D02*
X62375119Y-85603571D01*
X62375119Y-85603571D02*
X62327500Y-85508333D01*
X62327500Y-85508333D02*
X62279880Y-85460714D01*
X62279880Y-85460714D02*
X62184642Y-85413095D01*
X62184642Y-85413095D02*
X61994166Y-85365476D01*
X61994166Y-85365476D02*
X61756071Y-85365476D01*
X61756071Y-85365476D02*
X61565595Y-85413095D01*
X61565595Y-85413095D02*
X61470357Y-85460714D01*
X61470357Y-85460714D02*
X61422738Y-85508333D01*
X61422738Y-85508333D02*
X61375119Y-85603571D01*
%TO.C,C62*%
X68755357Y-73142380D02*
X68802976Y-73190000D01*
X68802976Y-73190000D02*
X68945833Y-73237619D01*
X68945833Y-73237619D02*
X69041071Y-73237619D01*
X69041071Y-73237619D02*
X69183928Y-73190000D01*
X69183928Y-73190000D02*
X69279166Y-73094761D01*
X69279166Y-73094761D02*
X69326785Y-72999523D01*
X69326785Y-72999523D02*
X69374404Y-72809047D01*
X69374404Y-72809047D02*
X69374404Y-72666190D01*
X69374404Y-72666190D02*
X69326785Y-72475714D01*
X69326785Y-72475714D02*
X69279166Y-72380476D01*
X69279166Y-72380476D02*
X69183928Y-72285238D01*
X69183928Y-72285238D02*
X69041071Y-72237619D01*
X69041071Y-72237619D02*
X68945833Y-72237619D01*
X68945833Y-72237619D02*
X68802976Y-72285238D01*
X68802976Y-72285238D02*
X68755357Y-72332857D01*
X67898214Y-72237619D02*
X68088690Y-72237619D01*
X68088690Y-72237619D02*
X68183928Y-72285238D01*
X68183928Y-72285238D02*
X68231547Y-72332857D01*
X68231547Y-72332857D02*
X68326785Y-72475714D01*
X68326785Y-72475714D02*
X68374404Y-72666190D01*
X68374404Y-72666190D02*
X68374404Y-73047142D01*
X68374404Y-73047142D02*
X68326785Y-73142380D01*
X68326785Y-73142380D02*
X68279166Y-73190000D01*
X68279166Y-73190000D02*
X68183928Y-73237619D01*
X68183928Y-73237619D02*
X67993452Y-73237619D01*
X67993452Y-73237619D02*
X67898214Y-73190000D01*
X67898214Y-73190000D02*
X67850595Y-73142380D01*
X67850595Y-73142380D02*
X67802976Y-73047142D01*
X67802976Y-73047142D02*
X67802976Y-72809047D01*
X67802976Y-72809047D02*
X67850595Y-72713809D01*
X67850595Y-72713809D02*
X67898214Y-72666190D01*
X67898214Y-72666190D02*
X67993452Y-72618571D01*
X67993452Y-72618571D02*
X68183928Y-72618571D01*
X68183928Y-72618571D02*
X68279166Y-72666190D01*
X68279166Y-72666190D02*
X68326785Y-72713809D01*
X68326785Y-72713809D02*
X68374404Y-72809047D01*
X67422023Y-72332857D02*
X67374404Y-72285238D01*
X67374404Y-72285238D02*
X67279166Y-72237619D01*
X67279166Y-72237619D02*
X67041071Y-72237619D01*
X67041071Y-72237619D02*
X66945833Y-72285238D01*
X66945833Y-72285238D02*
X66898214Y-72332857D01*
X66898214Y-72332857D02*
X66850595Y-72428095D01*
X66850595Y-72428095D02*
X66850595Y-72523333D01*
X66850595Y-72523333D02*
X66898214Y-72666190D01*
X66898214Y-72666190D02*
X67469642Y-73237619D01*
X67469642Y-73237619D02*
X66850595Y-73237619D01*
%TO.C,C54*%
X68755357Y-71542380D02*
X68802976Y-71590000D01*
X68802976Y-71590000D02*
X68945833Y-71637619D01*
X68945833Y-71637619D02*
X69041071Y-71637619D01*
X69041071Y-71637619D02*
X69183928Y-71590000D01*
X69183928Y-71590000D02*
X69279166Y-71494761D01*
X69279166Y-71494761D02*
X69326785Y-71399523D01*
X69326785Y-71399523D02*
X69374404Y-71209047D01*
X69374404Y-71209047D02*
X69374404Y-71066190D01*
X69374404Y-71066190D02*
X69326785Y-70875714D01*
X69326785Y-70875714D02*
X69279166Y-70780476D01*
X69279166Y-70780476D02*
X69183928Y-70685238D01*
X69183928Y-70685238D02*
X69041071Y-70637619D01*
X69041071Y-70637619D02*
X68945833Y-70637619D01*
X68945833Y-70637619D02*
X68802976Y-70685238D01*
X68802976Y-70685238D02*
X68755357Y-70732857D01*
X67850595Y-70637619D02*
X68326785Y-70637619D01*
X68326785Y-70637619D02*
X68374404Y-71113809D01*
X68374404Y-71113809D02*
X68326785Y-71066190D01*
X68326785Y-71066190D02*
X68231547Y-71018571D01*
X68231547Y-71018571D02*
X67993452Y-71018571D01*
X67993452Y-71018571D02*
X67898214Y-71066190D01*
X67898214Y-71066190D02*
X67850595Y-71113809D01*
X67850595Y-71113809D02*
X67802976Y-71209047D01*
X67802976Y-71209047D02*
X67802976Y-71447142D01*
X67802976Y-71447142D02*
X67850595Y-71542380D01*
X67850595Y-71542380D02*
X67898214Y-71590000D01*
X67898214Y-71590000D02*
X67993452Y-71637619D01*
X67993452Y-71637619D02*
X68231547Y-71637619D01*
X68231547Y-71637619D02*
X68326785Y-71590000D01*
X68326785Y-71590000D02*
X68374404Y-71542380D01*
X66945833Y-70970952D02*
X66945833Y-71637619D01*
X67183928Y-70590000D02*
X67422023Y-71304285D01*
X67422023Y-71304285D02*
X66802976Y-71304285D01*
%TO.C,D35*%
X70726785Y-38862619D02*
X70726785Y-37862619D01*
X70726785Y-37862619D02*
X70488690Y-37862619D01*
X70488690Y-37862619D02*
X70345833Y-37910238D01*
X70345833Y-37910238D02*
X70250595Y-38005476D01*
X70250595Y-38005476D02*
X70202976Y-38100714D01*
X70202976Y-38100714D02*
X70155357Y-38291190D01*
X70155357Y-38291190D02*
X70155357Y-38434047D01*
X70155357Y-38434047D02*
X70202976Y-38624523D01*
X70202976Y-38624523D02*
X70250595Y-38719761D01*
X70250595Y-38719761D02*
X70345833Y-38815000D01*
X70345833Y-38815000D02*
X70488690Y-38862619D01*
X70488690Y-38862619D02*
X70726785Y-38862619D01*
X69822023Y-37862619D02*
X69202976Y-37862619D01*
X69202976Y-37862619D02*
X69536309Y-38243571D01*
X69536309Y-38243571D02*
X69393452Y-38243571D01*
X69393452Y-38243571D02*
X69298214Y-38291190D01*
X69298214Y-38291190D02*
X69250595Y-38338809D01*
X69250595Y-38338809D02*
X69202976Y-38434047D01*
X69202976Y-38434047D02*
X69202976Y-38672142D01*
X69202976Y-38672142D02*
X69250595Y-38767380D01*
X69250595Y-38767380D02*
X69298214Y-38815000D01*
X69298214Y-38815000D02*
X69393452Y-38862619D01*
X69393452Y-38862619D02*
X69679166Y-38862619D01*
X69679166Y-38862619D02*
X69774404Y-38815000D01*
X69774404Y-38815000D02*
X69822023Y-38767380D01*
X68298214Y-37862619D02*
X68774404Y-37862619D01*
X68774404Y-37862619D02*
X68822023Y-38338809D01*
X68822023Y-38338809D02*
X68774404Y-38291190D01*
X68774404Y-38291190D02*
X68679166Y-38243571D01*
X68679166Y-38243571D02*
X68441071Y-38243571D01*
X68441071Y-38243571D02*
X68345833Y-38291190D01*
X68345833Y-38291190D02*
X68298214Y-38338809D01*
X68298214Y-38338809D02*
X68250595Y-38434047D01*
X68250595Y-38434047D02*
X68250595Y-38672142D01*
X68250595Y-38672142D02*
X68298214Y-38767380D01*
X68298214Y-38767380D02*
X68345833Y-38815000D01*
X68345833Y-38815000D02*
X68441071Y-38862619D01*
X68441071Y-38862619D02*
X68679166Y-38862619D01*
X68679166Y-38862619D02*
X68774404Y-38815000D01*
X68774404Y-38815000D02*
X68822023Y-38767380D01*
%TO.C,C73*%
X52730357Y-70442380D02*
X52777976Y-70490000D01*
X52777976Y-70490000D02*
X52920833Y-70537619D01*
X52920833Y-70537619D02*
X53016071Y-70537619D01*
X53016071Y-70537619D02*
X53158928Y-70490000D01*
X53158928Y-70490000D02*
X53254166Y-70394761D01*
X53254166Y-70394761D02*
X53301785Y-70299523D01*
X53301785Y-70299523D02*
X53349404Y-70109047D01*
X53349404Y-70109047D02*
X53349404Y-69966190D01*
X53349404Y-69966190D02*
X53301785Y-69775714D01*
X53301785Y-69775714D02*
X53254166Y-69680476D01*
X53254166Y-69680476D02*
X53158928Y-69585238D01*
X53158928Y-69585238D02*
X53016071Y-69537619D01*
X53016071Y-69537619D02*
X52920833Y-69537619D01*
X52920833Y-69537619D02*
X52777976Y-69585238D01*
X52777976Y-69585238D02*
X52730357Y-69632857D01*
X52397023Y-69537619D02*
X51730357Y-69537619D01*
X51730357Y-69537619D02*
X52158928Y-70537619D01*
X51444642Y-69537619D02*
X50825595Y-69537619D01*
X50825595Y-69537619D02*
X51158928Y-69918571D01*
X51158928Y-69918571D02*
X51016071Y-69918571D01*
X51016071Y-69918571D02*
X50920833Y-69966190D01*
X50920833Y-69966190D02*
X50873214Y-70013809D01*
X50873214Y-70013809D02*
X50825595Y-70109047D01*
X50825595Y-70109047D02*
X50825595Y-70347142D01*
X50825595Y-70347142D02*
X50873214Y-70442380D01*
X50873214Y-70442380D02*
X50920833Y-70490000D01*
X50920833Y-70490000D02*
X51016071Y-70537619D01*
X51016071Y-70537619D02*
X51301785Y-70537619D01*
X51301785Y-70537619D02*
X51397023Y-70490000D01*
X51397023Y-70490000D02*
X51444642Y-70442380D01*
%TO.C,D14*%
X70726785Y-161862619D02*
X70726785Y-160862619D01*
X70726785Y-160862619D02*
X70488690Y-160862619D01*
X70488690Y-160862619D02*
X70345833Y-160910238D01*
X70345833Y-160910238D02*
X70250595Y-161005476D01*
X70250595Y-161005476D02*
X70202976Y-161100714D01*
X70202976Y-161100714D02*
X70155357Y-161291190D01*
X70155357Y-161291190D02*
X70155357Y-161434047D01*
X70155357Y-161434047D02*
X70202976Y-161624523D01*
X70202976Y-161624523D02*
X70250595Y-161719761D01*
X70250595Y-161719761D02*
X70345833Y-161815000D01*
X70345833Y-161815000D02*
X70488690Y-161862619D01*
X70488690Y-161862619D02*
X70726785Y-161862619D01*
X69202976Y-161862619D02*
X69774404Y-161862619D01*
X69488690Y-161862619D02*
X69488690Y-160862619D01*
X69488690Y-160862619D02*
X69583928Y-161005476D01*
X69583928Y-161005476D02*
X69679166Y-161100714D01*
X69679166Y-161100714D02*
X69774404Y-161148333D01*
X68345833Y-161195952D02*
X68345833Y-161862619D01*
X68583928Y-160815000D02*
X68822023Y-161529285D01*
X68822023Y-161529285D02*
X68202976Y-161529285D01*
%TO.C,D21*%
X71798214Y-152537380D02*
X71798214Y-153537380D01*
X71798214Y-153537380D02*
X72036309Y-153537380D01*
X72036309Y-153537380D02*
X72179166Y-153489761D01*
X72179166Y-153489761D02*
X72274404Y-153394523D01*
X72274404Y-153394523D02*
X72322023Y-153299285D01*
X72322023Y-153299285D02*
X72369642Y-153108809D01*
X72369642Y-153108809D02*
X72369642Y-152965952D01*
X72369642Y-152965952D02*
X72322023Y-152775476D01*
X72322023Y-152775476D02*
X72274404Y-152680238D01*
X72274404Y-152680238D02*
X72179166Y-152585000D01*
X72179166Y-152585000D02*
X72036309Y-152537380D01*
X72036309Y-152537380D02*
X71798214Y-152537380D01*
X72750595Y-153442142D02*
X72798214Y-153489761D01*
X72798214Y-153489761D02*
X72893452Y-153537380D01*
X72893452Y-153537380D02*
X73131547Y-153537380D01*
X73131547Y-153537380D02*
X73226785Y-153489761D01*
X73226785Y-153489761D02*
X73274404Y-153442142D01*
X73274404Y-153442142D02*
X73322023Y-153346904D01*
X73322023Y-153346904D02*
X73322023Y-153251666D01*
X73322023Y-153251666D02*
X73274404Y-153108809D01*
X73274404Y-153108809D02*
X72702976Y-152537380D01*
X72702976Y-152537380D02*
X73322023Y-152537380D01*
X74274404Y-152537380D02*
X73702976Y-152537380D01*
X73988690Y-152537380D02*
X73988690Y-153537380D01*
X73988690Y-153537380D02*
X73893452Y-153394523D01*
X73893452Y-153394523D02*
X73798214Y-153299285D01*
X73798214Y-153299285D02*
X73702976Y-153251666D01*
%TO.C,C66*%
X52755357Y-77242380D02*
X52802976Y-77290000D01*
X52802976Y-77290000D02*
X52945833Y-77337619D01*
X52945833Y-77337619D02*
X53041071Y-77337619D01*
X53041071Y-77337619D02*
X53183928Y-77290000D01*
X53183928Y-77290000D02*
X53279166Y-77194761D01*
X53279166Y-77194761D02*
X53326785Y-77099523D01*
X53326785Y-77099523D02*
X53374404Y-76909047D01*
X53374404Y-76909047D02*
X53374404Y-76766190D01*
X53374404Y-76766190D02*
X53326785Y-76575714D01*
X53326785Y-76575714D02*
X53279166Y-76480476D01*
X53279166Y-76480476D02*
X53183928Y-76385238D01*
X53183928Y-76385238D02*
X53041071Y-76337619D01*
X53041071Y-76337619D02*
X52945833Y-76337619D01*
X52945833Y-76337619D02*
X52802976Y-76385238D01*
X52802976Y-76385238D02*
X52755357Y-76432857D01*
X51898214Y-76337619D02*
X52088690Y-76337619D01*
X52088690Y-76337619D02*
X52183928Y-76385238D01*
X52183928Y-76385238D02*
X52231547Y-76432857D01*
X52231547Y-76432857D02*
X52326785Y-76575714D01*
X52326785Y-76575714D02*
X52374404Y-76766190D01*
X52374404Y-76766190D02*
X52374404Y-77147142D01*
X52374404Y-77147142D02*
X52326785Y-77242380D01*
X52326785Y-77242380D02*
X52279166Y-77290000D01*
X52279166Y-77290000D02*
X52183928Y-77337619D01*
X52183928Y-77337619D02*
X51993452Y-77337619D01*
X51993452Y-77337619D02*
X51898214Y-77290000D01*
X51898214Y-77290000D02*
X51850595Y-77242380D01*
X51850595Y-77242380D02*
X51802976Y-77147142D01*
X51802976Y-77147142D02*
X51802976Y-76909047D01*
X51802976Y-76909047D02*
X51850595Y-76813809D01*
X51850595Y-76813809D02*
X51898214Y-76766190D01*
X51898214Y-76766190D02*
X51993452Y-76718571D01*
X51993452Y-76718571D02*
X52183928Y-76718571D01*
X52183928Y-76718571D02*
X52279166Y-76766190D01*
X52279166Y-76766190D02*
X52326785Y-76813809D01*
X52326785Y-76813809D02*
X52374404Y-76909047D01*
X50945833Y-76337619D02*
X51136309Y-76337619D01*
X51136309Y-76337619D02*
X51231547Y-76385238D01*
X51231547Y-76385238D02*
X51279166Y-76432857D01*
X51279166Y-76432857D02*
X51374404Y-76575714D01*
X51374404Y-76575714D02*
X51422023Y-76766190D01*
X51422023Y-76766190D02*
X51422023Y-77147142D01*
X51422023Y-77147142D02*
X51374404Y-77242380D01*
X51374404Y-77242380D02*
X51326785Y-77290000D01*
X51326785Y-77290000D02*
X51231547Y-77337619D01*
X51231547Y-77337619D02*
X51041071Y-77337619D01*
X51041071Y-77337619D02*
X50945833Y-77290000D01*
X50945833Y-77290000D02*
X50898214Y-77242380D01*
X50898214Y-77242380D02*
X50850595Y-77147142D01*
X50850595Y-77147142D02*
X50850595Y-76909047D01*
X50850595Y-76909047D02*
X50898214Y-76813809D01*
X50898214Y-76813809D02*
X50945833Y-76766190D01*
X50945833Y-76766190D02*
X51041071Y-76718571D01*
X51041071Y-76718571D02*
X51231547Y-76718571D01*
X51231547Y-76718571D02*
X51326785Y-76766190D01*
X51326785Y-76766190D02*
X51374404Y-76813809D01*
X51374404Y-76813809D02*
X51422023Y-76909047D01*
%TO.C,TP4*%
X102923119Y-48938095D02*
X102923119Y-49509523D01*
X103923119Y-49223809D02*
X102923119Y-49223809D01*
X103923119Y-49842857D02*
X102923119Y-49842857D01*
X102923119Y-49842857D02*
X102923119Y-50223809D01*
X102923119Y-50223809D02*
X102970738Y-50319047D01*
X102970738Y-50319047D02*
X103018357Y-50366666D01*
X103018357Y-50366666D02*
X103113595Y-50414285D01*
X103113595Y-50414285D02*
X103256452Y-50414285D01*
X103256452Y-50414285D02*
X103351690Y-50366666D01*
X103351690Y-50366666D02*
X103399309Y-50319047D01*
X103399309Y-50319047D02*
X103446928Y-50223809D01*
X103446928Y-50223809D02*
X103446928Y-49842857D01*
X103256452Y-51271428D02*
X103923119Y-51271428D01*
X102875500Y-51033333D02*
X103589785Y-50795238D01*
X103589785Y-50795238D02*
X103589785Y-51414285D01*
%TO.C,JP11*%
X94622023Y-53362619D02*
X94622023Y-54076904D01*
X94622023Y-54076904D02*
X94669642Y-54219761D01*
X94669642Y-54219761D02*
X94764880Y-54315000D01*
X94764880Y-54315000D02*
X94907737Y-54362619D01*
X94907737Y-54362619D02*
X95002975Y-54362619D01*
X94145832Y-54362619D02*
X94145832Y-53362619D01*
X94145832Y-53362619D02*
X93764880Y-53362619D01*
X93764880Y-53362619D02*
X93669642Y-53410238D01*
X93669642Y-53410238D02*
X93622023Y-53457857D01*
X93622023Y-53457857D02*
X93574404Y-53553095D01*
X93574404Y-53553095D02*
X93574404Y-53695952D01*
X93574404Y-53695952D02*
X93622023Y-53791190D01*
X93622023Y-53791190D02*
X93669642Y-53838809D01*
X93669642Y-53838809D02*
X93764880Y-53886428D01*
X93764880Y-53886428D02*
X94145832Y-53886428D01*
X92622023Y-54362619D02*
X93193451Y-54362619D01*
X92907737Y-54362619D02*
X92907737Y-53362619D01*
X92907737Y-53362619D02*
X93002975Y-53505476D01*
X93002975Y-53505476D02*
X93098213Y-53600714D01*
X93098213Y-53600714D02*
X93193451Y-53648333D01*
X91669642Y-54362619D02*
X92241070Y-54362619D01*
X91955356Y-54362619D02*
X91955356Y-53362619D01*
X91955356Y-53362619D02*
X92050594Y-53505476D01*
X92050594Y-53505476D02*
X92145832Y-53600714D01*
X92145832Y-53600714D02*
X92241070Y-53648333D01*
X95845832Y-53362619D02*
X95226785Y-53362619D01*
X95226785Y-53362619D02*
X95560118Y-53743571D01*
X95560118Y-53743571D02*
X95417261Y-53743571D01*
X95417261Y-53743571D02*
X95322023Y-53791190D01*
X95322023Y-53791190D02*
X95274404Y-53838809D01*
X95274404Y-53838809D02*
X95226785Y-53934047D01*
X95226785Y-53934047D02*
X95226785Y-54172142D01*
X95226785Y-54172142D02*
X95274404Y-54267380D01*
X95274404Y-54267380D02*
X95322023Y-54315000D01*
X95322023Y-54315000D02*
X95417261Y-54362619D01*
X95417261Y-54362619D02*
X95702975Y-54362619D01*
X95702975Y-54362619D02*
X95798213Y-54315000D01*
X95798213Y-54315000D02*
X95845832Y-54267380D01*
X100426785Y-54362619D02*
X100998213Y-54362619D01*
X100712499Y-54362619D02*
X100712499Y-53362619D01*
X100712499Y-53362619D02*
X100807737Y-53505476D01*
X100807737Y-53505476D02*
X100902975Y-53600714D01*
X100902975Y-53600714D02*
X100998213Y-53648333D01*
%TO.C,TP5*%
X104423119Y-135938095D02*
X104423119Y-136509523D01*
X105423119Y-136223809D02*
X104423119Y-136223809D01*
X105423119Y-136842857D02*
X104423119Y-136842857D01*
X104423119Y-136842857D02*
X104423119Y-137223809D01*
X104423119Y-137223809D02*
X104470738Y-137319047D01*
X104470738Y-137319047D02*
X104518357Y-137366666D01*
X104518357Y-137366666D02*
X104613595Y-137414285D01*
X104613595Y-137414285D02*
X104756452Y-137414285D01*
X104756452Y-137414285D02*
X104851690Y-137366666D01*
X104851690Y-137366666D02*
X104899309Y-137319047D01*
X104899309Y-137319047D02*
X104946928Y-137223809D01*
X104946928Y-137223809D02*
X104946928Y-136842857D01*
X104423119Y-138319047D02*
X104423119Y-137842857D01*
X104423119Y-137842857D02*
X104899309Y-137795238D01*
X104899309Y-137795238D02*
X104851690Y-137842857D01*
X104851690Y-137842857D02*
X104804071Y-137938095D01*
X104804071Y-137938095D02*
X104804071Y-138176190D01*
X104804071Y-138176190D02*
X104851690Y-138271428D01*
X104851690Y-138271428D02*
X104899309Y-138319047D01*
X104899309Y-138319047D02*
X104994547Y-138366666D01*
X104994547Y-138366666D02*
X105232642Y-138366666D01*
X105232642Y-138366666D02*
X105327880Y-138319047D01*
X105327880Y-138319047D02*
X105375500Y-138271428D01*
X105375500Y-138271428D02*
X105423119Y-138176190D01*
X105423119Y-138176190D02*
X105423119Y-137938095D01*
X105423119Y-137938095D02*
X105375500Y-137842857D01*
X105375500Y-137842857D02*
X105327880Y-137795238D01*
%TO.C,JP8*%
X77445833Y-75237619D02*
X77445833Y-75951904D01*
X77445833Y-75951904D02*
X77493452Y-76094761D01*
X77493452Y-76094761D02*
X77588690Y-76190000D01*
X77588690Y-76190000D02*
X77731547Y-76237619D01*
X77731547Y-76237619D02*
X77826785Y-76237619D01*
X76969642Y-76237619D02*
X76969642Y-75237619D01*
X76969642Y-75237619D02*
X76588690Y-75237619D01*
X76588690Y-75237619D02*
X76493452Y-75285238D01*
X76493452Y-75285238D02*
X76445833Y-75332857D01*
X76445833Y-75332857D02*
X76398214Y-75428095D01*
X76398214Y-75428095D02*
X76398214Y-75570952D01*
X76398214Y-75570952D02*
X76445833Y-75666190D01*
X76445833Y-75666190D02*
X76493452Y-75713809D01*
X76493452Y-75713809D02*
X76588690Y-75761428D01*
X76588690Y-75761428D02*
X76969642Y-75761428D01*
X75826785Y-75666190D02*
X75922023Y-75618571D01*
X75922023Y-75618571D02*
X75969642Y-75570952D01*
X75969642Y-75570952D02*
X76017261Y-75475714D01*
X76017261Y-75475714D02*
X76017261Y-75428095D01*
X76017261Y-75428095D02*
X75969642Y-75332857D01*
X75969642Y-75332857D02*
X75922023Y-75285238D01*
X75922023Y-75285238D02*
X75826785Y-75237619D01*
X75826785Y-75237619D02*
X75636309Y-75237619D01*
X75636309Y-75237619D02*
X75541071Y-75285238D01*
X75541071Y-75285238D02*
X75493452Y-75332857D01*
X75493452Y-75332857D02*
X75445833Y-75428095D01*
X75445833Y-75428095D02*
X75445833Y-75475714D01*
X75445833Y-75475714D02*
X75493452Y-75570952D01*
X75493452Y-75570952D02*
X75541071Y-75618571D01*
X75541071Y-75618571D02*
X75636309Y-75666190D01*
X75636309Y-75666190D02*
X75826785Y-75666190D01*
X75826785Y-75666190D02*
X75922023Y-75713809D01*
X75922023Y-75713809D02*
X75969642Y-75761428D01*
X75969642Y-75761428D02*
X76017261Y-75856666D01*
X76017261Y-75856666D02*
X76017261Y-76047142D01*
X76017261Y-76047142D02*
X75969642Y-76142380D01*
X75969642Y-76142380D02*
X75922023Y-76190000D01*
X75922023Y-76190000D02*
X75826785Y-76237619D01*
X75826785Y-76237619D02*
X75636309Y-76237619D01*
X75636309Y-76237619D02*
X75541071Y-76190000D01*
X75541071Y-76190000D02*
X75493452Y-76142380D01*
X75493452Y-76142380D02*
X75445833Y-76047142D01*
X75445833Y-76047142D02*
X75445833Y-75856666D01*
X75445833Y-75856666D02*
X75493452Y-75761428D01*
X75493452Y-75761428D02*
X75541071Y-75713809D01*
X75541071Y-75713809D02*
X75636309Y-75666190D01*
X69945832Y-75237619D02*
X69326785Y-75237619D01*
X69326785Y-75237619D02*
X69660118Y-75618571D01*
X69660118Y-75618571D02*
X69517261Y-75618571D01*
X69517261Y-75618571D02*
X69422023Y-75666190D01*
X69422023Y-75666190D02*
X69374404Y-75713809D01*
X69374404Y-75713809D02*
X69326785Y-75809047D01*
X69326785Y-75809047D02*
X69326785Y-76047142D01*
X69326785Y-76047142D02*
X69374404Y-76142380D01*
X69374404Y-76142380D02*
X69422023Y-76190000D01*
X69422023Y-76190000D02*
X69517261Y-76237619D01*
X69517261Y-76237619D02*
X69802975Y-76237619D01*
X69802975Y-76237619D02*
X69898213Y-76190000D01*
X69898213Y-76190000D02*
X69945832Y-76142380D01*
X74526785Y-76237619D02*
X75098213Y-76237619D01*
X74812499Y-76237619D02*
X74812499Y-75237619D01*
X74812499Y-75237619D02*
X74907737Y-75380476D01*
X74907737Y-75380476D02*
X75002975Y-75475714D01*
X75002975Y-75475714D02*
X75098213Y-75523333D01*
%TO.C,C68*%
X63879880Y-84032142D02*
X63927500Y-83984523D01*
X63927500Y-83984523D02*
X63975119Y-83841666D01*
X63975119Y-83841666D02*
X63975119Y-83746428D01*
X63975119Y-83746428D02*
X63927500Y-83603571D01*
X63927500Y-83603571D02*
X63832261Y-83508333D01*
X63832261Y-83508333D02*
X63737023Y-83460714D01*
X63737023Y-83460714D02*
X63546547Y-83413095D01*
X63546547Y-83413095D02*
X63403690Y-83413095D01*
X63403690Y-83413095D02*
X63213214Y-83460714D01*
X63213214Y-83460714D02*
X63117976Y-83508333D01*
X63117976Y-83508333D02*
X63022738Y-83603571D01*
X63022738Y-83603571D02*
X62975119Y-83746428D01*
X62975119Y-83746428D02*
X62975119Y-83841666D01*
X62975119Y-83841666D02*
X63022738Y-83984523D01*
X63022738Y-83984523D02*
X63070357Y-84032142D01*
X62975119Y-84889285D02*
X62975119Y-84698809D01*
X62975119Y-84698809D02*
X63022738Y-84603571D01*
X63022738Y-84603571D02*
X63070357Y-84555952D01*
X63070357Y-84555952D02*
X63213214Y-84460714D01*
X63213214Y-84460714D02*
X63403690Y-84413095D01*
X63403690Y-84413095D02*
X63784642Y-84413095D01*
X63784642Y-84413095D02*
X63879880Y-84460714D01*
X63879880Y-84460714D02*
X63927500Y-84508333D01*
X63927500Y-84508333D02*
X63975119Y-84603571D01*
X63975119Y-84603571D02*
X63975119Y-84794047D01*
X63975119Y-84794047D02*
X63927500Y-84889285D01*
X63927500Y-84889285D02*
X63879880Y-84936904D01*
X63879880Y-84936904D02*
X63784642Y-84984523D01*
X63784642Y-84984523D02*
X63546547Y-84984523D01*
X63546547Y-84984523D02*
X63451309Y-84936904D01*
X63451309Y-84936904D02*
X63403690Y-84889285D01*
X63403690Y-84889285D02*
X63356071Y-84794047D01*
X63356071Y-84794047D02*
X63356071Y-84603571D01*
X63356071Y-84603571D02*
X63403690Y-84508333D01*
X63403690Y-84508333D02*
X63451309Y-84460714D01*
X63451309Y-84460714D02*
X63546547Y-84413095D01*
X63403690Y-85555952D02*
X63356071Y-85460714D01*
X63356071Y-85460714D02*
X63308452Y-85413095D01*
X63308452Y-85413095D02*
X63213214Y-85365476D01*
X63213214Y-85365476D02*
X63165595Y-85365476D01*
X63165595Y-85365476D02*
X63070357Y-85413095D01*
X63070357Y-85413095D02*
X63022738Y-85460714D01*
X63022738Y-85460714D02*
X62975119Y-85555952D01*
X62975119Y-85555952D02*
X62975119Y-85746428D01*
X62975119Y-85746428D02*
X63022738Y-85841666D01*
X63022738Y-85841666D02*
X63070357Y-85889285D01*
X63070357Y-85889285D02*
X63165595Y-85936904D01*
X63165595Y-85936904D02*
X63213214Y-85936904D01*
X63213214Y-85936904D02*
X63308452Y-85889285D01*
X63308452Y-85889285D02*
X63356071Y-85841666D01*
X63356071Y-85841666D02*
X63403690Y-85746428D01*
X63403690Y-85746428D02*
X63403690Y-85555952D01*
X63403690Y-85555952D02*
X63451309Y-85460714D01*
X63451309Y-85460714D02*
X63498928Y-85413095D01*
X63498928Y-85413095D02*
X63594166Y-85365476D01*
X63594166Y-85365476D02*
X63784642Y-85365476D01*
X63784642Y-85365476D02*
X63879880Y-85413095D01*
X63879880Y-85413095D02*
X63927500Y-85460714D01*
X63927500Y-85460714D02*
X63975119Y-85555952D01*
X63975119Y-85555952D02*
X63975119Y-85746428D01*
X63975119Y-85746428D02*
X63927500Y-85841666D01*
X63927500Y-85841666D02*
X63879880Y-85889285D01*
X63879880Y-85889285D02*
X63784642Y-85936904D01*
X63784642Y-85936904D02*
X63594166Y-85936904D01*
X63594166Y-85936904D02*
X63498928Y-85889285D01*
X63498928Y-85889285D02*
X63451309Y-85841666D01*
X63451309Y-85841666D02*
X63403690Y-85746428D01*
%TO.C,C70*%
X52755357Y-83642380D02*
X52802976Y-83690000D01*
X52802976Y-83690000D02*
X52945833Y-83737619D01*
X52945833Y-83737619D02*
X53041071Y-83737619D01*
X53041071Y-83737619D02*
X53183928Y-83690000D01*
X53183928Y-83690000D02*
X53279166Y-83594761D01*
X53279166Y-83594761D02*
X53326785Y-83499523D01*
X53326785Y-83499523D02*
X53374404Y-83309047D01*
X53374404Y-83309047D02*
X53374404Y-83166190D01*
X53374404Y-83166190D02*
X53326785Y-82975714D01*
X53326785Y-82975714D02*
X53279166Y-82880476D01*
X53279166Y-82880476D02*
X53183928Y-82785238D01*
X53183928Y-82785238D02*
X53041071Y-82737619D01*
X53041071Y-82737619D02*
X52945833Y-82737619D01*
X52945833Y-82737619D02*
X52802976Y-82785238D01*
X52802976Y-82785238D02*
X52755357Y-82832857D01*
X52422023Y-82737619D02*
X51755357Y-82737619D01*
X51755357Y-82737619D02*
X52183928Y-83737619D01*
X51183928Y-82737619D02*
X51088690Y-82737619D01*
X51088690Y-82737619D02*
X50993452Y-82785238D01*
X50993452Y-82785238D02*
X50945833Y-82832857D01*
X50945833Y-82832857D02*
X50898214Y-82928095D01*
X50898214Y-82928095D02*
X50850595Y-83118571D01*
X50850595Y-83118571D02*
X50850595Y-83356666D01*
X50850595Y-83356666D02*
X50898214Y-83547142D01*
X50898214Y-83547142D02*
X50945833Y-83642380D01*
X50945833Y-83642380D02*
X50993452Y-83690000D01*
X50993452Y-83690000D02*
X51088690Y-83737619D01*
X51088690Y-83737619D02*
X51183928Y-83737619D01*
X51183928Y-83737619D02*
X51279166Y-83690000D01*
X51279166Y-83690000D02*
X51326785Y-83642380D01*
X51326785Y-83642380D02*
X51374404Y-83547142D01*
X51374404Y-83547142D02*
X51422023Y-83356666D01*
X51422023Y-83356666D02*
X51422023Y-83118571D01*
X51422023Y-83118571D02*
X51374404Y-82928095D01*
X51374404Y-82928095D02*
X51326785Y-82832857D01*
X51326785Y-82832857D02*
X51279166Y-82785238D01*
X51279166Y-82785238D02*
X51183928Y-82737619D01*
%TO.C,C67*%
X68655357Y-76642380D02*
X68702976Y-76690000D01*
X68702976Y-76690000D02*
X68845833Y-76737619D01*
X68845833Y-76737619D02*
X68941071Y-76737619D01*
X68941071Y-76737619D02*
X69083928Y-76690000D01*
X69083928Y-76690000D02*
X69179166Y-76594761D01*
X69179166Y-76594761D02*
X69226785Y-76499523D01*
X69226785Y-76499523D02*
X69274404Y-76309047D01*
X69274404Y-76309047D02*
X69274404Y-76166190D01*
X69274404Y-76166190D02*
X69226785Y-75975714D01*
X69226785Y-75975714D02*
X69179166Y-75880476D01*
X69179166Y-75880476D02*
X69083928Y-75785238D01*
X69083928Y-75785238D02*
X68941071Y-75737619D01*
X68941071Y-75737619D02*
X68845833Y-75737619D01*
X68845833Y-75737619D02*
X68702976Y-75785238D01*
X68702976Y-75785238D02*
X68655357Y-75832857D01*
X67798214Y-75737619D02*
X67988690Y-75737619D01*
X67988690Y-75737619D02*
X68083928Y-75785238D01*
X68083928Y-75785238D02*
X68131547Y-75832857D01*
X68131547Y-75832857D02*
X68226785Y-75975714D01*
X68226785Y-75975714D02*
X68274404Y-76166190D01*
X68274404Y-76166190D02*
X68274404Y-76547142D01*
X68274404Y-76547142D02*
X68226785Y-76642380D01*
X68226785Y-76642380D02*
X68179166Y-76690000D01*
X68179166Y-76690000D02*
X68083928Y-76737619D01*
X68083928Y-76737619D02*
X67893452Y-76737619D01*
X67893452Y-76737619D02*
X67798214Y-76690000D01*
X67798214Y-76690000D02*
X67750595Y-76642380D01*
X67750595Y-76642380D02*
X67702976Y-76547142D01*
X67702976Y-76547142D02*
X67702976Y-76309047D01*
X67702976Y-76309047D02*
X67750595Y-76213809D01*
X67750595Y-76213809D02*
X67798214Y-76166190D01*
X67798214Y-76166190D02*
X67893452Y-76118571D01*
X67893452Y-76118571D02*
X68083928Y-76118571D01*
X68083928Y-76118571D02*
X68179166Y-76166190D01*
X68179166Y-76166190D02*
X68226785Y-76213809D01*
X68226785Y-76213809D02*
X68274404Y-76309047D01*
X67369642Y-75737619D02*
X66702976Y-75737619D01*
X66702976Y-75737619D02*
X67131547Y-76737619D01*
%TO.C,C64*%
X49455357Y-75542380D02*
X49502976Y-75590000D01*
X49502976Y-75590000D02*
X49645833Y-75637619D01*
X49645833Y-75637619D02*
X49741071Y-75637619D01*
X49741071Y-75637619D02*
X49883928Y-75590000D01*
X49883928Y-75590000D02*
X49979166Y-75494761D01*
X49979166Y-75494761D02*
X50026785Y-75399523D01*
X50026785Y-75399523D02*
X50074404Y-75209047D01*
X50074404Y-75209047D02*
X50074404Y-75066190D01*
X50074404Y-75066190D02*
X50026785Y-74875714D01*
X50026785Y-74875714D02*
X49979166Y-74780476D01*
X49979166Y-74780476D02*
X49883928Y-74685238D01*
X49883928Y-74685238D02*
X49741071Y-74637619D01*
X49741071Y-74637619D02*
X49645833Y-74637619D01*
X49645833Y-74637619D02*
X49502976Y-74685238D01*
X49502976Y-74685238D02*
X49455357Y-74732857D01*
X48598214Y-74637619D02*
X48788690Y-74637619D01*
X48788690Y-74637619D02*
X48883928Y-74685238D01*
X48883928Y-74685238D02*
X48931547Y-74732857D01*
X48931547Y-74732857D02*
X49026785Y-74875714D01*
X49026785Y-74875714D02*
X49074404Y-75066190D01*
X49074404Y-75066190D02*
X49074404Y-75447142D01*
X49074404Y-75447142D02*
X49026785Y-75542380D01*
X49026785Y-75542380D02*
X48979166Y-75590000D01*
X48979166Y-75590000D02*
X48883928Y-75637619D01*
X48883928Y-75637619D02*
X48693452Y-75637619D01*
X48693452Y-75637619D02*
X48598214Y-75590000D01*
X48598214Y-75590000D02*
X48550595Y-75542380D01*
X48550595Y-75542380D02*
X48502976Y-75447142D01*
X48502976Y-75447142D02*
X48502976Y-75209047D01*
X48502976Y-75209047D02*
X48550595Y-75113809D01*
X48550595Y-75113809D02*
X48598214Y-75066190D01*
X48598214Y-75066190D02*
X48693452Y-75018571D01*
X48693452Y-75018571D02*
X48883928Y-75018571D01*
X48883928Y-75018571D02*
X48979166Y-75066190D01*
X48979166Y-75066190D02*
X49026785Y-75113809D01*
X49026785Y-75113809D02*
X49074404Y-75209047D01*
X47645833Y-74970952D02*
X47645833Y-75637619D01*
X47883928Y-74590000D02*
X48122023Y-75304285D01*
X48122023Y-75304285D02*
X47502976Y-75304285D01*
%TO.C,TP1*%
X48527119Y-84313095D02*
X48527119Y-84884523D01*
X49527119Y-84598809D02*
X48527119Y-84598809D01*
X49527119Y-85217857D02*
X48527119Y-85217857D01*
X48527119Y-85217857D02*
X48527119Y-85598809D01*
X48527119Y-85598809D02*
X48574738Y-85694047D01*
X48574738Y-85694047D02*
X48622357Y-85741666D01*
X48622357Y-85741666D02*
X48717595Y-85789285D01*
X48717595Y-85789285D02*
X48860452Y-85789285D01*
X48860452Y-85789285D02*
X48955690Y-85741666D01*
X48955690Y-85741666D02*
X49003309Y-85694047D01*
X49003309Y-85694047D02*
X49050928Y-85598809D01*
X49050928Y-85598809D02*
X49050928Y-85217857D01*
X49527119Y-86741666D02*
X49527119Y-86170238D01*
X49527119Y-86455952D02*
X48527119Y-86455952D01*
X48527119Y-86455952D02*
X48669976Y-86360714D01*
X48669976Y-86360714D02*
X48765214Y-86265476D01*
X48765214Y-86265476D02*
X48812833Y-86170238D01*
%TO.C,JP10*%
X94622023Y-48412619D02*
X94622023Y-49126904D01*
X94622023Y-49126904D02*
X94669642Y-49269761D01*
X94669642Y-49269761D02*
X94764880Y-49365000D01*
X94764880Y-49365000D02*
X94907737Y-49412619D01*
X94907737Y-49412619D02*
X95002975Y-49412619D01*
X94145832Y-49412619D02*
X94145832Y-48412619D01*
X94145832Y-48412619D02*
X93764880Y-48412619D01*
X93764880Y-48412619D02*
X93669642Y-48460238D01*
X93669642Y-48460238D02*
X93622023Y-48507857D01*
X93622023Y-48507857D02*
X93574404Y-48603095D01*
X93574404Y-48603095D02*
X93574404Y-48745952D01*
X93574404Y-48745952D02*
X93622023Y-48841190D01*
X93622023Y-48841190D02*
X93669642Y-48888809D01*
X93669642Y-48888809D02*
X93764880Y-48936428D01*
X93764880Y-48936428D02*
X94145832Y-48936428D01*
X92622023Y-49412619D02*
X93193451Y-49412619D01*
X92907737Y-49412619D02*
X92907737Y-48412619D01*
X92907737Y-48412619D02*
X93002975Y-48555476D01*
X93002975Y-48555476D02*
X93098213Y-48650714D01*
X93098213Y-48650714D02*
X93193451Y-48698333D01*
X92002975Y-48412619D02*
X91907737Y-48412619D01*
X91907737Y-48412619D02*
X91812499Y-48460238D01*
X91812499Y-48460238D02*
X91764880Y-48507857D01*
X91764880Y-48507857D02*
X91717261Y-48603095D01*
X91717261Y-48603095D02*
X91669642Y-48793571D01*
X91669642Y-48793571D02*
X91669642Y-49031666D01*
X91669642Y-49031666D02*
X91717261Y-49222142D01*
X91717261Y-49222142D02*
X91764880Y-49317380D01*
X91764880Y-49317380D02*
X91812499Y-49365000D01*
X91812499Y-49365000D02*
X91907737Y-49412619D01*
X91907737Y-49412619D02*
X92002975Y-49412619D01*
X92002975Y-49412619D02*
X92098213Y-49365000D01*
X92098213Y-49365000D02*
X92145832Y-49317380D01*
X92145832Y-49317380D02*
X92193451Y-49222142D01*
X92193451Y-49222142D02*
X92241070Y-49031666D01*
X92241070Y-49031666D02*
X92241070Y-48793571D01*
X92241070Y-48793571D02*
X92193451Y-48603095D01*
X92193451Y-48603095D02*
X92145832Y-48507857D01*
X92145832Y-48507857D02*
X92098213Y-48460238D01*
X92098213Y-48460238D02*
X92002975Y-48412619D01*
X95845832Y-48362619D02*
X95226785Y-48362619D01*
X95226785Y-48362619D02*
X95560118Y-48743571D01*
X95560118Y-48743571D02*
X95417261Y-48743571D01*
X95417261Y-48743571D02*
X95322023Y-48791190D01*
X95322023Y-48791190D02*
X95274404Y-48838809D01*
X95274404Y-48838809D02*
X95226785Y-48934047D01*
X95226785Y-48934047D02*
X95226785Y-49172142D01*
X95226785Y-49172142D02*
X95274404Y-49267380D01*
X95274404Y-49267380D02*
X95322023Y-49315000D01*
X95322023Y-49315000D02*
X95417261Y-49362619D01*
X95417261Y-49362619D02*
X95702975Y-49362619D01*
X95702975Y-49362619D02*
X95798213Y-49315000D01*
X95798213Y-49315000D02*
X95845832Y-49267380D01*
X100426785Y-49362619D02*
X100998213Y-49362619D01*
X100712499Y-49362619D02*
X100712499Y-48362619D01*
X100712499Y-48362619D02*
X100807737Y-48505476D01*
X100807737Y-48505476D02*
X100902975Y-48600714D01*
X100902975Y-48600714D02*
X100998213Y-48648333D01*
%TO.C,D20*%
X91122085Y-44562493D02*
X91122085Y-43562493D01*
X91122085Y-43562493D02*
X90883990Y-43562493D01*
X90883990Y-43562493D02*
X90741133Y-43610112D01*
X90741133Y-43610112D02*
X90645895Y-43705350D01*
X90645895Y-43705350D02*
X90598276Y-43800588D01*
X90598276Y-43800588D02*
X90550657Y-43991064D01*
X90550657Y-43991064D02*
X90550657Y-44133921D01*
X90550657Y-44133921D02*
X90598276Y-44324397D01*
X90598276Y-44324397D02*
X90645895Y-44419635D01*
X90645895Y-44419635D02*
X90741133Y-44514874D01*
X90741133Y-44514874D02*
X90883990Y-44562493D01*
X90883990Y-44562493D02*
X91122085Y-44562493D01*
X90169704Y-43657731D02*
X90122085Y-43610112D01*
X90122085Y-43610112D02*
X90026847Y-43562493D01*
X90026847Y-43562493D02*
X89788752Y-43562493D01*
X89788752Y-43562493D02*
X89693514Y-43610112D01*
X89693514Y-43610112D02*
X89645895Y-43657731D01*
X89645895Y-43657731D02*
X89598276Y-43752969D01*
X89598276Y-43752969D02*
X89598276Y-43848207D01*
X89598276Y-43848207D02*
X89645895Y-43991064D01*
X89645895Y-43991064D02*
X90217323Y-44562493D01*
X90217323Y-44562493D02*
X89598276Y-44562493D01*
X88979228Y-43562493D02*
X88883990Y-43562493D01*
X88883990Y-43562493D02*
X88788752Y-43610112D01*
X88788752Y-43610112D02*
X88741133Y-43657731D01*
X88741133Y-43657731D02*
X88693514Y-43752969D01*
X88693514Y-43752969D02*
X88645895Y-43943445D01*
X88645895Y-43943445D02*
X88645895Y-44181540D01*
X88645895Y-44181540D02*
X88693514Y-44372016D01*
X88693514Y-44372016D02*
X88741133Y-44467254D01*
X88741133Y-44467254D02*
X88788752Y-44514874D01*
X88788752Y-44514874D02*
X88883990Y-44562493D01*
X88883990Y-44562493D02*
X88979228Y-44562493D01*
X88979228Y-44562493D02*
X89074466Y-44514874D01*
X89074466Y-44514874D02*
X89122085Y-44467254D01*
X89122085Y-44467254D02*
X89169704Y-44372016D01*
X89169704Y-44372016D02*
X89217323Y-44181540D01*
X89217323Y-44181540D02*
X89217323Y-43943445D01*
X89217323Y-43943445D02*
X89169704Y-43752969D01*
X89169704Y-43752969D02*
X89122085Y-43657731D01*
X89122085Y-43657731D02*
X89074466Y-43610112D01*
X89074466Y-43610112D02*
X88979228Y-43562493D01*
%TO.C,C65*%
X59879880Y-74332142D02*
X59927500Y-74284523D01*
X59927500Y-74284523D02*
X59975119Y-74141666D01*
X59975119Y-74141666D02*
X59975119Y-74046428D01*
X59975119Y-74046428D02*
X59927500Y-73903571D01*
X59927500Y-73903571D02*
X59832261Y-73808333D01*
X59832261Y-73808333D02*
X59737023Y-73760714D01*
X59737023Y-73760714D02*
X59546547Y-73713095D01*
X59546547Y-73713095D02*
X59403690Y-73713095D01*
X59403690Y-73713095D02*
X59213214Y-73760714D01*
X59213214Y-73760714D02*
X59117976Y-73808333D01*
X59117976Y-73808333D02*
X59022738Y-73903571D01*
X59022738Y-73903571D02*
X58975119Y-74046428D01*
X58975119Y-74046428D02*
X58975119Y-74141666D01*
X58975119Y-74141666D02*
X59022738Y-74284523D01*
X59022738Y-74284523D02*
X59070357Y-74332142D01*
X58975119Y-75189285D02*
X58975119Y-74998809D01*
X58975119Y-74998809D02*
X59022738Y-74903571D01*
X59022738Y-74903571D02*
X59070357Y-74855952D01*
X59070357Y-74855952D02*
X59213214Y-74760714D01*
X59213214Y-74760714D02*
X59403690Y-74713095D01*
X59403690Y-74713095D02*
X59784642Y-74713095D01*
X59784642Y-74713095D02*
X59879880Y-74760714D01*
X59879880Y-74760714D02*
X59927500Y-74808333D01*
X59927500Y-74808333D02*
X59975119Y-74903571D01*
X59975119Y-74903571D02*
X59975119Y-75094047D01*
X59975119Y-75094047D02*
X59927500Y-75189285D01*
X59927500Y-75189285D02*
X59879880Y-75236904D01*
X59879880Y-75236904D02*
X59784642Y-75284523D01*
X59784642Y-75284523D02*
X59546547Y-75284523D01*
X59546547Y-75284523D02*
X59451309Y-75236904D01*
X59451309Y-75236904D02*
X59403690Y-75189285D01*
X59403690Y-75189285D02*
X59356071Y-75094047D01*
X59356071Y-75094047D02*
X59356071Y-74903571D01*
X59356071Y-74903571D02*
X59403690Y-74808333D01*
X59403690Y-74808333D02*
X59451309Y-74760714D01*
X59451309Y-74760714D02*
X59546547Y-74713095D01*
X58975119Y-76189285D02*
X58975119Y-75713095D01*
X58975119Y-75713095D02*
X59451309Y-75665476D01*
X59451309Y-75665476D02*
X59403690Y-75713095D01*
X59403690Y-75713095D02*
X59356071Y-75808333D01*
X59356071Y-75808333D02*
X59356071Y-76046428D01*
X59356071Y-76046428D02*
X59403690Y-76141666D01*
X59403690Y-76141666D02*
X59451309Y-76189285D01*
X59451309Y-76189285D02*
X59546547Y-76236904D01*
X59546547Y-76236904D02*
X59784642Y-76236904D01*
X59784642Y-76236904D02*
X59879880Y-76189285D01*
X59879880Y-76189285D02*
X59927500Y-76141666D01*
X59927500Y-76141666D02*
X59975119Y-76046428D01*
X59975119Y-76046428D02*
X59975119Y-75808333D01*
X59975119Y-75808333D02*
X59927500Y-75713095D01*
X59927500Y-75713095D02*
X59879880Y-75665476D01*
%TO.C,JP6*%
X77445833Y-77837619D02*
X77445833Y-78551904D01*
X77445833Y-78551904D02*
X77493452Y-78694761D01*
X77493452Y-78694761D02*
X77588690Y-78790000D01*
X77588690Y-78790000D02*
X77731547Y-78837619D01*
X77731547Y-78837619D02*
X77826785Y-78837619D01*
X76969642Y-78837619D02*
X76969642Y-77837619D01*
X76969642Y-77837619D02*
X76588690Y-77837619D01*
X76588690Y-77837619D02*
X76493452Y-77885238D01*
X76493452Y-77885238D02*
X76445833Y-77932857D01*
X76445833Y-77932857D02*
X76398214Y-78028095D01*
X76398214Y-78028095D02*
X76398214Y-78170952D01*
X76398214Y-78170952D02*
X76445833Y-78266190D01*
X76445833Y-78266190D02*
X76493452Y-78313809D01*
X76493452Y-78313809D02*
X76588690Y-78361428D01*
X76588690Y-78361428D02*
X76969642Y-78361428D01*
X75541071Y-77837619D02*
X75731547Y-77837619D01*
X75731547Y-77837619D02*
X75826785Y-77885238D01*
X75826785Y-77885238D02*
X75874404Y-77932857D01*
X75874404Y-77932857D02*
X75969642Y-78075714D01*
X75969642Y-78075714D02*
X76017261Y-78266190D01*
X76017261Y-78266190D02*
X76017261Y-78647142D01*
X76017261Y-78647142D02*
X75969642Y-78742380D01*
X75969642Y-78742380D02*
X75922023Y-78790000D01*
X75922023Y-78790000D02*
X75826785Y-78837619D01*
X75826785Y-78837619D02*
X75636309Y-78837619D01*
X75636309Y-78837619D02*
X75541071Y-78790000D01*
X75541071Y-78790000D02*
X75493452Y-78742380D01*
X75493452Y-78742380D02*
X75445833Y-78647142D01*
X75445833Y-78647142D02*
X75445833Y-78409047D01*
X75445833Y-78409047D02*
X75493452Y-78313809D01*
X75493452Y-78313809D02*
X75541071Y-78266190D01*
X75541071Y-78266190D02*
X75636309Y-78218571D01*
X75636309Y-78218571D02*
X75826785Y-78218571D01*
X75826785Y-78218571D02*
X75922023Y-78266190D01*
X75922023Y-78266190D02*
X75969642Y-78313809D01*
X75969642Y-78313809D02*
X76017261Y-78409047D01*
X69945832Y-77837619D02*
X69326785Y-77837619D01*
X69326785Y-77837619D02*
X69660118Y-78218571D01*
X69660118Y-78218571D02*
X69517261Y-78218571D01*
X69517261Y-78218571D02*
X69422023Y-78266190D01*
X69422023Y-78266190D02*
X69374404Y-78313809D01*
X69374404Y-78313809D02*
X69326785Y-78409047D01*
X69326785Y-78409047D02*
X69326785Y-78647142D01*
X69326785Y-78647142D02*
X69374404Y-78742380D01*
X69374404Y-78742380D02*
X69422023Y-78790000D01*
X69422023Y-78790000D02*
X69517261Y-78837619D01*
X69517261Y-78837619D02*
X69802975Y-78837619D01*
X69802975Y-78837619D02*
X69898213Y-78790000D01*
X69898213Y-78790000D02*
X69945832Y-78742380D01*
X74526785Y-78837619D02*
X75098213Y-78837619D01*
X74812499Y-78837619D02*
X74812499Y-77837619D01*
X74812499Y-77837619D02*
X74907737Y-77980476D01*
X74907737Y-77980476D02*
X75002975Y-78075714D01*
X75002975Y-78075714D02*
X75098213Y-78123333D01*
%TO.C,JP19*%
X151962619Y-45890476D02*
X152676904Y-45890476D01*
X152676904Y-45890476D02*
X152819761Y-45842857D01*
X152819761Y-45842857D02*
X152915000Y-45747619D01*
X152915000Y-45747619D02*
X152962619Y-45604762D01*
X152962619Y-45604762D02*
X152962619Y-45509524D01*
X152962619Y-46366667D02*
X151962619Y-46366667D01*
X151962619Y-46366667D02*
X151962619Y-46747619D01*
X151962619Y-46747619D02*
X152010238Y-46842857D01*
X152010238Y-46842857D02*
X152057857Y-46890476D01*
X152057857Y-46890476D02*
X152153095Y-46938095D01*
X152153095Y-46938095D02*
X152295952Y-46938095D01*
X152295952Y-46938095D02*
X152391190Y-46890476D01*
X152391190Y-46890476D02*
X152438809Y-46842857D01*
X152438809Y-46842857D02*
X152486428Y-46747619D01*
X152486428Y-46747619D02*
X152486428Y-46366667D01*
X152962619Y-47890476D02*
X152962619Y-47319048D01*
X152962619Y-47604762D02*
X151962619Y-47604762D01*
X151962619Y-47604762D02*
X152105476Y-47509524D01*
X152105476Y-47509524D02*
X152200714Y-47414286D01*
X152200714Y-47414286D02*
X152248333Y-47319048D01*
X152962619Y-48366667D02*
X152962619Y-48557143D01*
X152962619Y-48557143D02*
X152915000Y-48652381D01*
X152915000Y-48652381D02*
X152867380Y-48700000D01*
X152867380Y-48700000D02*
X152724523Y-48795238D01*
X152724523Y-48795238D02*
X152534047Y-48842857D01*
X152534047Y-48842857D02*
X152153095Y-48842857D01*
X152153095Y-48842857D02*
X152057857Y-48795238D01*
X152057857Y-48795238D02*
X152010238Y-48747619D01*
X152010238Y-48747619D02*
X151962619Y-48652381D01*
X151962619Y-48652381D02*
X151962619Y-48461905D01*
X151962619Y-48461905D02*
X152010238Y-48366667D01*
X152010238Y-48366667D02*
X152057857Y-48319048D01*
X152057857Y-48319048D02*
X152153095Y-48271429D01*
X152153095Y-48271429D02*
X152391190Y-48271429D01*
X152391190Y-48271429D02*
X152486428Y-48319048D01*
X152486428Y-48319048D02*
X152534047Y-48366667D01*
X152534047Y-48366667D02*
X152581666Y-48461905D01*
X152581666Y-48461905D02*
X152581666Y-48652381D01*
X152581666Y-48652381D02*
X152534047Y-48747619D01*
X152534047Y-48747619D02*
X152486428Y-48795238D01*
X152486428Y-48795238D02*
X152391190Y-48842857D01*
X151162619Y-50185714D02*
X151162619Y-49614286D01*
X151162619Y-49900000D02*
X150162619Y-49900000D01*
X150162619Y-49900000D02*
X150305476Y-49804762D01*
X150305476Y-49804762D02*
X150400714Y-49709524D01*
X150400714Y-49709524D02*
X150448333Y-49614286D01*
X150162619Y-44366667D02*
X150162619Y-44985714D01*
X150162619Y-44985714D02*
X150543571Y-44652381D01*
X150543571Y-44652381D02*
X150543571Y-44795238D01*
X150543571Y-44795238D02*
X150591190Y-44890476D01*
X150591190Y-44890476D02*
X150638809Y-44938095D01*
X150638809Y-44938095D02*
X150734047Y-44985714D01*
X150734047Y-44985714D02*
X150972142Y-44985714D01*
X150972142Y-44985714D02*
X151067380Y-44938095D01*
X151067380Y-44938095D02*
X151115000Y-44890476D01*
X151115000Y-44890476D02*
X151162619Y-44795238D01*
X151162619Y-44795238D02*
X151162619Y-44509524D01*
X151162619Y-44509524D02*
X151115000Y-44414286D01*
X151115000Y-44414286D02*
X151067380Y-44366667D01*
%TO.C,C59*%
X68655357Y-78342380D02*
X68702976Y-78390000D01*
X68702976Y-78390000D02*
X68845833Y-78437619D01*
X68845833Y-78437619D02*
X68941071Y-78437619D01*
X68941071Y-78437619D02*
X69083928Y-78390000D01*
X69083928Y-78390000D02*
X69179166Y-78294761D01*
X69179166Y-78294761D02*
X69226785Y-78199523D01*
X69226785Y-78199523D02*
X69274404Y-78009047D01*
X69274404Y-78009047D02*
X69274404Y-77866190D01*
X69274404Y-77866190D02*
X69226785Y-77675714D01*
X69226785Y-77675714D02*
X69179166Y-77580476D01*
X69179166Y-77580476D02*
X69083928Y-77485238D01*
X69083928Y-77485238D02*
X68941071Y-77437619D01*
X68941071Y-77437619D02*
X68845833Y-77437619D01*
X68845833Y-77437619D02*
X68702976Y-77485238D01*
X68702976Y-77485238D02*
X68655357Y-77532857D01*
X67750595Y-77437619D02*
X68226785Y-77437619D01*
X68226785Y-77437619D02*
X68274404Y-77913809D01*
X68274404Y-77913809D02*
X68226785Y-77866190D01*
X68226785Y-77866190D02*
X68131547Y-77818571D01*
X68131547Y-77818571D02*
X67893452Y-77818571D01*
X67893452Y-77818571D02*
X67798214Y-77866190D01*
X67798214Y-77866190D02*
X67750595Y-77913809D01*
X67750595Y-77913809D02*
X67702976Y-78009047D01*
X67702976Y-78009047D02*
X67702976Y-78247142D01*
X67702976Y-78247142D02*
X67750595Y-78342380D01*
X67750595Y-78342380D02*
X67798214Y-78390000D01*
X67798214Y-78390000D02*
X67893452Y-78437619D01*
X67893452Y-78437619D02*
X68131547Y-78437619D01*
X68131547Y-78437619D02*
X68226785Y-78390000D01*
X68226785Y-78390000D02*
X68274404Y-78342380D01*
X67226785Y-78437619D02*
X67036309Y-78437619D01*
X67036309Y-78437619D02*
X66941071Y-78390000D01*
X66941071Y-78390000D02*
X66893452Y-78342380D01*
X66893452Y-78342380D02*
X66798214Y-78199523D01*
X66798214Y-78199523D02*
X66750595Y-78009047D01*
X66750595Y-78009047D02*
X66750595Y-77628095D01*
X66750595Y-77628095D02*
X66798214Y-77532857D01*
X66798214Y-77532857D02*
X66845833Y-77485238D01*
X66845833Y-77485238D02*
X66941071Y-77437619D01*
X66941071Y-77437619D02*
X67131547Y-77437619D01*
X67131547Y-77437619D02*
X67226785Y-77485238D01*
X67226785Y-77485238D02*
X67274404Y-77532857D01*
X67274404Y-77532857D02*
X67322023Y-77628095D01*
X67322023Y-77628095D02*
X67322023Y-77866190D01*
X67322023Y-77866190D02*
X67274404Y-77961428D01*
X67274404Y-77961428D02*
X67226785Y-78009047D01*
X67226785Y-78009047D02*
X67131547Y-78056666D01*
X67131547Y-78056666D02*
X66941071Y-78056666D01*
X66941071Y-78056666D02*
X66845833Y-78009047D01*
X66845833Y-78009047D02*
X66798214Y-77961428D01*
X66798214Y-77961428D02*
X66750595Y-77866190D01*
%TO.C,JP15*%
X95822023Y-135462619D02*
X95822023Y-136176904D01*
X95822023Y-136176904D02*
X95869642Y-136319761D01*
X95869642Y-136319761D02*
X95964880Y-136415000D01*
X95964880Y-136415000D02*
X96107737Y-136462619D01*
X96107737Y-136462619D02*
X96202975Y-136462619D01*
X95345832Y-136462619D02*
X95345832Y-135462619D01*
X95345832Y-135462619D02*
X94964880Y-135462619D01*
X94964880Y-135462619D02*
X94869642Y-135510238D01*
X94869642Y-135510238D02*
X94822023Y-135557857D01*
X94822023Y-135557857D02*
X94774404Y-135653095D01*
X94774404Y-135653095D02*
X94774404Y-135795952D01*
X94774404Y-135795952D02*
X94822023Y-135891190D01*
X94822023Y-135891190D02*
X94869642Y-135938809D01*
X94869642Y-135938809D02*
X94964880Y-135986428D01*
X94964880Y-135986428D02*
X95345832Y-135986428D01*
X93822023Y-136462619D02*
X94393451Y-136462619D01*
X94107737Y-136462619D02*
X94107737Y-135462619D01*
X94107737Y-135462619D02*
X94202975Y-135605476D01*
X94202975Y-135605476D02*
X94298213Y-135700714D01*
X94298213Y-135700714D02*
X94393451Y-135748333D01*
X92917261Y-135462619D02*
X93393451Y-135462619D01*
X93393451Y-135462619D02*
X93441070Y-135938809D01*
X93441070Y-135938809D02*
X93393451Y-135891190D01*
X93393451Y-135891190D02*
X93298213Y-135843571D01*
X93298213Y-135843571D02*
X93060118Y-135843571D01*
X93060118Y-135843571D02*
X92964880Y-135891190D01*
X92964880Y-135891190D02*
X92917261Y-135938809D01*
X92917261Y-135938809D02*
X92869642Y-136034047D01*
X92869642Y-136034047D02*
X92869642Y-136272142D01*
X92869642Y-136272142D02*
X92917261Y-136367380D01*
X92917261Y-136367380D02*
X92964880Y-136415000D01*
X92964880Y-136415000D02*
X93060118Y-136462619D01*
X93060118Y-136462619D02*
X93298213Y-136462619D01*
X93298213Y-136462619D02*
X93393451Y-136415000D01*
X93393451Y-136415000D02*
X93441070Y-136367380D01*
X97045832Y-135362619D02*
X96426785Y-135362619D01*
X96426785Y-135362619D02*
X96760118Y-135743571D01*
X96760118Y-135743571D02*
X96617261Y-135743571D01*
X96617261Y-135743571D02*
X96522023Y-135791190D01*
X96522023Y-135791190D02*
X96474404Y-135838809D01*
X96474404Y-135838809D02*
X96426785Y-135934047D01*
X96426785Y-135934047D02*
X96426785Y-136172142D01*
X96426785Y-136172142D02*
X96474404Y-136267380D01*
X96474404Y-136267380D02*
X96522023Y-136315000D01*
X96522023Y-136315000D02*
X96617261Y-136362619D01*
X96617261Y-136362619D02*
X96902975Y-136362619D01*
X96902975Y-136362619D02*
X96998213Y-136315000D01*
X96998213Y-136315000D02*
X97045832Y-136267380D01*
X101626785Y-136362619D02*
X102198213Y-136362619D01*
X101912499Y-136362619D02*
X101912499Y-135362619D01*
X101912499Y-135362619D02*
X102007737Y-135505476D01*
X102007737Y-135505476D02*
X102102975Y-135600714D01*
X102102975Y-135600714D02*
X102198213Y-135648333D01*
%TO.C,C74*%
X61379880Y-74332142D02*
X61427500Y-74284523D01*
X61427500Y-74284523D02*
X61475119Y-74141666D01*
X61475119Y-74141666D02*
X61475119Y-74046428D01*
X61475119Y-74046428D02*
X61427500Y-73903571D01*
X61427500Y-73903571D02*
X61332261Y-73808333D01*
X61332261Y-73808333D02*
X61237023Y-73760714D01*
X61237023Y-73760714D02*
X61046547Y-73713095D01*
X61046547Y-73713095D02*
X60903690Y-73713095D01*
X60903690Y-73713095D02*
X60713214Y-73760714D01*
X60713214Y-73760714D02*
X60617976Y-73808333D01*
X60617976Y-73808333D02*
X60522738Y-73903571D01*
X60522738Y-73903571D02*
X60475119Y-74046428D01*
X60475119Y-74046428D02*
X60475119Y-74141666D01*
X60475119Y-74141666D02*
X60522738Y-74284523D01*
X60522738Y-74284523D02*
X60570357Y-74332142D01*
X60475119Y-74665476D02*
X60475119Y-75332142D01*
X60475119Y-75332142D02*
X61475119Y-74903571D01*
X60808452Y-76141666D02*
X61475119Y-76141666D01*
X60427500Y-75903571D02*
X61141785Y-75665476D01*
X61141785Y-75665476D02*
X61141785Y-76284523D01*
%TO.C,C56*%
X58279880Y-74332142D02*
X58327500Y-74284523D01*
X58327500Y-74284523D02*
X58375119Y-74141666D01*
X58375119Y-74141666D02*
X58375119Y-74046428D01*
X58375119Y-74046428D02*
X58327500Y-73903571D01*
X58327500Y-73903571D02*
X58232261Y-73808333D01*
X58232261Y-73808333D02*
X58137023Y-73760714D01*
X58137023Y-73760714D02*
X57946547Y-73713095D01*
X57946547Y-73713095D02*
X57803690Y-73713095D01*
X57803690Y-73713095D02*
X57613214Y-73760714D01*
X57613214Y-73760714D02*
X57517976Y-73808333D01*
X57517976Y-73808333D02*
X57422738Y-73903571D01*
X57422738Y-73903571D02*
X57375119Y-74046428D01*
X57375119Y-74046428D02*
X57375119Y-74141666D01*
X57375119Y-74141666D02*
X57422738Y-74284523D01*
X57422738Y-74284523D02*
X57470357Y-74332142D01*
X57375119Y-75236904D02*
X57375119Y-74760714D01*
X57375119Y-74760714D02*
X57851309Y-74713095D01*
X57851309Y-74713095D02*
X57803690Y-74760714D01*
X57803690Y-74760714D02*
X57756071Y-74855952D01*
X57756071Y-74855952D02*
X57756071Y-75094047D01*
X57756071Y-75094047D02*
X57803690Y-75189285D01*
X57803690Y-75189285D02*
X57851309Y-75236904D01*
X57851309Y-75236904D02*
X57946547Y-75284523D01*
X57946547Y-75284523D02*
X58184642Y-75284523D01*
X58184642Y-75284523D02*
X58279880Y-75236904D01*
X58279880Y-75236904D02*
X58327500Y-75189285D01*
X58327500Y-75189285D02*
X58375119Y-75094047D01*
X58375119Y-75094047D02*
X58375119Y-74855952D01*
X58375119Y-74855952D02*
X58327500Y-74760714D01*
X58327500Y-74760714D02*
X58279880Y-74713095D01*
X57375119Y-76141666D02*
X57375119Y-75951190D01*
X57375119Y-75951190D02*
X57422738Y-75855952D01*
X57422738Y-75855952D02*
X57470357Y-75808333D01*
X57470357Y-75808333D02*
X57613214Y-75713095D01*
X57613214Y-75713095D02*
X57803690Y-75665476D01*
X57803690Y-75665476D02*
X58184642Y-75665476D01*
X58184642Y-75665476D02*
X58279880Y-75713095D01*
X58279880Y-75713095D02*
X58327500Y-75760714D01*
X58327500Y-75760714D02*
X58375119Y-75855952D01*
X58375119Y-75855952D02*
X58375119Y-76046428D01*
X58375119Y-76046428D02*
X58327500Y-76141666D01*
X58327500Y-76141666D02*
X58279880Y-76189285D01*
X58279880Y-76189285D02*
X58184642Y-76236904D01*
X58184642Y-76236904D02*
X57946547Y-76236904D01*
X57946547Y-76236904D02*
X57851309Y-76189285D01*
X57851309Y-76189285D02*
X57803690Y-76141666D01*
X57803690Y-76141666D02*
X57756071Y-76046428D01*
X57756071Y-76046428D02*
X57756071Y-75855952D01*
X57756071Y-75855952D02*
X57803690Y-75760714D01*
X57803690Y-75760714D02*
X57851309Y-75713095D01*
X57851309Y-75713095D02*
X57946547Y-75665476D01*
%TO.C,JP16*%
X95822023Y-140362619D02*
X95822023Y-141076904D01*
X95822023Y-141076904D02*
X95869642Y-141219761D01*
X95869642Y-141219761D02*
X95964880Y-141315000D01*
X95964880Y-141315000D02*
X96107737Y-141362619D01*
X96107737Y-141362619D02*
X96202975Y-141362619D01*
X95345832Y-141362619D02*
X95345832Y-140362619D01*
X95345832Y-140362619D02*
X94964880Y-140362619D01*
X94964880Y-140362619D02*
X94869642Y-140410238D01*
X94869642Y-140410238D02*
X94822023Y-140457857D01*
X94822023Y-140457857D02*
X94774404Y-140553095D01*
X94774404Y-140553095D02*
X94774404Y-140695952D01*
X94774404Y-140695952D02*
X94822023Y-140791190D01*
X94822023Y-140791190D02*
X94869642Y-140838809D01*
X94869642Y-140838809D02*
X94964880Y-140886428D01*
X94964880Y-140886428D02*
X95345832Y-140886428D01*
X93822023Y-141362619D02*
X94393451Y-141362619D01*
X94107737Y-141362619D02*
X94107737Y-140362619D01*
X94107737Y-140362619D02*
X94202975Y-140505476D01*
X94202975Y-140505476D02*
X94298213Y-140600714D01*
X94298213Y-140600714D02*
X94393451Y-140648333D01*
X92964880Y-140362619D02*
X93155356Y-140362619D01*
X93155356Y-140362619D02*
X93250594Y-140410238D01*
X93250594Y-140410238D02*
X93298213Y-140457857D01*
X93298213Y-140457857D02*
X93393451Y-140600714D01*
X93393451Y-140600714D02*
X93441070Y-140791190D01*
X93441070Y-140791190D02*
X93441070Y-141172142D01*
X93441070Y-141172142D02*
X93393451Y-141267380D01*
X93393451Y-141267380D02*
X93345832Y-141315000D01*
X93345832Y-141315000D02*
X93250594Y-141362619D01*
X93250594Y-141362619D02*
X93060118Y-141362619D01*
X93060118Y-141362619D02*
X92964880Y-141315000D01*
X92964880Y-141315000D02*
X92917261Y-141267380D01*
X92917261Y-141267380D02*
X92869642Y-141172142D01*
X92869642Y-141172142D02*
X92869642Y-140934047D01*
X92869642Y-140934047D02*
X92917261Y-140838809D01*
X92917261Y-140838809D02*
X92964880Y-140791190D01*
X92964880Y-140791190D02*
X93060118Y-140743571D01*
X93060118Y-140743571D02*
X93250594Y-140743571D01*
X93250594Y-140743571D02*
X93345832Y-140791190D01*
X93345832Y-140791190D02*
X93393451Y-140838809D01*
X93393451Y-140838809D02*
X93441070Y-140934047D01*
X97045832Y-140362619D02*
X96426785Y-140362619D01*
X96426785Y-140362619D02*
X96760118Y-140743571D01*
X96760118Y-140743571D02*
X96617261Y-140743571D01*
X96617261Y-140743571D02*
X96522023Y-140791190D01*
X96522023Y-140791190D02*
X96474404Y-140838809D01*
X96474404Y-140838809D02*
X96426785Y-140934047D01*
X96426785Y-140934047D02*
X96426785Y-141172142D01*
X96426785Y-141172142D02*
X96474404Y-141267380D01*
X96474404Y-141267380D02*
X96522023Y-141315000D01*
X96522023Y-141315000D02*
X96617261Y-141362619D01*
X96617261Y-141362619D02*
X96902975Y-141362619D01*
X96902975Y-141362619D02*
X96998213Y-141315000D01*
X96998213Y-141315000D02*
X97045832Y-141267380D01*
X101626785Y-141362619D02*
X102198213Y-141362619D01*
X101912499Y-141362619D02*
X101912499Y-140362619D01*
X101912499Y-140362619D02*
X102007737Y-140505476D01*
X102007737Y-140505476D02*
X102102975Y-140600714D01*
X102102975Y-140600714D02*
X102198213Y-140648333D01*
%TO.C,JP3*%
X145362619Y-46466666D02*
X146076904Y-46466666D01*
X146076904Y-46466666D02*
X146219761Y-46419047D01*
X146219761Y-46419047D02*
X146315000Y-46323809D01*
X146315000Y-46323809D02*
X146362619Y-46180952D01*
X146362619Y-46180952D02*
X146362619Y-46085714D01*
X146362619Y-46942857D02*
X145362619Y-46942857D01*
X145362619Y-46942857D02*
X145362619Y-47323809D01*
X145362619Y-47323809D02*
X145410238Y-47419047D01*
X145410238Y-47419047D02*
X145457857Y-47466666D01*
X145457857Y-47466666D02*
X145553095Y-47514285D01*
X145553095Y-47514285D02*
X145695952Y-47514285D01*
X145695952Y-47514285D02*
X145791190Y-47466666D01*
X145791190Y-47466666D02*
X145838809Y-47419047D01*
X145838809Y-47419047D02*
X145886428Y-47323809D01*
X145886428Y-47323809D02*
X145886428Y-46942857D01*
X145362619Y-47847619D02*
X145362619Y-48466666D01*
X145362619Y-48466666D02*
X145743571Y-48133333D01*
X145743571Y-48133333D02*
X145743571Y-48276190D01*
X145743571Y-48276190D02*
X145791190Y-48371428D01*
X145791190Y-48371428D02*
X145838809Y-48419047D01*
X145838809Y-48419047D02*
X145934047Y-48466666D01*
X145934047Y-48466666D02*
X146172142Y-48466666D01*
X146172142Y-48466666D02*
X146267380Y-48419047D01*
X146267380Y-48419047D02*
X146315000Y-48371428D01*
X146315000Y-48371428D02*
X146362619Y-48276190D01*
X146362619Y-48276190D02*
X146362619Y-47990476D01*
X146362619Y-47990476D02*
X146315000Y-47895238D01*
X146315000Y-47895238D02*
X146267380Y-47847619D01*
%TO.C,C63*%
X49555357Y-74042380D02*
X49602976Y-74090000D01*
X49602976Y-74090000D02*
X49745833Y-74137619D01*
X49745833Y-74137619D02*
X49841071Y-74137619D01*
X49841071Y-74137619D02*
X49983928Y-74090000D01*
X49983928Y-74090000D02*
X50079166Y-73994761D01*
X50079166Y-73994761D02*
X50126785Y-73899523D01*
X50126785Y-73899523D02*
X50174404Y-73709047D01*
X50174404Y-73709047D02*
X50174404Y-73566190D01*
X50174404Y-73566190D02*
X50126785Y-73375714D01*
X50126785Y-73375714D02*
X50079166Y-73280476D01*
X50079166Y-73280476D02*
X49983928Y-73185238D01*
X49983928Y-73185238D02*
X49841071Y-73137619D01*
X49841071Y-73137619D02*
X49745833Y-73137619D01*
X49745833Y-73137619D02*
X49602976Y-73185238D01*
X49602976Y-73185238D02*
X49555357Y-73232857D01*
X48698214Y-73137619D02*
X48888690Y-73137619D01*
X48888690Y-73137619D02*
X48983928Y-73185238D01*
X48983928Y-73185238D02*
X49031547Y-73232857D01*
X49031547Y-73232857D02*
X49126785Y-73375714D01*
X49126785Y-73375714D02*
X49174404Y-73566190D01*
X49174404Y-73566190D02*
X49174404Y-73947142D01*
X49174404Y-73947142D02*
X49126785Y-74042380D01*
X49126785Y-74042380D02*
X49079166Y-74090000D01*
X49079166Y-74090000D02*
X48983928Y-74137619D01*
X48983928Y-74137619D02*
X48793452Y-74137619D01*
X48793452Y-74137619D02*
X48698214Y-74090000D01*
X48698214Y-74090000D02*
X48650595Y-74042380D01*
X48650595Y-74042380D02*
X48602976Y-73947142D01*
X48602976Y-73947142D02*
X48602976Y-73709047D01*
X48602976Y-73709047D02*
X48650595Y-73613809D01*
X48650595Y-73613809D02*
X48698214Y-73566190D01*
X48698214Y-73566190D02*
X48793452Y-73518571D01*
X48793452Y-73518571D02*
X48983928Y-73518571D01*
X48983928Y-73518571D02*
X49079166Y-73566190D01*
X49079166Y-73566190D02*
X49126785Y-73613809D01*
X49126785Y-73613809D02*
X49174404Y-73709047D01*
X48269642Y-73137619D02*
X47650595Y-73137619D01*
X47650595Y-73137619D02*
X47983928Y-73518571D01*
X47983928Y-73518571D02*
X47841071Y-73518571D01*
X47841071Y-73518571D02*
X47745833Y-73566190D01*
X47745833Y-73566190D02*
X47698214Y-73613809D01*
X47698214Y-73613809D02*
X47650595Y-73709047D01*
X47650595Y-73709047D02*
X47650595Y-73947142D01*
X47650595Y-73947142D02*
X47698214Y-74042380D01*
X47698214Y-74042380D02*
X47745833Y-74090000D01*
X47745833Y-74090000D02*
X47841071Y-74137619D01*
X47841071Y-74137619D02*
X48126785Y-74137619D01*
X48126785Y-74137619D02*
X48222023Y-74090000D01*
X48222023Y-74090000D02*
X48269642Y-74042380D01*
%TO.C,JP12*%
X94622023Y-56012619D02*
X94622023Y-56726904D01*
X94622023Y-56726904D02*
X94669642Y-56869761D01*
X94669642Y-56869761D02*
X94764880Y-56965000D01*
X94764880Y-56965000D02*
X94907737Y-57012619D01*
X94907737Y-57012619D02*
X95002975Y-57012619D01*
X94145832Y-57012619D02*
X94145832Y-56012619D01*
X94145832Y-56012619D02*
X93764880Y-56012619D01*
X93764880Y-56012619D02*
X93669642Y-56060238D01*
X93669642Y-56060238D02*
X93622023Y-56107857D01*
X93622023Y-56107857D02*
X93574404Y-56203095D01*
X93574404Y-56203095D02*
X93574404Y-56345952D01*
X93574404Y-56345952D02*
X93622023Y-56441190D01*
X93622023Y-56441190D02*
X93669642Y-56488809D01*
X93669642Y-56488809D02*
X93764880Y-56536428D01*
X93764880Y-56536428D02*
X94145832Y-56536428D01*
X92622023Y-57012619D02*
X93193451Y-57012619D01*
X92907737Y-57012619D02*
X92907737Y-56012619D01*
X92907737Y-56012619D02*
X93002975Y-56155476D01*
X93002975Y-56155476D02*
X93098213Y-56250714D01*
X93098213Y-56250714D02*
X93193451Y-56298333D01*
X92241070Y-56107857D02*
X92193451Y-56060238D01*
X92193451Y-56060238D02*
X92098213Y-56012619D01*
X92098213Y-56012619D02*
X91860118Y-56012619D01*
X91860118Y-56012619D02*
X91764880Y-56060238D01*
X91764880Y-56060238D02*
X91717261Y-56107857D01*
X91717261Y-56107857D02*
X91669642Y-56203095D01*
X91669642Y-56203095D02*
X91669642Y-56298333D01*
X91669642Y-56298333D02*
X91717261Y-56441190D01*
X91717261Y-56441190D02*
X92288689Y-57012619D01*
X92288689Y-57012619D02*
X91669642Y-57012619D01*
X95845832Y-55862619D02*
X95226785Y-55862619D01*
X95226785Y-55862619D02*
X95560118Y-56243571D01*
X95560118Y-56243571D02*
X95417261Y-56243571D01*
X95417261Y-56243571D02*
X95322023Y-56291190D01*
X95322023Y-56291190D02*
X95274404Y-56338809D01*
X95274404Y-56338809D02*
X95226785Y-56434047D01*
X95226785Y-56434047D02*
X95226785Y-56672142D01*
X95226785Y-56672142D02*
X95274404Y-56767380D01*
X95274404Y-56767380D02*
X95322023Y-56815000D01*
X95322023Y-56815000D02*
X95417261Y-56862619D01*
X95417261Y-56862619D02*
X95702975Y-56862619D01*
X95702975Y-56862619D02*
X95798213Y-56815000D01*
X95798213Y-56815000D02*
X95845832Y-56767380D01*
X100426785Y-56862619D02*
X100998213Y-56862619D01*
X100712499Y-56862619D02*
X100712499Y-55862619D01*
X100712499Y-55862619D02*
X100807737Y-56005476D01*
X100807737Y-56005476D02*
X100902975Y-56100714D01*
X100902975Y-56100714D02*
X100998213Y-56148333D01*
%TO.C,D19*%
X85522085Y-44862619D02*
X85522085Y-43862619D01*
X85522085Y-43862619D02*
X85283990Y-43862619D01*
X85283990Y-43862619D02*
X85141133Y-43910238D01*
X85141133Y-43910238D02*
X85045895Y-44005476D01*
X85045895Y-44005476D02*
X84998276Y-44100714D01*
X84998276Y-44100714D02*
X84950657Y-44291190D01*
X84950657Y-44291190D02*
X84950657Y-44434047D01*
X84950657Y-44434047D02*
X84998276Y-44624523D01*
X84998276Y-44624523D02*
X85045895Y-44719761D01*
X85045895Y-44719761D02*
X85141133Y-44815000D01*
X85141133Y-44815000D02*
X85283990Y-44862619D01*
X85283990Y-44862619D02*
X85522085Y-44862619D01*
X83998276Y-44862619D02*
X84569704Y-44862619D01*
X84283990Y-44862619D02*
X84283990Y-43862619D01*
X84283990Y-43862619D02*
X84379228Y-44005476D01*
X84379228Y-44005476D02*
X84474466Y-44100714D01*
X84474466Y-44100714D02*
X84569704Y-44148333D01*
X83522085Y-44862619D02*
X83331609Y-44862619D01*
X83331609Y-44862619D02*
X83236371Y-44815000D01*
X83236371Y-44815000D02*
X83188752Y-44767380D01*
X83188752Y-44767380D02*
X83093514Y-44624523D01*
X83093514Y-44624523D02*
X83045895Y-44434047D01*
X83045895Y-44434047D02*
X83045895Y-44053095D01*
X83045895Y-44053095D02*
X83093514Y-43957857D01*
X83093514Y-43957857D02*
X83141133Y-43910238D01*
X83141133Y-43910238D02*
X83236371Y-43862619D01*
X83236371Y-43862619D02*
X83426847Y-43862619D01*
X83426847Y-43862619D02*
X83522085Y-43910238D01*
X83522085Y-43910238D02*
X83569704Y-43957857D01*
X83569704Y-43957857D02*
X83617323Y-44053095D01*
X83617323Y-44053095D02*
X83617323Y-44291190D01*
X83617323Y-44291190D02*
X83569704Y-44386428D01*
X83569704Y-44386428D02*
X83522085Y-44434047D01*
X83522085Y-44434047D02*
X83426847Y-44481666D01*
X83426847Y-44481666D02*
X83236371Y-44481666D01*
X83236371Y-44481666D02*
X83141133Y-44434047D01*
X83141133Y-44434047D02*
X83093514Y-44386428D01*
X83093514Y-44386428D02*
X83045895Y-44291190D01*
%TO.C,D22*%
X82022085Y-146662493D02*
X82022085Y-145662493D01*
X82022085Y-145662493D02*
X81783990Y-145662493D01*
X81783990Y-145662493D02*
X81641133Y-145710112D01*
X81641133Y-145710112D02*
X81545895Y-145805350D01*
X81545895Y-145805350D02*
X81498276Y-145900588D01*
X81498276Y-145900588D02*
X81450657Y-146091064D01*
X81450657Y-146091064D02*
X81450657Y-146233921D01*
X81450657Y-146233921D02*
X81498276Y-146424397D01*
X81498276Y-146424397D02*
X81545895Y-146519635D01*
X81545895Y-146519635D02*
X81641133Y-146614874D01*
X81641133Y-146614874D02*
X81783990Y-146662493D01*
X81783990Y-146662493D02*
X82022085Y-146662493D01*
X81069704Y-145757731D02*
X81022085Y-145710112D01*
X81022085Y-145710112D02*
X80926847Y-145662493D01*
X80926847Y-145662493D02*
X80688752Y-145662493D01*
X80688752Y-145662493D02*
X80593514Y-145710112D01*
X80593514Y-145710112D02*
X80545895Y-145757731D01*
X80545895Y-145757731D02*
X80498276Y-145852969D01*
X80498276Y-145852969D02*
X80498276Y-145948207D01*
X80498276Y-145948207D02*
X80545895Y-146091064D01*
X80545895Y-146091064D02*
X81117323Y-146662493D01*
X81117323Y-146662493D02*
X80498276Y-146662493D01*
X80117323Y-145757731D02*
X80069704Y-145710112D01*
X80069704Y-145710112D02*
X79974466Y-145662493D01*
X79974466Y-145662493D02*
X79736371Y-145662493D01*
X79736371Y-145662493D02*
X79641133Y-145710112D01*
X79641133Y-145710112D02*
X79593514Y-145757731D01*
X79593514Y-145757731D02*
X79545895Y-145852969D01*
X79545895Y-145852969D02*
X79545895Y-145948207D01*
X79545895Y-145948207D02*
X79593514Y-146091064D01*
X79593514Y-146091064D02*
X80164942Y-146662493D01*
X80164942Y-146662493D02*
X79545895Y-146662493D01*
%TO.C,JP14*%
X95822023Y-137862619D02*
X95822023Y-138576904D01*
X95822023Y-138576904D02*
X95869642Y-138719761D01*
X95869642Y-138719761D02*
X95964880Y-138815000D01*
X95964880Y-138815000D02*
X96107737Y-138862619D01*
X96107737Y-138862619D02*
X96202975Y-138862619D01*
X95345832Y-138862619D02*
X95345832Y-137862619D01*
X95345832Y-137862619D02*
X94964880Y-137862619D01*
X94964880Y-137862619D02*
X94869642Y-137910238D01*
X94869642Y-137910238D02*
X94822023Y-137957857D01*
X94822023Y-137957857D02*
X94774404Y-138053095D01*
X94774404Y-138053095D02*
X94774404Y-138195952D01*
X94774404Y-138195952D02*
X94822023Y-138291190D01*
X94822023Y-138291190D02*
X94869642Y-138338809D01*
X94869642Y-138338809D02*
X94964880Y-138386428D01*
X94964880Y-138386428D02*
X95345832Y-138386428D01*
X93822023Y-138862619D02*
X94393451Y-138862619D01*
X94107737Y-138862619D02*
X94107737Y-137862619D01*
X94107737Y-137862619D02*
X94202975Y-138005476D01*
X94202975Y-138005476D02*
X94298213Y-138100714D01*
X94298213Y-138100714D02*
X94393451Y-138148333D01*
X92964880Y-138195952D02*
X92964880Y-138862619D01*
X93202975Y-137815000D02*
X93441070Y-138529285D01*
X93441070Y-138529285D02*
X92822023Y-138529285D01*
X101626785Y-138862619D02*
X102198213Y-138862619D01*
X101912499Y-138862619D02*
X101912499Y-137862619D01*
X101912499Y-137862619D02*
X102007737Y-138005476D01*
X102007737Y-138005476D02*
X102102975Y-138100714D01*
X102102975Y-138100714D02*
X102198213Y-138148333D01*
X97045832Y-137862619D02*
X96426785Y-137862619D01*
X96426785Y-137862619D02*
X96760118Y-138243571D01*
X96760118Y-138243571D02*
X96617261Y-138243571D01*
X96617261Y-138243571D02*
X96522023Y-138291190D01*
X96522023Y-138291190D02*
X96474404Y-138338809D01*
X96474404Y-138338809D02*
X96426785Y-138434047D01*
X96426785Y-138434047D02*
X96426785Y-138672142D01*
X96426785Y-138672142D02*
X96474404Y-138767380D01*
X96474404Y-138767380D02*
X96522023Y-138815000D01*
X96522023Y-138815000D02*
X96617261Y-138862619D01*
X96617261Y-138862619D02*
X96902975Y-138862619D01*
X96902975Y-138862619D02*
X96998213Y-138815000D01*
X96998213Y-138815000D02*
X97045832Y-138767380D01*
%TO.C,C71*%
X60679880Y-84032142D02*
X60727500Y-83984523D01*
X60727500Y-83984523D02*
X60775119Y-83841666D01*
X60775119Y-83841666D02*
X60775119Y-83746428D01*
X60775119Y-83746428D02*
X60727500Y-83603571D01*
X60727500Y-83603571D02*
X60632261Y-83508333D01*
X60632261Y-83508333D02*
X60537023Y-83460714D01*
X60537023Y-83460714D02*
X60346547Y-83413095D01*
X60346547Y-83413095D02*
X60203690Y-83413095D01*
X60203690Y-83413095D02*
X60013214Y-83460714D01*
X60013214Y-83460714D02*
X59917976Y-83508333D01*
X59917976Y-83508333D02*
X59822738Y-83603571D01*
X59822738Y-83603571D02*
X59775119Y-83746428D01*
X59775119Y-83746428D02*
X59775119Y-83841666D01*
X59775119Y-83841666D02*
X59822738Y-83984523D01*
X59822738Y-83984523D02*
X59870357Y-84032142D01*
X59775119Y-84365476D02*
X59775119Y-85032142D01*
X59775119Y-85032142D02*
X60775119Y-84603571D01*
X60775119Y-85936904D02*
X60775119Y-85365476D01*
X60775119Y-85651190D02*
X59775119Y-85651190D01*
X59775119Y-85651190D02*
X59917976Y-85555952D01*
X59917976Y-85555952D02*
X60013214Y-85460714D01*
X60013214Y-85460714D02*
X60060833Y-85365476D01*
%TO.C,JP17*%
X95822023Y-142862619D02*
X95822023Y-143576904D01*
X95822023Y-143576904D02*
X95869642Y-143719761D01*
X95869642Y-143719761D02*
X95964880Y-143815000D01*
X95964880Y-143815000D02*
X96107737Y-143862619D01*
X96107737Y-143862619D02*
X96202975Y-143862619D01*
X95345832Y-143862619D02*
X95345832Y-142862619D01*
X95345832Y-142862619D02*
X94964880Y-142862619D01*
X94964880Y-142862619D02*
X94869642Y-142910238D01*
X94869642Y-142910238D02*
X94822023Y-142957857D01*
X94822023Y-142957857D02*
X94774404Y-143053095D01*
X94774404Y-143053095D02*
X94774404Y-143195952D01*
X94774404Y-143195952D02*
X94822023Y-143291190D01*
X94822023Y-143291190D02*
X94869642Y-143338809D01*
X94869642Y-143338809D02*
X94964880Y-143386428D01*
X94964880Y-143386428D02*
X95345832Y-143386428D01*
X93822023Y-143862619D02*
X94393451Y-143862619D01*
X94107737Y-143862619D02*
X94107737Y-142862619D01*
X94107737Y-142862619D02*
X94202975Y-143005476D01*
X94202975Y-143005476D02*
X94298213Y-143100714D01*
X94298213Y-143100714D02*
X94393451Y-143148333D01*
X93488689Y-142862619D02*
X92822023Y-142862619D01*
X92822023Y-142862619D02*
X93250594Y-143862619D01*
X101626785Y-143862619D02*
X102198213Y-143862619D01*
X101912499Y-143862619D02*
X101912499Y-142862619D01*
X101912499Y-142862619D02*
X102007737Y-143005476D01*
X102007737Y-143005476D02*
X102102975Y-143100714D01*
X102102975Y-143100714D02*
X102198213Y-143148333D01*
X97045832Y-142862619D02*
X96426785Y-142862619D01*
X96426785Y-142862619D02*
X96760118Y-143243571D01*
X96760118Y-143243571D02*
X96617261Y-143243571D01*
X96617261Y-143243571D02*
X96522023Y-143291190D01*
X96522023Y-143291190D02*
X96474404Y-143338809D01*
X96474404Y-143338809D02*
X96426785Y-143434047D01*
X96426785Y-143434047D02*
X96426785Y-143672142D01*
X96426785Y-143672142D02*
X96474404Y-143767380D01*
X96474404Y-143767380D02*
X96522023Y-143815000D01*
X96522023Y-143815000D02*
X96617261Y-143862619D01*
X96617261Y-143862619D02*
X96902975Y-143862619D01*
X96902975Y-143862619D02*
X96998213Y-143815000D01*
X96998213Y-143815000D02*
X97045832Y-143767380D01*
%TO.C,JP1*%
X145212619Y-33016666D02*
X145926904Y-33016666D01*
X145926904Y-33016666D02*
X146069761Y-32969047D01*
X146069761Y-32969047D02*
X146165000Y-32873809D01*
X146165000Y-32873809D02*
X146212619Y-32730952D01*
X146212619Y-32730952D02*
X146212619Y-32635714D01*
X146212619Y-33492857D02*
X145212619Y-33492857D01*
X145212619Y-33492857D02*
X145212619Y-33873809D01*
X145212619Y-33873809D02*
X145260238Y-33969047D01*
X145260238Y-33969047D02*
X145307857Y-34016666D01*
X145307857Y-34016666D02*
X145403095Y-34064285D01*
X145403095Y-34064285D02*
X145545952Y-34064285D01*
X145545952Y-34064285D02*
X145641190Y-34016666D01*
X145641190Y-34016666D02*
X145688809Y-33969047D01*
X145688809Y-33969047D02*
X145736428Y-33873809D01*
X145736428Y-33873809D02*
X145736428Y-33492857D01*
X146212619Y-35016666D02*
X146212619Y-34445238D01*
X146212619Y-34730952D02*
X145212619Y-34730952D01*
X145212619Y-34730952D02*
X145355476Y-34635714D01*
X145355476Y-34635714D02*
X145450714Y-34540476D01*
X145450714Y-34540476D02*
X145498333Y-34445238D01*
X147112619Y-30916667D02*
X147112619Y-31535714D01*
X147112619Y-31535714D02*
X147493571Y-31202381D01*
X147493571Y-31202381D02*
X147493571Y-31345238D01*
X147493571Y-31345238D02*
X147541190Y-31440476D01*
X147541190Y-31440476D02*
X147588809Y-31488095D01*
X147588809Y-31488095D02*
X147684047Y-31535714D01*
X147684047Y-31535714D02*
X147922142Y-31535714D01*
X147922142Y-31535714D02*
X148017380Y-31488095D01*
X148017380Y-31488095D02*
X148065000Y-31440476D01*
X148065000Y-31440476D02*
X148112619Y-31345238D01*
X148112619Y-31345238D02*
X148112619Y-31059524D01*
X148112619Y-31059524D02*
X148065000Y-30964286D01*
X148065000Y-30964286D02*
X148017380Y-30916667D01*
X148112619Y-36735714D02*
X148112619Y-36164286D01*
X148112619Y-36450000D02*
X147112619Y-36450000D01*
X147112619Y-36450000D02*
X147255476Y-36354762D01*
X147255476Y-36354762D02*
X147350714Y-36259524D01*
X147350714Y-36259524D02*
X147398333Y-36164286D01*
%TO.C,C69*%
X59079880Y-84032142D02*
X59127500Y-83984523D01*
X59127500Y-83984523D02*
X59175119Y-83841666D01*
X59175119Y-83841666D02*
X59175119Y-83746428D01*
X59175119Y-83746428D02*
X59127500Y-83603571D01*
X59127500Y-83603571D02*
X59032261Y-83508333D01*
X59032261Y-83508333D02*
X58937023Y-83460714D01*
X58937023Y-83460714D02*
X58746547Y-83413095D01*
X58746547Y-83413095D02*
X58603690Y-83413095D01*
X58603690Y-83413095D02*
X58413214Y-83460714D01*
X58413214Y-83460714D02*
X58317976Y-83508333D01*
X58317976Y-83508333D02*
X58222738Y-83603571D01*
X58222738Y-83603571D02*
X58175119Y-83746428D01*
X58175119Y-83746428D02*
X58175119Y-83841666D01*
X58175119Y-83841666D02*
X58222738Y-83984523D01*
X58222738Y-83984523D02*
X58270357Y-84032142D01*
X58175119Y-84889285D02*
X58175119Y-84698809D01*
X58175119Y-84698809D02*
X58222738Y-84603571D01*
X58222738Y-84603571D02*
X58270357Y-84555952D01*
X58270357Y-84555952D02*
X58413214Y-84460714D01*
X58413214Y-84460714D02*
X58603690Y-84413095D01*
X58603690Y-84413095D02*
X58984642Y-84413095D01*
X58984642Y-84413095D02*
X59079880Y-84460714D01*
X59079880Y-84460714D02*
X59127500Y-84508333D01*
X59127500Y-84508333D02*
X59175119Y-84603571D01*
X59175119Y-84603571D02*
X59175119Y-84794047D01*
X59175119Y-84794047D02*
X59127500Y-84889285D01*
X59127500Y-84889285D02*
X59079880Y-84936904D01*
X59079880Y-84936904D02*
X58984642Y-84984523D01*
X58984642Y-84984523D02*
X58746547Y-84984523D01*
X58746547Y-84984523D02*
X58651309Y-84936904D01*
X58651309Y-84936904D02*
X58603690Y-84889285D01*
X58603690Y-84889285D02*
X58556071Y-84794047D01*
X58556071Y-84794047D02*
X58556071Y-84603571D01*
X58556071Y-84603571D02*
X58603690Y-84508333D01*
X58603690Y-84508333D02*
X58651309Y-84460714D01*
X58651309Y-84460714D02*
X58746547Y-84413095D01*
X59175119Y-85460714D02*
X59175119Y-85651190D01*
X59175119Y-85651190D02*
X59127500Y-85746428D01*
X59127500Y-85746428D02*
X59079880Y-85794047D01*
X59079880Y-85794047D02*
X58937023Y-85889285D01*
X58937023Y-85889285D02*
X58746547Y-85936904D01*
X58746547Y-85936904D02*
X58365595Y-85936904D01*
X58365595Y-85936904D02*
X58270357Y-85889285D01*
X58270357Y-85889285D02*
X58222738Y-85841666D01*
X58222738Y-85841666D02*
X58175119Y-85746428D01*
X58175119Y-85746428D02*
X58175119Y-85555952D01*
X58175119Y-85555952D02*
X58222738Y-85460714D01*
X58222738Y-85460714D02*
X58270357Y-85413095D01*
X58270357Y-85413095D02*
X58365595Y-85365476D01*
X58365595Y-85365476D02*
X58603690Y-85365476D01*
X58603690Y-85365476D02*
X58698928Y-85413095D01*
X58698928Y-85413095D02*
X58746547Y-85460714D01*
X58746547Y-85460714D02*
X58794166Y-85555952D01*
X58794166Y-85555952D02*
X58794166Y-85746428D01*
X58794166Y-85746428D02*
X58746547Y-85841666D01*
X58746547Y-85841666D02*
X58698928Y-85889285D01*
X58698928Y-85889285D02*
X58603690Y-85936904D01*
%TO.C,C55*%
X68655357Y-74842380D02*
X68702976Y-74890000D01*
X68702976Y-74890000D02*
X68845833Y-74937619D01*
X68845833Y-74937619D02*
X68941071Y-74937619D01*
X68941071Y-74937619D02*
X69083928Y-74890000D01*
X69083928Y-74890000D02*
X69179166Y-74794761D01*
X69179166Y-74794761D02*
X69226785Y-74699523D01*
X69226785Y-74699523D02*
X69274404Y-74509047D01*
X69274404Y-74509047D02*
X69274404Y-74366190D01*
X69274404Y-74366190D02*
X69226785Y-74175714D01*
X69226785Y-74175714D02*
X69179166Y-74080476D01*
X69179166Y-74080476D02*
X69083928Y-73985238D01*
X69083928Y-73985238D02*
X68941071Y-73937619D01*
X68941071Y-73937619D02*
X68845833Y-73937619D01*
X68845833Y-73937619D02*
X68702976Y-73985238D01*
X68702976Y-73985238D02*
X68655357Y-74032857D01*
X67750595Y-73937619D02*
X68226785Y-73937619D01*
X68226785Y-73937619D02*
X68274404Y-74413809D01*
X68274404Y-74413809D02*
X68226785Y-74366190D01*
X68226785Y-74366190D02*
X68131547Y-74318571D01*
X68131547Y-74318571D02*
X67893452Y-74318571D01*
X67893452Y-74318571D02*
X67798214Y-74366190D01*
X67798214Y-74366190D02*
X67750595Y-74413809D01*
X67750595Y-74413809D02*
X67702976Y-74509047D01*
X67702976Y-74509047D02*
X67702976Y-74747142D01*
X67702976Y-74747142D02*
X67750595Y-74842380D01*
X67750595Y-74842380D02*
X67798214Y-74890000D01*
X67798214Y-74890000D02*
X67893452Y-74937619D01*
X67893452Y-74937619D02*
X68131547Y-74937619D01*
X68131547Y-74937619D02*
X68226785Y-74890000D01*
X68226785Y-74890000D02*
X68274404Y-74842380D01*
X66798214Y-73937619D02*
X67274404Y-73937619D01*
X67274404Y-73937619D02*
X67322023Y-74413809D01*
X67322023Y-74413809D02*
X67274404Y-74366190D01*
X67274404Y-74366190D02*
X67179166Y-74318571D01*
X67179166Y-74318571D02*
X66941071Y-74318571D01*
X66941071Y-74318571D02*
X66845833Y-74366190D01*
X66845833Y-74366190D02*
X66798214Y-74413809D01*
X66798214Y-74413809D02*
X66750595Y-74509047D01*
X66750595Y-74509047D02*
X66750595Y-74747142D01*
X66750595Y-74747142D02*
X66798214Y-74842380D01*
X66798214Y-74842380D02*
X66845833Y-74890000D01*
X66845833Y-74890000D02*
X66941071Y-74937619D01*
X66941071Y-74937619D02*
X67179166Y-74937619D01*
X67179166Y-74937619D02*
X67274404Y-74890000D01*
X67274404Y-74890000D02*
X67322023Y-74842380D01*
%TO.C,D13*%
X48298214Y-37937380D02*
X48298214Y-38937380D01*
X48298214Y-38937380D02*
X48536309Y-38937380D01*
X48536309Y-38937380D02*
X48679166Y-38889761D01*
X48679166Y-38889761D02*
X48774404Y-38794523D01*
X48774404Y-38794523D02*
X48822023Y-38699285D01*
X48822023Y-38699285D02*
X48869642Y-38508809D01*
X48869642Y-38508809D02*
X48869642Y-38365952D01*
X48869642Y-38365952D02*
X48822023Y-38175476D01*
X48822023Y-38175476D02*
X48774404Y-38080238D01*
X48774404Y-38080238D02*
X48679166Y-37985000D01*
X48679166Y-37985000D02*
X48536309Y-37937380D01*
X48536309Y-37937380D02*
X48298214Y-37937380D01*
X49822023Y-37937380D02*
X49250595Y-37937380D01*
X49536309Y-37937380D02*
X49536309Y-38937380D01*
X49536309Y-38937380D02*
X49441071Y-38794523D01*
X49441071Y-38794523D02*
X49345833Y-38699285D01*
X49345833Y-38699285D02*
X49250595Y-38651666D01*
X50155357Y-38937380D02*
X50774404Y-38937380D01*
X50774404Y-38937380D02*
X50441071Y-38556428D01*
X50441071Y-38556428D02*
X50583928Y-38556428D01*
X50583928Y-38556428D02*
X50679166Y-38508809D01*
X50679166Y-38508809D02*
X50726785Y-38461190D01*
X50726785Y-38461190D02*
X50774404Y-38365952D01*
X50774404Y-38365952D02*
X50774404Y-38127857D01*
X50774404Y-38127857D02*
X50726785Y-38032619D01*
X50726785Y-38032619D02*
X50679166Y-37985000D01*
X50679166Y-37985000D02*
X50583928Y-37937380D01*
X50583928Y-37937380D02*
X50298214Y-37937380D01*
X50298214Y-37937380D02*
X50202976Y-37985000D01*
X50202976Y-37985000D02*
X50155357Y-38032619D01*
%TO.C,JP4*%
X55345833Y-86837619D02*
X55345833Y-87551904D01*
X55345833Y-87551904D02*
X55393452Y-87694761D01*
X55393452Y-87694761D02*
X55488690Y-87790000D01*
X55488690Y-87790000D02*
X55631547Y-87837619D01*
X55631547Y-87837619D02*
X55726785Y-87837619D01*
X54869642Y-87837619D02*
X54869642Y-86837619D01*
X54869642Y-86837619D02*
X54488690Y-86837619D01*
X54488690Y-86837619D02*
X54393452Y-86885238D01*
X54393452Y-86885238D02*
X54345833Y-86932857D01*
X54345833Y-86932857D02*
X54298214Y-87028095D01*
X54298214Y-87028095D02*
X54298214Y-87170952D01*
X54298214Y-87170952D02*
X54345833Y-87266190D01*
X54345833Y-87266190D02*
X54393452Y-87313809D01*
X54393452Y-87313809D02*
X54488690Y-87361428D01*
X54488690Y-87361428D02*
X54869642Y-87361428D01*
X53441071Y-87170952D02*
X53441071Y-87837619D01*
X53679166Y-86790000D02*
X53917261Y-87504285D01*
X53917261Y-87504285D02*
X53298214Y-87504285D01*
X57445832Y-85037619D02*
X56826785Y-85037619D01*
X56826785Y-85037619D02*
X57160118Y-85418571D01*
X57160118Y-85418571D02*
X57017261Y-85418571D01*
X57017261Y-85418571D02*
X56922023Y-85466190D01*
X56922023Y-85466190D02*
X56874404Y-85513809D01*
X56874404Y-85513809D02*
X56826785Y-85609047D01*
X56826785Y-85609047D02*
X56826785Y-85847142D01*
X56826785Y-85847142D02*
X56874404Y-85942380D01*
X56874404Y-85942380D02*
X56922023Y-85990000D01*
X56922023Y-85990000D02*
X57017261Y-86037619D01*
X57017261Y-86037619D02*
X57302975Y-86037619D01*
X57302975Y-86037619D02*
X57398213Y-85990000D01*
X57398213Y-85990000D02*
X57445832Y-85942380D01*
X51626785Y-86037619D02*
X52198213Y-86037619D01*
X51912499Y-86037619D02*
X51912499Y-85037619D01*
X51912499Y-85037619D02*
X52007737Y-85180476D01*
X52007737Y-85180476D02*
X52102975Y-85275714D01*
X52102975Y-85275714D02*
X52198213Y-85323333D01*
%TO.C,C78*%
X52755357Y-80442380D02*
X52802976Y-80490000D01*
X52802976Y-80490000D02*
X52945833Y-80537619D01*
X52945833Y-80537619D02*
X53041071Y-80537619D01*
X53041071Y-80537619D02*
X53183928Y-80490000D01*
X53183928Y-80490000D02*
X53279166Y-80394761D01*
X53279166Y-80394761D02*
X53326785Y-80299523D01*
X53326785Y-80299523D02*
X53374404Y-80109047D01*
X53374404Y-80109047D02*
X53374404Y-79966190D01*
X53374404Y-79966190D02*
X53326785Y-79775714D01*
X53326785Y-79775714D02*
X53279166Y-79680476D01*
X53279166Y-79680476D02*
X53183928Y-79585238D01*
X53183928Y-79585238D02*
X53041071Y-79537619D01*
X53041071Y-79537619D02*
X52945833Y-79537619D01*
X52945833Y-79537619D02*
X52802976Y-79585238D01*
X52802976Y-79585238D02*
X52755357Y-79632857D01*
X52422023Y-79537619D02*
X51755357Y-79537619D01*
X51755357Y-79537619D02*
X52183928Y-80537619D01*
X51231547Y-79966190D02*
X51326785Y-79918571D01*
X51326785Y-79918571D02*
X51374404Y-79870952D01*
X51374404Y-79870952D02*
X51422023Y-79775714D01*
X51422023Y-79775714D02*
X51422023Y-79728095D01*
X51422023Y-79728095D02*
X51374404Y-79632857D01*
X51374404Y-79632857D02*
X51326785Y-79585238D01*
X51326785Y-79585238D02*
X51231547Y-79537619D01*
X51231547Y-79537619D02*
X51041071Y-79537619D01*
X51041071Y-79537619D02*
X50945833Y-79585238D01*
X50945833Y-79585238D02*
X50898214Y-79632857D01*
X50898214Y-79632857D02*
X50850595Y-79728095D01*
X50850595Y-79728095D02*
X50850595Y-79775714D01*
X50850595Y-79775714D02*
X50898214Y-79870952D01*
X50898214Y-79870952D02*
X50945833Y-79918571D01*
X50945833Y-79918571D02*
X51041071Y-79966190D01*
X51041071Y-79966190D02*
X51231547Y-79966190D01*
X51231547Y-79966190D02*
X51326785Y-80013809D01*
X51326785Y-80013809D02*
X51374404Y-80061428D01*
X51374404Y-80061428D02*
X51422023Y-80156666D01*
X51422023Y-80156666D02*
X51422023Y-80347142D01*
X51422023Y-80347142D02*
X51374404Y-80442380D01*
X51374404Y-80442380D02*
X51326785Y-80490000D01*
X51326785Y-80490000D02*
X51231547Y-80537619D01*
X51231547Y-80537619D02*
X51041071Y-80537619D01*
X51041071Y-80537619D02*
X50945833Y-80490000D01*
X50945833Y-80490000D02*
X50898214Y-80442380D01*
X50898214Y-80442380D02*
X50850595Y-80347142D01*
X50850595Y-80347142D02*
X50850595Y-80156666D01*
X50850595Y-80156666D02*
X50898214Y-80061428D01*
X50898214Y-80061428D02*
X50945833Y-80013809D01*
X50945833Y-80013809D02*
X51041071Y-79966190D01*
%TO.C,C77*%
X65579880Y-84032142D02*
X65627500Y-83984523D01*
X65627500Y-83984523D02*
X65675119Y-83841666D01*
X65675119Y-83841666D02*
X65675119Y-83746428D01*
X65675119Y-83746428D02*
X65627500Y-83603571D01*
X65627500Y-83603571D02*
X65532261Y-83508333D01*
X65532261Y-83508333D02*
X65437023Y-83460714D01*
X65437023Y-83460714D02*
X65246547Y-83413095D01*
X65246547Y-83413095D02*
X65103690Y-83413095D01*
X65103690Y-83413095D02*
X64913214Y-83460714D01*
X64913214Y-83460714D02*
X64817976Y-83508333D01*
X64817976Y-83508333D02*
X64722738Y-83603571D01*
X64722738Y-83603571D02*
X64675119Y-83746428D01*
X64675119Y-83746428D02*
X64675119Y-83841666D01*
X64675119Y-83841666D02*
X64722738Y-83984523D01*
X64722738Y-83984523D02*
X64770357Y-84032142D01*
X64675119Y-84365476D02*
X64675119Y-85032142D01*
X64675119Y-85032142D02*
X65675119Y-84603571D01*
X64675119Y-85317857D02*
X64675119Y-85984523D01*
X64675119Y-85984523D02*
X65675119Y-85555952D01*
%TO.C,C75*%
X52755357Y-72042380D02*
X52802976Y-72090000D01*
X52802976Y-72090000D02*
X52945833Y-72137619D01*
X52945833Y-72137619D02*
X53041071Y-72137619D01*
X53041071Y-72137619D02*
X53183928Y-72090000D01*
X53183928Y-72090000D02*
X53279166Y-71994761D01*
X53279166Y-71994761D02*
X53326785Y-71899523D01*
X53326785Y-71899523D02*
X53374404Y-71709047D01*
X53374404Y-71709047D02*
X53374404Y-71566190D01*
X53374404Y-71566190D02*
X53326785Y-71375714D01*
X53326785Y-71375714D02*
X53279166Y-71280476D01*
X53279166Y-71280476D02*
X53183928Y-71185238D01*
X53183928Y-71185238D02*
X53041071Y-71137619D01*
X53041071Y-71137619D02*
X52945833Y-71137619D01*
X52945833Y-71137619D02*
X52802976Y-71185238D01*
X52802976Y-71185238D02*
X52755357Y-71232857D01*
X52422023Y-71137619D02*
X51755357Y-71137619D01*
X51755357Y-71137619D02*
X52183928Y-72137619D01*
X50898214Y-71137619D02*
X51374404Y-71137619D01*
X51374404Y-71137619D02*
X51422023Y-71613809D01*
X51422023Y-71613809D02*
X51374404Y-71566190D01*
X51374404Y-71566190D02*
X51279166Y-71518571D01*
X51279166Y-71518571D02*
X51041071Y-71518571D01*
X51041071Y-71518571D02*
X50945833Y-71566190D01*
X50945833Y-71566190D02*
X50898214Y-71613809D01*
X50898214Y-71613809D02*
X50850595Y-71709047D01*
X50850595Y-71709047D02*
X50850595Y-71947142D01*
X50850595Y-71947142D02*
X50898214Y-72042380D01*
X50898214Y-72042380D02*
X50945833Y-72090000D01*
X50945833Y-72090000D02*
X51041071Y-72137619D01*
X51041071Y-72137619D02*
X51279166Y-72137619D01*
X51279166Y-72137619D02*
X51374404Y-72090000D01*
X51374404Y-72090000D02*
X51422023Y-72042380D01*
%TO.C,JP5*%
X77445833Y-80537619D02*
X77445833Y-81251904D01*
X77445833Y-81251904D02*
X77493452Y-81394761D01*
X77493452Y-81394761D02*
X77588690Y-81490000D01*
X77588690Y-81490000D02*
X77731547Y-81537619D01*
X77731547Y-81537619D02*
X77826785Y-81537619D01*
X76969642Y-81537619D02*
X76969642Y-80537619D01*
X76969642Y-80537619D02*
X76588690Y-80537619D01*
X76588690Y-80537619D02*
X76493452Y-80585238D01*
X76493452Y-80585238D02*
X76445833Y-80632857D01*
X76445833Y-80632857D02*
X76398214Y-80728095D01*
X76398214Y-80728095D02*
X76398214Y-80870952D01*
X76398214Y-80870952D02*
X76445833Y-80966190D01*
X76445833Y-80966190D02*
X76493452Y-81013809D01*
X76493452Y-81013809D02*
X76588690Y-81061428D01*
X76588690Y-81061428D02*
X76969642Y-81061428D01*
X75493452Y-80537619D02*
X75969642Y-80537619D01*
X75969642Y-80537619D02*
X76017261Y-81013809D01*
X76017261Y-81013809D02*
X75969642Y-80966190D01*
X75969642Y-80966190D02*
X75874404Y-80918571D01*
X75874404Y-80918571D02*
X75636309Y-80918571D01*
X75636309Y-80918571D02*
X75541071Y-80966190D01*
X75541071Y-80966190D02*
X75493452Y-81013809D01*
X75493452Y-81013809D02*
X75445833Y-81109047D01*
X75445833Y-81109047D02*
X75445833Y-81347142D01*
X75445833Y-81347142D02*
X75493452Y-81442380D01*
X75493452Y-81442380D02*
X75541071Y-81490000D01*
X75541071Y-81490000D02*
X75636309Y-81537619D01*
X75636309Y-81537619D02*
X75874404Y-81537619D01*
X75874404Y-81537619D02*
X75969642Y-81490000D01*
X75969642Y-81490000D02*
X76017261Y-81442380D01*
X69945832Y-80437619D02*
X69326785Y-80437619D01*
X69326785Y-80437619D02*
X69660118Y-80818571D01*
X69660118Y-80818571D02*
X69517261Y-80818571D01*
X69517261Y-80818571D02*
X69422023Y-80866190D01*
X69422023Y-80866190D02*
X69374404Y-80913809D01*
X69374404Y-80913809D02*
X69326785Y-81009047D01*
X69326785Y-81009047D02*
X69326785Y-81247142D01*
X69326785Y-81247142D02*
X69374404Y-81342380D01*
X69374404Y-81342380D02*
X69422023Y-81390000D01*
X69422023Y-81390000D02*
X69517261Y-81437619D01*
X69517261Y-81437619D02*
X69802975Y-81437619D01*
X69802975Y-81437619D02*
X69898213Y-81390000D01*
X69898213Y-81390000D02*
X69945832Y-81342380D01*
X74526785Y-81437619D02*
X75098213Y-81437619D01*
X74812499Y-81437619D02*
X74812499Y-80437619D01*
X74812499Y-80437619D02*
X74907737Y-80580476D01*
X74907737Y-80580476D02*
X75002975Y-80675714D01*
X75002975Y-80675714D02*
X75098213Y-80723333D01*
%TO.C,JP9*%
X94545833Y-50862619D02*
X94545833Y-51576904D01*
X94545833Y-51576904D02*
X94593452Y-51719761D01*
X94593452Y-51719761D02*
X94688690Y-51815000D01*
X94688690Y-51815000D02*
X94831547Y-51862619D01*
X94831547Y-51862619D02*
X94926785Y-51862619D01*
X94069642Y-51862619D02*
X94069642Y-50862619D01*
X94069642Y-50862619D02*
X93688690Y-50862619D01*
X93688690Y-50862619D02*
X93593452Y-50910238D01*
X93593452Y-50910238D02*
X93545833Y-50957857D01*
X93545833Y-50957857D02*
X93498214Y-51053095D01*
X93498214Y-51053095D02*
X93498214Y-51195952D01*
X93498214Y-51195952D02*
X93545833Y-51291190D01*
X93545833Y-51291190D02*
X93593452Y-51338809D01*
X93593452Y-51338809D02*
X93688690Y-51386428D01*
X93688690Y-51386428D02*
X94069642Y-51386428D01*
X93022023Y-51862619D02*
X92831547Y-51862619D01*
X92831547Y-51862619D02*
X92736309Y-51815000D01*
X92736309Y-51815000D02*
X92688690Y-51767380D01*
X92688690Y-51767380D02*
X92593452Y-51624523D01*
X92593452Y-51624523D02*
X92545833Y-51434047D01*
X92545833Y-51434047D02*
X92545833Y-51053095D01*
X92545833Y-51053095D02*
X92593452Y-50957857D01*
X92593452Y-50957857D02*
X92641071Y-50910238D01*
X92641071Y-50910238D02*
X92736309Y-50862619D01*
X92736309Y-50862619D02*
X92926785Y-50862619D01*
X92926785Y-50862619D02*
X93022023Y-50910238D01*
X93022023Y-50910238D02*
X93069642Y-50957857D01*
X93069642Y-50957857D02*
X93117261Y-51053095D01*
X93117261Y-51053095D02*
X93117261Y-51291190D01*
X93117261Y-51291190D02*
X93069642Y-51386428D01*
X93069642Y-51386428D02*
X93022023Y-51434047D01*
X93022023Y-51434047D02*
X92926785Y-51481666D01*
X92926785Y-51481666D02*
X92736309Y-51481666D01*
X92736309Y-51481666D02*
X92641071Y-51434047D01*
X92641071Y-51434047D02*
X92593452Y-51386428D01*
X92593452Y-51386428D02*
X92545833Y-51291190D01*
X95845832Y-50862619D02*
X95226785Y-50862619D01*
X95226785Y-50862619D02*
X95560118Y-51243571D01*
X95560118Y-51243571D02*
X95417261Y-51243571D01*
X95417261Y-51243571D02*
X95322023Y-51291190D01*
X95322023Y-51291190D02*
X95274404Y-51338809D01*
X95274404Y-51338809D02*
X95226785Y-51434047D01*
X95226785Y-51434047D02*
X95226785Y-51672142D01*
X95226785Y-51672142D02*
X95274404Y-51767380D01*
X95274404Y-51767380D02*
X95322023Y-51815000D01*
X95322023Y-51815000D02*
X95417261Y-51862619D01*
X95417261Y-51862619D02*
X95702975Y-51862619D01*
X95702975Y-51862619D02*
X95798213Y-51815000D01*
X95798213Y-51815000D02*
X95845832Y-51767380D01*
X100426785Y-51862619D02*
X100998213Y-51862619D01*
X100712499Y-51862619D02*
X100712499Y-50862619D01*
X100712499Y-50862619D02*
X100807737Y-51005476D01*
X100807737Y-51005476D02*
X100902975Y-51100714D01*
X100902975Y-51100714D02*
X100998213Y-51148333D01*
%TO.C,JP2*%
X152912619Y-33016666D02*
X153626904Y-33016666D01*
X153626904Y-33016666D02*
X153769761Y-32969047D01*
X153769761Y-32969047D02*
X153865000Y-32873809D01*
X153865000Y-32873809D02*
X153912619Y-32730952D01*
X153912619Y-32730952D02*
X153912619Y-32635714D01*
X153912619Y-33492857D02*
X152912619Y-33492857D01*
X152912619Y-33492857D02*
X152912619Y-33873809D01*
X152912619Y-33873809D02*
X152960238Y-33969047D01*
X152960238Y-33969047D02*
X153007857Y-34016666D01*
X153007857Y-34016666D02*
X153103095Y-34064285D01*
X153103095Y-34064285D02*
X153245952Y-34064285D01*
X153245952Y-34064285D02*
X153341190Y-34016666D01*
X153341190Y-34016666D02*
X153388809Y-33969047D01*
X153388809Y-33969047D02*
X153436428Y-33873809D01*
X153436428Y-33873809D02*
X153436428Y-33492857D01*
X153007857Y-34445238D02*
X152960238Y-34492857D01*
X152960238Y-34492857D02*
X152912619Y-34588095D01*
X152912619Y-34588095D02*
X152912619Y-34826190D01*
X152912619Y-34826190D02*
X152960238Y-34921428D01*
X152960238Y-34921428D02*
X153007857Y-34969047D01*
X153007857Y-34969047D02*
X153103095Y-35016666D01*
X153103095Y-35016666D02*
X153198333Y-35016666D01*
X153198333Y-35016666D02*
X153341190Y-34969047D01*
X153341190Y-34969047D02*
X153912619Y-34397619D01*
X153912619Y-34397619D02*
X153912619Y-35016666D01*
X152112619Y-36735714D02*
X152112619Y-36164286D01*
X152112619Y-36450000D02*
X151112619Y-36450000D01*
X151112619Y-36450000D02*
X151255476Y-36354762D01*
X151255476Y-36354762D02*
X151350714Y-36259524D01*
X151350714Y-36259524D02*
X151398333Y-36164286D01*
X151112619Y-30916667D02*
X151112619Y-31535714D01*
X151112619Y-31535714D02*
X151493571Y-31202381D01*
X151493571Y-31202381D02*
X151493571Y-31345238D01*
X151493571Y-31345238D02*
X151541190Y-31440476D01*
X151541190Y-31440476D02*
X151588809Y-31488095D01*
X151588809Y-31488095D02*
X151684047Y-31535714D01*
X151684047Y-31535714D02*
X151922142Y-31535714D01*
X151922142Y-31535714D02*
X152017380Y-31488095D01*
X152017380Y-31488095D02*
X152065000Y-31440476D01*
X152065000Y-31440476D02*
X152112619Y-31345238D01*
X152112619Y-31345238D02*
X152112619Y-31059524D01*
X152112619Y-31059524D02*
X152065000Y-30964286D01*
X152065000Y-30964286D02*
X152017380Y-30916667D01*
%TO.C,TP9*%
X72074404Y-68389619D02*
X71502976Y-68389619D01*
X71788690Y-69389619D02*
X71788690Y-68389619D01*
X71169642Y-69389619D02*
X71169642Y-68389619D01*
X71169642Y-68389619D02*
X70788690Y-68389619D01*
X70788690Y-68389619D02*
X70693452Y-68437238D01*
X70693452Y-68437238D02*
X70645833Y-68484857D01*
X70645833Y-68484857D02*
X70598214Y-68580095D01*
X70598214Y-68580095D02*
X70598214Y-68722952D01*
X70598214Y-68722952D02*
X70645833Y-68818190D01*
X70645833Y-68818190D02*
X70693452Y-68865809D01*
X70693452Y-68865809D02*
X70788690Y-68913428D01*
X70788690Y-68913428D02*
X71169642Y-68913428D01*
X70122023Y-69389619D02*
X69931547Y-69389619D01*
X69931547Y-69389619D02*
X69836309Y-69342000D01*
X69836309Y-69342000D02*
X69788690Y-69294380D01*
X69788690Y-69294380D02*
X69693452Y-69151523D01*
X69693452Y-69151523D02*
X69645833Y-68961047D01*
X69645833Y-68961047D02*
X69645833Y-68580095D01*
X69645833Y-68580095D02*
X69693452Y-68484857D01*
X69693452Y-68484857D02*
X69741071Y-68437238D01*
X69741071Y-68437238D02*
X69836309Y-68389619D01*
X69836309Y-68389619D02*
X70026785Y-68389619D01*
X70026785Y-68389619D02*
X70122023Y-68437238D01*
X70122023Y-68437238D02*
X70169642Y-68484857D01*
X70169642Y-68484857D02*
X70217261Y-68580095D01*
X70217261Y-68580095D02*
X70217261Y-68818190D01*
X70217261Y-68818190D02*
X70169642Y-68913428D01*
X70169642Y-68913428D02*
X70122023Y-68961047D01*
X70122023Y-68961047D02*
X70026785Y-69008666D01*
X70026785Y-69008666D02*
X69836309Y-69008666D01*
X69836309Y-69008666D02*
X69741071Y-68961047D01*
X69741071Y-68961047D02*
X69693452Y-68913428D01*
X69693452Y-68913428D02*
X69645833Y-68818190D01*
%TO.C,C72*%
X52755357Y-78842380D02*
X52802976Y-78890000D01*
X52802976Y-78890000D02*
X52945833Y-78937619D01*
X52945833Y-78937619D02*
X53041071Y-78937619D01*
X53041071Y-78937619D02*
X53183928Y-78890000D01*
X53183928Y-78890000D02*
X53279166Y-78794761D01*
X53279166Y-78794761D02*
X53326785Y-78699523D01*
X53326785Y-78699523D02*
X53374404Y-78509047D01*
X53374404Y-78509047D02*
X53374404Y-78366190D01*
X53374404Y-78366190D02*
X53326785Y-78175714D01*
X53326785Y-78175714D02*
X53279166Y-78080476D01*
X53279166Y-78080476D02*
X53183928Y-77985238D01*
X53183928Y-77985238D02*
X53041071Y-77937619D01*
X53041071Y-77937619D02*
X52945833Y-77937619D01*
X52945833Y-77937619D02*
X52802976Y-77985238D01*
X52802976Y-77985238D02*
X52755357Y-78032857D01*
X52422023Y-77937619D02*
X51755357Y-77937619D01*
X51755357Y-77937619D02*
X52183928Y-78937619D01*
X51422023Y-78032857D02*
X51374404Y-77985238D01*
X51374404Y-77985238D02*
X51279166Y-77937619D01*
X51279166Y-77937619D02*
X51041071Y-77937619D01*
X51041071Y-77937619D02*
X50945833Y-77985238D01*
X50945833Y-77985238D02*
X50898214Y-78032857D01*
X50898214Y-78032857D02*
X50850595Y-78128095D01*
X50850595Y-78128095D02*
X50850595Y-78223333D01*
X50850595Y-78223333D02*
X50898214Y-78366190D01*
X50898214Y-78366190D02*
X51469642Y-78937619D01*
X51469642Y-78937619D02*
X50850595Y-78937619D01*
%TO.C,TP3*%
X72174404Y-84185619D02*
X71602976Y-84185619D01*
X71888690Y-85185619D02*
X71888690Y-84185619D01*
X71269642Y-85185619D02*
X71269642Y-84185619D01*
X71269642Y-84185619D02*
X70888690Y-84185619D01*
X70888690Y-84185619D02*
X70793452Y-84233238D01*
X70793452Y-84233238D02*
X70745833Y-84280857D01*
X70745833Y-84280857D02*
X70698214Y-84376095D01*
X70698214Y-84376095D02*
X70698214Y-84518952D01*
X70698214Y-84518952D02*
X70745833Y-84614190D01*
X70745833Y-84614190D02*
X70793452Y-84661809D01*
X70793452Y-84661809D02*
X70888690Y-84709428D01*
X70888690Y-84709428D02*
X71269642Y-84709428D01*
X70364880Y-84185619D02*
X69745833Y-84185619D01*
X69745833Y-84185619D02*
X70079166Y-84566571D01*
X70079166Y-84566571D02*
X69936309Y-84566571D01*
X69936309Y-84566571D02*
X69841071Y-84614190D01*
X69841071Y-84614190D02*
X69793452Y-84661809D01*
X69793452Y-84661809D02*
X69745833Y-84757047D01*
X69745833Y-84757047D02*
X69745833Y-84995142D01*
X69745833Y-84995142D02*
X69793452Y-85090380D01*
X69793452Y-85090380D02*
X69841071Y-85138000D01*
X69841071Y-85138000D02*
X69936309Y-85185619D01*
X69936309Y-85185619D02*
X70222023Y-85185619D01*
X70222023Y-85185619D02*
X70317261Y-85138000D01*
X70317261Y-85138000D02*
X70364880Y-85090380D01*
%TO.C,C76*%
X63079880Y-74332142D02*
X63127500Y-74284523D01*
X63127500Y-74284523D02*
X63175119Y-74141666D01*
X63175119Y-74141666D02*
X63175119Y-74046428D01*
X63175119Y-74046428D02*
X63127500Y-73903571D01*
X63127500Y-73903571D02*
X63032261Y-73808333D01*
X63032261Y-73808333D02*
X62937023Y-73760714D01*
X62937023Y-73760714D02*
X62746547Y-73713095D01*
X62746547Y-73713095D02*
X62603690Y-73713095D01*
X62603690Y-73713095D02*
X62413214Y-73760714D01*
X62413214Y-73760714D02*
X62317976Y-73808333D01*
X62317976Y-73808333D02*
X62222738Y-73903571D01*
X62222738Y-73903571D02*
X62175119Y-74046428D01*
X62175119Y-74046428D02*
X62175119Y-74141666D01*
X62175119Y-74141666D02*
X62222738Y-74284523D01*
X62222738Y-74284523D02*
X62270357Y-74332142D01*
X62175119Y-74665476D02*
X62175119Y-75332142D01*
X62175119Y-75332142D02*
X63175119Y-74903571D01*
X62175119Y-76141666D02*
X62175119Y-75951190D01*
X62175119Y-75951190D02*
X62222738Y-75855952D01*
X62222738Y-75855952D02*
X62270357Y-75808333D01*
X62270357Y-75808333D02*
X62413214Y-75713095D01*
X62413214Y-75713095D02*
X62603690Y-75665476D01*
X62603690Y-75665476D02*
X62984642Y-75665476D01*
X62984642Y-75665476D02*
X63079880Y-75713095D01*
X63079880Y-75713095D02*
X63127500Y-75760714D01*
X63127500Y-75760714D02*
X63175119Y-75855952D01*
X63175119Y-75855952D02*
X63175119Y-76046428D01*
X63175119Y-76046428D02*
X63127500Y-76141666D01*
X63127500Y-76141666D02*
X63079880Y-76189285D01*
X63079880Y-76189285D02*
X62984642Y-76236904D01*
X62984642Y-76236904D02*
X62746547Y-76236904D01*
X62746547Y-76236904D02*
X62651309Y-76189285D01*
X62651309Y-76189285D02*
X62603690Y-76141666D01*
X62603690Y-76141666D02*
X62556071Y-76046428D01*
X62556071Y-76046428D02*
X62556071Y-75855952D01*
X62556071Y-75855952D02*
X62603690Y-75760714D01*
X62603690Y-75760714D02*
X62651309Y-75713095D01*
X62651309Y-75713095D02*
X62746547Y-75665476D01*
%TO.C,JP7*%
X77445833Y-72737619D02*
X77445833Y-73451904D01*
X77445833Y-73451904D02*
X77493452Y-73594761D01*
X77493452Y-73594761D02*
X77588690Y-73690000D01*
X77588690Y-73690000D02*
X77731547Y-73737619D01*
X77731547Y-73737619D02*
X77826785Y-73737619D01*
X76969642Y-73737619D02*
X76969642Y-72737619D01*
X76969642Y-72737619D02*
X76588690Y-72737619D01*
X76588690Y-72737619D02*
X76493452Y-72785238D01*
X76493452Y-72785238D02*
X76445833Y-72832857D01*
X76445833Y-72832857D02*
X76398214Y-72928095D01*
X76398214Y-72928095D02*
X76398214Y-73070952D01*
X76398214Y-73070952D02*
X76445833Y-73166190D01*
X76445833Y-73166190D02*
X76493452Y-73213809D01*
X76493452Y-73213809D02*
X76588690Y-73261428D01*
X76588690Y-73261428D02*
X76969642Y-73261428D01*
X76064880Y-72737619D02*
X75398214Y-72737619D01*
X75398214Y-72737619D02*
X75826785Y-73737619D01*
X69945832Y-72637619D02*
X69326785Y-72637619D01*
X69326785Y-72637619D02*
X69660118Y-73018571D01*
X69660118Y-73018571D02*
X69517261Y-73018571D01*
X69517261Y-73018571D02*
X69422023Y-73066190D01*
X69422023Y-73066190D02*
X69374404Y-73113809D01*
X69374404Y-73113809D02*
X69326785Y-73209047D01*
X69326785Y-73209047D02*
X69326785Y-73447142D01*
X69326785Y-73447142D02*
X69374404Y-73542380D01*
X69374404Y-73542380D02*
X69422023Y-73590000D01*
X69422023Y-73590000D02*
X69517261Y-73637619D01*
X69517261Y-73637619D02*
X69802975Y-73637619D01*
X69802975Y-73637619D02*
X69898213Y-73590000D01*
X69898213Y-73590000D02*
X69945832Y-73542380D01*
X74526785Y-73637619D02*
X75098213Y-73637619D01*
X74812499Y-73637619D02*
X74812499Y-72637619D01*
X74812499Y-72637619D02*
X74907737Y-72780476D01*
X74907737Y-72780476D02*
X75002975Y-72875714D01*
X75002975Y-72875714D02*
X75098213Y-72923333D01*
%TO.C,D8*%
X51250594Y-161862619D02*
X51250594Y-160862619D01*
X51250594Y-160862619D02*
X51012499Y-160862619D01*
X51012499Y-160862619D02*
X50869642Y-160910238D01*
X50869642Y-160910238D02*
X50774404Y-161005476D01*
X50774404Y-161005476D02*
X50726785Y-161100714D01*
X50726785Y-161100714D02*
X50679166Y-161291190D01*
X50679166Y-161291190D02*
X50679166Y-161434047D01*
X50679166Y-161434047D02*
X50726785Y-161624523D01*
X50726785Y-161624523D02*
X50774404Y-161719761D01*
X50774404Y-161719761D02*
X50869642Y-161815000D01*
X50869642Y-161815000D02*
X51012499Y-161862619D01*
X51012499Y-161862619D02*
X51250594Y-161862619D01*
X50107737Y-161291190D02*
X50202975Y-161243571D01*
X50202975Y-161243571D02*
X50250594Y-161195952D01*
X50250594Y-161195952D02*
X50298213Y-161100714D01*
X50298213Y-161100714D02*
X50298213Y-161053095D01*
X50298213Y-161053095D02*
X50250594Y-160957857D01*
X50250594Y-160957857D02*
X50202975Y-160910238D01*
X50202975Y-160910238D02*
X50107737Y-160862619D01*
X50107737Y-160862619D02*
X49917261Y-160862619D01*
X49917261Y-160862619D02*
X49822023Y-160910238D01*
X49822023Y-160910238D02*
X49774404Y-160957857D01*
X49774404Y-160957857D02*
X49726785Y-161053095D01*
X49726785Y-161053095D02*
X49726785Y-161100714D01*
X49726785Y-161100714D02*
X49774404Y-161195952D01*
X49774404Y-161195952D02*
X49822023Y-161243571D01*
X49822023Y-161243571D02*
X49917261Y-161291190D01*
X49917261Y-161291190D02*
X50107737Y-161291190D01*
X50107737Y-161291190D02*
X50202975Y-161338809D01*
X50202975Y-161338809D02*
X50250594Y-161386428D01*
X50250594Y-161386428D02*
X50298213Y-161481666D01*
X50298213Y-161481666D02*
X50298213Y-161672142D01*
X50298213Y-161672142D02*
X50250594Y-161767380D01*
X50250594Y-161767380D02*
X50202975Y-161815000D01*
X50202975Y-161815000D02*
X50107737Y-161862619D01*
X50107737Y-161862619D02*
X49917261Y-161862619D01*
X49917261Y-161862619D02*
X49822023Y-161815000D01*
X49822023Y-161815000D02*
X49774404Y-161767380D01*
X49774404Y-161767380D02*
X49726785Y-161672142D01*
X49726785Y-161672142D02*
X49726785Y-161481666D01*
X49726785Y-161481666D02*
X49774404Y-161386428D01*
X49774404Y-161386428D02*
X49822023Y-161338809D01*
X49822023Y-161338809D02*
X49917261Y-161291190D01*
%TO.C,C61*%
X52755357Y-82042380D02*
X52802976Y-82090000D01*
X52802976Y-82090000D02*
X52945833Y-82137619D01*
X52945833Y-82137619D02*
X53041071Y-82137619D01*
X53041071Y-82137619D02*
X53183928Y-82090000D01*
X53183928Y-82090000D02*
X53279166Y-81994761D01*
X53279166Y-81994761D02*
X53326785Y-81899523D01*
X53326785Y-81899523D02*
X53374404Y-81709047D01*
X53374404Y-81709047D02*
X53374404Y-81566190D01*
X53374404Y-81566190D02*
X53326785Y-81375714D01*
X53326785Y-81375714D02*
X53279166Y-81280476D01*
X53279166Y-81280476D02*
X53183928Y-81185238D01*
X53183928Y-81185238D02*
X53041071Y-81137619D01*
X53041071Y-81137619D02*
X52945833Y-81137619D01*
X52945833Y-81137619D02*
X52802976Y-81185238D01*
X52802976Y-81185238D02*
X52755357Y-81232857D01*
X51898214Y-81137619D02*
X52088690Y-81137619D01*
X52088690Y-81137619D02*
X52183928Y-81185238D01*
X52183928Y-81185238D02*
X52231547Y-81232857D01*
X52231547Y-81232857D02*
X52326785Y-81375714D01*
X52326785Y-81375714D02*
X52374404Y-81566190D01*
X52374404Y-81566190D02*
X52374404Y-81947142D01*
X52374404Y-81947142D02*
X52326785Y-82042380D01*
X52326785Y-82042380D02*
X52279166Y-82090000D01*
X52279166Y-82090000D02*
X52183928Y-82137619D01*
X52183928Y-82137619D02*
X51993452Y-82137619D01*
X51993452Y-82137619D02*
X51898214Y-82090000D01*
X51898214Y-82090000D02*
X51850595Y-82042380D01*
X51850595Y-82042380D02*
X51802976Y-81947142D01*
X51802976Y-81947142D02*
X51802976Y-81709047D01*
X51802976Y-81709047D02*
X51850595Y-81613809D01*
X51850595Y-81613809D02*
X51898214Y-81566190D01*
X51898214Y-81566190D02*
X51993452Y-81518571D01*
X51993452Y-81518571D02*
X52183928Y-81518571D01*
X52183928Y-81518571D02*
X52279166Y-81566190D01*
X52279166Y-81566190D02*
X52326785Y-81613809D01*
X52326785Y-81613809D02*
X52374404Y-81709047D01*
X50850595Y-82137619D02*
X51422023Y-82137619D01*
X51136309Y-82137619D02*
X51136309Y-81137619D01*
X51136309Y-81137619D02*
X51231547Y-81280476D01*
X51231547Y-81280476D02*
X51326785Y-81375714D01*
X51326785Y-81375714D02*
X51422023Y-81423333D01*
D11*
%TO.C,C53*%
X53022500Y-74334420D02*
X53022500Y-74615580D01*
X52002500Y-74334420D02*
X52002500Y-74615580D01*
%TO.C,C60*%
X62422500Y-81534420D02*
X62422500Y-81815580D01*
X61402500Y-81534420D02*
X61402500Y-81815580D01*
%TO.C,C62*%
X64871920Y-72265000D02*
X65153080Y-72265000D01*
X64871920Y-73285000D02*
X65153080Y-73285000D01*
%TO.C,C54*%
X64871920Y-70665000D02*
X65153080Y-70665000D01*
X64871920Y-71685000D02*
X65153080Y-71685000D01*
D12*
%TO.C,D35*%
X68788600Y-35168100D02*
X70236400Y-35168100D01*
X70236400Y-35168100D02*
X70236400Y-35465534D01*
X70236400Y-37334466D02*
X70236400Y-37631900D01*
X70236400Y-37631900D02*
X68788600Y-37631900D01*
X68278060Y-37076172D02*
G75*
G03*
X68278060Y-37223828I-18860J-73828D01*
G01*
D11*
%TO.C,C73*%
X54971920Y-69565000D02*
X55253080Y-69565000D01*
X54971920Y-70585000D02*
X55253080Y-70585000D01*
D12*
%TO.C,D14*%
X70236400Y-164631900D02*
X68788600Y-164631900D01*
X68788600Y-164631900D02*
X68788600Y-164334466D01*
X68788600Y-162465534D02*
X68788600Y-162168100D01*
X68788600Y-162168100D02*
X70236400Y-162168100D01*
X70746940Y-162723828D02*
G75*
G03*
X70746940Y-162576172I18860J73828D01*
G01*
%TO.C,D21*%
X76536400Y-154131900D02*
X75088600Y-154131900D01*
X75088600Y-154131900D02*
X75088600Y-153834466D01*
X75088600Y-151965534D02*
X75088600Y-151668100D01*
X75088600Y-151668100D02*
X76536400Y-151668100D01*
X77046940Y-152223828D02*
G75*
G03*
X77046940Y-152076172I18860J73828D01*
G01*
D11*
%TO.C,C66*%
X54971920Y-76365000D02*
X55253080Y-76365000D01*
X54971920Y-77385000D02*
X55253080Y-77385000D01*
%TO.C,TP4*%
X102762500Y-50200000D02*
G75*
G03*
X102762500Y-50200000I-950000J0D01*
G01*
%TO.C,JP11*%
X100162500Y-54200000D02*
X100162500Y-53600000D01*
X99512500Y-52900000D02*
X96712500Y-52900000D01*
X96712500Y-54900000D02*
X99512500Y-54900000D01*
X96062500Y-53600000D02*
X96062500Y-54200000D01*
X99462500Y-54900000D02*
G75*
G03*
X100162500Y-54200000I1J699999D01*
G01*
X100162500Y-53600000D02*
G75*
G03*
X99462500Y-52900000I-699999J1D01*
G01*
X96062500Y-54200000D02*
G75*
G03*
X96762500Y-54900000I700000J0D01*
G01*
X96762500Y-52900000D02*
G75*
G03*
X96062500Y-53600000I0J-700000D01*
G01*
%TO.C,TP5*%
X104262500Y-137200000D02*
G75*
G03*
X104262500Y-137200000I-950000J0D01*
G01*
%TO.C,JP8*%
X74262500Y-76075000D02*
X74262500Y-75475000D01*
X73612500Y-74775000D02*
X70812500Y-74775000D01*
X70812500Y-76775000D02*
X73612500Y-76775000D01*
X70162500Y-75475000D02*
X70162500Y-76075000D01*
X73562500Y-76775000D02*
G75*
G03*
X74262500Y-76075000I1J699999D01*
G01*
X74262500Y-75475000D02*
G75*
G03*
X73562500Y-74775000I-699999J1D01*
G01*
X70162500Y-76075000D02*
G75*
G03*
X70862500Y-76775000I700000J0D01*
G01*
X70862500Y-74775000D02*
G75*
G03*
X70162500Y-75475000I0J-700000D01*
G01*
%TO.C,C68*%
X63002500Y-81815580D02*
X63002500Y-81534420D01*
X64022500Y-81815580D02*
X64022500Y-81534420D01*
%TO.C,C70*%
X54971920Y-82765000D02*
X55253080Y-82765000D01*
X54971920Y-83785000D02*
X55253080Y-83785000D01*
%TO.C,C67*%
X64871920Y-75765000D02*
X65153080Y-75765000D01*
X64871920Y-76785000D02*
X65153080Y-76785000D01*
%TO.C,C64*%
X55253080Y-75785000D02*
X54971920Y-75785000D01*
X55253080Y-74765000D02*
X54971920Y-74765000D01*
%TO.C,TP1*%
X51212500Y-85575000D02*
G75*
G03*
X51212500Y-85575000I-700000J0D01*
G01*
%TO.C,JP10*%
X100162500Y-49200000D02*
X100162500Y-48600000D01*
X99512500Y-47900000D02*
X96712500Y-47900000D01*
X96712500Y-49900000D02*
X99512500Y-49900000D01*
X96062500Y-48600000D02*
X96062500Y-49200000D01*
X99462500Y-49900000D02*
G75*
G03*
X100162500Y-49200000I1J699999D01*
G01*
X100162500Y-48600000D02*
G75*
G03*
X99462500Y-47900000I-699999J1D01*
G01*
X96062500Y-49200000D02*
G75*
G03*
X96762500Y-49900000I700000J0D01*
G01*
X96762500Y-47900000D02*
G75*
G03*
X96062500Y-48600000I0J-700000D01*
G01*
D12*
%TO.C,D20*%
X90631700Y-47331774D02*
X89183900Y-47331774D01*
X89183900Y-47331774D02*
X89183900Y-47034340D01*
X89183900Y-45165408D02*
X89183900Y-44867974D01*
X89183900Y-44867974D02*
X90631700Y-44867974D01*
X91142240Y-45423702D02*
G75*
G03*
X91142240Y-45276046I18860J73828D01*
G01*
D11*
%TO.C,C65*%
X59002500Y-72115580D02*
X59002500Y-71834420D01*
X60022500Y-72115580D02*
X60022500Y-71834420D01*
%TO.C,JP6*%
X74262500Y-78675000D02*
X74262500Y-78075000D01*
X73612500Y-77375000D02*
X70812500Y-77375000D01*
X70812500Y-79375000D02*
X73612500Y-79375000D01*
X70162500Y-78075000D02*
X70162500Y-78675000D01*
X73562500Y-79375000D02*
G75*
G03*
X74262500Y-78675000I1J699999D01*
G01*
X74262500Y-78075000D02*
G75*
G03*
X73562500Y-77375000I-699999J1D01*
G01*
X70162500Y-78675000D02*
G75*
G03*
X70862500Y-79375000I700000J0D01*
G01*
X70862500Y-77375000D02*
G75*
G03*
X70162500Y-78075000I0J-700000D01*
G01*
%TO.C,JP19*%
X150400000Y-49350000D02*
X151000000Y-49350000D01*
X151700000Y-48700000D02*
X151700000Y-45900000D01*
X149700000Y-45900000D02*
X149700000Y-48700000D01*
X151000000Y-45250000D02*
X150400000Y-45250000D01*
X149700000Y-48650000D02*
G75*
G03*
X150400000Y-49350000I699999J-1D01*
G01*
X151000000Y-49350000D02*
G75*
G03*
X151700000Y-48650000I1J699999D01*
G01*
X150400000Y-45250000D02*
G75*
G03*
X149700000Y-45950000I0J-700000D01*
G01*
X151700000Y-45950000D02*
G75*
G03*
X151000000Y-45250000I-700000J0D01*
G01*
%TO.C,C59*%
X65153080Y-78485000D02*
X64871920Y-78485000D01*
X65153080Y-77465000D02*
X64871920Y-77465000D01*
%TO.C,JP15*%
X101362500Y-136200000D02*
X101362500Y-135600000D01*
X100712500Y-134900000D02*
X97912500Y-134900000D01*
X97912500Y-136900000D02*
X100712500Y-136900000D01*
X97262500Y-135600000D02*
X97262500Y-136200000D01*
X100662500Y-136900000D02*
G75*
G03*
X101362500Y-136200000I1J699999D01*
G01*
X101362500Y-135600000D02*
G75*
G03*
X100662500Y-134900000I-699999J1D01*
G01*
X97262500Y-136200000D02*
G75*
G03*
X97962500Y-136900000I700000J0D01*
G01*
X97962500Y-134900000D02*
G75*
G03*
X97262500Y-135600000I0J-700000D01*
G01*
%TO.C,C74*%
X61622500Y-71834420D02*
X61622500Y-72115580D01*
X60602500Y-71834420D02*
X60602500Y-72115580D01*
%TO.C,C56*%
X57402500Y-72115580D02*
X57402500Y-71834420D01*
X58422500Y-72115580D02*
X58422500Y-71834420D01*
%TO.C,JP16*%
X101362500Y-141200000D02*
X101362500Y-140600000D01*
X100712500Y-139900000D02*
X97912500Y-139900000D01*
X97912500Y-141900000D02*
X100712500Y-141900000D01*
X97262500Y-140600000D02*
X97262500Y-141200000D01*
X100662500Y-141900000D02*
G75*
G03*
X101362500Y-141200000I1J699999D01*
G01*
X101362500Y-140600000D02*
G75*
G03*
X100662500Y-139900000I-699999J1D01*
G01*
X97262500Y-141200000D02*
G75*
G03*
X97962500Y-141900000I700000J0D01*
G01*
X97962500Y-139900000D02*
G75*
G03*
X97262500Y-140600000I0J-700000D01*
G01*
%TO.C,JP3*%
X148200000Y-45900000D02*
X147600000Y-45900000D01*
X146900000Y-46600000D02*
X146900000Y-48000000D01*
X148900000Y-48000000D02*
X148900000Y-46600000D01*
X147600000Y-48700000D02*
X148200000Y-48700000D01*
X148900000Y-46600000D02*
G75*
G03*
X148200000Y-45900000I-699999J1D01*
G01*
X147600000Y-45900000D02*
G75*
G03*
X146900000Y-46600000I-1J-699999D01*
G01*
X148200000Y-48700000D02*
G75*
G03*
X148900000Y-48000000I0J700000D01*
G01*
X146900000Y-48000000D02*
G75*
G03*
X147600000Y-48700000I700000J0D01*
G01*
%TO.C,C63*%
X54971920Y-73165000D02*
X55253080Y-73165000D01*
X54971920Y-74185000D02*
X55253080Y-74185000D01*
%TO.C,JP12*%
X100162500Y-56700000D02*
X100162500Y-56100000D01*
X99512500Y-55400000D02*
X96712500Y-55400000D01*
X96712500Y-57400000D02*
X99512500Y-57400000D01*
X96062500Y-56100000D02*
X96062500Y-56700000D01*
X99462500Y-57400000D02*
G75*
G03*
X100162500Y-56700000I1J699999D01*
G01*
X100162500Y-56100000D02*
G75*
G03*
X99462500Y-55400000I-699999J1D01*
G01*
X96062500Y-56700000D02*
G75*
G03*
X96762500Y-57400000I700000J0D01*
G01*
X96762500Y-55400000D02*
G75*
G03*
X96062500Y-56100000I0J-700000D01*
G01*
D12*
%TO.C,D19*%
X85031700Y-47631900D02*
X83583900Y-47631900D01*
X83583900Y-47631900D02*
X83583900Y-47334466D01*
X83583900Y-45465534D02*
X83583900Y-45168100D01*
X83583900Y-45168100D02*
X85031700Y-45168100D01*
X85542240Y-45723828D02*
G75*
G03*
X85542240Y-45576172I18860J73828D01*
G01*
%TO.C,D22*%
X81531700Y-149431774D02*
X80083900Y-149431774D01*
X80083900Y-149431774D02*
X80083900Y-149134340D01*
X80083900Y-147265408D02*
X80083900Y-146967974D01*
X80083900Y-146967974D02*
X81531700Y-146967974D01*
X82042240Y-147523702D02*
G75*
G03*
X82042240Y-147376046I18860J73828D01*
G01*
D11*
%TO.C,JP14*%
X101362500Y-138700000D02*
X101362500Y-138100000D01*
X100712500Y-137400000D02*
X97912500Y-137400000D01*
X97912500Y-139400000D02*
X100712500Y-139400000D01*
X97262500Y-138100000D02*
X97262500Y-138700000D01*
X100662500Y-139400000D02*
G75*
G03*
X101362500Y-138700000I1J699999D01*
G01*
X101362500Y-138100000D02*
G75*
G03*
X100662500Y-137400000I-699999J1D01*
G01*
X97262500Y-138700000D02*
G75*
G03*
X97962500Y-139400000I700000J0D01*
G01*
X97962500Y-137400000D02*
G75*
G03*
X97262500Y-138100000I0J-700000D01*
G01*
%TO.C,C71*%
X60822500Y-81534420D02*
X60822500Y-81815580D01*
X59802500Y-81534420D02*
X59802500Y-81815580D01*
%TO.C,JP17*%
X101362500Y-143700000D02*
X101362500Y-143100000D01*
X100712500Y-142400000D02*
X97912500Y-142400000D01*
X97912500Y-144400000D02*
X100712500Y-144400000D01*
X97262500Y-143100000D02*
X97262500Y-143700000D01*
X100662500Y-144400000D02*
G75*
G03*
X101362500Y-143700000I1J699999D01*
G01*
X101362500Y-143100000D02*
G75*
G03*
X100662500Y-142400000I-699999J1D01*
G01*
X97262500Y-143700000D02*
G75*
G03*
X97962500Y-144400000I700000J0D01*
G01*
X97962500Y-142400000D02*
G75*
G03*
X97262500Y-143100000I0J-700000D01*
G01*
%TO.C,JP1*%
X147350000Y-35900000D02*
X147950000Y-35900000D01*
X148650000Y-35250000D02*
X148650000Y-32450000D01*
X146650000Y-32450000D02*
X146650000Y-35250000D01*
X147950000Y-31800000D02*
X147350000Y-31800000D01*
X146650000Y-35200000D02*
G75*
G03*
X147350000Y-35900000I699999J-1D01*
G01*
X147950000Y-35900000D02*
G75*
G03*
X148650000Y-35200000I1J699999D01*
G01*
X147350000Y-31800000D02*
G75*
G03*
X146650000Y-32500000I0J-700000D01*
G01*
X148650000Y-32500000D02*
G75*
G03*
X147950000Y-31800000I-700000J0D01*
G01*
%TO.C,C69*%
X59222500Y-81534420D02*
X59222500Y-81815580D01*
X58202500Y-81534420D02*
X58202500Y-81815580D01*
%TO.C,C55*%
X65153080Y-74985000D02*
X64871920Y-74985000D01*
X65153080Y-73965000D02*
X64871920Y-73965000D01*
D12*
%TO.C,D13*%
X48788600Y-35168100D02*
X50236400Y-35168100D01*
X50236400Y-35168100D02*
X50236400Y-35465534D01*
X50236400Y-37334466D02*
X50236400Y-37631900D01*
X50236400Y-37631900D02*
X48788600Y-37631900D01*
X48278060Y-37076172D02*
G75*
G03*
X48278060Y-37223828I-18860J-73828D01*
G01*
D11*
%TO.C,JP4*%
X52462500Y-85275000D02*
X52462500Y-85875000D01*
X53112500Y-86575000D02*
X55912500Y-86575000D01*
X55912500Y-84575000D02*
X53112500Y-84575000D01*
X56562500Y-85875000D02*
X56562500Y-85275000D01*
X53162500Y-84575000D02*
G75*
G03*
X52462500Y-85275000I-1J-699999D01*
G01*
X52462500Y-85875000D02*
G75*
G03*
X53162500Y-86575000I699999J-1D01*
G01*
X56562500Y-85275000D02*
G75*
G03*
X55862500Y-84575000I-700000J0D01*
G01*
X55862500Y-86575000D02*
G75*
G03*
X56562500Y-85875000I0J700000D01*
G01*
%TO.C,C78*%
X54971920Y-79565000D02*
X55253080Y-79565000D01*
X54971920Y-80585000D02*
X55253080Y-80585000D01*
%TO.C,C77*%
X65622500Y-81534420D02*
X65622500Y-81815580D01*
X64602500Y-81534420D02*
X64602500Y-81815580D01*
%TO.C,C75*%
X54971920Y-71165000D02*
X55253080Y-71165000D01*
X54971920Y-72185000D02*
X55253080Y-72185000D01*
%TO.C,JP5*%
X74262500Y-81275000D02*
X74262500Y-80675000D01*
X73612500Y-79975000D02*
X70812500Y-79975000D01*
X70812500Y-81975000D02*
X73612500Y-81975000D01*
X70162500Y-80675000D02*
X70162500Y-81275000D01*
X73562500Y-81975000D02*
G75*
G03*
X74262500Y-81275000I1J699999D01*
G01*
X74262500Y-80675000D02*
G75*
G03*
X73562500Y-79975000I-699999J1D01*
G01*
X70162500Y-81275000D02*
G75*
G03*
X70862500Y-81975000I700000J0D01*
G01*
X70862500Y-79975000D02*
G75*
G03*
X70162500Y-80675000I0J-700000D01*
G01*
%TO.C,JP9*%
X100162500Y-51700000D02*
X100162500Y-51100000D01*
X99512500Y-50400000D02*
X96712500Y-50400000D01*
X96712500Y-52400000D02*
X99512500Y-52400000D01*
X96062500Y-51100000D02*
X96062500Y-51700000D01*
X99462500Y-52400000D02*
G75*
G03*
X100162500Y-51700000I1J699999D01*
G01*
X100162500Y-51100000D02*
G75*
G03*
X99462500Y-50400000I-699999J1D01*
G01*
X96062500Y-51700000D02*
G75*
G03*
X96762500Y-52400000I700000J0D01*
G01*
X96762500Y-50400000D02*
G75*
G03*
X96062500Y-51100000I0J-700000D01*
G01*
%TO.C,JP2*%
X151350000Y-35900000D02*
X151950000Y-35900000D01*
X152650000Y-35250000D02*
X152650000Y-32450000D01*
X150650000Y-32450000D02*
X150650000Y-35250000D01*
X151950000Y-31800000D02*
X151350000Y-31800000D01*
X150650000Y-35200000D02*
G75*
G03*
X151350000Y-35900000I699999J-1D01*
G01*
X151950000Y-35900000D02*
G75*
G03*
X152650000Y-35200000I1J699999D01*
G01*
X151350000Y-31800000D02*
G75*
G03*
X150650000Y-32500000I0J-700000D01*
G01*
X152650000Y-32500000D02*
G75*
G03*
X151950000Y-31800000I-700000J0D01*
G01*
%TO.C,TP9*%
X71762500Y-70575000D02*
G75*
G03*
X71762500Y-70575000I-950000J0D01*
G01*
%TO.C,C72*%
X54971920Y-77965000D02*
X55253080Y-77965000D01*
X54971920Y-78985000D02*
X55253080Y-78985000D01*
%TO.C,TP3*%
X71612500Y-83275000D02*
G75*
G03*
X71612500Y-83275000I-700000J0D01*
G01*
%TO.C,C76*%
X63222500Y-71834420D02*
X63222500Y-72115580D01*
X62202500Y-71834420D02*
X62202500Y-72115580D01*
%TO.C,JP7*%
X74262500Y-73475000D02*
X74262500Y-72875000D01*
X73612500Y-72175000D02*
X70812500Y-72175000D01*
X70812500Y-74175000D02*
X73612500Y-74175000D01*
X70162500Y-72875000D02*
X70162500Y-73475000D01*
X73562500Y-74175000D02*
G75*
G03*
X74262500Y-73475000I1J699999D01*
G01*
X74262500Y-72875000D02*
G75*
G03*
X73562500Y-72175000I-699999J1D01*
G01*
X70162500Y-73475000D02*
G75*
G03*
X70862500Y-74175000I700000J0D01*
G01*
X70862500Y-72175000D02*
G75*
G03*
X70162500Y-72875000I0J-700000D01*
G01*
D12*
%TO.C,D8*%
X51236400Y-164631900D02*
X49788600Y-164631900D01*
X49788600Y-164631900D02*
X49788600Y-164334466D01*
X49788600Y-162465534D02*
X49788600Y-162168100D01*
X49788600Y-162168100D02*
X51236400Y-162168100D01*
X51746940Y-162723828D02*
G75*
G03*
X51746940Y-162576172I18860J73828D01*
G01*
D11*
%TO.C,C61*%
X54971920Y-81165000D02*
X55253080Y-81165000D01*
X54971920Y-82185000D02*
X55253080Y-82185000D01*
%TD*%
M02*
