%TF.GenerationSoftware,KiCad,Pcbnew,7.0.2*%
%TF.CreationDate,2023-10-01T22:33:36-04:00*%
%TF.ProjectId,usbc-car-module,75736263-2d63-4617-922d-6d6f64756c65,rev?*%
%TF.SameCoordinates,Original*%
%TF.FileFunction,Paste,Top*%
%TF.FilePolarity,Positive*%
%FSLAX46Y46*%
G04 Gerber Fmt 4.6, Leading zero omitted, Abs format (unit mm)*
G04 Created by KiCad (PCBNEW 7.0.2) date 2023-10-01 22:33:36*
%MOMM*%
%LPD*%
G01*
G04 APERTURE LIST*
G04 Aperture macros list*
%AMRoundRect*
0 Rectangle with rounded corners*
0 $1 Rounding radius*
0 $2 $3 $4 $5 $6 $7 $8 $9 X,Y pos of 4 corners*
0 Add a 4 corners polygon primitive as box body*
4,1,4,$2,$3,$4,$5,$6,$7,$8,$9,$2,$3,0*
0 Add four circle primitives for the rounded corners*
1,1,$1+$1,$2,$3*
1,1,$1+$1,$4,$5*
1,1,$1+$1,$6,$7*
1,1,$1+$1,$8,$9*
0 Add four rect primitives between the rounded corners*
20,1,$1+$1,$2,$3,$4,$5,0*
20,1,$1+$1,$4,$5,$6,$7,0*
20,1,$1+$1,$6,$7,$8,$9,0*
20,1,$1+$1,$8,$9,$2,$3,0*%
%AMRotRect*
0 Rectangle, with rotation*
0 The origin of the aperture is its center*
0 $1 length*
0 $2 width*
0 $3 Rotation angle, in degrees counterclockwise*
0 Add horizontal line*
21,1,$1,$2,0,0,$3*%
G04 Aperture macros list end*
%ADD10C,0.010000*%
%ADD11RoundRect,0.218750X0.218750X0.256250X-0.218750X0.256250X-0.218750X-0.256250X0.218750X-0.256250X0*%
%ADD12R,0.500000X0.600000*%
%ADD13RoundRect,0.225000X-0.250000X0.225000X-0.250000X-0.225000X0.250000X-0.225000X0.250000X0.225000X0*%
%ADD14RoundRect,0.225000X0.250000X-0.225000X0.250000X0.225000X-0.250000X0.225000X-0.250000X-0.225000X0*%
%ADD15RoundRect,0.225000X-0.225000X-0.250000X0.225000X-0.250000X0.225000X0.250000X-0.225000X0.250000X0*%
%ADD16RoundRect,0.200000X-0.275000X0.200000X-0.275000X-0.200000X0.275000X-0.200000X0.275000X0.200000X0*%
%ADD17RoundRect,0.200000X0.275000X-0.200000X0.275000X0.200000X-0.275000X0.200000X-0.275000X-0.200000X0*%
%ADD18RoundRect,0.218750X-0.256250X0.218750X-0.256250X-0.218750X0.256250X-0.218750X0.256250X0.218750X0*%
%ADD19RoundRect,0.200000X0.200000X0.275000X-0.200000X0.275000X-0.200000X-0.275000X0.200000X-0.275000X0*%
%ADD20RoundRect,0.218750X-0.218750X-0.256250X0.218750X-0.256250X0.218750X0.256250X-0.218750X0.256250X0*%
%ADD21R,1.200000X1.200000*%
%ADD22R,1.600000X1.500000*%
%ADD23RotRect,0.450000X0.450000X315.000000*%
%ADD24RoundRect,0.250000X-1.450000X0.312500X-1.450000X-0.312500X1.450000X-0.312500X1.450000X0.312500X0*%
%ADD25RoundRect,0.200000X-0.200000X-0.275000X0.200000X-0.275000X0.200000X0.275000X-0.200000X0.275000X0*%
%ADD26RoundRect,0.225000X0.225000X0.250000X-0.225000X0.250000X-0.225000X-0.250000X0.225000X-0.250000X0*%
%ADD27R,2.500000X1.000000*%
%ADD28R,1.000000X1.800000*%
%ADD29RoundRect,0.100000X0.637500X0.100000X-0.637500X0.100000X-0.637500X-0.100000X0.637500X-0.100000X0*%
%ADD30RoundRect,0.250000X0.312500X0.625000X-0.312500X0.625000X-0.312500X-0.625000X0.312500X-0.625000X0*%
%ADD31RotRect,0.450000X0.450000X225.000000*%
%ADD32R,0.850000X0.220000*%
%ADD33R,0.220000X0.850000*%
%ADD34RoundRect,0.250000X-0.350000X-0.350000X0.350000X-0.350000X0.350000X0.350000X-0.350000X0.350000X0*%
%ADD35RoundRect,0.250000X-0.500000X-0.550000X0.500000X-0.550000X0.500000X0.550000X-0.500000X0.550000X0*%
%ADD36RoundRect,0.250000X1.950000X1.000000X-1.950000X1.000000X-1.950000X-1.000000X1.950000X-1.000000X0*%
%ADD37RoundRect,0.250000X1.000000X0.650000X-1.000000X0.650000X-1.000000X-0.650000X1.000000X-0.650000X0*%
%ADD38RoundRect,0.217500X0.217500X-0.217500X0.217500X0.217500X-0.217500X0.217500X-0.217500X-0.217500X0*%
%ADD39RoundRect,0.062500X0.062500X-0.375000X0.062500X0.375000X-0.062500X0.375000X-0.062500X-0.375000X0*%
%ADD40RoundRect,0.062500X0.375000X-0.062500X0.375000X0.062500X-0.375000X0.062500X-0.375000X-0.062500X0*%
%ADD41RoundRect,0.250000X0.650000X-1.000000X0.650000X1.000000X-0.650000X1.000000X-0.650000X-1.000000X0*%
%ADD42RoundRect,0.218750X0.256250X-0.218750X0.256250X0.218750X-0.256250X0.218750X-0.256250X-0.218750X0*%
%ADD43R,0.900000X0.600000*%
%ADD44R,0.600000X0.900000*%
%ADD45RoundRect,0.125000X-0.175000X-0.400000X0.175000X-0.400000X0.175000X0.400000X-0.175000X0.400000X0*%
%ADD46R,0.355600X0.355600*%
%ADD47R,0.812800X0.254000*%
%ADD48R,0.254000X0.812800*%
%ADD49R,1.701800X1.701800*%
%ADD50RoundRect,0.250000X0.362500X1.425000X-0.362500X1.425000X-0.362500X-1.425000X0.362500X-1.425000X0*%
%ADD51RoundRect,0.250000X-1.950000X-1.000000X1.950000X-1.000000X1.950000X1.000000X-1.950000X1.000000X0*%
%ADD52R,1.625000X0.250000*%
%ADD53RoundRect,0.172500X0.172500X0.172500X-0.172500X0.172500X-0.172500X-0.172500X0.172500X-0.172500X0*%
%ADD54RoundRect,0.062500X0.375000X0.062500X-0.375000X0.062500X-0.375000X-0.062500X0.375000X-0.062500X0*%
%ADD55RoundRect,0.062500X0.062500X0.375000X-0.062500X0.375000X-0.062500X-0.375000X0.062500X-0.375000X0*%
%ADD56R,2.489200X3.429000*%
%ADD57R,0.600000X0.500000*%
%ADD58R,1.016000X0.203200*%
%ADD59R,0.203200X1.016000*%
%ADD60R,1.600000X0.410000*%
%ADD61RoundRect,0.250000X1.100000X-0.325000X1.100000X0.325000X-1.100000X0.325000X-1.100000X-0.325000X0*%
%ADD62RoundRect,0.250000X0.312500X1.450000X-0.312500X1.450000X-0.312500X-1.450000X0.312500X-1.450000X0*%
%ADD63RoundRect,0.250000X1.425000X-0.362500X1.425000X0.362500X-1.425000X0.362500X-1.425000X-0.362500X0*%
%ADD64R,0.599999X0.249999*%
%ADD65R,0.249999X0.599999*%
%ADD66RoundRect,0.250000X0.475000X-0.250000X0.475000X0.250000X-0.475000X0.250000X-0.475000X-0.250000X0*%
%ADD67R,0.650000X0.400000*%
%ADD68R,2.000000X4.500000*%
%ADD69RoundRect,0.250000X0.350000X0.350000X-0.350000X0.350000X-0.350000X-0.350000X0.350000X-0.350000X0*%
%ADD70RoundRect,0.250000X0.500000X0.550000X-0.500000X0.550000X-0.500000X-0.550000X0.500000X-0.550000X0*%
%ADD71RoundRect,0.250000X-1.425000X0.362500X-1.425000X-0.362500X1.425000X-0.362500X1.425000X0.362500X0*%
%ADD72RoundRect,0.250000X-1.000000X-0.650000X1.000000X-0.650000X1.000000X0.650000X-1.000000X0.650000X0*%
%ADD73R,1.000000X0.600000*%
%ADD74R,0.350000X0.650000*%
%ADD75R,3.429000X2.489200*%
%ADD76R,3.022600X12.192000*%
G04 APERTURE END LIST*
%TO.C,Q22*%
D10*
X91842500Y-148760000D02*
X91512500Y-148760000D01*
X91512500Y-148510000D01*
X91842500Y-148510000D01*
X91842500Y-148760000D01*
G36*
X91842500Y-148760000D02*
G01*
X91512500Y-148760000D01*
X91512500Y-148510000D01*
X91842500Y-148510000D01*
X91842500Y-148760000D01*
G37*
X91842500Y-149410000D02*
X91512500Y-149410000D01*
X91512500Y-149160000D01*
X91842500Y-149160000D01*
X91842500Y-149410000D01*
G36*
X91842500Y-149410000D02*
G01*
X91512500Y-149410000D01*
X91512500Y-149160000D01*
X91842500Y-149160000D01*
X91842500Y-149410000D01*
G37*
X91842500Y-150060000D02*
X91512500Y-150060000D01*
X91512500Y-149810000D01*
X91842500Y-149810000D01*
X91842500Y-150060000D01*
G36*
X91842500Y-150060000D02*
G01*
X91512500Y-150060000D01*
X91512500Y-149810000D01*
X91842500Y-149810000D01*
X91842500Y-150060000D01*
G37*
X93062500Y-149525000D02*
X92162500Y-149525000D01*
X92162500Y-148475000D01*
X93062500Y-148475000D01*
X93062500Y-149525000D01*
G36*
X93062500Y-149525000D02*
G01*
X92162500Y-149525000D01*
X92162500Y-148475000D01*
X93062500Y-148475000D01*
X93062500Y-149525000D01*
G37*
X92892500Y-150185000D02*
X92332500Y-150185000D01*
X92332500Y-149935000D01*
X92892500Y-149935000D01*
X92892500Y-150185000D01*
G36*
X92892500Y-150185000D02*
G01*
X92332500Y-150185000D01*
X92332500Y-149935000D01*
X92892500Y-149935000D01*
X92892500Y-150185000D01*
G37*
X93712500Y-148760000D02*
X93382500Y-148760000D01*
X93382500Y-148510000D01*
X93712500Y-148510000D01*
X93712500Y-148760000D01*
G36*
X93712500Y-148760000D02*
G01*
X93382500Y-148760000D01*
X93382500Y-148510000D01*
X93712500Y-148510000D01*
X93712500Y-148760000D01*
G37*
X93712500Y-149410000D02*
X93382500Y-149410000D01*
X93382500Y-149160000D01*
X93712500Y-149160000D01*
X93712500Y-149410000D01*
G36*
X93712500Y-149410000D02*
G01*
X93382500Y-149410000D01*
X93382500Y-149160000D01*
X93712500Y-149160000D01*
X93712500Y-149410000D01*
G37*
X93712500Y-150060000D02*
X93382500Y-150060000D01*
X93382500Y-149810000D01*
X93712500Y-149810000D01*
X93712500Y-150060000D01*
G36*
X93712500Y-150060000D02*
G01*
X93382500Y-150060000D01*
X93382500Y-149810000D01*
X93712500Y-149810000D01*
X93712500Y-150060000D01*
G37*
%TO.C,Q18*%
X105937500Y-36502500D02*
X105687500Y-36502500D01*
X105687500Y-36172500D01*
X105937500Y-36172500D01*
X105937500Y-36502500D01*
G36*
X105937500Y-36502500D02*
G01*
X105687500Y-36502500D01*
X105687500Y-36172500D01*
X105937500Y-36172500D01*
X105937500Y-36502500D01*
G37*
X105287500Y-36502500D02*
X105037500Y-36502500D01*
X105037500Y-36172500D01*
X105287500Y-36172500D01*
X105287500Y-36502500D01*
G36*
X105287500Y-36502500D02*
G01*
X105037500Y-36502500D01*
X105037500Y-36172500D01*
X105287500Y-36172500D01*
X105287500Y-36502500D01*
G37*
X104637500Y-36502500D02*
X104387500Y-36502500D01*
X104387500Y-36172500D01*
X104637500Y-36172500D01*
X104637500Y-36502500D01*
G36*
X104637500Y-36502500D02*
G01*
X104387500Y-36502500D01*
X104387500Y-36172500D01*
X104637500Y-36172500D01*
X104637500Y-36502500D01*
G37*
X105972500Y-37722500D02*
X104922500Y-37722500D01*
X104922500Y-36822500D01*
X105972500Y-36822500D01*
X105972500Y-37722500D01*
G36*
X105972500Y-37722500D02*
G01*
X104922500Y-37722500D01*
X104922500Y-36822500D01*
X105972500Y-36822500D01*
X105972500Y-37722500D01*
G37*
X104512500Y-37552500D02*
X104262500Y-37552500D01*
X104262500Y-36992500D01*
X104512500Y-36992500D01*
X104512500Y-37552500D01*
G36*
X104512500Y-37552500D02*
G01*
X104262500Y-37552500D01*
X104262500Y-36992500D01*
X104512500Y-36992500D01*
X104512500Y-37552500D01*
G37*
X105937500Y-38372500D02*
X105687500Y-38372500D01*
X105687500Y-38042500D01*
X105937500Y-38042500D01*
X105937500Y-38372500D01*
G36*
X105937500Y-38372500D02*
G01*
X105687500Y-38372500D01*
X105687500Y-38042500D01*
X105937500Y-38042500D01*
X105937500Y-38372500D01*
G37*
X105287500Y-38372500D02*
X105037500Y-38372500D01*
X105037500Y-38042500D01*
X105287500Y-38042500D01*
X105287500Y-38372500D01*
G36*
X105287500Y-38372500D02*
G01*
X105037500Y-38372500D01*
X105037500Y-38042500D01*
X105287500Y-38042500D01*
X105287500Y-38372500D01*
G37*
X104637500Y-38372500D02*
X104387500Y-38372500D01*
X104387500Y-38042500D01*
X104637500Y-38042500D01*
X104637500Y-38372500D01*
G36*
X104637500Y-38372500D02*
G01*
X104387500Y-38372500D01*
X104387500Y-38042500D01*
X104637500Y-38042500D01*
X104637500Y-38372500D01*
G37*
%TO.C,U5*%
X116180000Y-81285000D02*
X116070000Y-81285000D01*
X115920000Y-81135000D01*
X115920000Y-80895000D01*
X116180000Y-80895000D01*
X116180000Y-81285000D01*
G36*
X116180000Y-81285000D02*
G01*
X116070000Y-81285000D01*
X115920000Y-81135000D01*
X115920000Y-80895000D01*
X116180000Y-80895000D01*
X116180000Y-81285000D01*
G37*
X115530000Y-81135000D02*
X115380000Y-81285000D01*
X115270000Y-81285000D01*
X115270000Y-80895000D01*
X115530000Y-80895000D01*
X115530000Y-81135000D01*
G36*
X115530000Y-81135000D02*
G01*
X115380000Y-81285000D01*
X115270000Y-81285000D01*
X115270000Y-80895000D01*
X115530000Y-80895000D01*
X115530000Y-81135000D01*
G37*
X116180000Y-82095000D02*
X115920000Y-82095000D01*
X115920000Y-81855000D01*
X116070000Y-81705000D01*
X116180000Y-81705000D01*
X116180000Y-82095000D01*
G36*
X116180000Y-82095000D02*
G01*
X115920000Y-82095000D01*
X115920000Y-81855000D01*
X116070000Y-81705000D01*
X116180000Y-81705000D01*
X116180000Y-82095000D01*
G37*
X115530000Y-81855000D02*
X115530000Y-82095000D01*
X115270000Y-82095000D01*
X115270000Y-81705000D01*
X115380000Y-81705000D01*
X115530000Y-81855000D01*
G36*
X115530000Y-81855000D02*
G01*
X115530000Y-82095000D01*
X115270000Y-82095000D01*
X115270000Y-81705000D01*
X115380000Y-81705000D01*
X115530000Y-81855000D01*
G37*
%TO.C,Q19*%
X106022500Y-42395000D02*
X105772500Y-42395000D01*
X105772500Y-42065000D01*
X106022500Y-42065000D01*
X106022500Y-42395000D01*
G36*
X106022500Y-42395000D02*
G01*
X105772500Y-42395000D01*
X105772500Y-42065000D01*
X106022500Y-42065000D01*
X106022500Y-42395000D01*
G37*
X105372500Y-42395000D02*
X105122500Y-42395000D01*
X105122500Y-42065000D01*
X105372500Y-42065000D01*
X105372500Y-42395000D01*
G36*
X105372500Y-42395000D02*
G01*
X105122500Y-42395000D01*
X105122500Y-42065000D01*
X105372500Y-42065000D01*
X105372500Y-42395000D01*
G37*
X104722500Y-42395000D02*
X104472500Y-42395000D01*
X104472500Y-42065000D01*
X104722500Y-42065000D01*
X104722500Y-42395000D01*
G36*
X104722500Y-42395000D02*
G01*
X104472500Y-42395000D01*
X104472500Y-42065000D01*
X104722500Y-42065000D01*
X104722500Y-42395000D01*
G37*
X106057500Y-43615000D02*
X105007500Y-43615000D01*
X105007500Y-42715000D01*
X106057500Y-42715000D01*
X106057500Y-43615000D01*
G36*
X106057500Y-43615000D02*
G01*
X105007500Y-43615000D01*
X105007500Y-42715000D01*
X106057500Y-42715000D01*
X106057500Y-43615000D01*
G37*
X104597500Y-43445000D02*
X104347500Y-43445000D01*
X104347500Y-42885000D01*
X104597500Y-42885000D01*
X104597500Y-43445000D01*
G36*
X104597500Y-43445000D02*
G01*
X104347500Y-43445000D01*
X104347500Y-42885000D01*
X104597500Y-42885000D01*
X104597500Y-43445000D01*
G37*
X106022500Y-44265000D02*
X105772500Y-44265000D01*
X105772500Y-43935000D01*
X106022500Y-43935000D01*
X106022500Y-44265000D01*
G36*
X106022500Y-44265000D02*
G01*
X105772500Y-44265000D01*
X105772500Y-43935000D01*
X106022500Y-43935000D01*
X106022500Y-44265000D01*
G37*
X105372500Y-44265000D02*
X105122500Y-44265000D01*
X105122500Y-43935000D01*
X105372500Y-43935000D01*
X105372500Y-44265000D01*
G36*
X105372500Y-44265000D02*
G01*
X105122500Y-44265000D01*
X105122500Y-43935000D01*
X105372500Y-43935000D01*
X105372500Y-44265000D01*
G37*
X104722500Y-44265000D02*
X104472500Y-44265000D01*
X104472500Y-43935000D01*
X104722500Y-43935000D01*
X104722500Y-44265000D01*
G36*
X104722500Y-44265000D02*
G01*
X104472500Y-44265000D01*
X104472500Y-43935000D01*
X104722500Y-43935000D01*
X104722500Y-44265000D01*
G37*
%TO.C,U3*%
X120000000Y-74017500D02*
X119610000Y-74017500D01*
X119610000Y-73907500D01*
X119760000Y-73757500D01*
X120000000Y-73757500D01*
X120000000Y-74017500D01*
G36*
X120000000Y-74017500D02*
G01*
X119610000Y-74017500D01*
X119610000Y-73907500D01*
X119760000Y-73757500D01*
X120000000Y-73757500D01*
X120000000Y-74017500D01*
G37*
X120000000Y-73367500D02*
X119760000Y-73367500D01*
X119610000Y-73217500D01*
X119610000Y-73107500D01*
X120000000Y-73107500D01*
X120000000Y-73367500D01*
G36*
X120000000Y-73367500D02*
G01*
X119760000Y-73367500D01*
X119610000Y-73217500D01*
X119610000Y-73107500D01*
X120000000Y-73107500D01*
X120000000Y-73367500D01*
G37*
X119190000Y-73907500D02*
X119190000Y-74017500D01*
X118800000Y-74017500D01*
X118800000Y-73757500D01*
X119040000Y-73757500D01*
X119190000Y-73907500D01*
G36*
X119190000Y-73907500D02*
G01*
X119190000Y-74017500D01*
X118800000Y-74017500D01*
X118800000Y-73757500D01*
X119040000Y-73757500D01*
X119190000Y-73907500D01*
G37*
X119190000Y-73217500D02*
X119040000Y-73367500D01*
X118800000Y-73367500D01*
X118800000Y-73107500D01*
X119190000Y-73107500D01*
X119190000Y-73217500D01*
G36*
X119190000Y-73217500D02*
G01*
X119040000Y-73367500D01*
X118800000Y-73367500D01*
X118800000Y-73107500D01*
X119190000Y-73107500D01*
X119190000Y-73217500D01*
G37*
%TO.C,U15*%
X90412500Y-58075000D02*
X89712500Y-58075000D01*
X89712500Y-57375000D01*
X90412500Y-57375000D01*
X90412500Y-58075000D01*
G36*
X90412500Y-58075000D02*
G01*
X89712500Y-58075000D01*
X89712500Y-57375000D01*
X90412500Y-57375000D01*
X90412500Y-58075000D01*
G37*
X90412500Y-56975000D02*
X89712500Y-56975000D01*
X89712500Y-56275000D01*
X90412500Y-56275000D01*
X90412500Y-56975000D01*
G36*
X90412500Y-56975000D02*
G01*
X89712500Y-56975000D01*
X89712500Y-56275000D01*
X90412500Y-56275000D01*
X90412500Y-56975000D01*
G37*
X89312500Y-58075000D02*
X88612500Y-58075000D01*
X88612500Y-57375000D01*
X89312500Y-57375000D01*
X89312500Y-58075000D01*
G36*
X89312500Y-58075000D02*
G01*
X88612500Y-58075000D01*
X88612500Y-57375000D01*
X89312500Y-57375000D01*
X89312500Y-58075000D01*
G37*
X89312500Y-56975000D02*
X88612500Y-56975000D01*
X88612500Y-56275000D01*
X89312500Y-56275000D01*
X89312500Y-56975000D01*
G36*
X89312500Y-56975000D02*
G01*
X88612500Y-56975000D01*
X88612500Y-56275000D01*
X89312500Y-56275000D01*
X89312500Y-56975000D01*
G37*
%TO.C,Q23*%
X86042500Y-148745000D02*
X85712500Y-148745000D01*
X85712500Y-148495000D01*
X86042500Y-148495000D01*
X86042500Y-148745000D01*
G36*
X86042500Y-148745000D02*
G01*
X85712500Y-148745000D01*
X85712500Y-148495000D01*
X86042500Y-148495000D01*
X86042500Y-148745000D01*
G37*
X86042500Y-149395000D02*
X85712500Y-149395000D01*
X85712500Y-149145000D01*
X86042500Y-149145000D01*
X86042500Y-149395000D01*
G36*
X86042500Y-149395000D02*
G01*
X85712500Y-149395000D01*
X85712500Y-149145000D01*
X86042500Y-149145000D01*
X86042500Y-149395000D01*
G37*
X86042500Y-150045000D02*
X85712500Y-150045000D01*
X85712500Y-149795000D01*
X86042500Y-149795000D01*
X86042500Y-150045000D01*
G36*
X86042500Y-150045000D02*
G01*
X85712500Y-150045000D01*
X85712500Y-149795000D01*
X86042500Y-149795000D01*
X86042500Y-150045000D01*
G37*
X87262500Y-149510000D02*
X86362500Y-149510000D01*
X86362500Y-148460000D01*
X87262500Y-148460000D01*
X87262500Y-149510000D01*
G36*
X87262500Y-149510000D02*
G01*
X86362500Y-149510000D01*
X86362500Y-148460000D01*
X87262500Y-148460000D01*
X87262500Y-149510000D01*
G37*
X87092500Y-150170000D02*
X86532500Y-150170000D01*
X86532500Y-149920000D01*
X87092500Y-149920000D01*
X87092500Y-150170000D01*
G36*
X87092500Y-150170000D02*
G01*
X86532500Y-150170000D01*
X86532500Y-149920000D01*
X87092500Y-149920000D01*
X87092500Y-150170000D01*
G37*
X87912500Y-148745000D02*
X87582500Y-148745000D01*
X87582500Y-148495000D01*
X87912500Y-148495000D01*
X87912500Y-148745000D01*
G36*
X87912500Y-148745000D02*
G01*
X87582500Y-148745000D01*
X87582500Y-148495000D01*
X87912500Y-148495000D01*
X87912500Y-148745000D01*
G37*
X87912500Y-149395000D02*
X87582500Y-149395000D01*
X87582500Y-149145000D01*
X87912500Y-149145000D01*
X87912500Y-149395000D01*
G36*
X87912500Y-149395000D02*
G01*
X87582500Y-149395000D01*
X87582500Y-149145000D01*
X87912500Y-149145000D01*
X87912500Y-149395000D01*
G37*
X87912500Y-150045000D02*
X87582500Y-150045000D01*
X87582500Y-149795000D01*
X87912500Y-149795000D01*
X87912500Y-150045000D01*
G36*
X87912500Y-150045000D02*
G01*
X87582500Y-150045000D01*
X87582500Y-149795000D01*
X87912500Y-149795000D01*
X87912500Y-150045000D01*
G37*
%TO.C,Q24*%
X91842500Y-145960000D02*
X91512500Y-145960000D01*
X91512500Y-145710000D01*
X91842500Y-145710000D01*
X91842500Y-145960000D01*
G36*
X91842500Y-145960000D02*
G01*
X91512500Y-145960000D01*
X91512500Y-145710000D01*
X91842500Y-145710000D01*
X91842500Y-145960000D01*
G37*
X91842500Y-146610000D02*
X91512500Y-146610000D01*
X91512500Y-146360000D01*
X91842500Y-146360000D01*
X91842500Y-146610000D01*
G36*
X91842500Y-146610000D02*
G01*
X91512500Y-146610000D01*
X91512500Y-146360000D01*
X91842500Y-146360000D01*
X91842500Y-146610000D01*
G37*
X91842500Y-147260000D02*
X91512500Y-147260000D01*
X91512500Y-147010000D01*
X91842500Y-147010000D01*
X91842500Y-147260000D01*
G36*
X91842500Y-147260000D02*
G01*
X91512500Y-147260000D01*
X91512500Y-147010000D01*
X91842500Y-147010000D01*
X91842500Y-147260000D01*
G37*
X93062500Y-146725000D02*
X92162500Y-146725000D01*
X92162500Y-145675000D01*
X93062500Y-145675000D01*
X93062500Y-146725000D01*
G36*
X93062500Y-146725000D02*
G01*
X92162500Y-146725000D01*
X92162500Y-145675000D01*
X93062500Y-145675000D01*
X93062500Y-146725000D01*
G37*
X92892500Y-147385000D02*
X92332500Y-147385000D01*
X92332500Y-147135000D01*
X92892500Y-147135000D01*
X92892500Y-147385000D01*
G36*
X92892500Y-147385000D02*
G01*
X92332500Y-147385000D01*
X92332500Y-147135000D01*
X92892500Y-147135000D01*
X92892500Y-147385000D01*
G37*
X93712500Y-145960000D02*
X93382500Y-145960000D01*
X93382500Y-145710000D01*
X93712500Y-145710000D01*
X93712500Y-145960000D01*
G36*
X93712500Y-145960000D02*
G01*
X93382500Y-145960000D01*
X93382500Y-145710000D01*
X93712500Y-145710000D01*
X93712500Y-145960000D01*
G37*
X93712500Y-146610000D02*
X93382500Y-146610000D01*
X93382500Y-146360000D01*
X93712500Y-146360000D01*
X93712500Y-146610000D01*
G36*
X93712500Y-146610000D02*
G01*
X93382500Y-146610000D01*
X93382500Y-146360000D01*
X93712500Y-146360000D01*
X93712500Y-146610000D01*
G37*
X93712500Y-147260000D02*
X93382500Y-147260000D01*
X93382500Y-147010000D01*
X93712500Y-147010000D01*
X93712500Y-147260000D01*
G36*
X93712500Y-147260000D02*
G01*
X93382500Y-147260000D01*
X93382500Y-147010000D01*
X93712500Y-147010000D01*
X93712500Y-147260000D01*
G37*
%TO.C,Q20*%
X108737500Y-42395000D02*
X108487500Y-42395000D01*
X108487500Y-42065000D01*
X108737500Y-42065000D01*
X108737500Y-42395000D01*
G36*
X108737500Y-42395000D02*
G01*
X108487500Y-42395000D01*
X108487500Y-42065000D01*
X108737500Y-42065000D01*
X108737500Y-42395000D01*
G37*
X108087500Y-42395000D02*
X107837500Y-42395000D01*
X107837500Y-42065000D01*
X108087500Y-42065000D01*
X108087500Y-42395000D01*
G36*
X108087500Y-42395000D02*
G01*
X107837500Y-42395000D01*
X107837500Y-42065000D01*
X108087500Y-42065000D01*
X108087500Y-42395000D01*
G37*
X107437500Y-42395000D02*
X107187500Y-42395000D01*
X107187500Y-42065000D01*
X107437500Y-42065000D01*
X107437500Y-42395000D01*
G36*
X107437500Y-42395000D02*
G01*
X107187500Y-42395000D01*
X107187500Y-42065000D01*
X107437500Y-42065000D01*
X107437500Y-42395000D01*
G37*
X108772500Y-43615000D02*
X107722500Y-43615000D01*
X107722500Y-42715000D01*
X108772500Y-42715000D01*
X108772500Y-43615000D01*
G36*
X108772500Y-43615000D02*
G01*
X107722500Y-43615000D01*
X107722500Y-42715000D01*
X108772500Y-42715000D01*
X108772500Y-43615000D01*
G37*
X107312500Y-43445000D02*
X107062500Y-43445000D01*
X107062500Y-42885000D01*
X107312500Y-42885000D01*
X107312500Y-43445000D01*
G36*
X107312500Y-43445000D02*
G01*
X107062500Y-43445000D01*
X107062500Y-42885000D01*
X107312500Y-42885000D01*
X107312500Y-43445000D01*
G37*
X108737500Y-44265000D02*
X108487500Y-44265000D01*
X108487500Y-43935000D01*
X108737500Y-43935000D01*
X108737500Y-44265000D01*
G36*
X108737500Y-44265000D02*
G01*
X108487500Y-44265000D01*
X108487500Y-43935000D01*
X108737500Y-43935000D01*
X108737500Y-44265000D01*
G37*
X108087500Y-44265000D02*
X107837500Y-44265000D01*
X107837500Y-43935000D01*
X108087500Y-43935000D01*
X108087500Y-44265000D01*
G36*
X108087500Y-44265000D02*
G01*
X107837500Y-44265000D01*
X107837500Y-43935000D01*
X108087500Y-43935000D01*
X108087500Y-44265000D01*
G37*
X107437500Y-44265000D02*
X107187500Y-44265000D01*
X107187500Y-43935000D01*
X107437500Y-43935000D01*
X107437500Y-44265000D01*
G36*
X107437500Y-44265000D02*
G01*
X107187500Y-44265000D01*
X107187500Y-43935000D01*
X107437500Y-43935000D01*
X107437500Y-44265000D01*
G37*
%TO.C,U4*%
G36*
X138013000Y-55702399D02*
G01*
X137403400Y-55702399D01*
X137403400Y-55397599D01*
X138013000Y-55397599D01*
X138013000Y-55702399D01*
G37*
G36*
X138013000Y-54902398D02*
G01*
X137403400Y-54902398D01*
X137403400Y-54597598D01*
X138013000Y-54597598D01*
X138013000Y-54902398D01*
G37*
G36*
X138013000Y-54102400D02*
G01*
X137403400Y-54102400D01*
X137403400Y-53797600D01*
X138013000Y-53797600D01*
X138013000Y-54102400D01*
G37*
G36*
X138013000Y-53302399D02*
G01*
X137403400Y-53302399D01*
X137403400Y-52997599D01*
X138013000Y-52997599D01*
X138013000Y-53302399D01*
G37*
G36*
X138013000Y-52502401D02*
G01*
X137403400Y-52502401D01*
X137403400Y-52197601D01*
X138013000Y-52197601D01*
X138013000Y-52502401D01*
G37*
G36*
X136792149Y-55345349D02*
G01*
X135699949Y-55345349D01*
X135699949Y-54049949D01*
X136792149Y-54049949D01*
X136792149Y-55345349D01*
G37*
G36*
X136792149Y-53850051D02*
G01*
X135699949Y-53850051D01*
X135699949Y-52554651D01*
X136792149Y-52554651D01*
X136792149Y-53850051D01*
G37*
G36*
X135500051Y-55345349D02*
G01*
X134407851Y-55345349D01*
X134407851Y-54049949D01*
X135500051Y-54049949D01*
X135500051Y-55345349D01*
G37*
G36*
X135500051Y-53850051D02*
G01*
X134407851Y-53850051D01*
X134407851Y-52554651D01*
X135500051Y-52554651D01*
X135500051Y-53850051D01*
G37*
G36*
X133796600Y-55702399D02*
G01*
X133187000Y-55702399D01*
X133187000Y-55397599D01*
X133796600Y-55397599D01*
X133796600Y-55702399D01*
G37*
G36*
X133796600Y-54902401D02*
G01*
X133187000Y-54902401D01*
X133187000Y-54597601D01*
X133796600Y-54597601D01*
X133796600Y-54902401D01*
G37*
G36*
X133796600Y-54102400D02*
G01*
X133187000Y-54102400D01*
X133187000Y-53797600D01*
X133796600Y-53797600D01*
X133796600Y-54102400D01*
G37*
G36*
X133796600Y-53302402D02*
G01*
X133187000Y-53302402D01*
X133187000Y-52997602D01*
X133796600Y-52997602D01*
X133796600Y-53302402D01*
G37*
G36*
X133796600Y-52502401D02*
G01*
X133187000Y-52502401D01*
X133187000Y-52197601D01*
X133796600Y-52197601D01*
X133796600Y-52502401D01*
G37*
%TO.C,Q25*%
X86042500Y-145960000D02*
X85712500Y-145960000D01*
X85712500Y-145710000D01*
X86042500Y-145710000D01*
X86042500Y-145960000D01*
G36*
X86042500Y-145960000D02*
G01*
X85712500Y-145960000D01*
X85712500Y-145710000D01*
X86042500Y-145710000D01*
X86042500Y-145960000D01*
G37*
X86042500Y-146610000D02*
X85712500Y-146610000D01*
X85712500Y-146360000D01*
X86042500Y-146360000D01*
X86042500Y-146610000D01*
G36*
X86042500Y-146610000D02*
G01*
X85712500Y-146610000D01*
X85712500Y-146360000D01*
X86042500Y-146360000D01*
X86042500Y-146610000D01*
G37*
X86042500Y-147260000D02*
X85712500Y-147260000D01*
X85712500Y-147010000D01*
X86042500Y-147010000D01*
X86042500Y-147260000D01*
G36*
X86042500Y-147260000D02*
G01*
X85712500Y-147260000D01*
X85712500Y-147010000D01*
X86042500Y-147010000D01*
X86042500Y-147260000D01*
G37*
X87262500Y-146725000D02*
X86362500Y-146725000D01*
X86362500Y-145675000D01*
X87262500Y-145675000D01*
X87262500Y-146725000D01*
G36*
X87262500Y-146725000D02*
G01*
X86362500Y-146725000D01*
X86362500Y-145675000D01*
X87262500Y-145675000D01*
X87262500Y-146725000D01*
G37*
X87092500Y-147385000D02*
X86532500Y-147385000D01*
X86532500Y-147135000D01*
X87092500Y-147135000D01*
X87092500Y-147385000D01*
G36*
X87092500Y-147385000D02*
G01*
X86532500Y-147385000D01*
X86532500Y-147135000D01*
X87092500Y-147135000D01*
X87092500Y-147385000D01*
G37*
X87912500Y-145960000D02*
X87582500Y-145960000D01*
X87582500Y-145710000D01*
X87912500Y-145710000D01*
X87912500Y-145960000D01*
G36*
X87912500Y-145960000D02*
G01*
X87582500Y-145960000D01*
X87582500Y-145710000D01*
X87912500Y-145710000D01*
X87912500Y-145960000D01*
G37*
X87912500Y-146610000D02*
X87582500Y-146610000D01*
X87582500Y-146360000D01*
X87912500Y-146360000D01*
X87912500Y-146610000D01*
G36*
X87912500Y-146610000D02*
G01*
X87582500Y-146610000D01*
X87582500Y-146360000D01*
X87912500Y-146360000D01*
X87912500Y-146610000D01*
G37*
X87912500Y-147260000D02*
X87582500Y-147260000D01*
X87582500Y-147010000D01*
X87912500Y-147010000D01*
X87912500Y-147260000D01*
G36*
X87912500Y-147260000D02*
G01*
X87582500Y-147260000D01*
X87582500Y-147010000D01*
X87912500Y-147010000D01*
X87912500Y-147260000D01*
G37*
%TO.C,U13*%
G36*
X57111632Y-73982933D02*
G01*
X55961199Y-73982933D01*
X55961199Y-72832500D01*
X57111632Y-72832500D01*
X57111632Y-73982933D01*
G37*
G36*
X57111632Y-75333367D02*
G01*
X55961199Y-75333367D01*
X55961199Y-74182933D01*
X57111632Y-74182933D01*
X57111632Y-75333367D01*
G37*
G36*
X57111632Y-76683800D02*
G01*
X55961199Y-76683800D01*
X55961199Y-75533366D01*
X57111632Y-75533366D01*
X57111632Y-76683800D01*
G37*
G36*
X57111632Y-78034234D02*
G01*
X55961199Y-78034234D01*
X55961199Y-76883800D01*
X57111632Y-76883800D01*
X57111632Y-78034234D01*
G37*
G36*
X57111632Y-79384667D02*
G01*
X55961199Y-79384667D01*
X55961199Y-78234233D01*
X57111632Y-78234233D01*
X57111632Y-79384667D01*
G37*
G36*
X57111632Y-80735100D02*
G01*
X55961199Y-80735100D01*
X55961199Y-79584667D01*
X57111632Y-79584667D01*
X57111632Y-80735100D01*
G37*
G36*
X58462066Y-73982933D02*
G01*
X57311632Y-73982933D01*
X57311632Y-72832500D01*
X58462066Y-72832500D01*
X58462066Y-73982933D01*
G37*
G36*
X58462066Y-75333367D02*
G01*
X57311632Y-75333367D01*
X57311632Y-74182933D01*
X58462066Y-74182933D01*
X58462066Y-75333367D01*
G37*
G36*
X58462066Y-76683800D02*
G01*
X57311632Y-76683800D01*
X57311632Y-75533366D01*
X58462066Y-75533366D01*
X58462066Y-76683800D01*
G37*
G36*
X58462066Y-78034234D02*
G01*
X57311632Y-78034234D01*
X57311632Y-76883800D01*
X58462066Y-76883800D01*
X58462066Y-78034234D01*
G37*
G36*
X58462066Y-79384667D02*
G01*
X57311632Y-79384667D01*
X57311632Y-78234233D01*
X58462066Y-78234233D01*
X58462066Y-79384667D01*
G37*
G36*
X58462066Y-80735100D02*
G01*
X57311632Y-80735100D01*
X57311632Y-79584667D01*
X58462066Y-79584667D01*
X58462066Y-80735100D01*
G37*
G36*
X59812499Y-73982933D02*
G01*
X58662065Y-73982933D01*
X58662065Y-72832500D01*
X59812499Y-72832500D01*
X59812499Y-73982933D01*
G37*
G36*
X59812499Y-75333367D02*
G01*
X58662065Y-75333367D01*
X58662065Y-74182933D01*
X59812499Y-74182933D01*
X59812499Y-75333367D01*
G37*
G36*
X59812499Y-76683800D02*
G01*
X58662065Y-76683800D01*
X58662065Y-75533366D01*
X59812499Y-75533366D01*
X59812499Y-76683800D01*
G37*
G36*
X59812499Y-78034234D02*
G01*
X58662065Y-78034234D01*
X58662065Y-76883800D01*
X59812499Y-76883800D01*
X59812499Y-78034234D01*
G37*
G36*
X59812499Y-79384667D02*
G01*
X58662065Y-79384667D01*
X58662065Y-78234233D01*
X59812499Y-78234233D01*
X59812499Y-79384667D01*
G37*
G36*
X59812499Y-80735100D02*
G01*
X58662065Y-80735100D01*
X58662065Y-79584667D01*
X59812499Y-79584667D01*
X59812499Y-80735100D01*
G37*
G36*
X61162933Y-73982933D02*
G01*
X60012499Y-73982933D01*
X60012499Y-72832500D01*
X61162933Y-72832500D01*
X61162933Y-73982933D01*
G37*
G36*
X61162933Y-75333367D02*
G01*
X60012499Y-75333367D01*
X60012499Y-74182933D01*
X61162933Y-74182933D01*
X61162933Y-75333367D01*
G37*
G36*
X61162933Y-76683800D02*
G01*
X60012499Y-76683800D01*
X60012499Y-75533366D01*
X61162933Y-75533366D01*
X61162933Y-76683800D01*
G37*
G36*
X61162933Y-78034234D02*
G01*
X60012499Y-78034234D01*
X60012499Y-76883800D01*
X61162933Y-76883800D01*
X61162933Y-78034234D01*
G37*
G36*
X61162933Y-79384667D02*
G01*
X60012499Y-79384667D01*
X60012499Y-78234233D01*
X61162933Y-78234233D01*
X61162933Y-79384667D01*
G37*
G36*
X61162933Y-80735100D02*
G01*
X60012499Y-80735100D01*
X60012499Y-79584667D01*
X61162933Y-79584667D01*
X61162933Y-80735100D01*
G37*
G36*
X62513366Y-73982933D02*
G01*
X61362932Y-73982933D01*
X61362932Y-72832500D01*
X62513366Y-72832500D01*
X62513366Y-73982933D01*
G37*
G36*
X62513366Y-75333367D02*
G01*
X61362932Y-75333367D01*
X61362932Y-74182933D01*
X62513366Y-74182933D01*
X62513366Y-75333367D01*
G37*
G36*
X62513366Y-76683800D02*
G01*
X61362932Y-76683800D01*
X61362932Y-75533366D01*
X62513366Y-75533366D01*
X62513366Y-76683800D01*
G37*
G36*
X62513366Y-78034234D02*
G01*
X61362932Y-78034234D01*
X61362932Y-76883800D01*
X62513366Y-76883800D01*
X62513366Y-78034234D01*
G37*
G36*
X62513366Y-79384667D02*
G01*
X61362932Y-79384667D01*
X61362932Y-78234233D01*
X62513366Y-78234233D01*
X62513366Y-79384667D01*
G37*
G36*
X62513366Y-80735100D02*
G01*
X61362932Y-80735100D01*
X61362932Y-79584667D01*
X62513366Y-79584667D01*
X62513366Y-80735100D01*
G37*
G36*
X63863799Y-73982933D02*
G01*
X62713366Y-73982933D01*
X62713366Y-72832500D01*
X63863799Y-72832500D01*
X63863799Y-73982933D01*
G37*
G36*
X63863799Y-75333367D02*
G01*
X62713366Y-75333367D01*
X62713366Y-74182933D01*
X63863799Y-74182933D01*
X63863799Y-75333367D01*
G37*
G36*
X63863799Y-76683800D02*
G01*
X62713366Y-76683800D01*
X62713366Y-75533366D01*
X63863799Y-75533366D01*
X63863799Y-76683800D01*
G37*
G36*
X63863799Y-78034234D02*
G01*
X62713366Y-78034234D01*
X62713366Y-76883800D01*
X63863799Y-76883800D01*
X63863799Y-78034234D01*
G37*
G36*
X63863799Y-79384667D02*
G01*
X62713366Y-79384667D01*
X62713366Y-78234233D01*
X63863799Y-78234233D01*
X63863799Y-79384667D01*
G37*
G36*
X63863799Y-80735100D02*
G01*
X62713366Y-80735100D01*
X62713366Y-79584667D01*
X63863799Y-79584667D01*
X63863799Y-80735100D01*
G37*
%TO.C,Q6*%
X152467197Y-104900004D02*
X152137197Y-104900004D01*
X152137197Y-104650004D01*
X152467197Y-104650004D01*
X152467197Y-104900004D01*
G36*
X152467197Y-104900004D02*
G01*
X152137197Y-104900004D01*
X152137197Y-104650004D01*
X152467197Y-104650004D01*
X152467197Y-104900004D01*
G37*
X152467197Y-104250004D02*
X152137197Y-104250004D01*
X152137197Y-104000004D01*
X152467197Y-104000004D01*
X152467197Y-104250004D01*
G36*
X152467197Y-104250004D02*
G01*
X152137197Y-104250004D01*
X152137197Y-104000004D01*
X152467197Y-104000004D01*
X152467197Y-104250004D01*
G37*
X152467197Y-103600004D02*
X152137197Y-103600004D01*
X152137197Y-103350004D01*
X152467197Y-103350004D01*
X152467197Y-103600004D01*
G36*
X152467197Y-103600004D02*
G01*
X152137197Y-103600004D01*
X152137197Y-103350004D01*
X152467197Y-103350004D01*
X152467197Y-103600004D01*
G37*
X151817197Y-104935004D02*
X150917197Y-104935004D01*
X150917197Y-103885004D01*
X151817197Y-103885004D01*
X151817197Y-104935004D01*
G36*
X151817197Y-104935004D02*
G01*
X150917197Y-104935004D01*
X150917197Y-103885004D01*
X151817197Y-103885004D01*
X151817197Y-104935004D01*
G37*
X151647197Y-103475004D02*
X151087197Y-103475004D01*
X151087197Y-103225004D01*
X151647197Y-103225004D01*
X151647197Y-103475004D01*
G36*
X151647197Y-103475004D02*
G01*
X151087197Y-103475004D01*
X151087197Y-103225004D01*
X151647197Y-103225004D01*
X151647197Y-103475004D01*
G37*
X150597197Y-104900004D02*
X150267197Y-104900004D01*
X150267197Y-104650004D01*
X150597197Y-104650004D01*
X150597197Y-104900004D01*
G36*
X150597197Y-104900004D02*
G01*
X150267197Y-104900004D01*
X150267197Y-104650004D01*
X150597197Y-104650004D01*
X150597197Y-104900004D01*
G37*
X150597197Y-104250004D02*
X150267197Y-104250004D01*
X150267197Y-104000004D01*
X150597197Y-104000004D01*
X150597197Y-104250004D01*
G36*
X150597197Y-104250004D02*
G01*
X150267197Y-104250004D01*
X150267197Y-104000004D01*
X150597197Y-104000004D01*
X150597197Y-104250004D01*
G37*
X150597197Y-103600004D02*
X150267197Y-103600004D01*
X150267197Y-103350004D01*
X150597197Y-103350004D01*
X150597197Y-103600004D01*
G36*
X150597197Y-103600004D02*
G01*
X150267197Y-103600004D01*
X150267197Y-103350004D01*
X150597197Y-103350004D01*
X150597197Y-103600004D01*
G37*
%TO.C,U6*%
X116155000Y-77577500D02*
X116045000Y-77577500D01*
X115895000Y-77427500D01*
X115895000Y-77187500D01*
X116155000Y-77187500D01*
X116155000Y-77577500D01*
G36*
X116155000Y-77577500D02*
G01*
X116045000Y-77577500D01*
X115895000Y-77427500D01*
X115895000Y-77187500D01*
X116155000Y-77187500D01*
X116155000Y-77577500D01*
G37*
X115505000Y-77427500D02*
X115355000Y-77577500D01*
X115245000Y-77577500D01*
X115245000Y-77187500D01*
X115505000Y-77187500D01*
X115505000Y-77427500D01*
G36*
X115505000Y-77427500D02*
G01*
X115355000Y-77577500D01*
X115245000Y-77577500D01*
X115245000Y-77187500D01*
X115505000Y-77187500D01*
X115505000Y-77427500D01*
G37*
X116155000Y-78387500D02*
X115895000Y-78387500D01*
X115895000Y-78147500D01*
X116045000Y-77997500D01*
X116155000Y-77997500D01*
X116155000Y-78387500D01*
G36*
X116155000Y-78387500D02*
G01*
X115895000Y-78387500D01*
X115895000Y-78147500D01*
X116045000Y-77997500D01*
X116155000Y-77997500D01*
X116155000Y-78387500D01*
G37*
X115505000Y-78147500D02*
X115505000Y-78387500D01*
X115245000Y-78387500D01*
X115245000Y-77997500D01*
X115355000Y-77997500D01*
X115505000Y-78147500D01*
G36*
X115505000Y-78147500D02*
G01*
X115505000Y-78387500D01*
X115245000Y-78387500D01*
X115245000Y-77997500D01*
X115355000Y-77997500D01*
X115505000Y-78147500D01*
G37*
%TO.C,Q5*%
X152467197Y-107700004D02*
X152137197Y-107700004D01*
X152137197Y-107450004D01*
X152467197Y-107450004D01*
X152467197Y-107700004D01*
G36*
X152467197Y-107700004D02*
G01*
X152137197Y-107700004D01*
X152137197Y-107450004D01*
X152467197Y-107450004D01*
X152467197Y-107700004D01*
G37*
X152467197Y-107050004D02*
X152137197Y-107050004D01*
X152137197Y-106800004D01*
X152467197Y-106800004D01*
X152467197Y-107050004D01*
G36*
X152467197Y-107050004D02*
G01*
X152137197Y-107050004D01*
X152137197Y-106800004D01*
X152467197Y-106800004D01*
X152467197Y-107050004D01*
G37*
X152467197Y-106400004D02*
X152137197Y-106400004D01*
X152137197Y-106150004D01*
X152467197Y-106150004D01*
X152467197Y-106400004D01*
G36*
X152467197Y-106400004D02*
G01*
X152137197Y-106400004D01*
X152137197Y-106150004D01*
X152467197Y-106150004D01*
X152467197Y-106400004D01*
G37*
X151817197Y-107735004D02*
X150917197Y-107735004D01*
X150917197Y-106685004D01*
X151817197Y-106685004D01*
X151817197Y-107735004D01*
G36*
X151817197Y-107735004D02*
G01*
X150917197Y-107735004D01*
X150917197Y-106685004D01*
X151817197Y-106685004D01*
X151817197Y-107735004D01*
G37*
X151647197Y-106275004D02*
X151087197Y-106275004D01*
X151087197Y-106025004D01*
X151647197Y-106025004D01*
X151647197Y-106275004D01*
G36*
X151647197Y-106275004D02*
G01*
X151087197Y-106275004D01*
X151087197Y-106025004D01*
X151647197Y-106025004D01*
X151647197Y-106275004D01*
G37*
X150597197Y-107700004D02*
X150267197Y-107700004D01*
X150267197Y-107450004D01*
X150597197Y-107450004D01*
X150597197Y-107700004D01*
G36*
X150597197Y-107700004D02*
G01*
X150267197Y-107700004D01*
X150267197Y-107450004D01*
X150597197Y-107450004D01*
X150597197Y-107700004D01*
G37*
X150597197Y-107050004D02*
X150267197Y-107050004D01*
X150267197Y-106800004D01*
X150597197Y-106800004D01*
X150597197Y-107050004D01*
G36*
X150597197Y-107050004D02*
G01*
X150267197Y-107050004D01*
X150267197Y-106800004D01*
X150597197Y-106800004D01*
X150597197Y-107050004D01*
G37*
X150597197Y-106400004D02*
X150267197Y-106400004D01*
X150267197Y-106150004D01*
X150597197Y-106150004D01*
X150597197Y-106400004D01*
G36*
X150597197Y-106400004D02*
G01*
X150267197Y-106400004D01*
X150267197Y-106150004D01*
X150597197Y-106150004D01*
X150597197Y-106400004D01*
G37*
%TO.C,U16*%
X86837500Y-138150000D02*
X86137500Y-138150000D01*
X86137500Y-137450000D01*
X86837500Y-137450000D01*
X86837500Y-138150000D01*
G36*
X86837500Y-138150000D02*
G01*
X86137500Y-138150000D01*
X86137500Y-137450000D01*
X86837500Y-137450000D01*
X86837500Y-138150000D01*
G37*
X86837500Y-139250000D02*
X86137500Y-139250000D01*
X86137500Y-138550000D01*
X86837500Y-138550000D01*
X86837500Y-139250000D01*
G36*
X86837500Y-139250000D02*
G01*
X86137500Y-139250000D01*
X86137500Y-138550000D01*
X86837500Y-138550000D01*
X86837500Y-139250000D01*
G37*
X87937500Y-138150000D02*
X87237500Y-138150000D01*
X87237500Y-137450000D01*
X87937500Y-137450000D01*
X87937500Y-138150000D01*
G36*
X87937500Y-138150000D02*
G01*
X87237500Y-138150000D01*
X87237500Y-137450000D01*
X87937500Y-137450000D01*
X87937500Y-138150000D01*
G37*
X87937500Y-139250000D02*
X87237500Y-139250000D01*
X87237500Y-138550000D01*
X87937500Y-138550000D01*
X87937500Y-139250000D01*
G36*
X87937500Y-139250000D02*
G01*
X87237500Y-139250000D01*
X87237500Y-138550000D01*
X87937500Y-138550000D01*
X87937500Y-139250000D01*
G37*
%TO.C,U19*%
X120000000Y-72417500D02*
X119610000Y-72417500D01*
X119610000Y-72307500D01*
X119760000Y-72157500D01*
X120000000Y-72157500D01*
X120000000Y-72417500D01*
G36*
X120000000Y-72417500D02*
G01*
X119610000Y-72417500D01*
X119610000Y-72307500D01*
X119760000Y-72157500D01*
X120000000Y-72157500D01*
X120000000Y-72417500D01*
G37*
X120000000Y-71767500D02*
X119760000Y-71767500D01*
X119610000Y-71617500D01*
X119610000Y-71507500D01*
X120000000Y-71507500D01*
X120000000Y-71767500D01*
G36*
X120000000Y-71767500D02*
G01*
X119760000Y-71767500D01*
X119610000Y-71617500D01*
X119610000Y-71507500D01*
X120000000Y-71507500D01*
X120000000Y-71767500D01*
G37*
X119190000Y-72307500D02*
X119190000Y-72417500D01*
X118800000Y-72417500D01*
X118800000Y-72157500D01*
X119040000Y-72157500D01*
X119190000Y-72307500D01*
G36*
X119190000Y-72307500D02*
G01*
X119190000Y-72417500D01*
X118800000Y-72417500D01*
X118800000Y-72157500D01*
X119040000Y-72157500D01*
X119190000Y-72307500D01*
G37*
X119190000Y-71617500D02*
X119040000Y-71767500D01*
X118800000Y-71767500D01*
X118800000Y-71507500D01*
X119190000Y-71507500D01*
X119190000Y-71617500D01*
G36*
X119190000Y-71617500D02*
G01*
X119040000Y-71767500D01*
X118800000Y-71767500D01*
X118800000Y-71507500D01*
X119190000Y-71507500D01*
X119190000Y-71617500D01*
G37*
%TO.C,Q3*%
X129114997Y-104300004D02*
X128784997Y-104300004D01*
X128784997Y-104050004D01*
X129114997Y-104050004D01*
X129114997Y-104300004D01*
G36*
X129114997Y-104300004D02*
G01*
X128784997Y-104300004D01*
X128784997Y-104050004D01*
X129114997Y-104050004D01*
X129114997Y-104300004D01*
G37*
X129114997Y-104950004D02*
X128784997Y-104950004D01*
X128784997Y-104700004D01*
X129114997Y-104700004D01*
X129114997Y-104950004D01*
G36*
X129114997Y-104950004D02*
G01*
X128784997Y-104950004D01*
X128784997Y-104700004D01*
X129114997Y-104700004D01*
X129114997Y-104950004D01*
G37*
X129114997Y-105600004D02*
X128784997Y-105600004D01*
X128784997Y-105350004D01*
X129114997Y-105350004D01*
X129114997Y-105600004D01*
G36*
X129114997Y-105600004D02*
G01*
X128784997Y-105600004D01*
X128784997Y-105350004D01*
X129114997Y-105350004D01*
X129114997Y-105600004D01*
G37*
X130334997Y-105065004D02*
X129434997Y-105065004D01*
X129434997Y-104015004D01*
X130334997Y-104015004D01*
X130334997Y-105065004D01*
G36*
X130334997Y-105065004D02*
G01*
X129434997Y-105065004D01*
X129434997Y-104015004D01*
X130334997Y-104015004D01*
X130334997Y-105065004D01*
G37*
X130164997Y-105725004D02*
X129604997Y-105725004D01*
X129604997Y-105475004D01*
X130164997Y-105475004D01*
X130164997Y-105725004D01*
G36*
X130164997Y-105725004D02*
G01*
X129604997Y-105725004D01*
X129604997Y-105475004D01*
X130164997Y-105475004D01*
X130164997Y-105725004D01*
G37*
X130984997Y-104300004D02*
X130654997Y-104300004D01*
X130654997Y-104050004D01*
X130984997Y-104050004D01*
X130984997Y-104300004D01*
G36*
X130984997Y-104300004D02*
G01*
X130654997Y-104300004D01*
X130654997Y-104050004D01*
X130984997Y-104050004D01*
X130984997Y-104300004D01*
G37*
X130984997Y-104950004D02*
X130654997Y-104950004D01*
X130654997Y-104700004D01*
X130984997Y-104700004D01*
X130984997Y-104950004D01*
G36*
X130984997Y-104950004D02*
G01*
X130654997Y-104950004D01*
X130654997Y-104700004D01*
X130984997Y-104700004D01*
X130984997Y-104950004D01*
G37*
X130984997Y-105600004D02*
X130654997Y-105600004D01*
X130654997Y-105350004D01*
X130984997Y-105350004D01*
X130984997Y-105600004D01*
G36*
X130984997Y-105600004D02*
G01*
X130654997Y-105600004D01*
X130654997Y-105350004D01*
X130984997Y-105350004D01*
X130984997Y-105600004D01*
G37*
%TO.C,U7*%
G36*
X142439711Y-109325964D02*
G01*
X142449101Y-109328812D01*
X142457755Y-109333437D01*
X142465339Y-109339660D01*
X142471562Y-109347245D01*
X142476187Y-109355898D01*
X142479035Y-109365289D01*
X142479997Y-109375052D01*
X142479997Y-110704951D01*
X142479035Y-110714715D01*
X142476187Y-110724105D01*
X142471562Y-110732759D01*
X142465339Y-110740343D01*
X142457755Y-110746566D01*
X142449101Y-110751191D01*
X142439711Y-110754039D01*
X142429947Y-110755001D01*
X141100048Y-110755001D01*
X141090285Y-110754039D01*
X141080894Y-110751191D01*
X141072241Y-110746566D01*
X141064656Y-110740343D01*
X141058433Y-110732759D01*
X141053808Y-110724105D01*
X141050960Y-110714715D01*
X141049998Y-110704951D01*
X141049998Y-109375052D01*
X141050960Y-109365289D01*
X141053808Y-109355898D01*
X141058433Y-109347245D01*
X141064656Y-109339660D01*
X141072241Y-109333437D01*
X141080894Y-109328812D01*
X141090285Y-109325964D01*
X141100048Y-109325002D01*
X142429947Y-109325002D01*
X142439711Y-109325964D01*
G37*
G36*
X142439711Y-107695965D02*
G01*
X142449101Y-107698813D01*
X142457755Y-107703438D01*
X142465339Y-107709661D01*
X142471562Y-107717245D01*
X142476187Y-107725899D01*
X142479035Y-107735289D01*
X142479997Y-107745053D01*
X142479997Y-109074952D01*
X142479035Y-109084715D01*
X142476187Y-109094106D01*
X142471562Y-109102759D01*
X142465339Y-109110344D01*
X142457755Y-109116567D01*
X142449101Y-109121192D01*
X142439711Y-109124040D01*
X142429947Y-109125002D01*
X141100048Y-109125002D01*
X141090285Y-109124040D01*
X141080894Y-109121192D01*
X141072241Y-109116567D01*
X141064656Y-109110344D01*
X141058433Y-109102759D01*
X141053808Y-109094106D01*
X141050960Y-109084715D01*
X141049998Y-109074952D01*
X141049998Y-107745053D01*
X141050960Y-107735289D01*
X141053808Y-107725899D01*
X141058433Y-107717245D01*
X141064656Y-107709661D01*
X141072241Y-107703438D01*
X141080894Y-107698813D01*
X141090285Y-107695965D01*
X141100048Y-107695003D01*
X142429947Y-107695003D01*
X142439711Y-107695965D01*
G37*
G36*
X140809711Y-109325964D02*
G01*
X140819102Y-109328812D01*
X140827755Y-109333437D01*
X140835340Y-109339660D01*
X140841563Y-109347245D01*
X140846188Y-109355898D01*
X140849036Y-109365289D01*
X140849998Y-109375052D01*
X140849998Y-110704951D01*
X140849036Y-110714715D01*
X140846188Y-110724105D01*
X140841563Y-110732759D01*
X140835340Y-110740343D01*
X140827755Y-110746566D01*
X140819102Y-110751191D01*
X140809711Y-110754039D01*
X140799948Y-110755001D01*
X139470049Y-110755001D01*
X139460285Y-110754039D01*
X139450895Y-110751191D01*
X139442241Y-110746566D01*
X139434657Y-110740343D01*
X139428434Y-110732759D01*
X139423809Y-110724105D01*
X139420961Y-110714715D01*
X139419999Y-110704951D01*
X139419999Y-109375052D01*
X139420961Y-109365289D01*
X139423809Y-109355898D01*
X139428434Y-109347245D01*
X139434657Y-109339660D01*
X139442241Y-109333437D01*
X139450895Y-109328812D01*
X139460285Y-109325964D01*
X139470049Y-109325002D01*
X140799948Y-109325002D01*
X140809711Y-109325964D01*
G37*
G36*
X140809711Y-107695965D02*
G01*
X140819102Y-107698813D01*
X140827755Y-107703438D01*
X140835340Y-107709661D01*
X140841563Y-107717245D01*
X140846188Y-107725899D01*
X140849036Y-107735289D01*
X140849998Y-107745053D01*
X140849998Y-109074952D01*
X140849036Y-109084715D01*
X140846188Y-109094106D01*
X140841563Y-109102759D01*
X140835340Y-109110344D01*
X140827755Y-109116567D01*
X140819102Y-109121192D01*
X140809711Y-109124040D01*
X140799948Y-109125002D01*
X139470049Y-109125002D01*
X139460285Y-109124040D01*
X139450895Y-109121192D01*
X139442241Y-109116567D01*
X139434657Y-109110344D01*
X139428434Y-109102759D01*
X139423809Y-109094106D01*
X139420961Y-109084715D01*
X139419999Y-109074952D01*
X139419999Y-107745053D01*
X139420961Y-107735289D01*
X139423809Y-107725899D01*
X139428434Y-107717245D01*
X139434657Y-107709661D01*
X139442241Y-107703438D01*
X139450895Y-107698813D01*
X139460285Y-107695965D01*
X139470049Y-107695003D01*
X140799948Y-107695003D01*
X140809711Y-107695965D01*
G37*
%TO.C,Q21*%
X108687500Y-36467500D02*
X108437500Y-36467500D01*
X108437500Y-36137500D01*
X108687500Y-36137500D01*
X108687500Y-36467500D01*
G36*
X108687500Y-36467500D02*
G01*
X108437500Y-36467500D01*
X108437500Y-36137500D01*
X108687500Y-36137500D01*
X108687500Y-36467500D01*
G37*
X108037500Y-36467500D02*
X107787500Y-36467500D01*
X107787500Y-36137500D01*
X108037500Y-36137500D01*
X108037500Y-36467500D01*
G36*
X108037500Y-36467500D02*
G01*
X107787500Y-36467500D01*
X107787500Y-36137500D01*
X108037500Y-36137500D01*
X108037500Y-36467500D01*
G37*
X107387500Y-36467500D02*
X107137500Y-36467500D01*
X107137500Y-36137500D01*
X107387500Y-36137500D01*
X107387500Y-36467500D01*
G36*
X107387500Y-36467500D02*
G01*
X107137500Y-36467500D01*
X107137500Y-36137500D01*
X107387500Y-36137500D01*
X107387500Y-36467500D01*
G37*
X108722500Y-37687500D02*
X107672500Y-37687500D01*
X107672500Y-36787500D01*
X108722500Y-36787500D01*
X108722500Y-37687500D01*
G36*
X108722500Y-37687500D02*
G01*
X107672500Y-37687500D01*
X107672500Y-36787500D01*
X108722500Y-36787500D01*
X108722500Y-37687500D01*
G37*
X107262500Y-37517500D02*
X107012500Y-37517500D01*
X107012500Y-36957500D01*
X107262500Y-36957500D01*
X107262500Y-37517500D01*
G36*
X107262500Y-37517500D02*
G01*
X107012500Y-37517500D01*
X107012500Y-36957500D01*
X107262500Y-36957500D01*
X107262500Y-37517500D01*
G37*
X108687500Y-38337500D02*
X108437500Y-38337500D01*
X108437500Y-38007500D01*
X108687500Y-38007500D01*
X108687500Y-38337500D01*
G36*
X108687500Y-38337500D02*
G01*
X108437500Y-38337500D01*
X108437500Y-38007500D01*
X108687500Y-38007500D01*
X108687500Y-38337500D01*
G37*
X108037500Y-38337500D02*
X107787500Y-38337500D01*
X107787500Y-38007500D01*
X108037500Y-38007500D01*
X108037500Y-38337500D01*
G36*
X108037500Y-38337500D02*
G01*
X107787500Y-38337500D01*
X107787500Y-38007500D01*
X108037500Y-38007500D01*
X108037500Y-38337500D01*
G37*
X107387500Y-38337500D02*
X107137500Y-38337500D01*
X107137500Y-38007500D01*
X107387500Y-38007500D01*
X107387500Y-38337500D01*
G36*
X107387500Y-38337500D02*
G01*
X107137500Y-38337500D01*
X107137500Y-38007500D01*
X107387500Y-38007500D01*
X107387500Y-38337500D01*
G37*
%TO.C,U2*%
X120000000Y-75617500D02*
X119610000Y-75617500D01*
X119610000Y-75507500D01*
X119760000Y-75357500D01*
X120000000Y-75357500D01*
X120000000Y-75617500D01*
G36*
X120000000Y-75617500D02*
G01*
X119610000Y-75617500D01*
X119610000Y-75507500D01*
X119760000Y-75357500D01*
X120000000Y-75357500D01*
X120000000Y-75617500D01*
G37*
X120000000Y-74967500D02*
X119760000Y-74967500D01*
X119610000Y-74817500D01*
X119610000Y-74707500D01*
X120000000Y-74707500D01*
X120000000Y-74967500D01*
G36*
X120000000Y-74967500D02*
G01*
X119760000Y-74967500D01*
X119610000Y-74817500D01*
X119610000Y-74707500D01*
X120000000Y-74707500D01*
X120000000Y-74967500D01*
G37*
X119190000Y-75507500D02*
X119190000Y-75617500D01*
X118800000Y-75617500D01*
X118800000Y-75357500D01*
X119040000Y-75357500D01*
X119190000Y-75507500D01*
G36*
X119190000Y-75507500D02*
G01*
X119190000Y-75617500D01*
X118800000Y-75617500D01*
X118800000Y-75357500D01*
X119040000Y-75357500D01*
X119190000Y-75507500D01*
G37*
X119190000Y-74817500D02*
X119040000Y-74967500D01*
X118800000Y-74967500D01*
X118800000Y-74707500D01*
X119190000Y-74707500D01*
X119190000Y-74817500D01*
G36*
X119190000Y-74817500D02*
G01*
X119040000Y-74967500D01*
X118800000Y-74967500D01*
X118800000Y-74707500D01*
X119190000Y-74707500D01*
X119190000Y-74817500D01*
G37*
%TO.C,Q4*%
X129114997Y-107015004D02*
X128784997Y-107015004D01*
X128784997Y-106765004D01*
X129114997Y-106765004D01*
X129114997Y-107015004D01*
G36*
X129114997Y-107015004D02*
G01*
X128784997Y-107015004D01*
X128784997Y-106765004D01*
X129114997Y-106765004D01*
X129114997Y-107015004D01*
G37*
X129114997Y-107665004D02*
X128784997Y-107665004D01*
X128784997Y-107415004D01*
X129114997Y-107415004D01*
X129114997Y-107665004D01*
G36*
X129114997Y-107665004D02*
G01*
X128784997Y-107665004D01*
X128784997Y-107415004D01*
X129114997Y-107415004D01*
X129114997Y-107665004D01*
G37*
X129114997Y-108315004D02*
X128784997Y-108315004D01*
X128784997Y-108065004D01*
X129114997Y-108065004D01*
X129114997Y-108315004D01*
G36*
X129114997Y-108315004D02*
G01*
X128784997Y-108315004D01*
X128784997Y-108065004D01*
X129114997Y-108065004D01*
X129114997Y-108315004D01*
G37*
X130334997Y-107780004D02*
X129434997Y-107780004D01*
X129434997Y-106730004D01*
X130334997Y-106730004D01*
X130334997Y-107780004D01*
G36*
X130334997Y-107780004D02*
G01*
X129434997Y-107780004D01*
X129434997Y-106730004D01*
X130334997Y-106730004D01*
X130334997Y-107780004D01*
G37*
X130164997Y-108440004D02*
X129604997Y-108440004D01*
X129604997Y-108190004D01*
X130164997Y-108190004D01*
X130164997Y-108440004D01*
G36*
X130164997Y-108440004D02*
G01*
X129604997Y-108440004D01*
X129604997Y-108190004D01*
X130164997Y-108190004D01*
X130164997Y-108440004D01*
G37*
X130984997Y-107015004D02*
X130654997Y-107015004D01*
X130654997Y-106765004D01*
X130984997Y-106765004D01*
X130984997Y-107015004D01*
G36*
X130984997Y-107015004D02*
G01*
X130654997Y-107015004D01*
X130654997Y-106765004D01*
X130984997Y-106765004D01*
X130984997Y-107015004D01*
G37*
X130984997Y-107665004D02*
X130654997Y-107665004D01*
X130654997Y-107415004D01*
X130984997Y-107415004D01*
X130984997Y-107665004D01*
G36*
X130984997Y-107665004D02*
G01*
X130654997Y-107665004D01*
X130654997Y-107415004D01*
X130984997Y-107415004D01*
X130984997Y-107665004D01*
G37*
X130984997Y-108315004D02*
X130654997Y-108315004D01*
X130654997Y-108065004D01*
X130984997Y-108065004D01*
X130984997Y-108315004D01*
G36*
X130984997Y-108315004D02*
G01*
X130654997Y-108315004D01*
X130654997Y-108065004D01*
X130984997Y-108065004D01*
X130984997Y-108315004D01*
G37*
%TD*%
D11*
%TO.C,D26*%
X165162500Y-161400000D03*
X163587500Y-161400000D03*
%TD*%
D12*
%TO.C,Q7*%
X125849997Y-122925004D03*
X124849997Y-122925004D03*
X125349997Y-124225004D03*
%TD*%
D13*
%TO.C,C83*%
X69812500Y-46125000D03*
X69812500Y-47675000D03*
%TD*%
D14*
%TO.C,C6*%
X140387500Y-72575000D03*
X140387500Y-71025000D03*
%TD*%
%TO.C,C33*%
X141749997Y-105050004D03*
X141749997Y-103500004D03*
%TD*%
D15*
%TO.C,C30*%
X133925000Y-109000000D03*
X135475000Y-109000000D03*
%TD*%
D16*
%TO.C,R37*%
X125299997Y-112850004D03*
X125299997Y-114500004D03*
%TD*%
D17*
%TO.C,R87*%
X75212500Y-99725000D03*
X75212500Y-98075000D03*
%TD*%
D18*
%TO.C,D5*%
X76812500Y-98112500D03*
X76812500Y-99687500D03*
%TD*%
D16*
%TO.C,R51*%
X114200000Y-61775000D03*
X114200000Y-63425000D03*
%TD*%
D13*
%TO.C,C7*%
X140387500Y-74125000D03*
X140387500Y-75675000D03*
%TD*%
D14*
%TO.C,C105*%
X88612500Y-133675000D03*
X88612500Y-132125000D03*
%TD*%
D11*
%TO.C,D28*%
X165162500Y-153400000D03*
X163587500Y-153400000D03*
%TD*%
D19*
%TO.C,R68*%
X133550000Y-92200000D03*
X131900000Y-92200000D03*
%TD*%
D20*
%TO.C,D11*%
X42912500Y-151100000D03*
X44487500Y-151100000D03*
%TD*%
D21*
%TO.C,R38*%
X130849997Y-117875004D03*
D22*
X129849997Y-121125004D03*
D21*
X128849997Y-117875004D03*
%TD*%
D19*
%TO.C,R85*%
X49037500Y-80200000D03*
X47387500Y-80200000D03*
%TD*%
%TO.C,R102*%
X107337500Y-112400000D03*
X105687500Y-112400000D03*
%TD*%
D13*
%TO.C,C4*%
X135487500Y-76425000D03*
X135487500Y-77975000D03*
%TD*%
D21*
%TO.C,R43*%
X158849997Y-118375004D03*
D22*
X157849997Y-121625004D03*
D21*
X156849997Y-118375004D03*
%TD*%
D23*
%TO.C,U5*%
X115725000Y-81495000D03*
%TD*%
D16*
%TO.C,R35*%
X123649997Y-112850004D03*
X123649997Y-114500004D03*
%TD*%
D19*
%TO.C,R70*%
X133550000Y-90500000D03*
X131900000Y-90500000D03*
%TD*%
D24*
%TO.C,F4*%
X57912500Y-44662500D03*
X57912500Y-48937500D03*
%TD*%
D19*
%TO.C,R84*%
X52137500Y-80200000D03*
X50487500Y-80200000D03*
%TD*%
D25*
%TO.C,R86*%
X80687500Y-108400000D03*
X82337500Y-108400000D03*
%TD*%
D16*
%TO.C,R24*%
X144783331Y-114250004D03*
X144783331Y-115900004D03*
%TD*%
D19*
%TO.C,R98*%
X87600000Y-151785000D03*
X85950000Y-151785000D03*
%TD*%
D26*
%TO.C,C17*%
X137375000Y-50700000D03*
X135825000Y-50700000D03*
%TD*%
D27*
%TO.C,U10*%
X97500000Y-84250000D03*
X97500000Y-82250000D03*
X97500000Y-80250000D03*
X97500000Y-78250000D03*
X97500000Y-76250000D03*
X97500000Y-74250000D03*
X97500000Y-72250000D03*
X97500000Y-70250000D03*
D28*
X94900000Y-68750000D03*
X92900000Y-68750000D03*
X90900000Y-68750000D03*
X88900000Y-68750000D03*
X86900000Y-68750000D03*
X84900000Y-68750000D03*
D27*
X82300000Y-70250000D03*
X82300000Y-72250000D03*
X82300000Y-74250000D03*
X82300000Y-76250000D03*
X82300000Y-78250000D03*
X82300000Y-80250000D03*
X82300000Y-82250000D03*
X82300000Y-84250000D03*
%TD*%
D29*
%TO.C,U9*%
X112262500Y-63375000D03*
X112262500Y-62725000D03*
X112262500Y-62075000D03*
X112262500Y-61425000D03*
X112262500Y-60775000D03*
X112262500Y-60125000D03*
X112262500Y-59475000D03*
X112262500Y-58825000D03*
X112262500Y-58175000D03*
X112262500Y-57525000D03*
X112262500Y-56875000D03*
X112262500Y-56225000D03*
X106537500Y-56225000D03*
X106537500Y-56875000D03*
X106537500Y-57525000D03*
X106537500Y-58175000D03*
X106537500Y-58825000D03*
X106537500Y-59475000D03*
X106537500Y-60125000D03*
X106537500Y-60775000D03*
X106537500Y-61425000D03*
X106537500Y-62075000D03*
X106537500Y-62725000D03*
X106537500Y-63375000D03*
%TD*%
D26*
%TO.C,C16*%
X136375000Y-58950000D03*
X134825000Y-58950000D03*
%TD*%
D30*
%TO.C,R26*%
X161232197Y-99475004D03*
X158307197Y-99475004D03*
%TD*%
D16*
%TO.C,R22*%
X143116665Y-114250004D03*
X143116665Y-115900004D03*
%TD*%
D25*
%TO.C,R50*%
X143124997Y-130875004D03*
X144774997Y-130875004D03*
%TD*%
D16*
%TO.C,R62*%
X122100000Y-89975000D03*
X122100000Y-91625000D03*
%TD*%
D25*
%TO.C,R60*%
X77675000Y-78275000D03*
X79325000Y-78275000D03*
%TD*%
D19*
%TO.C,R101*%
X107337500Y-101400000D03*
X105687500Y-101400000D03*
%TD*%
D15*
%TO.C,C81*%
X80737500Y-103600000D03*
X82287500Y-103600000D03*
%TD*%
D31*
%TO.C,U3*%
X119400000Y-73562500D03*
%TD*%
D19*
%TO.C,R15*%
X132175000Y-52450000D03*
X130525000Y-52450000D03*
%TD*%
D13*
%TO.C,C3*%
X129887500Y-72325000D03*
X129887500Y-73875000D03*
%TD*%
D19*
%TO.C,R99*%
X134937500Y-147800000D03*
X133287500Y-147800000D03*
%TD*%
D32*
%TO.C,U15*%
X91637500Y-58175000D03*
X91637500Y-57675000D03*
X91637500Y-57175000D03*
X91637500Y-56675000D03*
X91637500Y-56175000D03*
D33*
X90512500Y-55050000D03*
X90012500Y-55050000D03*
X89512500Y-55050000D03*
X89012500Y-55050000D03*
X88512500Y-55050000D03*
D32*
X87387500Y-56175000D03*
X87387500Y-56675000D03*
X87387500Y-57175000D03*
X87387500Y-57675000D03*
X87387500Y-58175000D03*
D33*
X88512500Y-59300000D03*
X89012500Y-59300000D03*
X89512500Y-59300000D03*
X90012500Y-59300000D03*
X90512500Y-59300000D03*
%TD*%
D34*
%TO.C,R106*%
X130300000Y-45450000D03*
D35*
X133550000Y-46450000D03*
D34*
X130300000Y-47450000D03*
%TD*%
D25*
%TO.C,R83*%
X67587500Y-74175000D03*
X69237500Y-74175000D03*
%TD*%
D15*
%TO.C,C110*%
X139837500Y-147800000D03*
X141387500Y-147800000D03*
%TD*%
D36*
%TO.C,C8*%
X167850000Y-90850000D03*
X159450000Y-90850000D03*
%TD*%
D14*
%TO.C,C23*%
X117400000Y-78775000D03*
X117400000Y-77225000D03*
%TD*%
D16*
%TO.C,R21*%
X139283333Y-114250004D03*
X139283333Y-115900004D03*
%TD*%
D37*
%TO.C,D4*%
X151349997Y-100675004D03*
X147349997Y-100675004D03*
%TD*%
D26*
%TO.C,C38*%
X156132197Y-99475004D03*
X154582197Y-99475004D03*
%TD*%
D19*
%TO.C,R96*%
X87600000Y-153385000D03*
X85950000Y-153385000D03*
%TD*%
D38*
%TO.C,U1*%
X136400000Y-73600000D03*
X137400000Y-73600000D03*
X136400000Y-72600000D03*
X137400000Y-72600000D03*
D39*
X135900000Y-74787500D03*
X136400000Y-74787500D03*
X136900000Y-74787500D03*
X137400000Y-74787500D03*
X137900000Y-74787500D03*
D40*
X138587500Y-74100000D03*
X138587500Y-73600000D03*
X138587500Y-73100000D03*
X138587500Y-72600000D03*
X138587500Y-72100000D03*
D39*
X137900000Y-71412500D03*
X137400000Y-71412500D03*
X136900000Y-71412500D03*
X136400000Y-71412500D03*
X135900000Y-71412500D03*
D40*
X135212500Y-72100000D03*
X135212500Y-72600000D03*
X135212500Y-73100000D03*
X135212500Y-73600000D03*
X135212500Y-74100000D03*
%TD*%
D16*
%TO.C,R48*%
X166429997Y-113350004D03*
X166429997Y-115000004D03*
%TD*%
%TO.C,R89*%
X85837500Y-57150000D03*
X85837500Y-58800000D03*
%TD*%
D26*
%TO.C,C12*%
X140625000Y-52200000D03*
X139075000Y-52200000D03*
%TD*%
%TO.C,C18*%
X136375000Y-57200000D03*
X134825000Y-57200000D03*
%TD*%
D19*
%TO.C,R25*%
X144774997Y-134275004D03*
X143124997Y-134275004D03*
%TD*%
D15*
%TO.C,C26*%
X130679997Y-112585004D03*
X132229997Y-112585004D03*
%TD*%
D25*
%TO.C,R61*%
X77675000Y-80300000D03*
X79325000Y-80300000D03*
%TD*%
D15*
%TO.C,C41*%
X139074997Y-130875004D03*
X140624997Y-130875004D03*
%TD*%
%TO.C,C48*%
X100425000Y-70000000D03*
X101975000Y-70000000D03*
%TD*%
%TO.C,C79*%
X80737500Y-106800000D03*
X82287500Y-106800000D03*
%TD*%
D21*
%TO.C,R32*%
X118849997Y-117875004D03*
D22*
X117849997Y-121125004D03*
D21*
X116849997Y-117875004D03*
%TD*%
D12*
%TO.C,Q11*%
X113849997Y-122925004D03*
X112849997Y-122925004D03*
X113349997Y-124225004D03*
%TD*%
D16*
%TO.C,R3*%
X131587500Y-73900000D03*
X131587500Y-75550000D03*
%TD*%
D11*
%TO.C,D34*%
X155300000Y-145400000D03*
X153725000Y-145400000D03*
%TD*%
D13*
%TO.C,C58*%
X47112500Y-68800000D03*
X47112500Y-70350000D03*
%TD*%
D19*
%TO.C,R77*%
X136725000Y-83700000D03*
X135075000Y-83700000D03*
%TD*%
D41*
%TO.C,D2*%
X126600000Y-54700000D03*
X126600000Y-50700000D03*
%TD*%
D14*
%TO.C,C89*%
X67312500Y-154975000D03*
X67312500Y-153425000D03*
%TD*%
D12*
%TO.C,Q15*%
X157864997Y-123325004D03*
X156864997Y-123325004D03*
X157364997Y-124625004D03*
%TD*%
D21*
%TO.C,R45*%
X162899997Y-118375004D03*
D22*
X161899997Y-121625004D03*
D21*
X160899997Y-118375004D03*
%TD*%
D14*
%TO.C,C31*%
X140149997Y-105050004D03*
X140149997Y-103500004D03*
%TD*%
D13*
%TO.C,C98*%
X87437500Y-61900000D03*
X87437500Y-63450000D03*
%TD*%
D19*
%TO.C,R71*%
X136725000Y-88800000D03*
X135075000Y-88800000D03*
%TD*%
%TO.C,R79*%
X52137500Y-81800000D03*
X50487500Y-81800000D03*
%TD*%
D14*
%TO.C,C5*%
X133787500Y-73875000D03*
X133787500Y-72325000D03*
%TD*%
D15*
%TO.C,C13*%
X132575000Y-50700000D03*
X134125000Y-50700000D03*
%TD*%
D42*
%TO.C,D18*%
X55112500Y-46187500D03*
X55112500Y-44612500D03*
%TD*%
D43*
%TO.C,Q1*%
X148300000Y-80300000D03*
X147150000Y-80300000D03*
X146000000Y-80300000D03*
X148300000Y-81150000D03*
X147150000Y-81150000D03*
X146000000Y-81150000D03*
X148300000Y-82000000D03*
X147150000Y-82000000D03*
X146000000Y-82000000D03*
X148300000Y-82850000D03*
X147150000Y-82850000D03*
X146000000Y-82850000D03*
D44*
X149055000Y-83850000D03*
X147785000Y-83850000D03*
X146515000Y-83850000D03*
X145245000Y-83850000D03*
D45*
X149055000Y-78125000D03*
X147785000Y-78125000D03*
X146515000Y-78125000D03*
X145245000Y-78125000D03*
%TD*%
D15*
%TO.C,C45*%
X77725000Y-76250000D03*
X79275000Y-76250000D03*
%TD*%
D46*
%TO.C,U14*%
X80261550Y-99149050D03*
D47*
X80115500Y-99649999D03*
X80115500Y-100150000D03*
X80115500Y-100650000D03*
X80115500Y-101150001D03*
D46*
X80261550Y-101650950D03*
D48*
X80762499Y-101797000D03*
X81262500Y-101797000D03*
X81762500Y-101797000D03*
X82262501Y-101797000D03*
D46*
X82763450Y-101650950D03*
D47*
X82909500Y-101150001D03*
X82909500Y-100650000D03*
X82909500Y-100150000D03*
X82909500Y-99649999D03*
D46*
X82763450Y-99149050D03*
D48*
X82262501Y-99003000D03*
X81762500Y-99003000D03*
X81262500Y-99003000D03*
X80762499Y-99003000D03*
D49*
X81512500Y-100400000D03*
%TD*%
D19*
%TO.C,R72*%
X133550000Y-88800000D03*
X131900000Y-88800000D03*
%TD*%
D14*
%TO.C,C42*%
X104600000Y-63375000D03*
X104600000Y-61825000D03*
%TD*%
D13*
%TO.C,C87*%
X50612500Y-46125000D03*
X50612500Y-47675000D03*
%TD*%
D26*
%TO.C,C10*%
X115475000Y-75172500D03*
X113925000Y-75172500D03*
%TD*%
D50*
%TO.C,R16*%
X132762500Y-67600000D03*
X126837500Y-67600000D03*
%TD*%
D19*
%TO.C,R66*%
X133550000Y-93900000D03*
X131900000Y-93900000D03*
%TD*%
%TO.C,R59*%
X151325000Y-52675000D03*
X149675000Y-52675000D03*
%TD*%
D51*
%TO.C,C9*%
X159450000Y-61350000D03*
X167850000Y-61350000D03*
%TD*%
D19*
%TO.C,R55*%
X102025000Y-85400000D03*
X100375000Y-85400000D03*
%TD*%
D14*
%TO.C,C100*%
X90212500Y-133675000D03*
X90212500Y-132125000D03*
%TD*%
D26*
%TO.C,C34*%
X149142197Y-105550004D03*
X147592197Y-105550004D03*
%TD*%
D13*
%TO.C,C88*%
X65712500Y-153425000D03*
X65712500Y-154975000D03*
%TD*%
D25*
%TO.C,R14*%
X129275000Y-50700000D03*
X130925000Y-50700000D03*
%TD*%
D14*
%TO.C,C35*%
X146449997Y-115850004D03*
X146449997Y-114300004D03*
%TD*%
D17*
%TO.C,R8*%
X136850000Y-69675000D03*
X136850000Y-68025000D03*
%TD*%
D13*
%TO.C,C19*%
X114000000Y-80425000D03*
X114000000Y-81975000D03*
%TD*%
D25*
%TO.C,R53*%
X100375000Y-81800000D03*
X102025000Y-81800000D03*
%TD*%
D52*
%TO.C,J7*%
X86475000Y-39125000D03*
X86475000Y-38625000D03*
X86475000Y-38125000D03*
X86475000Y-37625000D03*
X86475000Y-37125000D03*
X86475000Y-36625000D03*
X86475000Y-36125000D03*
X86475000Y-35625000D03*
X86475000Y-35125000D03*
X86475000Y-34625000D03*
X86475000Y-34125000D03*
X86475000Y-33625000D03*
X88750000Y-33625000D03*
X88750000Y-34125000D03*
X88750000Y-34625000D03*
X88750000Y-35125000D03*
X88750000Y-35625000D03*
X88750000Y-36125000D03*
X88750000Y-36625000D03*
X88750000Y-37125000D03*
X88750000Y-37625000D03*
X88750000Y-38125000D03*
X88750000Y-38625000D03*
X88750000Y-39125000D03*
%TD*%
D25*
%TO.C,R4*%
X139400000Y-63150000D03*
X141050000Y-63150000D03*
%TD*%
D53*
%TO.C,U12*%
X125900000Y-91900000D03*
X125900000Y-91100000D03*
X125100000Y-91900000D03*
X125100000Y-91100000D03*
D54*
X126937500Y-92250000D03*
X126937500Y-91750000D03*
X126937500Y-91250000D03*
X126937500Y-90750000D03*
D55*
X126250000Y-90062500D03*
X125750000Y-90062500D03*
X125250000Y-90062500D03*
X124750000Y-90062500D03*
D54*
X124062500Y-90750000D03*
X124062500Y-91250000D03*
X124062500Y-91750000D03*
X124062500Y-92250000D03*
D55*
X124750000Y-92937500D03*
X125250000Y-92937500D03*
X125750000Y-92937500D03*
X126250000Y-92937500D03*
%TD*%
D52*
%TO.C,J8*%
X88650000Y-160625000D03*
X88650000Y-161125000D03*
X88650000Y-161625000D03*
X88650000Y-162125000D03*
X88650000Y-162625000D03*
X88650000Y-163125000D03*
X88650000Y-163625000D03*
X88650000Y-164125000D03*
X88650000Y-164625000D03*
X88650000Y-165125000D03*
X88650000Y-165625000D03*
X88650000Y-166125000D03*
X86375000Y-166125000D03*
X86375000Y-165625000D03*
X86375000Y-165125000D03*
X86375000Y-164625000D03*
X86375000Y-164125000D03*
X86375000Y-163625000D03*
X86375000Y-163125000D03*
X86375000Y-162625000D03*
X86375000Y-162125000D03*
X86375000Y-161625000D03*
X86375000Y-161125000D03*
X86375000Y-160625000D03*
%TD*%
D21*
%TO.C,R36*%
X126849997Y-117875004D03*
D22*
X125849997Y-121125004D03*
D21*
X124849997Y-117875004D03*
%TD*%
D26*
%TO.C,C50*%
X125575000Y-88100000D03*
X124025000Y-88100000D03*
%TD*%
D13*
%TO.C,C93*%
X93212500Y-39800000D03*
X93212500Y-41350000D03*
%TD*%
%TO.C,C84*%
X46712500Y-153225000D03*
X46712500Y-154775000D03*
%TD*%
D14*
%TO.C,C92*%
X83012500Y-41275000D03*
X83012500Y-39725000D03*
%TD*%
D16*
%TO.C,R105*%
X155650000Y-46525000D03*
X155650000Y-48175000D03*
%TD*%
D17*
%TO.C,R94*%
X91812500Y-138125000D03*
X91812500Y-136475000D03*
%TD*%
D21*
%TO.C,R47*%
X166949997Y-118375004D03*
D22*
X165949997Y-121625004D03*
D21*
X164949997Y-118375004D03*
%TD*%
D26*
%TO.C,C2*%
X131987500Y-78800000D03*
X130437500Y-78800000D03*
%TD*%
D56*
%TO.C,L4*%
X155232197Y-104475004D03*
X160667797Y-104475004D03*
%TD*%
D19*
%TO.C,R74*%
X133550000Y-87100000D03*
X131900000Y-87100000D03*
%TD*%
D16*
%TO.C,R82*%
X54112500Y-67650000D03*
X54112500Y-69300000D03*
%TD*%
D15*
%TO.C,C39*%
X139074997Y-132575004D03*
X140624997Y-132575004D03*
%TD*%
D19*
%TO.C,R69*%
X136725000Y-90500000D03*
X135075000Y-90500000D03*
%TD*%
D14*
%TO.C,C85*%
X48312500Y-154775000D03*
X48312500Y-153225000D03*
%TD*%
D57*
%TO.C,Q26*%
X154250000Y-49900000D03*
X154250000Y-50900000D03*
X155550000Y-50400000D03*
%TD*%
D16*
%TO.C,R42*%
X160969997Y-113350004D03*
X160969997Y-115000004D03*
%TD*%
D19*
%TO.C,R11*%
X140925000Y-55450000D03*
X139275000Y-55450000D03*
%TD*%
D17*
%TO.C,R39*%
X157329997Y-115000004D03*
X157329997Y-113350004D03*
%TD*%
D58*
%TO.C,U13*%
X54121299Y-71983799D03*
X54121299Y-72383801D03*
X54121299Y-72783800D03*
X54121299Y-73183800D03*
X54121299Y-73583801D03*
X54121299Y-73983801D03*
X54121299Y-74383800D03*
X54121299Y-74783799D03*
X54121299Y-75183801D03*
X54121299Y-75583800D03*
X54121299Y-75983799D03*
X54121299Y-76383801D03*
X54121299Y-76783800D03*
X54121299Y-77183799D03*
X54121299Y-77583801D03*
X54121299Y-77983800D03*
X54121299Y-78383799D03*
X54121299Y-78783799D03*
X54121299Y-79183800D03*
X54121299Y-79583799D03*
X54121299Y-79983799D03*
X54121299Y-80383800D03*
X54121299Y-80783800D03*
X54121299Y-81183799D03*
X54121299Y-81583801D03*
D59*
X55112498Y-82575000D03*
X55512500Y-82575000D03*
X55912499Y-82575000D03*
X56312499Y-82575000D03*
X56712500Y-82575000D03*
X57112500Y-82575000D03*
X57512499Y-82575000D03*
X57912498Y-82575000D03*
X58312500Y-82575000D03*
X58712499Y-82575000D03*
X59112498Y-82575000D03*
X59512500Y-82575000D03*
X59912499Y-82575000D03*
X60312498Y-82575000D03*
X60712500Y-82575000D03*
X61112499Y-82575000D03*
X61512498Y-82575000D03*
X61912498Y-82575000D03*
X62312499Y-82575000D03*
X62712498Y-82575000D03*
X63112498Y-82575000D03*
X63512499Y-82575000D03*
X63912499Y-82575000D03*
X64312498Y-82575000D03*
X64712497Y-82575000D03*
D58*
X65703699Y-81583801D03*
X65703699Y-81183799D03*
X65703699Y-80783800D03*
X65703699Y-80383800D03*
X65703699Y-79983799D03*
X65703699Y-79583799D03*
X65703699Y-79183800D03*
X65703699Y-78783801D03*
X65703699Y-78383799D03*
X65703699Y-77983800D03*
X65703699Y-77583801D03*
X65703699Y-77183799D03*
X65703699Y-76783800D03*
X65703699Y-76383801D03*
X65703699Y-75983799D03*
X65703699Y-75583800D03*
X65703699Y-75183801D03*
X65703699Y-74783801D03*
X65703699Y-74383800D03*
X65703699Y-73983801D03*
X65703699Y-73583801D03*
X65703699Y-73183800D03*
X65703699Y-72783800D03*
X65703699Y-72383801D03*
X65703699Y-71983802D03*
D59*
X64712500Y-70992600D03*
X64312498Y-70992600D03*
X63912499Y-70992600D03*
X63512499Y-70992600D03*
X63112498Y-70992600D03*
X62712498Y-70992600D03*
X62312499Y-70992600D03*
X61912500Y-70992600D03*
X61512498Y-70992600D03*
X61112499Y-70992600D03*
X60712500Y-70992600D03*
X60312498Y-70992600D03*
X59912499Y-70992600D03*
X59512500Y-70992600D03*
X59112498Y-70992600D03*
X58712499Y-70992600D03*
X58312500Y-70992600D03*
X57912500Y-70992600D03*
X57512499Y-70992600D03*
X57112500Y-70992600D03*
X56712500Y-70992600D03*
X56312499Y-70992600D03*
X55912499Y-70992600D03*
X55512500Y-70992600D03*
X55112501Y-70992600D03*
%TD*%
D19*
%TO.C,R54*%
X102025000Y-80000000D03*
X100375000Y-80000000D03*
%TD*%
%TO.C,R17*%
X135399997Y-112575004D03*
X133749997Y-112575004D03*
%TD*%
D17*
%TO.C,R88*%
X73612500Y-99725000D03*
X73612500Y-98075000D03*
%TD*%
D42*
%TO.C,D1*%
X141100000Y-58737500D03*
X141100000Y-57162500D03*
%TD*%
D25*
%TO.C,R56*%
X100375000Y-78200000D03*
X102025000Y-78200000D03*
%TD*%
D15*
%TO.C,C14*%
X122125000Y-73662500D03*
X123675000Y-73662500D03*
%TD*%
D14*
%TO.C,C40*%
X103000000Y-63375000D03*
X103000000Y-61825000D03*
%TD*%
D30*
%TO.C,R18*%
X123112497Y-100175004D03*
X120187497Y-100175004D03*
%TD*%
D19*
%TO.C,R78*%
X133550000Y-83700000D03*
X131900000Y-83700000D03*
%TD*%
D16*
%TO.C,R31*%
X120349997Y-112850004D03*
X120349997Y-114500004D03*
%TD*%
D14*
%TO.C,C108*%
X91812500Y-133675000D03*
X91812500Y-132125000D03*
%TD*%
D19*
%TO.C,R1*%
X133537500Y-77200000D03*
X131887500Y-77200000D03*
%TD*%
%TO.C,R13*%
X140675000Y-48700000D03*
X139025000Y-48700000D03*
%TD*%
D16*
%TO.C,R29*%
X118699997Y-112850004D03*
X118699997Y-114500004D03*
%TD*%
D60*
%TO.C,U17*%
X142166800Y-156892500D03*
X142166800Y-156257500D03*
X142166800Y-155622500D03*
X142166800Y-154987500D03*
X142166800Y-154352500D03*
X142166800Y-153717500D03*
X142166800Y-153082500D03*
X142166800Y-152447500D03*
X142166800Y-151812500D03*
X142166800Y-151177500D03*
X142166800Y-150542500D03*
X142166800Y-149907500D03*
X136858200Y-149907500D03*
X136858200Y-150542500D03*
X136858200Y-151177500D03*
X136858200Y-151812500D03*
X136858200Y-152447500D03*
X136858200Y-153082500D03*
X136858200Y-153717500D03*
X136858200Y-154352500D03*
X136858200Y-154987500D03*
X136858200Y-155622500D03*
X136858200Y-156257500D03*
X136858200Y-156892500D03*
%TD*%
D15*
%TO.C,C29*%
X132109997Y-106140004D03*
X133659997Y-106140004D03*
%TD*%
D23*
%TO.C,U6*%
X115700000Y-77787500D03*
%TD*%
D21*
%TO.C,R30*%
X114849997Y-117875004D03*
D22*
X113849997Y-121125004D03*
D21*
X112849997Y-117875004D03*
%TD*%
D25*
%TO.C,R80*%
X70687500Y-74175000D03*
X72337500Y-74175000D03*
%TD*%
D61*
%TO.C,C21*%
X124350000Y-60675000D03*
X124350000Y-57725000D03*
%TD*%
D32*
%TO.C,U16*%
X84912500Y-137350000D03*
X84912500Y-137850000D03*
X84912500Y-138350000D03*
X84912500Y-138850000D03*
X84912500Y-139350000D03*
D33*
X86037500Y-140475000D03*
X86537500Y-140475000D03*
X87037500Y-140475000D03*
X87537500Y-140475000D03*
X88037500Y-140475000D03*
D32*
X89162500Y-139350000D03*
X89162500Y-138850000D03*
X89162500Y-138350000D03*
X89162500Y-137850000D03*
X89162500Y-137350000D03*
D33*
X88037500Y-136225000D03*
X87537500Y-136225000D03*
X87037500Y-136225000D03*
X86537500Y-136225000D03*
X86037500Y-136225000D03*
%TD*%
D11*
%TO.C,D31*%
X155300000Y-157400000D03*
X153725000Y-157400000D03*
%TD*%
D14*
%TO.C,C27*%
X135449997Y-115850004D03*
X135449997Y-114300004D03*
%TD*%
D19*
%TO.C,R58*%
X79325000Y-72200000D03*
X77675000Y-72200000D03*
%TD*%
D31*
%TO.C,U19*%
X119400000Y-71962500D03*
%TD*%
D11*
%TO.C,D29*%
X165162500Y-149400000D03*
X163587500Y-149400000D03*
%TD*%
D14*
%TO.C,C86*%
X52212500Y-47675000D03*
X52212500Y-46125000D03*
%TD*%
D26*
%TO.C,C51*%
X125575000Y-86500000D03*
X124025000Y-86500000D03*
%TD*%
D11*
%TO.C,D24*%
X121193750Y-141400000D03*
X119618750Y-141400000D03*
%TD*%
D43*
%TO.C,Q27*%
X160800000Y-49000000D03*
X159650000Y-49000000D03*
X158500000Y-49000000D03*
X160800000Y-49850000D03*
X159650000Y-49850000D03*
X158500000Y-49850000D03*
X160800000Y-50700000D03*
X159650000Y-50700000D03*
X158500000Y-50700000D03*
X160800000Y-51550000D03*
X159650000Y-51550000D03*
X158500000Y-51550000D03*
D44*
X161555000Y-52550000D03*
X160285000Y-52550000D03*
X159015000Y-52550000D03*
X157745000Y-52550000D03*
D45*
X161555000Y-46825000D03*
X160285000Y-46825000D03*
X159015000Y-46825000D03*
X157745000Y-46825000D03*
%TD*%
D11*
%TO.C,D15*%
X60112500Y-150800000D03*
X58537500Y-150800000D03*
%TD*%
D16*
%TO.C,R46*%
X164609997Y-113350004D03*
X164609997Y-115000004D03*
%TD*%
D13*
%TO.C,C49*%
X120500000Y-90025000D03*
X120500000Y-91575000D03*
%TD*%
D12*
%TO.C,Q16*%
X153839997Y-123325004D03*
X152839997Y-123325004D03*
X153339997Y-124625004D03*
%TD*%
D56*
%TO.C,L3*%
X120732197Y-105205004D03*
X126167797Y-105205004D03*
%TD*%
D16*
%TO.C,R44*%
X162789997Y-113350004D03*
X162789997Y-115000004D03*
%TD*%
D17*
%TO.C,R28*%
X116999997Y-114525004D03*
X116999997Y-112875004D03*
%TD*%
D11*
%TO.C,D32*%
X155300000Y-153400000D03*
X153725000Y-153400000D03*
%TD*%
D16*
%TO.C,R20*%
X135284997Y-103805004D03*
X135284997Y-105455004D03*
%TD*%
D21*
%TO.C,R49*%
X170999997Y-118375004D03*
D22*
X169999997Y-121625004D03*
D21*
X168999997Y-118375004D03*
%TD*%
%TO.C,R34*%
X122849997Y-117875004D03*
D22*
X121849997Y-121125004D03*
D21*
X120849997Y-117875004D03*
%TD*%
D18*
%TO.C,D16*%
X55112500Y-47812500D03*
X55112500Y-49387500D03*
%TD*%
D62*
%TO.C,F3*%
X63350000Y-153700000D03*
X59075000Y-153700000D03*
%TD*%
D19*
%TO.C,R12*%
X140675000Y-50450000D03*
X139025000Y-50450000D03*
%TD*%
D14*
%TO.C,C106*%
X87012500Y-133675000D03*
X87012500Y-132125000D03*
%TD*%
D16*
%TO.C,R7*%
X135250000Y-68025000D03*
X135250000Y-69675000D03*
%TD*%
D19*
%TO.C,R97*%
X93372500Y-151735000D03*
X91722500Y-151735000D03*
%TD*%
D25*
%TO.C,R5*%
X142500000Y-63150000D03*
X144150000Y-63150000D03*
%TD*%
D14*
%TO.C,C103*%
X93412500Y-160275000D03*
X93412500Y-158725000D03*
%TD*%
D19*
%TO.C,R52*%
X102025000Y-83600000D03*
X100375000Y-83600000D03*
%TD*%
D15*
%TO.C,C36*%
X152274997Y-113075004D03*
X153824997Y-113075004D03*
%TD*%
D19*
%TO.C,R95*%
X93372500Y-153335000D03*
X91722500Y-153335000D03*
%TD*%
D26*
%TO.C,C11*%
X115475000Y-73562500D03*
X113925000Y-73562500D03*
%TD*%
%TO.C,C52*%
X125575000Y-84900000D03*
X124025000Y-84900000D03*
%TD*%
D13*
%TO.C,C104*%
X95012500Y-158725000D03*
X95012500Y-160275000D03*
%TD*%
D14*
%TO.C,C57*%
X47112500Y-63250000D03*
X47112500Y-61700000D03*
%TD*%
D19*
%TO.C,R103*%
X107337500Y-124400000D03*
X105687500Y-124400000D03*
%TD*%
D18*
%TO.C,D6*%
X78512500Y-98112500D03*
X78512500Y-99687500D03*
%TD*%
D25*
%TO.C,R19*%
X143124997Y-132575004D03*
X144774997Y-132575004D03*
%TD*%
D63*
%TO.C,R10*%
X153650000Y-66312500D03*
X153650000Y-60387500D03*
%TD*%
D15*
%TO.C,C24*%
X125409997Y-100255004D03*
X126959997Y-100255004D03*
%TD*%
%TO.C,C15*%
X122125000Y-72062500D03*
X123675000Y-72062500D03*
%TD*%
D26*
%TO.C,C113*%
X115475000Y-71872500D03*
X113925000Y-71872500D03*
%TD*%
D19*
%TO.C,R65*%
X136725000Y-93900000D03*
X135075000Y-93900000D03*
%TD*%
%TO.C,R73*%
X136725000Y-87100000D03*
X135075000Y-87100000D03*
%TD*%
D64*
%TO.C,U7*%
X143849997Y-111475003D03*
X143849997Y-110975004D03*
X143849997Y-110475002D03*
X143849997Y-109975003D03*
X143849997Y-109475002D03*
X143849997Y-108975002D03*
X143849997Y-108475004D03*
X143849997Y-107975002D03*
X143849997Y-107475003D03*
X143849997Y-106975001D03*
D65*
X143199999Y-106325003D03*
X142700000Y-106325003D03*
X142199998Y-106325003D03*
X141699999Y-106325003D03*
X141199998Y-106325003D03*
X140699998Y-106325003D03*
X140200000Y-106325003D03*
X139699998Y-106325003D03*
X139199999Y-106325003D03*
X138699997Y-106325003D03*
D64*
X138049999Y-106975001D03*
X138049999Y-107475003D03*
X138049999Y-107975002D03*
X138049999Y-108475004D03*
X138049999Y-108975002D03*
X138049999Y-109475002D03*
X138049999Y-109975003D03*
X138049999Y-110475002D03*
X138049999Y-110975004D03*
X138049999Y-111475003D03*
D65*
X138699997Y-112125001D03*
X139199999Y-112125001D03*
X139699998Y-112125001D03*
X140200000Y-112125001D03*
X140699998Y-112125001D03*
X141199998Y-112125001D03*
X141699999Y-112125001D03*
X142199998Y-112125001D03*
X142700000Y-112125001D03*
X143199999Y-112125001D03*
%TD*%
D17*
%TO.C,R23*%
X146032197Y-105100004D03*
X146032197Y-103450004D03*
%TD*%
D25*
%TO.C,R81*%
X67587500Y-75775000D03*
X69237500Y-75775000D03*
%TD*%
D14*
%TO.C,C101*%
X81112500Y-160275000D03*
X81112500Y-158725000D03*
%TD*%
D15*
%TO.C,C47*%
X100425000Y-68300000D03*
X101975000Y-68300000D03*
%TD*%
D13*
%TO.C,C95*%
X89037500Y-61900000D03*
X89037500Y-63450000D03*
%TD*%
D17*
%TO.C,R90*%
X101512500Y-44025000D03*
X101512500Y-42375000D03*
%TD*%
D26*
%TO.C,C46*%
X149675000Y-58675000D03*
X148125000Y-58675000D03*
%TD*%
D14*
%TO.C,C44*%
X151600000Y-55850000D03*
X151600000Y-54300000D03*
%TD*%
D16*
%TO.C,R40*%
X159149997Y-113350004D03*
X159149997Y-115000004D03*
%TD*%
D42*
%TO.C,D12*%
X74312500Y-46100000D03*
X74312500Y-44525000D03*
%TD*%
D15*
%TO.C,C25*%
X132199997Y-114175004D03*
X133749997Y-114175004D03*
%TD*%
D19*
%TO.C,R67*%
X136725000Y-92200000D03*
X135075000Y-92200000D03*
%TD*%
D14*
%TO.C,C20*%
X114000000Y-78775000D03*
X114000000Y-77225000D03*
%TD*%
D25*
%TO.C,R100*%
X136487500Y-147800000D03*
X138137500Y-147800000D03*
%TD*%
D13*
%TO.C,C91*%
X81412500Y-39725000D03*
X81412500Y-41275000D03*
%TD*%
D15*
%TO.C,C114*%
X122125000Y-75262500D03*
X123675000Y-75262500D03*
%TD*%
D18*
%TO.C,D10*%
X74312500Y-47625000D03*
X74312500Y-49200000D03*
%TD*%
D19*
%TO.C,R75*%
X136725000Y-85400000D03*
X135075000Y-85400000D03*
%TD*%
D16*
%TO.C,R2*%
X131587500Y-70675000D03*
X131587500Y-72325000D03*
%TD*%
D15*
%TO.C,C37*%
X150749997Y-114675004D03*
X152299997Y-114675004D03*
%TD*%
D14*
%TO.C,C94*%
X94812500Y-41375000D03*
X94812500Y-39825000D03*
%TD*%
D66*
%TO.C,C28*%
X137366667Y-116025004D03*
X137366667Y-114125004D03*
%TD*%
D17*
%TO.C,R91*%
X101412500Y-38125000D03*
X101412500Y-36475000D03*
%TD*%
D26*
%TO.C,C111*%
X144687500Y-147800000D03*
X143137500Y-147800000D03*
%TD*%
D67*
%TO.C,Q17*%
X84512500Y-98400000D03*
X84512500Y-99050000D03*
X84512500Y-99700000D03*
X86412500Y-99700000D03*
X86412500Y-99050000D03*
X86412500Y-98400000D03*
%TD*%
D11*
%TO.C,D23*%
X100300000Y-141400000D03*
X98725000Y-141400000D03*
%TD*%
D14*
%TO.C,C107*%
X85412500Y-133675000D03*
X85412500Y-132125000D03*
%TD*%
D12*
%TO.C,Q13*%
X165914997Y-123325004D03*
X164914997Y-123325004D03*
X165414997Y-124625004D03*
%TD*%
D68*
%TO.C,Y1*%
X50612500Y-70425000D03*
X50612500Y-61925000D03*
%TD*%
D26*
%TO.C,C1*%
X130387500Y-77200000D03*
X128837500Y-77200000D03*
%TD*%
D69*
%TO.C,R6*%
X143425000Y-67150000D03*
D70*
X140175000Y-66150000D03*
D69*
X143425000Y-65150000D03*
%TD*%
D13*
%TO.C,C96*%
X90637500Y-61900000D03*
X90637500Y-63450000D03*
%TD*%
%TO.C,C97*%
X92237500Y-61900000D03*
X92237500Y-63450000D03*
%TD*%
D25*
%TO.C,R57*%
X77675000Y-74225000D03*
X79325000Y-74225000D03*
%TD*%
D13*
%TO.C,C22*%
X117400000Y-80325000D03*
X117400000Y-81875000D03*
%TD*%
D71*
%TO.C,R9*%
X153850000Y-86387500D03*
X153850000Y-92312500D03*
%TD*%
D31*
%TO.C,U2*%
X119400000Y-75162500D03*
%TD*%
D21*
%TO.C,R41*%
X154799997Y-118375004D03*
D22*
X153799997Y-121625004D03*
D21*
X152799997Y-118375004D03*
%TD*%
D13*
%TO.C,C90*%
X85837500Y-61900000D03*
X85837500Y-63450000D03*
%TD*%
D25*
%TO.C,R104*%
X117787500Y-36210000D03*
X119437500Y-36210000D03*
%TD*%
D19*
%TO.C,R64*%
X133550000Y-95600000D03*
X131900000Y-95600000D03*
%TD*%
D12*
%TO.C,Q10*%
X117849997Y-122925004D03*
X116849997Y-122925004D03*
X117349997Y-124225004D03*
%TD*%
D17*
%TO.C,R92*%
X103112500Y-44025000D03*
X103112500Y-42375000D03*
%TD*%
D12*
%TO.C,Q8*%
X129849997Y-122925004D03*
X128849997Y-122925004D03*
X129349997Y-124225004D03*
%TD*%
D16*
%TO.C,R33*%
X121999997Y-112850004D03*
X121999997Y-114500004D03*
%TD*%
D19*
%TO.C,R27*%
X150749997Y-113075004D03*
X149099997Y-113075004D03*
%TD*%
D17*
%TO.C,R93*%
X103012500Y-38125000D03*
X103012500Y-36475000D03*
%TD*%
D11*
%TO.C,D30*%
X155300000Y-161400000D03*
X153725000Y-161400000D03*
%TD*%
D43*
%TO.C,Q2*%
X148450000Y-71150000D03*
X147300000Y-71150000D03*
X146150000Y-71150000D03*
X148450000Y-72000000D03*
X147300000Y-72000000D03*
X146150000Y-72000000D03*
X148450000Y-72850000D03*
X147300000Y-72850000D03*
X146150000Y-72850000D03*
X148450000Y-73700000D03*
X147300000Y-73700000D03*
X146150000Y-73700000D03*
D44*
X149205000Y-74700000D03*
X147935000Y-74700000D03*
X146665000Y-74700000D03*
X145395000Y-74700000D03*
D45*
X149205000Y-68975000D03*
X147935000Y-68975000D03*
X146665000Y-68975000D03*
X145395000Y-68975000D03*
%TD*%
D19*
%TO.C,R76*%
X133550000Y-85400000D03*
X131900000Y-85400000D03*
%TD*%
D26*
%TO.C,C43*%
X101975000Y-87200000D03*
X100425000Y-87200000D03*
%TD*%
D20*
%TO.C,D17*%
X61825000Y-150800000D03*
X63400000Y-150800000D03*
%TD*%
D11*
%TO.C,D25*%
X142087500Y-141400000D03*
X140512500Y-141400000D03*
%TD*%
%TO.C,D9*%
X41187500Y-151100000D03*
X39612500Y-151100000D03*
%TD*%
D19*
%TO.C,R63*%
X136725000Y-95600000D03*
X135075000Y-95600000D03*
%TD*%
D11*
%TO.C,D33*%
X155300000Y-149400000D03*
X153725000Y-149400000D03*
%TD*%
D24*
%TO.C,F2*%
X77212500Y-44775000D03*
X77212500Y-49050000D03*
%TD*%
D72*
%TO.C,D3*%
X129919997Y-100890004D03*
X133919997Y-100890004D03*
%TD*%
D66*
%TO.C,C32*%
X141199999Y-116025004D03*
X141199999Y-114125004D03*
%TD*%
D14*
%TO.C,C99*%
X89537500Y-53450000D03*
X89537500Y-51900000D03*
%TD*%
%TO.C,C82*%
X71412500Y-47675000D03*
X71412500Y-46125000D03*
%TD*%
D13*
%TO.C,C109*%
X87112500Y-142425000D03*
X87112500Y-143975000D03*
%TD*%
D73*
%TO.C,U11*%
X148400000Y-56075000D03*
X149600000Y-56075000D03*
X148400000Y-55300000D03*
X149600000Y-55300000D03*
D74*
X148025000Y-57237500D03*
X148675000Y-57237500D03*
X149325000Y-57237500D03*
X149975000Y-57237500D03*
X149975000Y-54137500D03*
X149325000Y-54137500D03*
X148675000Y-54137500D03*
X148025000Y-54137500D03*
%TD*%
D13*
%TO.C,C102*%
X82712500Y-158725000D03*
X82712500Y-160275000D03*
%TD*%
D12*
%TO.C,Q14*%
X161889997Y-123325004D03*
X160889997Y-123325004D03*
X161389997Y-124625004D03*
%TD*%
D29*
%TO.C,U8*%
X144812497Y-129250004D03*
X144812497Y-128600004D03*
X144812497Y-127950004D03*
X144812497Y-127300004D03*
X144812497Y-126650004D03*
X144812497Y-126000004D03*
X144812497Y-125350004D03*
X144812497Y-124700004D03*
X144812497Y-124050004D03*
X144812497Y-123400004D03*
X144812497Y-122750004D03*
X144812497Y-122100004D03*
X139087497Y-122100004D03*
X139087497Y-122750004D03*
X139087497Y-123400004D03*
X139087497Y-124050004D03*
X139087497Y-124700004D03*
X139087497Y-125350004D03*
X139087497Y-126000004D03*
X139087497Y-126650004D03*
X139087497Y-127300004D03*
X139087497Y-127950004D03*
X139087497Y-128600004D03*
X139087497Y-129250004D03*
%TD*%
D75*
%TO.C,L2*%
X130100000Y-58482200D03*
X130100000Y-63917800D03*
%TD*%
D15*
%TO.C,C80*%
X80737500Y-105200000D03*
X82287500Y-105200000D03*
%TD*%
D12*
%TO.C,Q12*%
X169939997Y-123325004D03*
X168939997Y-123325004D03*
X169439997Y-124625004D03*
%TD*%
D15*
%TO.C,C112*%
X117837500Y-33700000D03*
X119387500Y-33700000D03*
%TD*%
D76*
%TO.C,L1*%
X153372900Y-76350000D03*
X167927100Y-76350000D03*
%TD*%
D11*
%TO.C,D27*%
X165162500Y-157400000D03*
X163587500Y-157400000D03*
%TD*%
D62*
%TO.C,F1*%
X44150000Y-153900000D03*
X39875000Y-153900000D03*
%TD*%
D12*
%TO.C,Q9*%
X121849997Y-122925004D03*
X120849997Y-122925004D03*
X121349997Y-124225004D03*
%TD*%
M02*
