%TF.GenerationSoftware,KiCad,Pcbnew,7.0.2*%
%TF.CreationDate,2023-10-01T22:33:36-04:00*%
%TF.ProjectId,usbc-car-module,75736263-2d63-4617-922d-6d6f64756c65,rev?*%
%TF.SameCoordinates,Original*%
%TF.FileFunction,Copper,L2,Inr*%
%TF.FilePolarity,Positive*%
%FSLAX46Y46*%
G04 Gerber Fmt 4.6, Leading zero omitted, Abs format (unit mm)*
G04 Created by KiCad (PCBNEW 7.0.2) date 2023-10-01 22:33:36*
%MOMM*%
%LPD*%
G01*
G04 APERTURE LIST*
%TA.AperFunction,ComponentPad*%
%ADD10R,1.700000X1.700000*%
%TD*%
%TA.AperFunction,ComponentPad*%
%ADD11C,2.000000*%
%TD*%
%TA.AperFunction,HeatsinkPad*%
%ADD12C,0.500000*%
%TD*%
%TA.AperFunction,ComponentPad*%
%ADD13O,1.700000X1.700000*%
%TD*%
%TA.AperFunction,ComponentPad*%
%ADD14O,1.000000X2.050000*%
%TD*%
%TA.AperFunction,ComponentPad*%
%ADD15C,0.500000*%
%TD*%
%TA.AperFunction,ComponentPad*%
%ADD16R,1.500000X1.500000*%
%TD*%
%TA.AperFunction,ComponentPad*%
%ADD17C,1.500000*%
%TD*%
%TA.AperFunction,ComponentPad*%
%ADD18C,0.499999*%
%TD*%
%TA.AperFunction,ComponentPad*%
%ADD19C,1.208000*%
%TD*%
%TA.AperFunction,ComponentPad*%
%ADD20O,1.300000X2.600000*%
%TD*%
%TA.AperFunction,ComponentPad*%
%ADD21C,5.200000*%
%TD*%
%TA.AperFunction,ComponentPad*%
%ADD22C,2.300000*%
%TD*%
%TA.AperFunction,ComponentPad*%
%ADD23C,3.300000*%
%TD*%
%TA.AperFunction,ViaPad*%
%ADD24C,0.500000*%
%TD*%
%TA.AperFunction,ViaPad*%
%ADD25C,0.800000*%
%TD*%
%TA.AperFunction,ViaPad*%
%ADD26C,1.000000*%
%TD*%
%TA.AperFunction,Conductor*%
%ADD27C,0.200000*%
%TD*%
G04 APERTURE END LIST*
D10*
%TO.N,Net-(J1-Pin_1)*%
%TO.C,J1*%
X47912500Y-82900000D03*
%TD*%
D11*
%TO.N,MODE_BTN*%
%TO.C,SW3*%
X102762500Y-124150000D03*
X102762500Y-130650000D03*
%TO.N,GND*%
X98262500Y-124150000D03*
X98262500Y-130650000D03*
%TD*%
D12*
%TO.N,GND*%
%TO.C,U1*%
X136150000Y-73850000D03*
X137650000Y-73850000D03*
X136150000Y-72350000D03*
X137650000Y-72350000D03*
%TD*%
D10*
%TO.N,GND*%
%TO.C,J10*%
X78175000Y-88725000D03*
D13*
%TO.N,+3V3*%
X75635000Y-88725000D03*
%TO.N,RST*%
X78175000Y-86185000D03*
%TO.N,ESP_TX*%
X75635000Y-86185000D03*
%TO.N,ESP_IO0*%
X78175000Y-83645000D03*
%TO.N,ESP_RX*%
X75635000Y-83645000D03*
%TD*%
D11*
%TO.N,UNIT_BTN*%
%TO.C,SW2*%
X102762500Y-112650000D03*
X102762500Y-119150000D03*
%TO.N,GND*%
X98262500Y-112650000D03*
X98262500Y-119150000D03*
%TD*%
D14*
%TO.N,GNDS*%
%TO.C,J7*%
X90612500Y-40450000D03*
X90612500Y-32350000D03*
X84612500Y-40450000D03*
X84612500Y-32350000D03*
%TD*%
D15*
%TO.N,GND*%
%TO.C,U12*%
X126050000Y-92050000D03*
X126050000Y-90950000D03*
X124950000Y-92050000D03*
X124950000Y-90950000D03*
%TD*%
D14*
%TO.N,GNDS*%
%TO.C,J8*%
X84512500Y-159300000D03*
X84512500Y-167400000D03*
X90512500Y-159300000D03*
X90512500Y-167400000D03*
%TD*%
D11*
%TO.N,SRC_BTN*%
%TO.C,SW1*%
X102762500Y-101150000D03*
X102762500Y-107650000D03*
%TO.N,GND*%
X98262500Y-101150000D03*
X98262500Y-107650000D03*
%TD*%
D16*
%TO.N,DISP_SEG_E*%
%TO.C,U18*%
X117162500Y-161942500D03*
D17*
%TO.N,DISP_SEG_D*%
X119702500Y-161942500D03*
%TO.N,DISP_SEG_DP*%
X122242500Y-161942500D03*
%TO.N,DISP_SEG_C*%
X124782500Y-161942500D03*
%TO.N,DISP_SEG_G*%
X127322500Y-161942500D03*
%TO.N,DISP_DIG_3*%
X129862500Y-161942500D03*
%TO.N,DISP_SEG_B*%
X129862500Y-146702500D03*
%TO.N,DISP_DIG_2*%
X127322500Y-146702500D03*
%TO.N,DISP_DIG_1*%
X124782500Y-146702500D03*
%TO.N,DISP_SEG_F*%
X122242500Y-146702500D03*
%TO.N,DISP_SEG_A*%
X119702500Y-146702500D03*
%TO.N,DISP_DIG_0*%
X117162500Y-146702500D03*
%TD*%
D18*
%TO.N,N/C*%
%TO.C,U7*%
X142349998Y-109225002D03*
X140949998Y-110625002D03*
X140949998Y-109225002D03*
X140949998Y-107825002D03*
X139549998Y-109225002D03*
%TD*%
D19*
%TO.N,Net-(D10-K)*%
%TO.C,J4*%
X73012500Y-41025000D03*
%TO.N,/USBA_PORTS/P4_2_N*%
X70512500Y-41025000D03*
%TO.N,/USBA_PORTS/P4_2_P*%
X68512500Y-41025000D03*
%TO.N,GND*%
X66012500Y-41025000D03*
%TO.N,/USBA_PORTS/P4_RX_N*%
X65512500Y-42525000D03*
%TO.N,/USBA_PORTS/P4_RX_P*%
X67512500Y-42525000D03*
%TO.N,GND*%
X69512500Y-42525000D03*
%TO.N,/USBA_PORTS/P4_TXP_N*%
X71512500Y-42525000D03*
%TO.N,/USBA_PORTS/P4_TXP_P*%
X73512500Y-42525000D03*
D20*
%TO.N,N/C*%
X75912500Y-41775000D03*
X75912500Y-33275000D03*
X63112500Y-41775000D03*
X63112500Y-33275000D03*
%TD*%
D21*
%TO.N,Net-(J9-Pad1)*%
%TO.C,J9*%
X156450000Y-42550000D03*
%TO.N,GND*%
X142850000Y-42550000D03*
D22*
%TO.N,CAN_H*%
X152450000Y-39850000D03*
%TO.N,CAN_L*%
X149650000Y-39850000D03*
%TO.N,Net-(Q26-G)*%
X146850000Y-39850000D03*
%TO.N,DSUB_P_6*%
X151050000Y-42450000D03*
%TO.N,DSUB_P_7*%
X148250000Y-42450000D03*
D23*
%TO.N,GNDS*%
X166250000Y-40050000D03*
X133050000Y-40050000D03*
%TD*%
D19*
%TO.N,Net-(D16-K)*%
%TO.C,J6*%
X53012500Y-41025000D03*
%TO.N,/USBA_PORTS/P5_2_N*%
X50512500Y-41025000D03*
%TO.N,/USBA_PORTS/P5_2_P*%
X48512500Y-41025000D03*
%TO.N,GND*%
X46012500Y-41025000D03*
%TO.N,/USBA_PORTS/P5_RX_N*%
X45512500Y-42525000D03*
%TO.N,/USBA_PORTS/P5_RX_P*%
X47512500Y-42525000D03*
%TO.N,GND*%
X49512500Y-42525000D03*
%TO.N,/USBA_PORTS/P5_TXP_N*%
X51512500Y-42525000D03*
%TO.N,/USBA_PORTS/P5_TXP_P*%
X53512500Y-42525000D03*
D20*
%TO.N,N/C*%
X55912500Y-41775000D03*
X55912500Y-33275000D03*
X43112500Y-41775000D03*
X43112500Y-33275000D03*
%TD*%
D19*
%TO.N,Net-(D11-K)*%
%TO.C,J3*%
X47012500Y-158775000D03*
%TO.N,/USBA_PORTS/P2_2_N*%
X49512500Y-158775000D03*
%TO.N,/USBA_PORTS/P2_2_P*%
X51512500Y-158775000D03*
%TO.N,GND*%
X54012500Y-158775000D03*
%TO.N,/USBA_PORTS/P2_RX_N*%
X54512500Y-157275000D03*
%TO.N,/USBA_PORTS/P2_RX_P*%
X52512500Y-157275000D03*
%TO.N,GND*%
X50512500Y-157275000D03*
%TO.N,/USBA_PORTS/P2_TXP_N*%
X48512500Y-157275000D03*
%TO.N,/USBA_PORTS/P2_TXP_P*%
X46512500Y-157275000D03*
D20*
%TO.N,N/C*%
X44112500Y-158025000D03*
X44112500Y-166525000D03*
%TO.N,GNDS*%
X56912500Y-158025000D03*
%TO.N,N/C*%
X56912500Y-166525000D03*
%TD*%
D10*
%TO.N,UART_RST*%
%TO.C,J2*%
X74612500Y-103400000D03*
%TD*%
D19*
%TO.N,Net-(D15-K)*%
%TO.C,J5*%
X66012500Y-158775000D03*
%TO.N,/USBA_PORTS/P3_2_N*%
X68512500Y-158775000D03*
%TO.N,/USBA_PORTS/P3_2_P*%
X70512500Y-158775000D03*
%TO.N,GND*%
X73012500Y-158775000D03*
%TO.N,/USBA_PORTS/P3_RX_N*%
X73512500Y-157275000D03*
%TO.N,/USBA_PORTS/P3_RX_P*%
X71512500Y-157275000D03*
%TO.N,GND*%
X69512500Y-157275000D03*
%TO.N,/USBA_PORTS/P3_TXP_N*%
X67512500Y-157275000D03*
%TO.N,/USBA_PORTS/P3_TXP_P*%
X65512500Y-157275000D03*
D20*
%TO.N,N/C*%
X63112500Y-158025000D03*
X63112500Y-166525000D03*
X75912500Y-158025000D03*
X75912500Y-166525000D03*
%TD*%
D24*
%TO.N,UFP_VBUS*%
X105200000Y-47900000D03*
%TO.N,/USBA_PORTS/P5_RX_N*%
X41012500Y-74300000D03*
%TO.N,/USBA_PORTS/P5_RX_P*%
X41812500Y-74300000D03*
%TO.N,/USBA_PORTS/P5_RX_N*%
X44612500Y-88300000D03*
%TO.N,/USBA_PORTS/P5_RX_P*%
X44612500Y-87500000D03*
%TO.N,/USBA_PORTS/P5_TX_N*%
X45229657Y-59417157D03*
%TO.N,/USBA_PORTS/P5_TX_P*%
X45795343Y-59982843D03*
%TO.N,/USBA_PORTS/P5_2_N*%
X44012500Y-73175000D03*
%TO.N,/USBA_PORTS/P5_2_P*%
X44812500Y-73175000D03*
%TO.N,/USBA_PORTS/P5_TX_N*%
X45165950Y-86904738D03*
%TO.N,/USBA_PORTS/P5_TX_P*%
X45165950Y-86104738D03*
%TO.N,/USBA_PORTS/P5_2_N*%
X49012500Y-44900000D03*
%TO.N,/USBA_PORTS/P5_2_P*%
X49812500Y-44900000D03*
X45612500Y-84700000D03*
%TO.N,/USBA_PORTS/P5_2_N*%
X45612500Y-85500000D03*
%TO.N,DFP_2_N*%
X74712500Y-141200000D03*
%TO.N,DFP_2_P*%
X73912500Y-141200000D03*
%TO.N,DFP_2_N*%
X46514845Y-125997655D03*
%TO.N,DFP_2_P*%
X45949159Y-126563341D03*
%TO.N,DFP_3_TXA_N*%
X76412500Y-139900000D03*
%TO.N,DFP_3_TXA_P*%
X75612500Y-139900000D03*
%TO.N,DFP_3_TXA_N*%
X48295343Y-126117157D03*
%TO.N,DFP_3_TXA_P*%
X47729657Y-126682843D03*
%TO.N,DFP_3_RXA_N*%
X78595343Y-137617157D03*
%TO.N,DFP_3_RXA_P*%
X78029657Y-138182843D03*
%TO.N,DFP_3_RXA_N*%
X78512500Y-140100000D03*
%TO.N,DFP_3_RXA_P*%
X79312500Y-140100000D03*
%TO.N,DFP_3_RXA_N*%
X50195343Y-126317157D03*
%TO.N,DFP_3_RXA_P*%
X49629657Y-126882843D03*
%TO.N,/USB_UART/USB_UART_N*%
X76795343Y-101482843D03*
%TO.N,/USB_UART/USB_UART_P*%
X76229657Y-100917157D03*
X71912500Y-101500000D03*
%TO.N,/USB_UART/USB_UART_N*%
X71912500Y-100700000D03*
X41034771Y-86772073D03*
%TO.N,/USB_UART/USB_UART_P*%
X40234771Y-86772073D03*
%TO.N,DFP_3_TXB_N*%
X73312500Y-145700000D03*
%TO.N,DFP_3_TXB_P*%
X73312500Y-146500000D03*
%TO.N,DFP_3_TXB_N*%
X56860782Y-131863123D03*
%TO.N,DFP_3_TXB_P*%
X56295096Y-132428809D03*
%TO.N,DFP_3_RXB_N*%
X73226300Y-144279486D03*
%TO.N,DFP_3_RXB_P*%
X73791986Y-143713800D03*
%TO.N,DFP_3_RXB_N*%
X72845343Y-142967157D03*
%TO.N,DFP_3_RXB_P*%
X72279657Y-143532843D03*
%TO.N,DFP_3_RXB_N*%
X57395343Y-130517157D03*
%TO.N,DFP_3_RXB_P*%
X56829657Y-131082843D03*
%TO.N,/USBA_PORTS/P2_2_N*%
X51012500Y-154200000D03*
%TO.N,/USBA_PORTS/P2_2_P*%
X50212500Y-154200000D03*
%TO.N,/USBA_PORTS/P2_2_N*%
X52495343Y-146582843D03*
%TO.N,/USBA_PORTS/P2_2_P*%
X51929657Y-146017157D03*
%TO.N,/USBA_PORTS/P3_2_N*%
X69912500Y-154000000D03*
%TO.N,/USBA_PORTS/P3_2_P*%
X69112500Y-154000000D03*
%TO.N,/USBA_PORTS/P3_2_N*%
X65395343Y-148617157D03*
%TO.N,/USBA_PORTS/P3_2_P*%
X64829657Y-149182843D03*
%TO.N,UFP_3_RXA_N*%
X79712500Y-48400000D03*
%TO.N,UFP_3_RXA_P*%
X80512500Y-48400000D03*
%TO.N,UFP_3_RXA_N*%
X69312500Y-62800000D03*
%TO.N,UFP_3_RXA_P*%
X69312500Y-63600000D03*
%TO.N,UFP_3_RXA_N*%
X56606762Y-64900860D03*
%TO.N,UFP_3_RXA_P*%
X57172448Y-65466546D03*
%TO.N,UFP_3_TXA_N*%
X68312500Y-64000000D03*
%TO.N,UFP_3_TXA_P*%
X68312500Y-64800000D03*
X58465310Y-65864271D03*
%TO.N,UFP_3_TXA_N*%
X57899624Y-65298585D03*
%TO.N,UFP_2_N*%
X59229657Y-65717157D03*
%TO.N,UFP_2_P*%
X59795343Y-66282843D03*
%TO.N,UFP_2_N*%
X67212500Y-65200000D03*
%TO.N,UFP_2_P*%
X67212500Y-66000000D03*
%TO.N,GND*%
X96812500Y-50100000D03*
X89412500Y-39800000D03*
D25*
X135600000Y-53950000D03*
D24*
X91012500Y-132100000D03*
D26*
X168400000Y-59350000D03*
D24*
X68437000Y-75775000D03*
X78400000Y-72200000D03*
X88812500Y-39800000D03*
D26*
X169400000Y-88850000D03*
X168150000Y-88850000D03*
D24*
X64412500Y-150800000D03*
D26*
X118800000Y-45400000D03*
D24*
X88812500Y-33100000D03*
X53112500Y-80800000D03*
D26*
X127700000Y-48800000D03*
D24*
X140949997Y-103475004D03*
X87112500Y-143324500D03*
D26*
X121300000Y-45400000D03*
X118800000Y-47900000D03*
D24*
X132700000Y-85200000D03*
X85912500Y-33100000D03*
D26*
X164650000Y-90850000D03*
D24*
X70912500Y-163100000D03*
D26*
X173500500Y-137900000D03*
X108800000Y-125400000D03*
D24*
X54312500Y-70875000D03*
D26*
X165650000Y-92850000D03*
D24*
X86312500Y-166900000D03*
D26*
X168800000Y-137900000D03*
X166900000Y-92850000D03*
D24*
X132600000Y-86900000D03*
X136249997Y-115975004D03*
D26*
X150400000Y-68600000D03*
D24*
X84300000Y-70400000D03*
D26*
X118800000Y-60400000D03*
X126300000Y-31199500D03*
D24*
X130750000Y-74750000D03*
X123700000Y-72862500D03*
X132600000Y-90300000D03*
X70012500Y-81575000D03*
D26*
X59912499Y-76783800D03*
X168400000Y-63350000D03*
D24*
X85812500Y-39800000D03*
X74312500Y-45200000D03*
D26*
X167150000Y-59350000D03*
X149949997Y-102375004D03*
X123600000Y-56500000D03*
X118800000Y-52900000D03*
D25*
X134850000Y-54950000D03*
D24*
X154549997Y-100675004D03*
D26*
X164900000Y-61350000D03*
X146650000Y-67350000D03*
D24*
X134575500Y-109000000D03*
D26*
X62912499Y-73783800D03*
X108800000Y-117900000D03*
X151300000Y-137900000D03*
X108800000Y-127900000D03*
X118800000Y-137900000D03*
X164650000Y-92100000D03*
D24*
X48312500Y-63275000D03*
X86312500Y-160000000D03*
D26*
X170650000Y-92600000D03*
D24*
X142212500Y-147800000D03*
X142192165Y-115975004D03*
X132700000Y-83500000D03*
D26*
X150400000Y-67350000D03*
D24*
X140049997Y-115975004D03*
D26*
X118800000Y-57900000D03*
X56912499Y-73783800D03*
D24*
X55212500Y-45300500D03*
D26*
X108800000Y-72900000D03*
D24*
X129550000Y-77950000D03*
X82441323Y-147987451D03*
D26*
X126300000Y-40400000D03*
D24*
X140912500Y-153717500D03*
X91412500Y-63500000D03*
D26*
X126300000Y-137900000D03*
X126300000Y-35400000D03*
X141300000Y-137900000D03*
X170650000Y-90100000D03*
X131300000Y-137900000D03*
X170900000Y-60600000D03*
X113800000Y-67900000D03*
X111300000Y-137900000D03*
X108800000Y-92900000D03*
X124900000Y-51300000D03*
D24*
X85712500Y-166900000D03*
X143749997Y-122075004D03*
D26*
X163800000Y-137900000D03*
X169650000Y-63350000D03*
D24*
X114900000Y-82500000D03*
D26*
X108800000Y-102900000D03*
X167150000Y-63350000D03*
X138800000Y-137900000D03*
D24*
X138100000Y-49450000D03*
X134550000Y-77950000D03*
X136050000Y-68050000D03*
X89412500Y-33100000D03*
X85612500Y-160000000D03*
D26*
X121300000Y-137900000D03*
D24*
X69912500Y-76275000D03*
X120600000Y-74762500D03*
X132552498Y-91952498D03*
D26*
X108800000Y-112900000D03*
D24*
X138349997Y-115975004D03*
D26*
X164650000Y-89600000D03*
X143800000Y-137900000D03*
X108800000Y-87900000D03*
X131449997Y-109275004D03*
D24*
X101224500Y-81800000D03*
X111000000Y-56200000D03*
D26*
X118800000Y-50400000D03*
X151149997Y-102375004D03*
D24*
X115400000Y-76600000D03*
D26*
X122300000Y-57700000D03*
X133800000Y-137900000D03*
D24*
X88712500Y-160000000D03*
D26*
X108800000Y-107900000D03*
X108800000Y-97900000D03*
X169650000Y-59350000D03*
X136300000Y-137900000D03*
X108800000Y-130400000D03*
D24*
X120600000Y-73162500D03*
D26*
X170650000Y-88850000D03*
X130249997Y-109275004D03*
D25*
X136350000Y-52950000D03*
D24*
X44957122Y-151955378D03*
D26*
X126500000Y-48800000D03*
D24*
X86212500Y-132100000D03*
X54112500Y-68275000D03*
X48312500Y-68775000D03*
D26*
X108800000Y-122900000D03*
X169400000Y-92850000D03*
X164900000Y-62600000D03*
X152349997Y-102375004D03*
X118800000Y-62900000D03*
D25*
X134850000Y-52950000D03*
D26*
X153789597Y-137921989D03*
D24*
X132600000Y-93800000D03*
X51812500Y-163100000D03*
D26*
X166900000Y-88850000D03*
D24*
X85612500Y-46200000D03*
D25*
X149100000Y-55700000D03*
D24*
X82312500Y-106000000D03*
D26*
X161300000Y-137900000D03*
X87012500Y-138400000D03*
X170900000Y-61850000D03*
X126300000Y-45400000D03*
X108800000Y-135400000D03*
X108800000Y-67900000D03*
X89512500Y-57200000D03*
D24*
X89312500Y-166900000D03*
X86412500Y-39800000D03*
X113900000Y-74362500D03*
D26*
X168150000Y-92850000D03*
D24*
X154932155Y-50967845D03*
D26*
X156409862Y-137957398D03*
X118800000Y-55400000D03*
D24*
X89512500Y-52550500D03*
D26*
X170900000Y-63100000D03*
D24*
X123700000Y-74462500D03*
D26*
X148800000Y-137900000D03*
D24*
X69912500Y-73175000D03*
X88712500Y-166900000D03*
X70012500Y-79075500D03*
X91212500Y-45800000D03*
D26*
X116300000Y-137900000D03*
D24*
X132600000Y-95500000D03*
D26*
X165900000Y-63350000D03*
D24*
X120600000Y-71562500D03*
D26*
X123800000Y-45400000D03*
X129049997Y-109275004D03*
D24*
X77188500Y-152500000D03*
D26*
X108800000Y-77900000D03*
X170650000Y-91350000D03*
X123800000Y-137900000D03*
D24*
X132600000Y-88600000D03*
X126949997Y-101375004D03*
D26*
X165900000Y-59350000D03*
D24*
X131549997Y-113475004D03*
D26*
X113865971Y-137851171D03*
D24*
X135100000Y-50700000D03*
D26*
X56912499Y-79783800D03*
X146300000Y-137900000D03*
D24*
X101224500Y-78200000D03*
D26*
X164900000Y-60100000D03*
D24*
X113900000Y-72662500D03*
D26*
X165650000Y-88850000D03*
X118800000Y-67900000D03*
D24*
X68388450Y-36657745D03*
X116600000Y-82400000D03*
D26*
X124800000Y-56500000D03*
X166300000Y-137900000D03*
X149150000Y-67350000D03*
D24*
X145649997Y-115875004D03*
X89412500Y-160000000D03*
X140549997Y-131675004D03*
D26*
X147900000Y-67350000D03*
D24*
X86612500Y-63500000D03*
X115400000Y-80400000D03*
X101975000Y-69200000D03*
D26*
X124900000Y-50000000D03*
X108800000Y-137900000D03*
X81612500Y-100400000D03*
D24*
X103812500Y-61800000D03*
D26*
X122400000Y-56500000D03*
X126300000Y-37900000D03*
D25*
X136350000Y-54950000D03*
D24*
X86512500Y-33100000D03*
X153049997Y-113975004D03*
D26*
X125300000Y-48800000D03*
D24*
X141625000Y-66150000D03*
D26*
X158800000Y-137900000D03*
D25*
X132100000Y-46450000D03*
D26*
X108800000Y-82900000D03*
D24*
X48112500Y-36800000D03*
D26*
X108800000Y-132900000D03*
X170900000Y-59350000D03*
X128800000Y-137900000D03*
D24*
X138587500Y-71600000D03*
%TO.N,CAR_12V_IN*%
X141400000Y-73350000D03*
D25*
X156650000Y-51850000D03*
X156650000Y-52850000D03*
D24*
X135493750Y-75193750D03*
D25*
X161650000Y-53850000D03*
X162650000Y-49850000D03*
X156650000Y-53850000D03*
X162650000Y-50850000D03*
X162650000Y-52850000D03*
X158650000Y-53850000D03*
X162650000Y-53850000D03*
X157650000Y-53850000D03*
X159650000Y-53850000D03*
X162650000Y-48850000D03*
X156650000Y-50850000D03*
X160650000Y-53850000D03*
X162650000Y-51850000D03*
D24*
X140961444Y-47538556D03*
X140125000Y-63100000D03*
D25*
X156650000Y-49850000D03*
D26*
%TO.N,/12-21V INPUT BOOST CONVERTER/SW*%
X144350000Y-76350000D03*
X150900000Y-77350000D03*
X155650000Y-74850000D03*
X155650000Y-72350000D03*
X150900000Y-71100000D03*
X155650000Y-81100000D03*
X143650000Y-72350000D03*
X143650000Y-73600000D03*
X143650000Y-74850000D03*
X150900000Y-79850000D03*
X148400000Y-76350000D03*
X150900000Y-74850000D03*
X147150000Y-76350000D03*
X150900000Y-76100000D03*
X155650000Y-78600000D03*
X150900000Y-78600000D03*
X150900000Y-72350000D03*
X155650000Y-73600000D03*
X143650000Y-71100000D03*
X155650000Y-71100000D03*
X155650000Y-77350000D03*
X155650000Y-76100000D03*
X155650000Y-79850000D03*
X145900000Y-76350000D03*
X149650000Y-76350000D03*
X150900000Y-73600000D03*
%TO.N,21V_CSN*%
X150150000Y-82600000D03*
X143650000Y-81850000D03*
X143650000Y-83100000D03*
X147150000Y-85100000D03*
X148400000Y-85100000D03*
X143650000Y-84350000D03*
X150900000Y-85100000D03*
X150900000Y-83850000D03*
X149650000Y-85100000D03*
X145900000Y-85100000D03*
X144650000Y-85100000D03*
D24*
X135924500Y-93900000D03*
D26*
X143650000Y-80600000D03*
D24*
%TO.N,+5V*%
X103112500Y-140000000D03*
X128100000Y-67700000D03*
D26*
X126600000Y-65300000D03*
X125400000Y-70300000D03*
X122112500Y-41100000D03*
X125400000Y-65300000D03*
X125400000Y-69100000D03*
X92012500Y-119300000D03*
X125400000Y-67900000D03*
D24*
X146549997Y-108375004D03*
D26*
X125400000Y-66600000D03*
D24*
X100412500Y-53900000D03*
X135924500Y-92200000D03*
X140925000Y-56300000D03*
%TO.N,+3V3*%
X80912500Y-102600000D03*
X123100000Y-91175500D03*
X102012500Y-96600000D03*
X101224500Y-80000000D03*
X89712500Y-60500000D03*
X102000000Y-86300000D03*
X106537000Y-124400000D03*
X48112500Y-80200000D03*
X122100000Y-74500000D03*
X89887500Y-62650000D03*
X64746277Y-75375000D03*
X122100000Y-72900000D03*
X74412500Y-98100000D03*
X139125000Y-147087500D03*
X103800000Y-63400000D03*
X125382426Y-89000000D03*
X64746199Y-73636937D03*
X152100000Y-53400000D03*
X64612500Y-79275000D03*
X113500000Y-62500000D03*
X77700000Y-79300000D03*
X139074997Y-129900000D03*
X73512500Y-77075000D03*
X54988000Y-73575000D03*
X75212500Y-92300000D03*
X55084121Y-81077972D03*
X97363099Y-67150599D03*
X91012500Y-133675000D03*
X77700000Y-75200000D03*
X62623363Y-81617500D03*
X138112500Y-153717500D03*
X77700000Y-77300000D03*
X99300000Y-70200000D03*
X55012500Y-72375000D03*
X57912500Y-71850500D03*
D26*
%TO.N,+21V*%
X150050000Y-92150000D03*
X156300000Y-94900000D03*
X155050000Y-94900000D03*
X129449997Y-103175004D03*
X149649997Y-108575004D03*
X131849997Y-103175004D03*
X156300000Y-93650000D03*
X153249997Y-108575004D03*
X130649997Y-103175004D03*
D24*
X138350000Y-51200000D03*
D26*
X153800000Y-93650000D03*
X151300000Y-92150000D03*
X150050000Y-94650000D03*
X128249997Y-103175004D03*
X151300000Y-93400000D03*
X152550000Y-93650000D03*
X153800000Y-94900000D03*
X155050000Y-93650000D03*
X152550000Y-94900000D03*
X139000000Y-53882200D03*
X150849997Y-108575004D03*
D24*
X136700000Y-96900000D03*
D26*
X140400000Y-53882200D03*
X151300000Y-94650000D03*
X150050000Y-93400000D03*
X152049997Y-108575004D03*
D24*
%TO.N,5V_CSN*%
X127200000Y-62500000D03*
X135924500Y-90500000D03*
X131500000Y-67600000D03*
X129600000Y-53182200D03*
%TO.N,+1V2*%
X59142595Y-71861243D03*
X117400000Y-79600000D03*
X54512500Y-82599500D03*
X61023363Y-81617500D03*
X63301040Y-71941612D03*
X64312500Y-81617498D03*
X61912500Y-71850500D03*
X59423363Y-81617500D03*
X54988000Y-78375000D03*
X55078801Y-76275000D03*
X64746198Y-77136937D03*
X56612500Y-72275000D03*
%TO.N,F_USB-C_BUCK_OUT*%
X88412500Y-145885000D03*
X85212500Y-145885000D03*
X85212500Y-146485000D03*
D26*
X159700000Y-99900000D03*
X157500000Y-97700000D03*
X159700000Y-97700000D03*
D24*
X90147500Y-143535000D03*
D26*
X159700000Y-98800000D03*
D24*
X90147500Y-144735000D03*
X157299997Y-114199504D03*
D26*
X158600000Y-97700000D03*
D24*
X155649997Y-100675004D03*
X88412500Y-146485000D03*
X90147500Y-144135000D03*
X147649997Y-108575004D03*
X90147500Y-142935000D03*
%TO.N,Net-(D3-K)*%
X138799500Y-107075004D03*
X134649997Y-106475004D03*
X131649997Y-100875004D03*
D26*
%TO.N,B_USB-C_BUCK_OUT*%
X121800000Y-99800000D03*
D24*
X111512500Y-41000000D03*
X107912500Y-38900000D03*
X107912500Y-35600000D03*
D26*
X124200000Y-100900000D03*
X124200000Y-98700000D03*
D24*
X110312500Y-41000000D03*
X137100000Y-109400000D03*
X135924500Y-88800000D03*
X125449997Y-111650003D03*
X109712500Y-41000000D03*
D26*
X123100000Y-98700000D03*
X124200000Y-99800000D03*
X121800000Y-100900000D03*
X122000000Y-98700000D03*
D24*
X108612500Y-38900000D03*
X125500000Y-102500000D03*
X110912500Y-41000000D03*
X108612500Y-35600000D03*
%TO.N,RST*%
X110117157Y-63417157D03*
X119600000Y-96049500D03*
X143600000Y-128000000D03*
X100500000Y-86300000D03*
X82139111Y-95249500D03*
%TO.N,ESP_IO0*%
X80912500Y-95249500D03*
%TO.N,UFP_3_TXA_N*%
X81812500Y-45200000D03*
%TO.N,UFP_3_TXA_P*%
X82612500Y-45200000D03*
%TO.N,UFP_3_TXB_N*%
X93612500Y-46600000D03*
%TO.N,UFP_3_TXB_P*%
X94312500Y-47000000D03*
%TO.N,Net-(JP11-C)*%
X89512500Y-54200000D03*
%TO.N,DFP_3_RXB_N*%
X78782605Y-154635791D03*
%TO.N,DFP_3_RXB_P*%
X79348291Y-154070105D03*
%TO.N,DFP_3_TXB_N*%
X78540053Y-155318798D03*
%TO.N,DFP_3_TXB_P*%
X77974367Y-155884484D03*
%TO.N,Net-(JP16-C)*%
X87083600Y-141419720D03*
%TO.N,Net-(D1-K)*%
X132850000Y-53950000D03*
X139100000Y-56450000D03*
%TO.N,UFP_2_P*%
X90012500Y-36100000D03*
X85212500Y-36600000D03*
X87891956Y-47579456D03*
X88212500Y-42100000D03*
%TO.N,UFP_2_N*%
X90558720Y-36536976D03*
X84652898Y-36180298D03*
X87792798Y-42659602D03*
X86833044Y-47720544D03*
%TO.N,UFP_3_RXA_P*%
X79812500Y-45200000D03*
%TO.N,UFP_3_RXA_N*%
X80612500Y-45200000D03*
%TO.N,UFP_3_RXB_N*%
X89002393Y-48917157D03*
X92412500Y-47300000D03*
%TO.N,UFP_3_RXB_P*%
X90913140Y-47749500D03*
X89568079Y-49482843D03*
%TO.N,UFP_CC1*%
X93212500Y-56625500D03*
X83248529Y-36636029D03*
%TO.N,UFP_CC2*%
X92612500Y-56000000D03*
X90661972Y-35840211D03*
%TO.N,DFP_2_P*%
X89933842Y-163050501D03*
X79692097Y-153330715D03*
X87912500Y-158200000D03*
X85012500Y-163699499D03*
%TO.N,DFP_2_N*%
X90512500Y-163600000D03*
X80257783Y-152765029D03*
X87212500Y-157550500D03*
X84512500Y-163200000D03*
%TO.N,DFP_3_TXA_P*%
X80653638Y-152182843D03*
%TO.N,DFP_3_TXA_N*%
X81219324Y-151617157D03*
%TO.N,DFP_3_RXA_P*%
X82195343Y-150417157D03*
%TO.N,DFP_3_RXA_N*%
X81629657Y-150982843D03*
%TO.N,DFP_CC1*%
X80510156Y-146002344D03*
X84712500Y-141000000D03*
X84812500Y-145400000D03*
X91212500Y-163999500D03*
%TO.N,DFP_CC2*%
X84012500Y-163900000D03*
X81360156Y-146852344D03*
X84099251Y-140309640D03*
X84112500Y-145800000D03*
%TO.N,DISP_DIG_7*%
X141312500Y-140625000D03*
X140912500Y-151200000D03*
%TO.N,DISP_SEG_A*%
X138212500Y-150800000D03*
X152612500Y-161400000D03*
%TO.N,DISP_SEG_B*%
X120306750Y-141400000D03*
X152612500Y-157400000D03*
X138123561Y-152347929D03*
%TO.N,DISP_SEG_C*%
X152512500Y-153400000D03*
X138512500Y-141400000D03*
X138622758Y-154332999D03*
%TO.N,DISP_SEG_F*%
X162512500Y-153400000D03*
X138212500Y-151600000D03*
%TO.N,DISP_SEG_G*%
X140763000Y-150514081D03*
X162512500Y-149400000D03*
X135512500Y-153400000D03*
%TO.N,/USBA_PORTS/P4_2_P*%
X69412500Y-44800000D03*
%TO.N,/USBA_PORTS/P4_TX_P*%
X70912500Y-49600000D03*
X67638000Y-54200000D03*
%TO.N,/USBA_PORTS/P4_TX_N*%
X66838000Y-54200000D03*
X70112500Y-49600000D03*
%TO.N,Net-(J1-Pin_1)*%
X52988000Y-83175000D03*
%TO.N,UFP_VBUS*%
X105912500Y-44800000D03*
X84612500Y-35200000D03*
X105512500Y-43100000D03*
X90912500Y-35000000D03*
X105377500Y-37200000D03*
X84112500Y-37700000D03*
X84653559Y-37708119D03*
X85212500Y-35200000D03*
X105777500Y-35600000D03*
X90012500Y-37600000D03*
X90280027Y-35000500D03*
X105912500Y-41500000D03*
X90612500Y-37600000D03*
X105212500Y-44800000D03*
X105212500Y-41500000D03*
X105777500Y-38900000D03*
X105077500Y-35600000D03*
X105077500Y-38900000D03*
%TO.N,DFP_VBUS*%
X85212500Y-149285000D03*
X84312500Y-162249500D03*
X92612500Y-148985000D03*
X88412500Y-149285000D03*
X91012500Y-149285000D03*
X94212500Y-149285000D03*
X84867690Y-162249500D03*
X86812500Y-148985000D03*
X90615298Y-162117861D03*
X85212500Y-148585000D03*
X88412500Y-148585000D03*
X94212500Y-148585000D03*
X83412500Y-148600000D03*
X83712500Y-164600000D03*
X91012500Y-148585000D03*
X84312500Y-164600500D03*
X90612500Y-164600500D03*
X90044812Y-164600500D03*
X91212500Y-162100000D03*
%TO.N,CAN_H*%
X147900000Y-48900000D03*
%TO.N,Net-(Q26-G)*%
X154988733Y-49784226D03*
%TO.N,DSUB_P_6*%
X150150000Y-33850000D03*
%TO.N,DSUB_P_7*%
X149150000Y-33850000D03*
%TO.N,ESP_TX*%
X82185182Y-97300000D03*
%TO.N,ESP_RX*%
X81212500Y-97300000D03*
X80500000Y-82200000D03*
%TO.N,I2C_SCL*%
X124300000Y-95100000D03*
X85112500Y-80300000D03*
X107812500Y-62000000D03*
X123750997Y-103658933D03*
X90212500Y-139900000D03*
X86502278Y-55509111D03*
X137712500Y-139600000D03*
X135612500Y-150300000D03*
X136900000Y-126000000D03*
X100600000Y-94500000D03*
%TO.N,IOX_0_P_0_1*%
X146200000Y-35400000D03*
%TO.N,I2C_SDA*%
X142612500Y-140000000D03*
X102112500Y-62600000D03*
X85300000Y-78200000D03*
X99800000Y-94500000D03*
X90212500Y-139000000D03*
X140912500Y-156900000D03*
X125250000Y-95100000D03*
X140600000Y-128500000D03*
X124300997Y-103100000D03*
X86312500Y-56300000D03*
%TO.N,IOX_0_P_0_0*%
X145650500Y-34850500D03*
%TO.N,Net-(JP3-A)*%
X150524500Y-52700000D03*
%TO.N,Net-(JP4-C)*%
X53512500Y-82275000D03*
%TO.N,Net-(JP5-C)*%
X66612500Y-80775000D03*
%TO.N,Net-(JP6-C)*%
X66612500Y-80075000D03*
%TO.N,Net-(JP7-C)*%
X66712500Y-76575000D03*
%TO.N,Net-(JP8-C)*%
X66912500Y-77675000D03*
%TO.N,UFP_CC_CTRL*%
X87912500Y-54800000D03*
%TO.N,Net-(JP12-A)*%
X99312500Y-58000000D03*
%TO.N,Net-(JP12-C)*%
X101412500Y-39200000D03*
%TO.N,Net-(JP12-B)*%
X96812500Y-58000000D03*
%TO.N,DFP_CC_CTRL*%
X88612500Y-140400000D03*
%TO.N,Net-(JP17-A)*%
X84812500Y-136900000D03*
%TO.N,Net-(JP17-C)*%
X100212500Y-145000000D03*
%TO.N,Net-(JP17-B)*%
X84812500Y-136200000D03*
%TO.N,/12-21V INPUT BOOST CONVERTER/CSN*%
X151150000Y-66100000D03*
X136400000Y-75900000D03*
D26*
%TO.N,F_USB-C_CSN*%
X162600000Y-105700000D03*
X162300000Y-106800000D03*
X158800000Y-105800000D03*
X158800000Y-104600000D03*
X158800000Y-103400000D03*
X162600000Y-102100000D03*
X162600000Y-104500000D03*
X162600000Y-103300000D03*
X158900000Y-102100000D03*
D24*
%TO.N,B_USB-C_CSN*%
X135924500Y-87100000D03*
X120200000Y-98700000D03*
%TO.N,Net-(Q3-G)*%
X138749997Y-107975004D03*
X128351944Y-105235212D03*
X136149997Y-103875004D03*
%TO.N,Net-(Q4-G)*%
X128149997Y-108175004D03*
X138949997Y-105575004D03*
%TO.N,Net-(Q5-G)*%
X144938633Y-104163640D03*
X153049997Y-106275004D03*
X146143728Y-106568734D03*
%TO.N,Net-(Q6-G)*%
X152949997Y-103475004D03*
X143042971Y-107073361D03*
%TO.N,Net-(Q17-B2)*%
X85312500Y-99700000D03*
X85312500Y-98500500D03*
D25*
%TO.N,F_SUB-C_BUCK_P-GOOD*%
X146849997Y-122975004D03*
X146049997Y-134275004D03*
D24*
X145349997Y-108175004D03*
%TO.N,B_SUB-C_BUCK_P-GOOD*%
X138800000Y-108700000D03*
D25*
X145949997Y-132575004D03*
X146349997Y-123975004D03*
D24*
%TO.N,IOX1_INT*%
X115600000Y-61700000D03*
X144800000Y-130000000D03*
X107700000Y-94500000D03*
X118500000Y-94500000D03*
%TO.N,IOX0_INT*%
X99300000Y-76200000D03*
X110905713Y-63405713D03*
%TO.N,DISP_IRQ*%
X140812000Y-140075500D03*
X138312500Y-156900000D03*
X140312500Y-146500000D03*
%TO.N,Net-(U13J-PRT_CTL6{slash}GPIO18)*%
X67849789Y-77479467D03*
%TO.N,21V_PGOOD*%
X140712820Y-78587180D03*
X140500000Y-126000000D03*
D25*
%TO.N,F_USB-C_BUCK_EN*%
X146849997Y-121875004D03*
X144600899Y-112650504D03*
%TO.N,B_USB-C_BUCK_EN*%
X139049997Y-121175004D03*
X137849997Y-112975004D03*
D24*
%TO.N,ADC_ALERT*%
X137600000Y-126700000D03*
X123193074Y-104080863D03*
X123700000Y-93300000D03*
%TO.N,CAN_RX*%
X150500000Y-57900000D03*
X147100000Y-52100000D03*
%TO.N,CAN_TX*%
X147300000Y-57200000D03*
X146300000Y-52100000D03*
%TO.N,DFP_CC_ORIENT*%
X88412500Y-142000000D03*
%TO.N,DISP_DIG_0*%
X140512500Y-156300000D03*
%TO.N,DISP_DIG_1*%
X140912500Y-155700000D03*
%TO.N,DISP_DIG_2*%
X140512500Y-155000000D03*
%TO.N,DISP_DIG_3*%
X140912500Y-154417003D03*
%TO.N,Net-(JP19-C)*%
X150500000Y-58700000D03*
%TO.N,DFP_DBGACC*%
X85812500Y-141400000D03*
X105112500Y-57500000D03*
%TO.N,UFP_DBGACC*%
X87892456Y-51074500D03*
X104663000Y-58200000D03*
%TO.N,Net-(U13E-PRT_CTL1{slash}GPIO17)*%
X66712500Y-73875000D03*
%TD*%
D27*
%TO.N,DISP_SEG_G*%
X135745000Y-153167500D02*
X135512500Y-153400000D01*
X138109581Y-153167500D02*
X135745000Y-153167500D01*
X140763000Y-150514081D02*
X138109581Y-153167500D01*
%TO.N,DSUB_P_6*%
X150150000Y-33850000D02*
X154150000Y-37850000D01*
X154150000Y-40562653D02*
X152262653Y-42450000D01*
X154150000Y-37850000D02*
X154150000Y-40562653D01*
X152262653Y-42450000D02*
X151050000Y-42450000D01*
%TO.N,DSUB_P_7*%
X146824695Y-42450000D02*
X148250000Y-42450000D01*
X149150000Y-33850000D02*
X145150000Y-37850000D01*
X145150000Y-40775305D02*
X146824695Y-42450000D01*
X145150000Y-37850000D02*
X145150000Y-40775305D01*
%TD*%
M02*
