M48
; DRILL file {KiCad 8.0.1} date 2024-04-29T23:29:36-0400
; FORMAT={-:-/ absolute / inch / decimal}
; #@! TF.CreationDate,2024-04-29T23:29:36-04:00
; #@! TF.GenerationSoftware,Kicad,Pcbnew,8.0.1
; #@! TF.FileFunction,Plated,1,4,PTH
FMAT,2
INCH
; #@! TA.AperFunction,Plated,PTH,ComponentDrill
T1C0.0079
; #@! TA.AperFunction,Plated,PTH,ComponentDrill
T2C0.0080
; #@! TA.AperFunction,Plated,PTH,ViaDrill
T3C0.0118
; #@! TA.AperFunction,Plated,PTH,ViaDrill
T4C0.0157
; #@! TA.AperFunction,Plated,PTH,ViaDrill
T5C0.0197
; #@! TA.AperFunction,Plated,PTH,ComponentDrill
T6C0.0236
; #@! TA.AperFunction,Plated,PTH,ComponentDrill
T7C0.0276
; #@! TA.AperFunction,Plated,PTH,ComponentDrill
T8C0.0295
; #@! TA.AperFunction,Plated,PTH,ComponentDrill
T9C0.0315
; #@! TA.AperFunction,Plated,PTH,ComponentDrill
T10C0.0394
; #@! TA.AperFunction,Plated,PTH,ComponentDrill
T11C0.0433
; #@! TA.AperFunction,Plated,PTH,ComponentDrill
T12C0.0591
; #@! TA.AperFunction,Plated,PTH,ComponentDrill
T13C0.0925
; #@! TA.AperFunction,Plated,PTH,ComponentDrill
T14C0.1673
%
G90
G05
T1
X4.9193Y-3.5807
X4.9193Y-3.624
X4.9626Y-3.5807
X4.9626Y-3.624
X5.3602Y-2.8484
X5.3602Y-2.9075
X5.4193Y-2.8484
X5.4193Y-2.9075
T2
X4.8159Y-2.6772
X4.8711Y-2.622
X4.8711Y-2.6772
X4.8711Y-2.7323
X4.9262Y-2.6772
X5.4941Y-4.3002
X5.5492Y-4.2451
X5.5492Y-4.3002
X5.5492Y-4.3553
X5.6043Y-4.3002
T3
X1.7501Y-1.9588
X1.77Y-5.9825
X1.7717Y-5.9055
X1.7724Y-1.9811
X1.8504Y-3.3819
X1.8504Y-3.4134
X1.8543Y-5.8622
X1.8765Y-3.4324
X1.8765Y-3.4639
X1.8858Y-5.8622
X1.8942Y-1.4488
X1.8976Y-3.4803
X1.8976Y-3.5118
X1.9685Y-6.4961
X1.9803Y-2.8189
X2.0085Y-4.5164
X2.0236Y-3.1929
X2.0308Y-4.5387
X2.0427Y-6.4182
X2.0861Y-3.2165
X2.0861Y-3.2746
X2.091Y-3.1811
X2.1068Y-3.2392
X2.1304Y-2.688
X2.1371Y-4.456
X2.1383Y-2.7904
X2.1385Y-4.5282
X2.1462Y-3.2519
X2.1593Y-4.4782
X2.1607Y-4.5505
X2.1649Y-2.8967
X2.1649Y-3.0856
X2.1668Y-2.8539
X2.1685Y-3.003
X2.1687Y-3.192
X2.1693Y-2.3386
X2.1737Y-1.7835
X2.1928Y-4.5443
X2.215Y-4.5666
X2.2288Y-2.8455
X2.2471Y-4.56
X2.2694Y-4.5822
X2.28Y-2.8288
X2.3008Y-4.5796
X2.3031Y-2.6614
X2.3231Y-4.6019
X2.3283Y-2.8292
X2.3346Y-2.6614
X2.3346Y-4.9549
X2.3346Y-4.9864
X2.3395Y-3.2133
X2.3553Y-2.6433
X2.3596Y-4.9036
X2.3596Y-4.9351
X2.3867Y-2.6433
X2.4025Y-3.2133
X2.4052Y-2.6701
X2.4367Y-2.6701
X2.4375Y-2.8288
X2.4655Y-3.2133
X2.4922Y-2.8323
X2.5041Y-5.2537
X2.5243Y-5.2001
X2.5264Y-5.2315
X2.532Y-3.2133
X2.5359Y-5.937
X2.5438Y-3.1211
X2.5466Y-5.1778
X2.5491Y-3.0369
X2.5491Y-2.8991
X2.5491Y-2.9675
X2.5945Y-5.7648
X2.626Y-5.7648
X2.6265Y-3.0148
X2.6275Y-2.9139
X2.6305Y-3.1789
X2.6344Y-3.0581
X2.6378Y-3.1457
X2.6535Y-2.874
X2.6701Y-3.0584
X2.6729Y-2.0472
X2.6811Y-1.4528
X2.6871Y-4.8449
X2.6929Y-3.4016
X2.7044Y-2.0472
X2.7078Y-4.8701
X2.7165Y-3.4724
X2.7289Y-3.2127
X2.7525Y-2.8809
X2.7525Y-3.003
X2.7564Y-3.1132
X2.7564Y-3.2116
X2.7719Y-3.4176
X2.7918Y-6.4173
X2.8191Y-3.3703
X2.8223Y-5.721
X2.8366Y-3.4724
X2.8543Y-2.7677
X2.8543Y-5.7225
X2.8583Y-2.7992
X2.8937Y-2.9252
X2.9016Y-2.8268
X2.9291Y-3.0394
X2.9296Y-3.8622
X2.9528Y-1.7795
X2.9611Y-3.6339
X2.9846Y-2.3366
X3.0217Y-3.0394
X3.04Y-5.9363
X3.0591Y-2.9606
X3.0591Y-3.0433
X3.0591Y-3.122
X3.0623Y-5.9141
X3.0866Y-2.8425
X3.1693Y-3.2362
X3.1697Y-5.7481
X3.1855Y-4.0394
X3.1888Y-2.5374
X3.1973Y-3.8307
X3.2032Y-5.7816
X3.2205Y-3.7835
X3.2268Y-3.7291
X3.2356Y-3.8307
X3.2406Y-4.1732
X3.2457Y-5.8263
X3.2638Y-3.75
X3.2717Y-1.4409
X3.2958Y-6.4803
X3.3076Y-6.4528
X3.3115Y-1.4843
X3.3115Y-5.7402
X3.3189Y-2.7717
X3.3189Y-2.9094
X3.3194Y-6.3878
X3.3194Y-6.4803
X3.3273Y-6.4252
X3.3312Y-1.3858
X3.3328Y-1.4244
X3.3328Y-1.4846
X3.3391Y-5.7126
X3.3412Y-6.3878
X3.3469Y-6.4449
X3.3509Y-3.1614
X3.3543Y-2.8937
X3.3548Y-1.3858
X3.3548Y-1.4409
X3.3548Y-5.7435
X3.3548Y-5.7671
X3.3548Y-5.8498
X3.3548Y-5.8774
X3.3583Y-3.0787
X3.3588Y-3.878
X3.3588Y-3.9252
X3.3706Y-6.2992
X3.3745Y-6.5709
X3.377Y-5.3189
X3.3784Y-1.5669
X3.3824Y-1.3031
X3.3937Y-3.9685
X3.3981Y-6.2992
X3.3981Y-6.5709
X3.4021Y-1.5669
X3.4045Y-5.4127
X3.406Y-1.3031
X3.4178Y-5.8656
X3.4336Y-6.2028
X3.439Y-3.8976
X3.4564Y-1.6795
X3.4611Y-6.2283
X3.4729Y-1.6575
X3.4808Y-5.7435
X3.4808Y-5.7671
X3.4808Y-5.8498
X3.4808Y-5.8774
X3.4882Y-2.2598
X3.4882Y-2.3228
X3.4926Y-6.2992
X3.4926Y-6.5709
X3.4966Y-1.3031
X3.4966Y-1.5669
X3.5Y-5.2874
X3.5Y-5.4567
X3.5039Y-5.4882
X3.5162Y-6.5709
X3.5202Y-1.3031
X3.5202Y-1.5669
X3.5202Y-6.2992
X3.5354Y-5.4882
X3.5407Y-6.4193
X3.5438Y-1.4213
X3.5438Y-1.4803
X3.5451Y-6.4803
X3.5491Y-5.6274
X3.5491Y-5.651
X3.5491Y-5.6746
X3.5491Y-5.6982
X3.5512Y-2.2598
X3.5549Y-1.378
X3.5551Y-1.7362
X3.5635Y-6.4409
X3.5653Y-1.4385
X3.5669Y-5.3189
X3.5674Y-1.4803
X3.5674Y-6.4803
X3.5675Y-6.3826
X3.5694Y-1.411
X3.5787Y-1.378
X3.5827Y-5.2756
X3.5832Y-5.8498
X3.5832Y-5.8774
X3.5866Y-5.4173
X3.5866Y-5.5109
X3.591Y-1.8031
X3.591Y-6.3819
X3.591Y-6.4567
X3.5984Y-5.3189
X3.6181Y-3.9154
X3.6462Y-5.8656
X3.6496Y-5.3583
X3.6575Y-5.5591
X3.685Y-4.0748
X3.6882Y-4.7752
X3.7087Y-2.2323
X3.7092Y-5.8498
X3.7092Y-5.8774
X3.7323Y-2.3228
X3.749Y-5.374
X3.7502Y-2.1575
X3.7638Y-2.3189
X3.7874Y-2.2972
X3.7913Y-2.1693
X3.811Y-5.311
X3.8415Y-1.2884
X3.8415Y-1.3514
X3.8425Y-2.1447
X3.8661Y-2.3051
X3.9026Y-2.2756
X3.9094Y-2.7638
X3.9094Y-3.0
X3.9291Y-3.7205
X3.9346Y-1.7551
X3.9567Y-3.3976
X3.9606Y-3.7205
X3.9852Y-3.0787
X3.9852Y-3.1496
X3.9852Y-3.2205
X4.0148Y-2.7244
X4.0157Y-3.3976
X4.0162Y-3.8031
X4.0202Y-2.4646
X4.0394Y-2.0472
X4.0472Y-2.9409
X4.0669Y-5.6535
X4.0827Y-2.2943
X4.0866Y-2.4961
X4.0871Y-2.4331
X4.1369Y-1.4016
X4.1369Y-1.5315
X4.1417Y-2.2343
X4.1422Y-1.6339
X4.1422Y-1.7638
X4.1422Y-2.2943
X4.1487Y-1.4646
X4.154Y-1.6969
X4.1645Y-1.4016
X4.1645Y-1.5315
X4.1698Y-1.6339
X4.1698Y-1.7638
X4.1713Y-2.7402
X4.1717Y-2.9276
X4.1727Y-5.2717
X4.1732Y-3.2441
X4.1732Y-3.3071
X4.189Y-5.4646
X4.1944Y-4.8976
X4.2008Y-3.7205
X4.2402Y-3.7205
X4.2446Y-2.4409
X4.2485Y-1.4016
X4.2485Y-1.5315
X4.2761Y-1.4016
X4.2761Y-1.5315
X4.3194Y-1.6142
X4.3353Y-2.4967
X4.343Y-1.6142
X4.3553Y-2.8346
X4.3664Y-2.4963
X4.3666Y-1.6142
X4.3701Y-2.2126
X4.3711Y-2.8189
X4.3903Y-1.6142
X4.3947Y-2.8189
X4.4183Y-2.8189
X4.4272Y-2.7684
X4.4577Y-2.815
X4.4606Y-5.1824
X4.4685Y-2.4606
X4.5246Y-2.8504
X4.5246Y-2.878
X4.5252Y-3.3189
X4.5398Y-3.424
X4.5512Y-2.4291
X4.5955Y-2.7913
X4.6299Y-5.1863
X4.6378Y-2.4409
X4.6388Y-3.0433
X4.6388Y-3.0827
X4.6388Y-3.122
X4.6585Y-2.8543
X4.6585Y-2.878
X4.6654Y-3.7205
X4.6821Y-3.003
X4.7008Y-3.1654
X4.7067Y-2.7697
X4.7087Y-3.7815
X4.722Y-3.7141
X4.7323Y-2.9134
X4.7323Y-3.8858
X4.7365Y-5.5669
X4.753Y-2.5591
X4.7559Y-2.7913
X4.7795Y-5.1824
X4.7854Y-3.4209
X4.7864Y-2.7128
X4.7864Y-2.5925
X4.7874Y-2.6693
X4.7877Y-2.6249
X4.7953Y-2.4409
X4.8016Y-2.3575
X4.8109Y-2.8357
X4.8238Y-2.5354
X4.8396Y-3.0433
X4.8465Y-2.7598
X4.8465Y-3.5896
X4.8488Y-3.1728
X4.8501Y-4.0977
X4.8514Y-2.5197
X4.8514Y-2.815
X4.8701Y-3.6732
X4.8721Y-4.0811
X4.8789Y-2.8307
X4.8789Y-2.5866
X4.8937Y-3.7441
X4.8937Y-4.0591
X4.9311Y-3.7441
X4.9331Y-5.1755
X4.9363Y-3.5039
X4.939Y-4.3957
X4.9409Y-4.0354
X4.9496Y-2.0567
X4.9557Y-2.6063
X4.9789Y-3.2085
X4.9813Y-2.3376
X4.9823Y-3.1752
X4.9852Y-2.7884
X4.9911Y-2.8268
X4.998Y-3.9911
X4.999Y-2.4724
X5.001Y-2.9843
X5.0128Y-2.7008
X5.0153Y-2.3712
X5.0167Y-2.0236
X5.0207Y-2.6457
X5.0377Y-4.1276
X5.0394Y-4.0118
X5.0433Y-3.8858
X5.0453Y-4.2589
X5.0709Y-5.1578
X5.0837Y-2.3504
X5.0915Y-2.4685
X5.0994Y-2.6417
X5.0994Y-2.7008
X5.1152Y-2.3425
X5.1339Y-2.4291
X5.1427Y-2.315
X5.1427Y-2.3386
X5.1575Y-2.9528
X5.1785Y-2.9207
X5.1791Y-4.4675
X5.186Y-2.2953
X5.186Y-2.3228
X5.214Y-2.9041
X5.2175Y-2.6424
X5.2186Y-3.6202
X5.2205Y-3.4213
X5.2205Y-3.4882
X5.2205Y-3.5551
X5.2205Y-3.6929
X5.2205Y-3.7598
X5.2244Y-3.2874
X5.2244Y-3.3543
X5.2283Y-3.248
X5.2343Y-3.1693
X5.2673Y-2.5236
X5.2982Y-4.2913
X5.3012Y-4.1919
X5.3071Y-3.248
X5.3189Y-2.4291
X5.3199Y-2.2913
X5.3199Y-2.3386
X5.3344Y-2.9604
X5.3346Y-3.0984
X5.3351Y-6.0394
X5.3391Y-5.9173
X5.3514Y-3.4291
X5.3514Y-3.4961
X5.3514Y-3.563
X5.3514Y-3.6299
X5.3514Y-3.6969
X5.3543Y-4.3031
X5.3563Y-2.6791
X5.3602Y-4.0896
X5.3642Y-4.5659
X5.3701Y-2.9882
X5.374Y-4.0197
X5.3819Y-3.815
X5.3898Y-4.9606
X5.3937Y-1.8937
X5.3976Y-4.3071
X5.4173Y-4.9882
X5.4218Y-5.4961
X5.4375Y-6.0519
X5.4379Y-5.9979
X5.4409Y-4.5315
X5.4414Y-5.937
X5.4414Y-5.9685
X5.4454Y-6.1772
X5.4469Y-4.5659
X5.448Y-2.5409
X5.4532Y-5.5669
X5.4562Y-2.8189
X5.4576Y-6.0761
X5.4587Y-2.3697
X5.4587Y-2.5039
X5.4606Y-1.8937
X5.4626Y-4.251
X5.4645Y-4.2156
X5.4646Y-4.2795
X5.4705Y-4.1565
X5.4724Y-3.0906
X5.4754Y-5.1142
X5.4774Y-5.7908
X5.5138Y-4.5659
X5.5241Y-5.7677
X5.5315Y-4.9606
X5.532Y-6.1024
X5.532Y-6.1535
X5.5335Y-5.1841
X5.5354Y-5.0591
X5.5419Y-5.9258
X5.5433Y-2.6102
X5.5438Y-5.5148
X5.5477Y-5.9528
X5.5477Y-6.0519
X5.5477Y-6.0794
X5.5477Y-6.1299
X5.5477Y-6.1772
X5.5492Y-4.0738
X5.5497Y-1.8716
X5.5635Y-5.5364
X5.5669Y-2.8878
X5.5981Y-4.5659
X5.5989Y-5.8189
X5.6063Y-1.9488
X5.6063Y-2.1457
X5.6063Y-2.6772
X5.6147Y-5.5118
X5.6316Y-4.2155
X5.6535Y-5.0394
X5.6594Y-4.8061
X5.7008Y-5.1181
X5.7062Y-4.1009
X5.7224Y-4.2589
X5.7343Y-4.562
X5.7343Y-1.3721
X5.7537Y-4.1956
X5.7559Y-1.3937
X5.7697Y-4.2667
X5.7913Y-2.0512
X5.813Y-4.2746
X5.8228Y-1.9252
X5.872Y-1.3327
X5.9114Y-1.3327
X5.9252Y-2.2795
X5.9252Y-2.311
X5.9262Y-2.0748
X5.9508Y-2.6024
X5.9882Y-2.1024
X6.0044Y-6.0394
X6.0084Y-6.1969
X6.0084Y-6.3543
X6.0256Y-4.4872
X6.0315Y-4.2018
X6.0323Y-4.0454
X6.0748Y-5.1745
X6.0846Y-3.9636
X6.0997Y-2.0066
X6.1019Y-1.96
X6.128Y-3.9636
X6.1654Y-2.0787
X6.1929Y-4.496
X6.2244Y-5.1706
X6.3858Y-5.1706
X6.3981Y-5.8819
X6.3981Y-6.0394
X6.5399Y-5.1593
X6.7047Y-5.1745
T4
X5.4272Y-4.4478
X5.4744Y-4.7707
X5.6929Y-4.4351
X5.7461Y-5.2195
X5.75Y-5.2864
X5.7618Y-4.8809
X5.7815Y-4.7982
X5.7815Y-4.8415
X5.8701Y-2.1929
T5
X1.6457Y-6.0591
X1.8264Y-5.5929
X1.9685Y-3.7008
X2.2406Y-2.9049
X2.2406Y-3.1411
X2.2835Y-2.3425
X2.3319Y-5.6469
X2.3588Y-3.023
X2.4016Y-6.0512
X2.4449Y-2.165
X2.4769Y-2.9049
X2.7154Y-5.8366
X2.9028Y-2.1618
X2.9209Y-6.0929
X3.0394Y-2.3425
X3.2008Y-5.6417
X3.2131Y-3.9528
X3.7402Y-1.9937
X3.8173Y-1.5697
X4.2835Y-2.6732
X4.2835Y-2.8701
X4.2835Y-3.0669
X4.2835Y-3.2638
X4.2835Y-3.4606
X4.2835Y-3.6575
X4.2835Y-3.8543
X4.2835Y-4.0512
X4.2835Y-4.248
X4.2835Y-4.4449
X4.2835Y-4.6417
X4.2835Y-4.8386
X4.2835Y-4.937
X4.2835Y-5.0354
X4.2835Y-5.1339
X4.2835Y-5.2323
X4.2835Y-5.3307
X4.2835Y-5.4291
X4.3819Y-5.4291
X4.4803Y-2.6732
X4.4829Y-5.4272
X4.5098Y-4.7319
X4.5315Y-4.2362
X4.5787Y-5.4291
X4.6772Y-1.7874
X4.6772Y-1.8858
X4.6772Y-1.9843
X4.6772Y-2.0827
X4.6772Y-2.1811
X4.6772Y-2.2795
X4.6772Y-2.4764
X4.6772Y-2.6732
X4.6772Y-5.4291
X4.7756Y-1.7874
X4.7756Y-5.4291
X4.7953Y-3.9291
X4.7953Y-3.9724
X4.8031Y-3.8858
X4.8071Y-1.4173
X4.8071Y-1.6339
X4.8081Y-1.9016
X4.8081Y-1.9409
X4.8081Y-1.9803
X4.8356Y-2.0157
X4.8465Y-3.8858
X4.874Y-1.7874
X4.874Y-5.4291
X4.8898Y-3.8858
X4.8898Y-3.9291
X4.8898Y-3.9724
X4.9065Y-1.9016
X4.9065Y-1.9409
X4.9065Y-1.9803
X4.9724Y-1.2283
X4.9724Y-1.3937
X4.9724Y-1.5906
X4.9724Y-1.7874
X4.9724Y-5.4291
X5.0492Y-4.062
X5.0709Y-5.4291
X5.0807Y-4.3022
X5.0965Y-4.062
X5.128Y-4.3022
X5.1437Y-4.062
X5.1693Y-5.4291
X5.1752Y-4.3022
X5.1909Y-4.062
X5.2677Y-5.4291
X5.3661Y-5.4291
X5.4646Y-5.4291
X5.563Y-5.4291
X5.6555Y-2.7992
X5.6555Y-2.8484
X5.6555Y-2.8976
X5.6555Y-2.9469
X5.6555Y-3.1732
X5.6555Y-3.2224
X5.6555Y-3.2717
X5.6555Y-3.3209
X5.6614Y-5.4291
X5.6831Y-3.0059
X5.6949Y-3.3504
X5.7441Y-3.0059
X5.7441Y-3.3504
X5.7598Y-5.4291
X5.7736Y-2.6516
X5.7933Y-3.0059
X5.7933Y-3.3504
X5.8228Y-2.6516
X5.8425Y-3.0059
X5.8425Y-3.3504
X5.8583Y-5.4291
X5.872Y-2.6516
X5.8917Y-4.2746
X5.8917Y-3.0059
X5.8917Y-3.3504
X5.9035Y-4.0305
X5.9075Y-3.628
X5.9075Y-3.6772
X5.9075Y-3.7264
X5.9114Y-3.252
X5.9213Y-2.6516
X5.9213Y-2.7008
X5.939Y-4.2746
X5.9409Y-2.7992
X5.9409Y-2.8484
X5.9409Y-2.8976
X5.9409Y-2.9469
X5.9409Y-2.9961
X5.9409Y-3.0453
X5.9409Y-3.0945
X5.9409Y-3.3012
X5.9409Y-3.3504
X5.9508Y-4.0305
X5.9567Y-3.628
X5.9567Y-3.6772
X5.9567Y-3.7264
X5.9567Y-5.4291
X5.9862Y-4.2746
X5.998Y-4.0305
X6.0059Y-3.687
X6.0059Y-3.7362
X6.0335Y-4.2746
X6.0547Y-5.43
X6.0551Y-3.687
X6.0551Y-3.7362
X6.1043Y-3.687
X6.1043Y-3.7362
X6.1535Y-3.687
X6.1535Y-3.7362
X6.1579Y-5.4314
X6.2008Y-3.8465
X6.2441Y-3.8465
X6.252Y-5.4291
X6.2874Y-3.8465
X6.2874Y-3.8898
X6.2874Y-3.9331
X6.3504Y-5.4291
X6.4488Y-5.4291
X6.4823Y-3.5276
X6.4823Y-3.626
X6.4921Y-2.4154
X6.5315Y-2.3366
X6.5315Y-2.4941
X6.5472Y-5.4291
X6.5709Y-3.498
X6.5709Y-3.6555
X6.6299Y-2.3366
X6.6299Y-2.4941
X6.6457Y-5.4291
X6.6693Y-3.498
X6.6693Y-3.6555
X6.7185Y-3.5472
X6.7185Y-3.5965
X6.7283Y-2.3366
X6.7283Y-2.4843
X6.7402Y-5.4291
X6.8307Y-5.4291
T7
X1.7918Y-1.6742
X1.8115Y-1.6152
X1.8312Y-6.1919
X1.8509Y-6.251
X1.8706Y-1.6742
X1.9099Y-1.6152
X1.9099Y-6.1919
X1.9493Y-1.6742
X1.9493Y-6.251
X1.9887Y-1.6152
X1.9887Y-6.1919
X2.0281Y-1.6742
X2.0281Y-6.251
X2.0674Y-6.1919
X2.0871Y-1.6152
X2.1068Y-1.6742
X2.1265Y-6.251
X2.1462Y-6.1919
X2.5792Y-1.6742
X2.5792Y-6.1919
X2.5989Y-1.6152
X2.5989Y-6.251
X2.658Y-1.6742
X2.658Y-6.1919
X2.6973Y-1.6152
X2.6973Y-6.251
X2.7367Y-1.6742
X2.7367Y-6.1919
X2.7761Y-1.6152
X2.7761Y-6.251
X2.8155Y-1.6742
X2.8155Y-6.1919
X2.8745Y-1.6152
X2.8745Y-6.251
X2.8942Y-1.6742
X2.8942Y-6.1919
T8
X3.4894Y-3.8433
X3.5394Y-3.7937
X3.5394Y-3.8937
X3.6929Y-3.7921
X3.6929Y-3.8921
X3.7429Y-3.8425
T9
X4.2913Y-6.6081
X4.3701Y-6.6081
X4.4488Y-6.6081
T10
X2.9778Y-3.2931
X2.9778Y-3.3931
X2.9778Y-3.4931
X3.0778Y-3.2931
X3.0778Y-3.3931
X3.0778Y-3.4931
X4.2126Y-6.6081
X4.5276Y-6.6081
X4.6127Y-5.7757
X4.6127Y-6.3757
X4.7127Y-5.7757
X4.7127Y-6.3757
X4.8127Y-5.7757
X4.8127Y-6.3757
X4.9127Y-5.7757
X4.9127Y-6.3757
X5.0127Y-5.7757
X5.0127Y-6.3757
X5.1127Y-5.7757
X5.1127Y-6.3757
T11
X3.8681Y-4.8957
X3.8681Y-5.1516
X3.8686Y-3.9823
X3.8686Y-4.2382
X3.8686Y-4.435
X3.8686Y-4.6909
X4.0453Y-4.8957
X4.0453Y-5.1516
X4.0458Y-3.9823
X4.0458Y-4.2382
X4.0458Y-4.435
X4.0458Y-4.6909
T12
X5.7815Y-1.5689
X5.8366Y-1.6713
X5.8917Y-1.5689
X5.9469Y-1.6713
X6.002Y-1.5689
T13
X5.2382Y-1.5768
X6.5453Y-1.5768
T14
X5.624Y-1.6752
X6.1594Y-1.6752
T6
G00X1.6973Y-1.3258
M15
G01X1.6973Y-1.2943
M16
G05
G00X1.6973Y-1.6663
M15
G01X1.6973Y-1.623
M16
G05
G00X1.7367Y-6.1998
M15
G01X1.7367Y-6.2431
M16
G05
G00X1.7367Y-6.5404
M15
G01X1.7367Y-6.5719
M16
G05
G00X2.2013Y-1.3258
M15
G01X2.2013Y-1.2943
M16
G05
G00X2.2013Y-1.6663
M15
G01X2.2013Y-1.623
M16
G05
G00X2.2406Y-6.1998
M15
G01X2.2406Y-6.2431
M16
G05
G00X2.2406Y-6.5404
M15
G01X2.2406Y-6.5719
M16
G05
G00X2.4847Y-1.3258
M15
G01X2.4847Y-1.2943
M16
G05
G00X2.4847Y-1.6663
M15
G01X2.4847Y-1.623
M16
G05
G00X2.4847Y-6.1998
M15
G01X2.4847Y-6.2431
M16
G05
G00X2.4847Y-6.5404
M15
G01X2.4847Y-6.5719
M16
G05
G00X2.9887Y-1.3258
M15
G01X2.9887Y-1.2943
M16
G05
G00X2.9887Y-1.6663
M15
G01X2.9887Y-1.623
M16
G05
G00X2.9887Y-6.1998
M15
G01X2.9887Y-6.2431
M16
G05
G00X2.9887Y-6.5404
M15
G01X2.9887Y-6.5719
M16
G05
G00X3.3273Y-6.251
M15
G01X3.3273Y-6.2923
M16
G05
G00X3.3273Y-6.5699
M15
G01X3.3273Y-6.6112
M16
G05
G00X3.3312Y-1.2943
M15
G01X3.3312Y-1.253
M16
G05
G00X3.3312Y-1.6132
M15
G01X3.3312Y-1.5719
M16
G05
G00X3.5635Y-6.251
M15
G01X3.5635Y-6.2923
M16
G05
G00X3.5635Y-6.5699
M15
G01X3.5635Y-6.6112
M16
G05
G00X3.5674Y-1.2943
M15
G01X3.5674Y-1.253
M16
G05
G00X3.5674Y-1.6132
M15
G01X3.5674Y-1.5719
M16
G05
M30
