%TF.GenerationSoftware,KiCad,Pcbnew,7.0.10*%
%TF.CreationDate,2024-02-18T18:22:38-05:00*%
%TF.ProjectId,usbc-car-module,75736263-2d63-4617-922d-6d6f64756c65,rev?*%
%TF.SameCoordinates,Original*%
%TF.FileFunction,Paste,Bot*%
%TF.FilePolarity,Positive*%
%FSLAX46Y46*%
G04 Gerber Fmt 4.6, Leading zero omitted, Abs format (unit mm)*
G04 Created by KiCad (PCBNEW 7.0.10) date 2024-02-18 18:22:38*
%MOMM*%
%LPD*%
G01*
G04 APERTURE LIST*
G04 Aperture macros list*
%AMRoundRect*
0 Rectangle with rounded corners*
0 $1 Rounding radius*
0 $2 $3 $4 $5 $6 $7 $8 $9 X,Y pos of 4 corners*
0 Add a 4 corners polygon primitive as box body*
4,1,4,$2,$3,$4,$5,$6,$7,$8,$9,$2,$3,0*
0 Add four circle primitives for the rounded corners*
1,1,$1+$1,$2,$3*
1,1,$1+$1,$4,$5*
1,1,$1+$1,$6,$7*
1,1,$1+$1,$8,$9*
0 Add four rect primitives between the rounded corners*
20,1,$1+$1,$2,$3,$4,$5,0*
20,1,$1+$1,$4,$5,$6,$7,0*
20,1,$1+$1,$6,$7,$8,$9,0*
20,1,$1+$1,$8,$9,$2,$3,0*%
G04 Aperture macros list end*
%ADD10RoundRect,0.225000X-0.250000X0.225000X-0.250000X-0.225000X0.250000X-0.225000X0.250000X0.225000X0*%
%ADD11RoundRect,0.225000X-0.225000X-0.250000X0.225000X-0.250000X0.225000X0.250000X-0.225000X0.250000X0*%
%ADD12R,0.812800X0.203200*%
%ADD13RoundRect,0.225000X0.250000X-0.225000X0.250000X0.225000X-0.250000X0.225000X-0.250000X-0.225000X0*%
%ADD14RoundRect,0.225000X0.225000X0.250000X-0.225000X0.250000X-0.225000X-0.250000X0.225000X-0.250000X0*%
G04 APERTURE END LIST*
D10*
%TO.C,C53*%
X52512500Y-75250000D03*
X52512500Y-73700000D03*
%TD*%
%TO.C,C60*%
X61912500Y-82450000D03*
X61912500Y-80900000D03*
%TD*%
D11*
%TO.C,C62*%
X65787500Y-72775000D03*
X64237500Y-72775000D03*
%TD*%
%TO.C,C54*%
X65787500Y-71175000D03*
X64237500Y-71175000D03*
%TD*%
D12*
%TO.C,D35*%
X70007800Y-36900126D03*
X70007800Y-36400000D03*
X70007800Y-35899874D03*
X69017200Y-35649999D03*
X69017200Y-36150000D03*
X69017200Y-36650000D03*
X69017200Y-37150001D03*
%TD*%
D11*
%TO.C,C73*%
X55887500Y-70075000D03*
X54337500Y-70075000D03*
%TD*%
D12*
%TO.C,D14*%
X69017200Y-162899874D03*
X69017200Y-163400000D03*
X69017200Y-163900126D03*
X70007800Y-164150001D03*
X70007800Y-163650000D03*
X70007800Y-163150000D03*
X70007800Y-162649999D03*
%TD*%
D11*
%TO.C,C66*%
X55887500Y-76875000D03*
X54337500Y-76875000D03*
%TD*%
D13*
%TO.C,C68*%
X63512500Y-80900000D03*
X63512500Y-82450000D03*
%TD*%
D11*
%TO.C,C70*%
X55887500Y-83275000D03*
X54337500Y-83275000D03*
%TD*%
%TO.C,C67*%
X65787500Y-76275000D03*
X64237500Y-76275000D03*
%TD*%
D14*
%TO.C,C64*%
X54337500Y-75275000D03*
X55887500Y-75275000D03*
%TD*%
D12*
%TO.C,D20*%
X89412500Y-45599748D03*
X89412500Y-46099874D03*
X89412500Y-46600000D03*
X90403100Y-46849875D03*
X90403100Y-46349874D03*
X90403100Y-45849874D03*
X90403100Y-45349873D03*
%TD*%
D13*
%TO.C,C65*%
X59512500Y-71200000D03*
X59512500Y-72750000D03*
%TD*%
D14*
%TO.C,C59*%
X64237500Y-77975000D03*
X65787500Y-77975000D03*
%TD*%
D10*
%TO.C,C74*%
X61112500Y-72750000D03*
X61112500Y-71200000D03*
%TD*%
D13*
%TO.C,C56*%
X57912500Y-71200000D03*
X57912500Y-72750000D03*
%TD*%
D11*
%TO.C,C63*%
X55887500Y-73675000D03*
X54337500Y-73675000D03*
%TD*%
D12*
%TO.C,D22*%
X80312500Y-147699748D03*
X80312500Y-148199874D03*
X80312500Y-148700000D03*
X81303100Y-148949875D03*
X81303100Y-148449874D03*
X81303100Y-147949874D03*
X81303100Y-147449873D03*
%TD*%
D10*
%TO.C,C71*%
X60312500Y-82450000D03*
X60312500Y-80900000D03*
%TD*%
%TO.C,C69*%
X58712500Y-82450000D03*
X58712500Y-80900000D03*
%TD*%
D14*
%TO.C,C55*%
X64237500Y-74475000D03*
X65787500Y-74475000D03*
%TD*%
D12*
%TO.C,D13*%
X50007800Y-36900126D03*
X50007800Y-36400000D03*
X50007800Y-35899874D03*
X49017200Y-35649999D03*
X49017200Y-36150000D03*
X49017200Y-36650000D03*
X49017200Y-37150001D03*
%TD*%
D11*
%TO.C,C78*%
X55887500Y-80075000D03*
X54337500Y-80075000D03*
%TD*%
D10*
%TO.C,C77*%
X65112500Y-82450000D03*
X65112500Y-80900000D03*
%TD*%
D11*
%TO.C,C75*%
X55887500Y-71675000D03*
X54337500Y-71675000D03*
%TD*%
%TO.C,C72*%
X55887500Y-78475000D03*
X54337500Y-78475000D03*
%TD*%
D10*
%TO.C,C76*%
X62712500Y-72750000D03*
X62712500Y-71200000D03*
%TD*%
D12*
%TO.C,D8*%
X50017200Y-162899874D03*
X50017200Y-163400000D03*
X50017200Y-163900126D03*
X51007800Y-164150001D03*
X51007800Y-163650000D03*
X51007800Y-163150000D03*
X51007800Y-162649999D03*
%TD*%
D11*
%TO.C,C61*%
X55887500Y-81675000D03*
X54337500Y-81675000D03*
%TD*%
M02*
