%TF.GenerationSoftware,KiCad,Pcbnew,8.0.2*%
%TF.CreationDate,2024-07-30T20:30:47-04:00*%
%TF.ProjectId,usbc-car-module,75736263-2d63-4617-922d-6d6f64756c65,rev?*%
%TF.SameCoordinates,Original*%
%TF.FileFunction,Legend,Bot*%
%TF.FilePolarity,Positive*%
%FSLAX46Y46*%
G04 Gerber Fmt 4.6, Leading zero omitted, Abs format (unit mm)*
G04 Created by KiCad (PCBNEW 8.0.2) date 2024-07-30 20:30:47*
%MOMM*%
%LPD*%
G01*
G04 APERTURE LIST*
%ADD10C,0.150000*%
%ADD11C,0.120000*%
%ADD12C,0.152400*%
G04 APERTURE END LIST*
D10*
X154309523Y-49774819D02*
X154309523Y-50489104D01*
X154309523Y-50489104D02*
X154357142Y-50631961D01*
X154357142Y-50631961D02*
X154452380Y-50727200D01*
X154452380Y-50727200D02*
X154595237Y-50774819D01*
X154595237Y-50774819D02*
X154690475Y-50774819D01*
X153833332Y-50774819D02*
X153833332Y-49774819D01*
X153833332Y-49774819D02*
X153452380Y-49774819D01*
X153452380Y-49774819D02*
X153357142Y-49822438D01*
X153357142Y-49822438D02*
X153309523Y-49870057D01*
X153309523Y-49870057D02*
X153261904Y-49965295D01*
X153261904Y-49965295D02*
X153261904Y-50108152D01*
X153261904Y-50108152D02*
X153309523Y-50203390D01*
X153309523Y-50203390D02*
X153357142Y-50251009D01*
X153357142Y-50251009D02*
X153452380Y-50298628D01*
X153452380Y-50298628D02*
X153833332Y-50298628D01*
X152309523Y-50774819D02*
X152880951Y-50774819D01*
X152595237Y-50774819D02*
X152595237Y-49774819D01*
X152595237Y-49774819D02*
X152690475Y-49917676D01*
X152690475Y-49917676D02*
X152785713Y-50012914D01*
X152785713Y-50012914D02*
X152880951Y-50060533D01*
X151738094Y-50203390D02*
X151833332Y-50155771D01*
X151833332Y-50155771D02*
X151880951Y-50108152D01*
X151880951Y-50108152D02*
X151928570Y-50012914D01*
X151928570Y-50012914D02*
X151928570Y-49965295D01*
X151928570Y-49965295D02*
X151880951Y-49870057D01*
X151880951Y-49870057D02*
X151833332Y-49822438D01*
X151833332Y-49822438D02*
X151738094Y-49774819D01*
X151738094Y-49774819D02*
X151547618Y-49774819D01*
X151547618Y-49774819D02*
X151452380Y-49822438D01*
X151452380Y-49822438D02*
X151404761Y-49870057D01*
X151404761Y-49870057D02*
X151357142Y-49965295D01*
X151357142Y-49965295D02*
X151357142Y-50012914D01*
X151357142Y-50012914D02*
X151404761Y-50108152D01*
X151404761Y-50108152D02*
X151452380Y-50155771D01*
X151452380Y-50155771D02*
X151547618Y-50203390D01*
X151547618Y-50203390D02*
X151738094Y-50203390D01*
X151738094Y-50203390D02*
X151833332Y-50251009D01*
X151833332Y-50251009D02*
X151880951Y-50298628D01*
X151880951Y-50298628D02*
X151928570Y-50393866D01*
X151928570Y-50393866D02*
X151928570Y-50584342D01*
X151928570Y-50584342D02*
X151880951Y-50679580D01*
X151880951Y-50679580D02*
X151833332Y-50727200D01*
X151833332Y-50727200D02*
X151738094Y-50774819D01*
X151738094Y-50774819D02*
X151547618Y-50774819D01*
X151547618Y-50774819D02*
X151452380Y-50727200D01*
X151452380Y-50727200D02*
X151404761Y-50679580D01*
X151404761Y-50679580D02*
X151357142Y-50584342D01*
X151357142Y-50584342D02*
X151357142Y-50393866D01*
X151357142Y-50393866D02*
X151404761Y-50298628D01*
X151404761Y-50298628D02*
X151452380Y-50251009D01*
X151452380Y-50251009D02*
X151547618Y-50203390D01*
X146433333Y-60054819D02*
X146433333Y-60769104D01*
X146433333Y-60769104D02*
X146480952Y-60911961D01*
X146480952Y-60911961D02*
X146576190Y-61007200D01*
X146576190Y-61007200D02*
X146719047Y-61054819D01*
X146719047Y-61054819D02*
X146814285Y-61054819D01*
X145957142Y-61054819D02*
X145957142Y-60054819D01*
X145957142Y-60054819D02*
X145576190Y-60054819D01*
X145576190Y-60054819D02*
X145480952Y-60102438D01*
X145480952Y-60102438D02*
X145433333Y-60150057D01*
X145433333Y-60150057D02*
X145385714Y-60245295D01*
X145385714Y-60245295D02*
X145385714Y-60388152D01*
X145385714Y-60388152D02*
X145433333Y-60483390D01*
X145433333Y-60483390D02*
X145480952Y-60531009D01*
X145480952Y-60531009D02*
X145576190Y-60578628D01*
X145576190Y-60578628D02*
X145957142Y-60578628D01*
X145052380Y-60054819D02*
X144433333Y-60054819D01*
X144433333Y-60054819D02*
X144766666Y-60435771D01*
X144766666Y-60435771D02*
X144623809Y-60435771D01*
X144623809Y-60435771D02*
X144528571Y-60483390D01*
X144528571Y-60483390D02*
X144480952Y-60531009D01*
X144480952Y-60531009D02*
X144433333Y-60626247D01*
X144433333Y-60626247D02*
X144433333Y-60864342D01*
X144433333Y-60864342D02*
X144480952Y-60959580D01*
X144480952Y-60959580D02*
X144528571Y-61007200D01*
X144528571Y-61007200D02*
X144623809Y-61054819D01*
X144623809Y-61054819D02*
X144909523Y-61054819D01*
X144909523Y-61054819D02*
X145004761Y-61007200D01*
X145004761Y-61007200D02*
X145052380Y-60959580D01*
X152714819Y-32906666D02*
X153429104Y-32906666D01*
X153429104Y-32906666D02*
X153571961Y-32859047D01*
X153571961Y-32859047D02*
X153667200Y-32763809D01*
X153667200Y-32763809D02*
X153714819Y-32620952D01*
X153714819Y-32620952D02*
X153714819Y-32525714D01*
X153714819Y-33382857D02*
X152714819Y-33382857D01*
X152714819Y-33382857D02*
X152714819Y-33763809D01*
X152714819Y-33763809D02*
X152762438Y-33859047D01*
X152762438Y-33859047D02*
X152810057Y-33906666D01*
X152810057Y-33906666D02*
X152905295Y-33954285D01*
X152905295Y-33954285D02*
X153048152Y-33954285D01*
X153048152Y-33954285D02*
X153143390Y-33906666D01*
X153143390Y-33906666D02*
X153191009Y-33859047D01*
X153191009Y-33859047D02*
X153238628Y-33763809D01*
X153238628Y-33763809D02*
X153238628Y-33382857D01*
X152810057Y-34335238D02*
X152762438Y-34382857D01*
X152762438Y-34382857D02*
X152714819Y-34478095D01*
X152714819Y-34478095D02*
X152714819Y-34716190D01*
X152714819Y-34716190D02*
X152762438Y-34811428D01*
X152762438Y-34811428D02*
X152810057Y-34859047D01*
X152810057Y-34859047D02*
X152905295Y-34906666D01*
X152905295Y-34906666D02*
X153000533Y-34906666D01*
X153000533Y-34906666D02*
X153143390Y-34859047D01*
X153143390Y-34859047D02*
X153714819Y-34287619D01*
X153714819Y-34287619D02*
X153714819Y-34906666D01*
X151914819Y-36625714D02*
X151914819Y-36054286D01*
X151914819Y-36340000D02*
X150914819Y-36340000D01*
X150914819Y-36340000D02*
X151057676Y-36244762D01*
X151057676Y-36244762D02*
X151152914Y-36149524D01*
X151152914Y-36149524D02*
X151200533Y-36054286D01*
X150914819Y-30806667D02*
X150914819Y-31425714D01*
X150914819Y-31425714D02*
X151295771Y-31092381D01*
X151295771Y-31092381D02*
X151295771Y-31235238D01*
X151295771Y-31235238D02*
X151343390Y-31330476D01*
X151343390Y-31330476D02*
X151391009Y-31378095D01*
X151391009Y-31378095D02*
X151486247Y-31425714D01*
X151486247Y-31425714D02*
X151724342Y-31425714D01*
X151724342Y-31425714D02*
X151819580Y-31378095D01*
X151819580Y-31378095D02*
X151867200Y-31330476D01*
X151867200Y-31330476D02*
X151914819Y-31235238D01*
X151914819Y-31235238D02*
X151914819Y-30949524D01*
X151914819Y-30949524D02*
X151867200Y-30854286D01*
X151867200Y-30854286D02*
X151819580Y-30806667D01*
X145554819Y-32936666D02*
X146269104Y-32936666D01*
X146269104Y-32936666D02*
X146411961Y-32889047D01*
X146411961Y-32889047D02*
X146507200Y-32793809D01*
X146507200Y-32793809D02*
X146554819Y-32650952D01*
X146554819Y-32650952D02*
X146554819Y-32555714D01*
X146554819Y-33412857D02*
X145554819Y-33412857D01*
X145554819Y-33412857D02*
X145554819Y-33793809D01*
X145554819Y-33793809D02*
X145602438Y-33889047D01*
X145602438Y-33889047D02*
X145650057Y-33936666D01*
X145650057Y-33936666D02*
X145745295Y-33984285D01*
X145745295Y-33984285D02*
X145888152Y-33984285D01*
X145888152Y-33984285D02*
X145983390Y-33936666D01*
X145983390Y-33936666D02*
X146031009Y-33889047D01*
X146031009Y-33889047D02*
X146078628Y-33793809D01*
X146078628Y-33793809D02*
X146078628Y-33412857D01*
X146554819Y-34936666D02*
X146554819Y-34365238D01*
X146554819Y-34650952D02*
X145554819Y-34650952D01*
X145554819Y-34650952D02*
X145697676Y-34555714D01*
X145697676Y-34555714D02*
X145792914Y-34460476D01*
X145792914Y-34460476D02*
X145840533Y-34365238D01*
X148284819Y-36655714D02*
X148284819Y-36084286D01*
X148284819Y-36370000D02*
X147284819Y-36370000D01*
X147284819Y-36370000D02*
X147427676Y-36274762D01*
X147427676Y-36274762D02*
X147522914Y-36179524D01*
X147522914Y-36179524D02*
X147570533Y-36084286D01*
X147284819Y-30836667D02*
X147284819Y-31455714D01*
X147284819Y-31455714D02*
X147665771Y-31122381D01*
X147665771Y-31122381D02*
X147665771Y-31265238D01*
X147665771Y-31265238D02*
X147713390Y-31360476D01*
X147713390Y-31360476D02*
X147761009Y-31408095D01*
X147761009Y-31408095D02*
X147856247Y-31455714D01*
X147856247Y-31455714D02*
X148094342Y-31455714D01*
X148094342Y-31455714D02*
X148189580Y-31408095D01*
X148189580Y-31408095D02*
X148237200Y-31360476D01*
X148237200Y-31360476D02*
X148284819Y-31265238D01*
X148284819Y-31265238D02*
X148284819Y-30979524D01*
X148284819Y-30979524D02*
X148237200Y-30884286D01*
X148237200Y-30884286D02*
X148189580Y-30836667D01*
X51372080Y-73632142D02*
X51419700Y-73584523D01*
X51419700Y-73584523D02*
X51467319Y-73441666D01*
X51467319Y-73441666D02*
X51467319Y-73346428D01*
X51467319Y-73346428D02*
X51419700Y-73203571D01*
X51419700Y-73203571D02*
X51324461Y-73108333D01*
X51324461Y-73108333D02*
X51229223Y-73060714D01*
X51229223Y-73060714D02*
X51038747Y-73013095D01*
X51038747Y-73013095D02*
X50895890Y-73013095D01*
X50895890Y-73013095D02*
X50705414Y-73060714D01*
X50705414Y-73060714D02*
X50610176Y-73108333D01*
X50610176Y-73108333D02*
X50514938Y-73203571D01*
X50514938Y-73203571D02*
X50467319Y-73346428D01*
X50467319Y-73346428D02*
X50467319Y-73441666D01*
X50467319Y-73441666D02*
X50514938Y-73584523D01*
X50514938Y-73584523D02*
X50562557Y-73632142D01*
X50467319Y-74536904D02*
X50467319Y-74060714D01*
X50467319Y-74060714D02*
X50943509Y-74013095D01*
X50943509Y-74013095D02*
X50895890Y-74060714D01*
X50895890Y-74060714D02*
X50848271Y-74155952D01*
X50848271Y-74155952D02*
X50848271Y-74394047D01*
X50848271Y-74394047D02*
X50895890Y-74489285D01*
X50895890Y-74489285D02*
X50943509Y-74536904D01*
X50943509Y-74536904D02*
X51038747Y-74584523D01*
X51038747Y-74584523D02*
X51276842Y-74584523D01*
X51276842Y-74584523D02*
X51372080Y-74536904D01*
X51372080Y-74536904D02*
X51419700Y-74489285D01*
X51419700Y-74489285D02*
X51467319Y-74394047D01*
X51467319Y-74394047D02*
X51467319Y-74155952D01*
X51467319Y-74155952D02*
X51419700Y-74060714D01*
X51419700Y-74060714D02*
X51372080Y-74013095D01*
X50467319Y-74917857D02*
X50467319Y-75536904D01*
X50467319Y-75536904D02*
X50848271Y-75203571D01*
X50848271Y-75203571D02*
X50848271Y-75346428D01*
X50848271Y-75346428D02*
X50895890Y-75441666D01*
X50895890Y-75441666D02*
X50943509Y-75489285D01*
X50943509Y-75489285D02*
X51038747Y-75536904D01*
X51038747Y-75536904D02*
X51276842Y-75536904D01*
X51276842Y-75536904D02*
X51372080Y-75489285D01*
X51372080Y-75489285D02*
X51419700Y-75441666D01*
X51419700Y-75441666D02*
X51467319Y-75346428D01*
X51467319Y-75346428D02*
X51467319Y-75060714D01*
X51467319Y-75060714D02*
X51419700Y-74965476D01*
X51419700Y-74965476D02*
X51372080Y-74917857D01*
X62272080Y-84032142D02*
X62319700Y-83984523D01*
X62319700Y-83984523D02*
X62367319Y-83841666D01*
X62367319Y-83841666D02*
X62367319Y-83746428D01*
X62367319Y-83746428D02*
X62319700Y-83603571D01*
X62319700Y-83603571D02*
X62224461Y-83508333D01*
X62224461Y-83508333D02*
X62129223Y-83460714D01*
X62129223Y-83460714D02*
X61938747Y-83413095D01*
X61938747Y-83413095D02*
X61795890Y-83413095D01*
X61795890Y-83413095D02*
X61605414Y-83460714D01*
X61605414Y-83460714D02*
X61510176Y-83508333D01*
X61510176Y-83508333D02*
X61414938Y-83603571D01*
X61414938Y-83603571D02*
X61367319Y-83746428D01*
X61367319Y-83746428D02*
X61367319Y-83841666D01*
X61367319Y-83841666D02*
X61414938Y-83984523D01*
X61414938Y-83984523D02*
X61462557Y-84032142D01*
X61367319Y-84889285D02*
X61367319Y-84698809D01*
X61367319Y-84698809D02*
X61414938Y-84603571D01*
X61414938Y-84603571D02*
X61462557Y-84555952D01*
X61462557Y-84555952D02*
X61605414Y-84460714D01*
X61605414Y-84460714D02*
X61795890Y-84413095D01*
X61795890Y-84413095D02*
X62176842Y-84413095D01*
X62176842Y-84413095D02*
X62272080Y-84460714D01*
X62272080Y-84460714D02*
X62319700Y-84508333D01*
X62319700Y-84508333D02*
X62367319Y-84603571D01*
X62367319Y-84603571D02*
X62367319Y-84794047D01*
X62367319Y-84794047D02*
X62319700Y-84889285D01*
X62319700Y-84889285D02*
X62272080Y-84936904D01*
X62272080Y-84936904D02*
X62176842Y-84984523D01*
X62176842Y-84984523D02*
X61938747Y-84984523D01*
X61938747Y-84984523D02*
X61843509Y-84936904D01*
X61843509Y-84936904D02*
X61795890Y-84889285D01*
X61795890Y-84889285D02*
X61748271Y-84794047D01*
X61748271Y-84794047D02*
X61748271Y-84603571D01*
X61748271Y-84603571D02*
X61795890Y-84508333D01*
X61795890Y-84508333D02*
X61843509Y-84460714D01*
X61843509Y-84460714D02*
X61938747Y-84413095D01*
X61367319Y-85603571D02*
X61367319Y-85698809D01*
X61367319Y-85698809D02*
X61414938Y-85794047D01*
X61414938Y-85794047D02*
X61462557Y-85841666D01*
X61462557Y-85841666D02*
X61557795Y-85889285D01*
X61557795Y-85889285D02*
X61748271Y-85936904D01*
X61748271Y-85936904D02*
X61986366Y-85936904D01*
X61986366Y-85936904D02*
X62176842Y-85889285D01*
X62176842Y-85889285D02*
X62272080Y-85841666D01*
X62272080Y-85841666D02*
X62319700Y-85794047D01*
X62319700Y-85794047D02*
X62367319Y-85698809D01*
X62367319Y-85698809D02*
X62367319Y-85603571D01*
X62367319Y-85603571D02*
X62319700Y-85508333D01*
X62319700Y-85508333D02*
X62272080Y-85460714D01*
X62272080Y-85460714D02*
X62176842Y-85413095D01*
X62176842Y-85413095D02*
X61986366Y-85365476D01*
X61986366Y-85365476D02*
X61748271Y-85365476D01*
X61748271Y-85365476D02*
X61557795Y-85413095D01*
X61557795Y-85413095D02*
X61462557Y-85460714D01*
X61462557Y-85460714D02*
X61414938Y-85508333D01*
X61414938Y-85508333D02*
X61367319Y-85603571D01*
X68542857Y-73134580D02*
X68590476Y-73182200D01*
X68590476Y-73182200D02*
X68733333Y-73229819D01*
X68733333Y-73229819D02*
X68828571Y-73229819D01*
X68828571Y-73229819D02*
X68971428Y-73182200D01*
X68971428Y-73182200D02*
X69066666Y-73086961D01*
X69066666Y-73086961D02*
X69114285Y-72991723D01*
X69114285Y-72991723D02*
X69161904Y-72801247D01*
X69161904Y-72801247D02*
X69161904Y-72658390D01*
X69161904Y-72658390D02*
X69114285Y-72467914D01*
X69114285Y-72467914D02*
X69066666Y-72372676D01*
X69066666Y-72372676D02*
X68971428Y-72277438D01*
X68971428Y-72277438D02*
X68828571Y-72229819D01*
X68828571Y-72229819D02*
X68733333Y-72229819D01*
X68733333Y-72229819D02*
X68590476Y-72277438D01*
X68590476Y-72277438D02*
X68542857Y-72325057D01*
X67685714Y-72229819D02*
X67876190Y-72229819D01*
X67876190Y-72229819D02*
X67971428Y-72277438D01*
X67971428Y-72277438D02*
X68019047Y-72325057D01*
X68019047Y-72325057D02*
X68114285Y-72467914D01*
X68114285Y-72467914D02*
X68161904Y-72658390D01*
X68161904Y-72658390D02*
X68161904Y-73039342D01*
X68161904Y-73039342D02*
X68114285Y-73134580D01*
X68114285Y-73134580D02*
X68066666Y-73182200D01*
X68066666Y-73182200D02*
X67971428Y-73229819D01*
X67971428Y-73229819D02*
X67780952Y-73229819D01*
X67780952Y-73229819D02*
X67685714Y-73182200D01*
X67685714Y-73182200D02*
X67638095Y-73134580D01*
X67638095Y-73134580D02*
X67590476Y-73039342D01*
X67590476Y-73039342D02*
X67590476Y-72801247D01*
X67590476Y-72801247D02*
X67638095Y-72706009D01*
X67638095Y-72706009D02*
X67685714Y-72658390D01*
X67685714Y-72658390D02*
X67780952Y-72610771D01*
X67780952Y-72610771D02*
X67971428Y-72610771D01*
X67971428Y-72610771D02*
X68066666Y-72658390D01*
X68066666Y-72658390D02*
X68114285Y-72706009D01*
X68114285Y-72706009D02*
X68161904Y-72801247D01*
X67209523Y-72325057D02*
X67161904Y-72277438D01*
X67161904Y-72277438D02*
X67066666Y-72229819D01*
X67066666Y-72229819D02*
X66828571Y-72229819D01*
X66828571Y-72229819D02*
X66733333Y-72277438D01*
X66733333Y-72277438D02*
X66685714Y-72325057D01*
X66685714Y-72325057D02*
X66638095Y-72420295D01*
X66638095Y-72420295D02*
X66638095Y-72515533D01*
X66638095Y-72515533D02*
X66685714Y-72658390D01*
X66685714Y-72658390D02*
X67257142Y-73229819D01*
X67257142Y-73229819D02*
X66638095Y-73229819D01*
X65224819Y-64721905D02*
X65224819Y-65293333D01*
X66224819Y-65007619D02*
X65224819Y-65007619D01*
X66224819Y-65626667D02*
X65224819Y-65626667D01*
X65224819Y-65626667D02*
X65224819Y-66007619D01*
X65224819Y-66007619D02*
X65272438Y-66102857D01*
X65272438Y-66102857D02*
X65320057Y-66150476D01*
X65320057Y-66150476D02*
X65415295Y-66198095D01*
X65415295Y-66198095D02*
X65558152Y-66198095D01*
X65558152Y-66198095D02*
X65653390Y-66150476D01*
X65653390Y-66150476D02*
X65701009Y-66102857D01*
X65701009Y-66102857D02*
X65748628Y-66007619D01*
X65748628Y-66007619D02*
X65748628Y-65626667D01*
X66224819Y-67150476D02*
X66224819Y-66579048D01*
X66224819Y-66864762D02*
X65224819Y-66864762D01*
X65224819Y-66864762D02*
X65367676Y-66769524D01*
X65367676Y-66769524D02*
X65462914Y-66674286D01*
X65462914Y-66674286D02*
X65510533Y-66579048D01*
X65224819Y-68007619D02*
X65224819Y-67817143D01*
X65224819Y-67817143D02*
X65272438Y-67721905D01*
X65272438Y-67721905D02*
X65320057Y-67674286D01*
X65320057Y-67674286D02*
X65462914Y-67579048D01*
X65462914Y-67579048D02*
X65653390Y-67531429D01*
X65653390Y-67531429D02*
X66034342Y-67531429D01*
X66034342Y-67531429D02*
X66129580Y-67579048D01*
X66129580Y-67579048D02*
X66177200Y-67626667D01*
X66177200Y-67626667D02*
X66224819Y-67721905D01*
X66224819Y-67721905D02*
X66224819Y-67912381D01*
X66224819Y-67912381D02*
X66177200Y-68007619D01*
X66177200Y-68007619D02*
X66129580Y-68055238D01*
X66129580Y-68055238D02*
X66034342Y-68102857D01*
X66034342Y-68102857D02*
X65796247Y-68102857D01*
X65796247Y-68102857D02*
X65701009Y-68055238D01*
X65701009Y-68055238D02*
X65653390Y-68007619D01*
X65653390Y-68007619D02*
X65605771Y-67912381D01*
X65605771Y-67912381D02*
X65605771Y-67721905D01*
X65605771Y-67721905D02*
X65653390Y-67626667D01*
X65653390Y-67626667D02*
X65701009Y-67579048D01*
X65701009Y-67579048D02*
X65796247Y-67531429D01*
X68542857Y-71534580D02*
X68590476Y-71582200D01*
X68590476Y-71582200D02*
X68733333Y-71629819D01*
X68733333Y-71629819D02*
X68828571Y-71629819D01*
X68828571Y-71629819D02*
X68971428Y-71582200D01*
X68971428Y-71582200D02*
X69066666Y-71486961D01*
X69066666Y-71486961D02*
X69114285Y-71391723D01*
X69114285Y-71391723D02*
X69161904Y-71201247D01*
X69161904Y-71201247D02*
X69161904Y-71058390D01*
X69161904Y-71058390D02*
X69114285Y-70867914D01*
X69114285Y-70867914D02*
X69066666Y-70772676D01*
X69066666Y-70772676D02*
X68971428Y-70677438D01*
X68971428Y-70677438D02*
X68828571Y-70629819D01*
X68828571Y-70629819D02*
X68733333Y-70629819D01*
X68733333Y-70629819D02*
X68590476Y-70677438D01*
X68590476Y-70677438D02*
X68542857Y-70725057D01*
X67638095Y-70629819D02*
X68114285Y-70629819D01*
X68114285Y-70629819D02*
X68161904Y-71106009D01*
X68161904Y-71106009D02*
X68114285Y-71058390D01*
X68114285Y-71058390D02*
X68019047Y-71010771D01*
X68019047Y-71010771D02*
X67780952Y-71010771D01*
X67780952Y-71010771D02*
X67685714Y-71058390D01*
X67685714Y-71058390D02*
X67638095Y-71106009D01*
X67638095Y-71106009D02*
X67590476Y-71201247D01*
X67590476Y-71201247D02*
X67590476Y-71439342D01*
X67590476Y-71439342D02*
X67638095Y-71534580D01*
X67638095Y-71534580D02*
X67685714Y-71582200D01*
X67685714Y-71582200D02*
X67780952Y-71629819D01*
X67780952Y-71629819D02*
X68019047Y-71629819D01*
X68019047Y-71629819D02*
X68114285Y-71582200D01*
X68114285Y-71582200D02*
X68161904Y-71534580D01*
X66733333Y-70963152D02*
X66733333Y-71629819D01*
X66971428Y-70582200D02*
X67209523Y-71296485D01*
X67209523Y-71296485D02*
X66590476Y-71296485D01*
X63144819Y-64621905D02*
X63144819Y-65193333D01*
X64144819Y-64907619D02*
X63144819Y-64907619D01*
X64144819Y-65526667D02*
X63144819Y-65526667D01*
X63144819Y-65526667D02*
X63144819Y-65907619D01*
X63144819Y-65907619D02*
X63192438Y-66002857D01*
X63192438Y-66002857D02*
X63240057Y-66050476D01*
X63240057Y-66050476D02*
X63335295Y-66098095D01*
X63335295Y-66098095D02*
X63478152Y-66098095D01*
X63478152Y-66098095D02*
X63573390Y-66050476D01*
X63573390Y-66050476D02*
X63621009Y-66002857D01*
X63621009Y-66002857D02*
X63668628Y-65907619D01*
X63668628Y-65907619D02*
X63668628Y-65526667D01*
X63240057Y-66479048D02*
X63192438Y-66526667D01*
X63192438Y-66526667D02*
X63144819Y-66621905D01*
X63144819Y-66621905D02*
X63144819Y-66860000D01*
X63144819Y-66860000D02*
X63192438Y-66955238D01*
X63192438Y-66955238D02*
X63240057Y-67002857D01*
X63240057Y-67002857D02*
X63335295Y-67050476D01*
X63335295Y-67050476D02*
X63430533Y-67050476D01*
X63430533Y-67050476D02*
X63573390Y-67002857D01*
X63573390Y-67002857D02*
X64144819Y-66431429D01*
X64144819Y-66431429D02*
X64144819Y-67050476D01*
X63144819Y-67955238D02*
X63144819Y-67479048D01*
X63144819Y-67479048D02*
X63621009Y-67431429D01*
X63621009Y-67431429D02*
X63573390Y-67479048D01*
X63573390Y-67479048D02*
X63525771Y-67574286D01*
X63525771Y-67574286D02*
X63525771Y-67812381D01*
X63525771Y-67812381D02*
X63573390Y-67907619D01*
X63573390Y-67907619D02*
X63621009Y-67955238D01*
X63621009Y-67955238D02*
X63716247Y-68002857D01*
X63716247Y-68002857D02*
X63954342Y-68002857D01*
X63954342Y-68002857D02*
X64049580Y-67955238D01*
X64049580Y-67955238D02*
X64097200Y-67907619D01*
X64097200Y-67907619D02*
X64144819Y-67812381D01*
X64144819Y-67812381D02*
X64144819Y-67574286D01*
X64144819Y-67574286D02*
X64097200Y-67479048D01*
X64097200Y-67479048D02*
X64049580Y-67431429D01*
X148384819Y-150641905D02*
X148384819Y-151213333D01*
X149384819Y-150927619D02*
X148384819Y-150927619D01*
X149384819Y-151546667D02*
X148384819Y-151546667D01*
X148384819Y-151546667D02*
X148384819Y-151927619D01*
X148384819Y-151927619D02*
X148432438Y-152022857D01*
X148432438Y-152022857D02*
X148480057Y-152070476D01*
X148480057Y-152070476D02*
X148575295Y-152118095D01*
X148575295Y-152118095D02*
X148718152Y-152118095D01*
X148718152Y-152118095D02*
X148813390Y-152070476D01*
X148813390Y-152070476D02*
X148861009Y-152022857D01*
X148861009Y-152022857D02*
X148908628Y-151927619D01*
X148908628Y-151927619D02*
X148908628Y-151546667D01*
X148384819Y-152451429D02*
X148384819Y-153070476D01*
X148384819Y-153070476D02*
X148765771Y-152737143D01*
X148765771Y-152737143D02*
X148765771Y-152880000D01*
X148765771Y-152880000D02*
X148813390Y-152975238D01*
X148813390Y-152975238D02*
X148861009Y-153022857D01*
X148861009Y-153022857D02*
X148956247Y-153070476D01*
X148956247Y-153070476D02*
X149194342Y-153070476D01*
X149194342Y-153070476D02*
X149289580Y-153022857D01*
X149289580Y-153022857D02*
X149337200Y-152975238D01*
X149337200Y-152975238D02*
X149384819Y-152880000D01*
X149384819Y-152880000D02*
X149384819Y-152594286D01*
X149384819Y-152594286D02*
X149337200Y-152499048D01*
X149337200Y-152499048D02*
X149289580Y-152451429D01*
X149384819Y-154022857D02*
X149384819Y-153451429D01*
X149384819Y-153737143D02*
X148384819Y-153737143D01*
X148384819Y-153737143D02*
X148527676Y-153641905D01*
X148527676Y-153641905D02*
X148622914Y-153546667D01*
X148622914Y-153546667D02*
X148670533Y-153451429D01*
X70726785Y-38854819D02*
X70726785Y-37854819D01*
X70726785Y-37854819D02*
X70488690Y-37854819D01*
X70488690Y-37854819D02*
X70345833Y-37902438D01*
X70345833Y-37902438D02*
X70250595Y-37997676D01*
X70250595Y-37997676D02*
X70202976Y-38092914D01*
X70202976Y-38092914D02*
X70155357Y-38283390D01*
X70155357Y-38283390D02*
X70155357Y-38426247D01*
X70155357Y-38426247D02*
X70202976Y-38616723D01*
X70202976Y-38616723D02*
X70250595Y-38711961D01*
X70250595Y-38711961D02*
X70345833Y-38807200D01*
X70345833Y-38807200D02*
X70488690Y-38854819D01*
X70488690Y-38854819D02*
X70726785Y-38854819D01*
X69822023Y-37854819D02*
X69202976Y-37854819D01*
X69202976Y-37854819D02*
X69536309Y-38235771D01*
X69536309Y-38235771D02*
X69393452Y-38235771D01*
X69393452Y-38235771D02*
X69298214Y-38283390D01*
X69298214Y-38283390D02*
X69250595Y-38331009D01*
X69250595Y-38331009D02*
X69202976Y-38426247D01*
X69202976Y-38426247D02*
X69202976Y-38664342D01*
X69202976Y-38664342D02*
X69250595Y-38759580D01*
X69250595Y-38759580D02*
X69298214Y-38807200D01*
X69298214Y-38807200D02*
X69393452Y-38854819D01*
X69393452Y-38854819D02*
X69679166Y-38854819D01*
X69679166Y-38854819D02*
X69774404Y-38807200D01*
X69774404Y-38807200D02*
X69822023Y-38759580D01*
X68298214Y-37854819D02*
X68774404Y-37854819D01*
X68774404Y-37854819D02*
X68822023Y-38331009D01*
X68822023Y-38331009D02*
X68774404Y-38283390D01*
X68774404Y-38283390D02*
X68679166Y-38235771D01*
X68679166Y-38235771D02*
X68441071Y-38235771D01*
X68441071Y-38235771D02*
X68345833Y-38283390D01*
X68345833Y-38283390D02*
X68298214Y-38331009D01*
X68298214Y-38331009D02*
X68250595Y-38426247D01*
X68250595Y-38426247D02*
X68250595Y-38664342D01*
X68250595Y-38664342D02*
X68298214Y-38759580D01*
X68298214Y-38759580D02*
X68345833Y-38807200D01*
X68345833Y-38807200D02*
X68441071Y-38854819D01*
X68441071Y-38854819D02*
X68679166Y-38854819D01*
X68679166Y-38854819D02*
X68774404Y-38807200D01*
X68774404Y-38807200D02*
X68822023Y-38759580D01*
X52730357Y-70434580D02*
X52777976Y-70482200D01*
X52777976Y-70482200D02*
X52920833Y-70529819D01*
X52920833Y-70529819D02*
X53016071Y-70529819D01*
X53016071Y-70529819D02*
X53158928Y-70482200D01*
X53158928Y-70482200D02*
X53254166Y-70386961D01*
X53254166Y-70386961D02*
X53301785Y-70291723D01*
X53301785Y-70291723D02*
X53349404Y-70101247D01*
X53349404Y-70101247D02*
X53349404Y-69958390D01*
X53349404Y-69958390D02*
X53301785Y-69767914D01*
X53301785Y-69767914D02*
X53254166Y-69672676D01*
X53254166Y-69672676D02*
X53158928Y-69577438D01*
X53158928Y-69577438D02*
X53016071Y-69529819D01*
X53016071Y-69529819D02*
X52920833Y-69529819D01*
X52920833Y-69529819D02*
X52777976Y-69577438D01*
X52777976Y-69577438D02*
X52730357Y-69625057D01*
X52397023Y-69529819D02*
X51730357Y-69529819D01*
X51730357Y-69529819D02*
X52158928Y-70529819D01*
X51444642Y-69529819D02*
X50825595Y-69529819D01*
X50825595Y-69529819D02*
X51158928Y-69910771D01*
X51158928Y-69910771D02*
X51016071Y-69910771D01*
X51016071Y-69910771D02*
X50920833Y-69958390D01*
X50920833Y-69958390D02*
X50873214Y-70006009D01*
X50873214Y-70006009D02*
X50825595Y-70101247D01*
X50825595Y-70101247D02*
X50825595Y-70339342D01*
X50825595Y-70339342D02*
X50873214Y-70434580D01*
X50873214Y-70434580D02*
X50920833Y-70482200D01*
X50920833Y-70482200D02*
X51016071Y-70529819D01*
X51016071Y-70529819D02*
X51301785Y-70529819D01*
X51301785Y-70529819D02*
X51397023Y-70482200D01*
X51397023Y-70482200D02*
X51444642Y-70434580D01*
X70726785Y-161854819D02*
X70726785Y-160854819D01*
X70726785Y-160854819D02*
X70488690Y-160854819D01*
X70488690Y-160854819D02*
X70345833Y-160902438D01*
X70345833Y-160902438D02*
X70250595Y-160997676D01*
X70250595Y-160997676D02*
X70202976Y-161092914D01*
X70202976Y-161092914D02*
X70155357Y-161283390D01*
X70155357Y-161283390D02*
X70155357Y-161426247D01*
X70155357Y-161426247D02*
X70202976Y-161616723D01*
X70202976Y-161616723D02*
X70250595Y-161711961D01*
X70250595Y-161711961D02*
X70345833Y-161807200D01*
X70345833Y-161807200D02*
X70488690Y-161854819D01*
X70488690Y-161854819D02*
X70726785Y-161854819D01*
X69202976Y-161854819D02*
X69774404Y-161854819D01*
X69488690Y-161854819D02*
X69488690Y-160854819D01*
X69488690Y-160854819D02*
X69583928Y-160997676D01*
X69583928Y-160997676D02*
X69679166Y-161092914D01*
X69679166Y-161092914D02*
X69774404Y-161140533D01*
X68345833Y-161188152D02*
X68345833Y-161854819D01*
X68583928Y-160807200D02*
X68822023Y-161521485D01*
X68822023Y-161521485D02*
X68202976Y-161521485D01*
X144214819Y-150511905D02*
X144214819Y-151083333D01*
X145214819Y-150797619D02*
X144214819Y-150797619D01*
X145214819Y-151416667D02*
X144214819Y-151416667D01*
X144214819Y-151416667D02*
X144214819Y-151797619D01*
X144214819Y-151797619D02*
X144262438Y-151892857D01*
X144262438Y-151892857D02*
X144310057Y-151940476D01*
X144310057Y-151940476D02*
X144405295Y-151988095D01*
X144405295Y-151988095D02*
X144548152Y-151988095D01*
X144548152Y-151988095D02*
X144643390Y-151940476D01*
X144643390Y-151940476D02*
X144691009Y-151892857D01*
X144691009Y-151892857D02*
X144738628Y-151797619D01*
X144738628Y-151797619D02*
X144738628Y-151416667D01*
X144214819Y-152321429D02*
X144214819Y-152940476D01*
X144214819Y-152940476D02*
X144595771Y-152607143D01*
X144595771Y-152607143D02*
X144595771Y-152750000D01*
X144595771Y-152750000D02*
X144643390Y-152845238D01*
X144643390Y-152845238D02*
X144691009Y-152892857D01*
X144691009Y-152892857D02*
X144786247Y-152940476D01*
X144786247Y-152940476D02*
X145024342Y-152940476D01*
X145024342Y-152940476D02*
X145119580Y-152892857D01*
X145119580Y-152892857D02*
X145167200Y-152845238D01*
X145167200Y-152845238D02*
X145214819Y-152750000D01*
X145214819Y-152750000D02*
X145214819Y-152464286D01*
X145214819Y-152464286D02*
X145167200Y-152369048D01*
X145167200Y-152369048D02*
X145119580Y-152321429D01*
X144214819Y-153273810D02*
X144214819Y-153892857D01*
X144214819Y-153892857D02*
X144595771Y-153559524D01*
X144595771Y-153559524D02*
X144595771Y-153702381D01*
X144595771Y-153702381D02*
X144643390Y-153797619D01*
X144643390Y-153797619D02*
X144691009Y-153845238D01*
X144691009Y-153845238D02*
X144786247Y-153892857D01*
X144786247Y-153892857D02*
X145024342Y-153892857D01*
X145024342Y-153892857D02*
X145119580Y-153845238D01*
X145119580Y-153845238D02*
X145167200Y-153797619D01*
X145167200Y-153797619D02*
X145214819Y-153702381D01*
X145214819Y-153702381D02*
X145214819Y-153416667D01*
X145214819Y-153416667D02*
X145167200Y-153321429D01*
X145167200Y-153321429D02*
X145119580Y-153273810D01*
X52755357Y-77234580D02*
X52802976Y-77282200D01*
X52802976Y-77282200D02*
X52945833Y-77329819D01*
X52945833Y-77329819D02*
X53041071Y-77329819D01*
X53041071Y-77329819D02*
X53183928Y-77282200D01*
X53183928Y-77282200D02*
X53279166Y-77186961D01*
X53279166Y-77186961D02*
X53326785Y-77091723D01*
X53326785Y-77091723D02*
X53374404Y-76901247D01*
X53374404Y-76901247D02*
X53374404Y-76758390D01*
X53374404Y-76758390D02*
X53326785Y-76567914D01*
X53326785Y-76567914D02*
X53279166Y-76472676D01*
X53279166Y-76472676D02*
X53183928Y-76377438D01*
X53183928Y-76377438D02*
X53041071Y-76329819D01*
X53041071Y-76329819D02*
X52945833Y-76329819D01*
X52945833Y-76329819D02*
X52802976Y-76377438D01*
X52802976Y-76377438D02*
X52755357Y-76425057D01*
X51898214Y-76329819D02*
X52088690Y-76329819D01*
X52088690Y-76329819D02*
X52183928Y-76377438D01*
X52183928Y-76377438D02*
X52231547Y-76425057D01*
X52231547Y-76425057D02*
X52326785Y-76567914D01*
X52326785Y-76567914D02*
X52374404Y-76758390D01*
X52374404Y-76758390D02*
X52374404Y-77139342D01*
X52374404Y-77139342D02*
X52326785Y-77234580D01*
X52326785Y-77234580D02*
X52279166Y-77282200D01*
X52279166Y-77282200D02*
X52183928Y-77329819D01*
X52183928Y-77329819D02*
X51993452Y-77329819D01*
X51993452Y-77329819D02*
X51898214Y-77282200D01*
X51898214Y-77282200D02*
X51850595Y-77234580D01*
X51850595Y-77234580D02*
X51802976Y-77139342D01*
X51802976Y-77139342D02*
X51802976Y-76901247D01*
X51802976Y-76901247D02*
X51850595Y-76806009D01*
X51850595Y-76806009D02*
X51898214Y-76758390D01*
X51898214Y-76758390D02*
X51993452Y-76710771D01*
X51993452Y-76710771D02*
X52183928Y-76710771D01*
X52183928Y-76710771D02*
X52279166Y-76758390D01*
X52279166Y-76758390D02*
X52326785Y-76806009D01*
X52326785Y-76806009D02*
X52374404Y-76901247D01*
X50945833Y-76329819D02*
X51136309Y-76329819D01*
X51136309Y-76329819D02*
X51231547Y-76377438D01*
X51231547Y-76377438D02*
X51279166Y-76425057D01*
X51279166Y-76425057D02*
X51374404Y-76567914D01*
X51374404Y-76567914D02*
X51422023Y-76758390D01*
X51422023Y-76758390D02*
X51422023Y-77139342D01*
X51422023Y-77139342D02*
X51374404Y-77234580D01*
X51374404Y-77234580D02*
X51326785Y-77282200D01*
X51326785Y-77282200D02*
X51231547Y-77329819D01*
X51231547Y-77329819D02*
X51041071Y-77329819D01*
X51041071Y-77329819D02*
X50945833Y-77282200D01*
X50945833Y-77282200D02*
X50898214Y-77234580D01*
X50898214Y-77234580D02*
X50850595Y-77139342D01*
X50850595Y-77139342D02*
X50850595Y-76901247D01*
X50850595Y-76901247D02*
X50898214Y-76806009D01*
X50898214Y-76806009D02*
X50945833Y-76758390D01*
X50945833Y-76758390D02*
X51041071Y-76710771D01*
X51041071Y-76710771D02*
X51231547Y-76710771D01*
X51231547Y-76710771D02*
X51326785Y-76758390D01*
X51326785Y-76758390D02*
X51374404Y-76806009D01*
X51374404Y-76806009D02*
X51422023Y-76901247D01*
X126238094Y-61806819D02*
X125666666Y-61806819D01*
X125952380Y-62806819D02*
X125952380Y-61806819D01*
X125333332Y-62806819D02*
X125333332Y-61806819D01*
X125333332Y-61806819D02*
X124952380Y-61806819D01*
X124952380Y-61806819D02*
X124857142Y-61854438D01*
X124857142Y-61854438D02*
X124809523Y-61902057D01*
X124809523Y-61902057D02*
X124761904Y-61997295D01*
X124761904Y-61997295D02*
X124761904Y-62140152D01*
X124761904Y-62140152D02*
X124809523Y-62235390D01*
X124809523Y-62235390D02*
X124857142Y-62283009D01*
X124857142Y-62283009D02*
X124952380Y-62330628D01*
X124952380Y-62330628D02*
X125333332Y-62330628D01*
X123809523Y-62806819D02*
X124380951Y-62806819D01*
X124095237Y-62806819D02*
X124095237Y-61806819D01*
X124095237Y-61806819D02*
X124190475Y-61949676D01*
X124190475Y-61949676D02*
X124285713Y-62044914D01*
X124285713Y-62044914D02*
X124380951Y-62092533D01*
X123428570Y-61902057D02*
X123380951Y-61854438D01*
X123380951Y-61854438D02*
X123285713Y-61806819D01*
X123285713Y-61806819D02*
X123047618Y-61806819D01*
X123047618Y-61806819D02*
X122952380Y-61854438D01*
X122952380Y-61854438D02*
X122904761Y-61902057D01*
X122904761Y-61902057D02*
X122857142Y-61997295D01*
X122857142Y-61997295D02*
X122857142Y-62092533D01*
X122857142Y-62092533D02*
X122904761Y-62235390D01*
X122904761Y-62235390D02*
X123476189Y-62806819D01*
X123476189Y-62806819D02*
X122857142Y-62806819D01*
X78333333Y-75229819D02*
X78333333Y-75944104D01*
X78333333Y-75944104D02*
X78380952Y-76086961D01*
X78380952Y-76086961D02*
X78476190Y-76182200D01*
X78476190Y-76182200D02*
X78619047Y-76229819D01*
X78619047Y-76229819D02*
X78714285Y-76229819D01*
X77857142Y-76229819D02*
X77857142Y-75229819D01*
X77857142Y-75229819D02*
X77476190Y-75229819D01*
X77476190Y-75229819D02*
X77380952Y-75277438D01*
X77380952Y-75277438D02*
X77333333Y-75325057D01*
X77333333Y-75325057D02*
X77285714Y-75420295D01*
X77285714Y-75420295D02*
X77285714Y-75563152D01*
X77285714Y-75563152D02*
X77333333Y-75658390D01*
X77333333Y-75658390D02*
X77380952Y-75706009D01*
X77380952Y-75706009D02*
X77476190Y-75753628D01*
X77476190Y-75753628D02*
X77857142Y-75753628D01*
X76714285Y-75658390D02*
X76809523Y-75610771D01*
X76809523Y-75610771D02*
X76857142Y-75563152D01*
X76857142Y-75563152D02*
X76904761Y-75467914D01*
X76904761Y-75467914D02*
X76904761Y-75420295D01*
X76904761Y-75420295D02*
X76857142Y-75325057D01*
X76857142Y-75325057D02*
X76809523Y-75277438D01*
X76809523Y-75277438D02*
X76714285Y-75229819D01*
X76714285Y-75229819D02*
X76523809Y-75229819D01*
X76523809Y-75229819D02*
X76428571Y-75277438D01*
X76428571Y-75277438D02*
X76380952Y-75325057D01*
X76380952Y-75325057D02*
X76333333Y-75420295D01*
X76333333Y-75420295D02*
X76333333Y-75467914D01*
X76333333Y-75467914D02*
X76380952Y-75563152D01*
X76380952Y-75563152D02*
X76428571Y-75610771D01*
X76428571Y-75610771D02*
X76523809Y-75658390D01*
X76523809Y-75658390D02*
X76714285Y-75658390D01*
X76714285Y-75658390D02*
X76809523Y-75706009D01*
X76809523Y-75706009D02*
X76857142Y-75753628D01*
X76857142Y-75753628D02*
X76904761Y-75848866D01*
X76904761Y-75848866D02*
X76904761Y-76039342D01*
X76904761Y-76039342D02*
X76857142Y-76134580D01*
X76857142Y-76134580D02*
X76809523Y-76182200D01*
X76809523Y-76182200D02*
X76714285Y-76229819D01*
X76714285Y-76229819D02*
X76523809Y-76229819D01*
X76523809Y-76229819D02*
X76428571Y-76182200D01*
X76428571Y-76182200D02*
X76380952Y-76134580D01*
X76380952Y-76134580D02*
X76333333Y-76039342D01*
X76333333Y-76039342D02*
X76333333Y-75848866D01*
X76333333Y-75848866D02*
X76380952Y-75753628D01*
X76380952Y-75753628D02*
X76428571Y-75706009D01*
X76428571Y-75706009D02*
X76523809Y-75658390D01*
X69660118Y-75229819D02*
X69564880Y-75229819D01*
X69564880Y-75229819D02*
X69469642Y-75277438D01*
X69469642Y-75277438D02*
X69422023Y-75325057D01*
X69422023Y-75325057D02*
X69374404Y-75420295D01*
X69374404Y-75420295D02*
X69326785Y-75610771D01*
X69326785Y-75610771D02*
X69326785Y-75848866D01*
X69326785Y-75848866D02*
X69374404Y-76039342D01*
X69374404Y-76039342D02*
X69422023Y-76134580D01*
X69422023Y-76134580D02*
X69469642Y-76182200D01*
X69469642Y-76182200D02*
X69564880Y-76229819D01*
X69564880Y-76229819D02*
X69660118Y-76229819D01*
X69660118Y-76229819D02*
X69755356Y-76182200D01*
X69755356Y-76182200D02*
X69802975Y-76134580D01*
X69802975Y-76134580D02*
X69850594Y-76039342D01*
X69850594Y-76039342D02*
X69898213Y-75848866D01*
X69898213Y-75848866D02*
X69898213Y-75610771D01*
X69898213Y-75610771D02*
X69850594Y-75420295D01*
X69850594Y-75420295D02*
X69802975Y-75325057D01*
X69802975Y-75325057D02*
X69755356Y-75277438D01*
X69755356Y-75277438D02*
X69660118Y-75229819D01*
X74526785Y-76229819D02*
X75098213Y-76229819D01*
X74812499Y-76229819D02*
X74812499Y-75229819D01*
X74812499Y-75229819D02*
X74907737Y-75372676D01*
X74907737Y-75372676D02*
X75002975Y-75467914D01*
X75002975Y-75467914D02*
X75098213Y-75515533D01*
X91014819Y-54908095D02*
X91014819Y-55479523D01*
X92014819Y-55193809D02*
X91014819Y-55193809D01*
X92014819Y-55812857D02*
X91014819Y-55812857D01*
X91014819Y-55812857D02*
X91014819Y-56193809D01*
X91014819Y-56193809D02*
X91062438Y-56289047D01*
X91062438Y-56289047D02*
X91110057Y-56336666D01*
X91110057Y-56336666D02*
X91205295Y-56384285D01*
X91205295Y-56384285D02*
X91348152Y-56384285D01*
X91348152Y-56384285D02*
X91443390Y-56336666D01*
X91443390Y-56336666D02*
X91491009Y-56289047D01*
X91491009Y-56289047D02*
X91538628Y-56193809D01*
X91538628Y-56193809D02*
X91538628Y-55812857D01*
X91348152Y-57241428D02*
X92014819Y-57241428D01*
X90967200Y-57003333D02*
X91681485Y-56765238D01*
X91681485Y-56765238D02*
X91681485Y-57384285D01*
X63872080Y-84032142D02*
X63919700Y-83984523D01*
X63919700Y-83984523D02*
X63967319Y-83841666D01*
X63967319Y-83841666D02*
X63967319Y-83746428D01*
X63967319Y-83746428D02*
X63919700Y-83603571D01*
X63919700Y-83603571D02*
X63824461Y-83508333D01*
X63824461Y-83508333D02*
X63729223Y-83460714D01*
X63729223Y-83460714D02*
X63538747Y-83413095D01*
X63538747Y-83413095D02*
X63395890Y-83413095D01*
X63395890Y-83413095D02*
X63205414Y-83460714D01*
X63205414Y-83460714D02*
X63110176Y-83508333D01*
X63110176Y-83508333D02*
X63014938Y-83603571D01*
X63014938Y-83603571D02*
X62967319Y-83746428D01*
X62967319Y-83746428D02*
X62967319Y-83841666D01*
X62967319Y-83841666D02*
X63014938Y-83984523D01*
X63014938Y-83984523D02*
X63062557Y-84032142D01*
X62967319Y-84889285D02*
X62967319Y-84698809D01*
X62967319Y-84698809D02*
X63014938Y-84603571D01*
X63014938Y-84603571D02*
X63062557Y-84555952D01*
X63062557Y-84555952D02*
X63205414Y-84460714D01*
X63205414Y-84460714D02*
X63395890Y-84413095D01*
X63395890Y-84413095D02*
X63776842Y-84413095D01*
X63776842Y-84413095D02*
X63872080Y-84460714D01*
X63872080Y-84460714D02*
X63919700Y-84508333D01*
X63919700Y-84508333D02*
X63967319Y-84603571D01*
X63967319Y-84603571D02*
X63967319Y-84794047D01*
X63967319Y-84794047D02*
X63919700Y-84889285D01*
X63919700Y-84889285D02*
X63872080Y-84936904D01*
X63872080Y-84936904D02*
X63776842Y-84984523D01*
X63776842Y-84984523D02*
X63538747Y-84984523D01*
X63538747Y-84984523D02*
X63443509Y-84936904D01*
X63443509Y-84936904D02*
X63395890Y-84889285D01*
X63395890Y-84889285D02*
X63348271Y-84794047D01*
X63348271Y-84794047D02*
X63348271Y-84603571D01*
X63348271Y-84603571D02*
X63395890Y-84508333D01*
X63395890Y-84508333D02*
X63443509Y-84460714D01*
X63443509Y-84460714D02*
X63538747Y-84413095D01*
X63395890Y-85555952D02*
X63348271Y-85460714D01*
X63348271Y-85460714D02*
X63300652Y-85413095D01*
X63300652Y-85413095D02*
X63205414Y-85365476D01*
X63205414Y-85365476D02*
X63157795Y-85365476D01*
X63157795Y-85365476D02*
X63062557Y-85413095D01*
X63062557Y-85413095D02*
X63014938Y-85460714D01*
X63014938Y-85460714D02*
X62967319Y-85555952D01*
X62967319Y-85555952D02*
X62967319Y-85746428D01*
X62967319Y-85746428D02*
X63014938Y-85841666D01*
X63014938Y-85841666D02*
X63062557Y-85889285D01*
X63062557Y-85889285D02*
X63157795Y-85936904D01*
X63157795Y-85936904D02*
X63205414Y-85936904D01*
X63205414Y-85936904D02*
X63300652Y-85889285D01*
X63300652Y-85889285D02*
X63348271Y-85841666D01*
X63348271Y-85841666D02*
X63395890Y-85746428D01*
X63395890Y-85746428D02*
X63395890Y-85555952D01*
X63395890Y-85555952D02*
X63443509Y-85460714D01*
X63443509Y-85460714D02*
X63491128Y-85413095D01*
X63491128Y-85413095D02*
X63586366Y-85365476D01*
X63586366Y-85365476D02*
X63776842Y-85365476D01*
X63776842Y-85365476D02*
X63872080Y-85413095D01*
X63872080Y-85413095D02*
X63919700Y-85460714D01*
X63919700Y-85460714D02*
X63967319Y-85555952D01*
X63967319Y-85555952D02*
X63967319Y-85746428D01*
X63967319Y-85746428D02*
X63919700Y-85841666D01*
X63919700Y-85841666D02*
X63872080Y-85889285D01*
X63872080Y-85889285D02*
X63776842Y-85936904D01*
X63776842Y-85936904D02*
X63586366Y-85936904D01*
X63586366Y-85936904D02*
X63491128Y-85889285D01*
X63491128Y-85889285D02*
X63443509Y-85841666D01*
X63443509Y-85841666D02*
X63395890Y-85746428D01*
X52755357Y-83634580D02*
X52802976Y-83682200D01*
X52802976Y-83682200D02*
X52945833Y-83729819D01*
X52945833Y-83729819D02*
X53041071Y-83729819D01*
X53041071Y-83729819D02*
X53183928Y-83682200D01*
X53183928Y-83682200D02*
X53279166Y-83586961D01*
X53279166Y-83586961D02*
X53326785Y-83491723D01*
X53326785Y-83491723D02*
X53374404Y-83301247D01*
X53374404Y-83301247D02*
X53374404Y-83158390D01*
X53374404Y-83158390D02*
X53326785Y-82967914D01*
X53326785Y-82967914D02*
X53279166Y-82872676D01*
X53279166Y-82872676D02*
X53183928Y-82777438D01*
X53183928Y-82777438D02*
X53041071Y-82729819D01*
X53041071Y-82729819D02*
X52945833Y-82729819D01*
X52945833Y-82729819D02*
X52802976Y-82777438D01*
X52802976Y-82777438D02*
X52755357Y-82825057D01*
X52422023Y-82729819D02*
X51755357Y-82729819D01*
X51755357Y-82729819D02*
X52183928Y-83729819D01*
X51183928Y-82729819D02*
X51088690Y-82729819D01*
X51088690Y-82729819D02*
X50993452Y-82777438D01*
X50993452Y-82777438D02*
X50945833Y-82825057D01*
X50945833Y-82825057D02*
X50898214Y-82920295D01*
X50898214Y-82920295D02*
X50850595Y-83110771D01*
X50850595Y-83110771D02*
X50850595Y-83348866D01*
X50850595Y-83348866D02*
X50898214Y-83539342D01*
X50898214Y-83539342D02*
X50945833Y-83634580D01*
X50945833Y-83634580D02*
X50993452Y-83682200D01*
X50993452Y-83682200D02*
X51088690Y-83729819D01*
X51088690Y-83729819D02*
X51183928Y-83729819D01*
X51183928Y-83729819D02*
X51279166Y-83682200D01*
X51279166Y-83682200D02*
X51326785Y-83634580D01*
X51326785Y-83634580D02*
X51374404Y-83539342D01*
X51374404Y-83539342D02*
X51422023Y-83348866D01*
X51422023Y-83348866D02*
X51422023Y-83110771D01*
X51422023Y-83110771D02*
X51374404Y-82920295D01*
X51374404Y-82920295D02*
X51326785Y-82825057D01*
X51326785Y-82825057D02*
X51279166Y-82777438D01*
X51279166Y-82777438D02*
X51183928Y-82729819D01*
X95418094Y-119296819D02*
X94846666Y-119296819D01*
X95132380Y-120296819D02*
X95132380Y-119296819D01*
X94513332Y-120296819D02*
X94513332Y-119296819D01*
X94513332Y-119296819D02*
X94132380Y-119296819D01*
X94132380Y-119296819D02*
X94037142Y-119344438D01*
X94037142Y-119344438D02*
X93989523Y-119392057D01*
X93989523Y-119392057D02*
X93941904Y-119487295D01*
X93941904Y-119487295D02*
X93941904Y-119630152D01*
X93941904Y-119630152D02*
X93989523Y-119725390D01*
X93989523Y-119725390D02*
X94037142Y-119773009D01*
X94037142Y-119773009D02*
X94132380Y-119820628D01*
X94132380Y-119820628D02*
X94513332Y-119820628D01*
X92989523Y-120296819D02*
X93560951Y-120296819D01*
X93275237Y-120296819D02*
X93275237Y-119296819D01*
X93275237Y-119296819D02*
X93370475Y-119439676D01*
X93370475Y-119439676D02*
X93465713Y-119534914D01*
X93465713Y-119534914D02*
X93560951Y-119582533D01*
X92037142Y-120296819D02*
X92608570Y-120296819D01*
X92322856Y-120296819D02*
X92322856Y-119296819D01*
X92322856Y-119296819D02*
X92418094Y-119439676D01*
X92418094Y-119439676D02*
X92513332Y-119534914D01*
X92513332Y-119534914D02*
X92608570Y-119582533D01*
X68442857Y-76634580D02*
X68490476Y-76682200D01*
X68490476Y-76682200D02*
X68633333Y-76729819D01*
X68633333Y-76729819D02*
X68728571Y-76729819D01*
X68728571Y-76729819D02*
X68871428Y-76682200D01*
X68871428Y-76682200D02*
X68966666Y-76586961D01*
X68966666Y-76586961D02*
X69014285Y-76491723D01*
X69014285Y-76491723D02*
X69061904Y-76301247D01*
X69061904Y-76301247D02*
X69061904Y-76158390D01*
X69061904Y-76158390D02*
X69014285Y-75967914D01*
X69014285Y-75967914D02*
X68966666Y-75872676D01*
X68966666Y-75872676D02*
X68871428Y-75777438D01*
X68871428Y-75777438D02*
X68728571Y-75729819D01*
X68728571Y-75729819D02*
X68633333Y-75729819D01*
X68633333Y-75729819D02*
X68490476Y-75777438D01*
X68490476Y-75777438D02*
X68442857Y-75825057D01*
X67585714Y-75729819D02*
X67776190Y-75729819D01*
X67776190Y-75729819D02*
X67871428Y-75777438D01*
X67871428Y-75777438D02*
X67919047Y-75825057D01*
X67919047Y-75825057D02*
X68014285Y-75967914D01*
X68014285Y-75967914D02*
X68061904Y-76158390D01*
X68061904Y-76158390D02*
X68061904Y-76539342D01*
X68061904Y-76539342D02*
X68014285Y-76634580D01*
X68014285Y-76634580D02*
X67966666Y-76682200D01*
X67966666Y-76682200D02*
X67871428Y-76729819D01*
X67871428Y-76729819D02*
X67680952Y-76729819D01*
X67680952Y-76729819D02*
X67585714Y-76682200D01*
X67585714Y-76682200D02*
X67538095Y-76634580D01*
X67538095Y-76634580D02*
X67490476Y-76539342D01*
X67490476Y-76539342D02*
X67490476Y-76301247D01*
X67490476Y-76301247D02*
X67538095Y-76206009D01*
X67538095Y-76206009D02*
X67585714Y-76158390D01*
X67585714Y-76158390D02*
X67680952Y-76110771D01*
X67680952Y-76110771D02*
X67871428Y-76110771D01*
X67871428Y-76110771D02*
X67966666Y-76158390D01*
X67966666Y-76158390D02*
X68014285Y-76206009D01*
X68014285Y-76206009D02*
X68061904Y-76301247D01*
X67157142Y-75729819D02*
X66490476Y-75729819D01*
X66490476Y-75729819D02*
X66919047Y-76729819D01*
X106778094Y-92066819D02*
X106206666Y-92066819D01*
X106492380Y-93066819D02*
X106492380Y-92066819D01*
X105873332Y-93066819D02*
X105873332Y-92066819D01*
X105873332Y-92066819D02*
X105492380Y-92066819D01*
X105492380Y-92066819D02*
X105397142Y-92114438D01*
X105397142Y-92114438D02*
X105349523Y-92162057D01*
X105349523Y-92162057D02*
X105301904Y-92257295D01*
X105301904Y-92257295D02*
X105301904Y-92400152D01*
X105301904Y-92400152D02*
X105349523Y-92495390D01*
X105349523Y-92495390D02*
X105397142Y-92543009D01*
X105397142Y-92543009D02*
X105492380Y-92590628D01*
X105492380Y-92590628D02*
X105873332Y-92590628D01*
X104349523Y-93066819D02*
X104920951Y-93066819D01*
X104635237Y-93066819D02*
X104635237Y-92066819D01*
X104635237Y-92066819D02*
X104730475Y-92209676D01*
X104730475Y-92209676D02*
X104825713Y-92304914D01*
X104825713Y-92304914D02*
X104920951Y-92352533D01*
X103444761Y-92066819D02*
X103920951Y-92066819D01*
X103920951Y-92066819D02*
X103968570Y-92543009D01*
X103968570Y-92543009D02*
X103920951Y-92495390D01*
X103920951Y-92495390D02*
X103825713Y-92447771D01*
X103825713Y-92447771D02*
X103587618Y-92447771D01*
X103587618Y-92447771D02*
X103492380Y-92495390D01*
X103492380Y-92495390D02*
X103444761Y-92543009D01*
X103444761Y-92543009D02*
X103397142Y-92638247D01*
X103397142Y-92638247D02*
X103397142Y-92876342D01*
X103397142Y-92876342D02*
X103444761Y-92971580D01*
X103444761Y-92971580D02*
X103492380Y-93019200D01*
X103492380Y-93019200D02*
X103587618Y-93066819D01*
X103587618Y-93066819D02*
X103825713Y-93066819D01*
X103825713Y-93066819D02*
X103920951Y-93019200D01*
X103920951Y-93019200D02*
X103968570Y-92971580D01*
X69424819Y-64761905D02*
X69424819Y-65333333D01*
X70424819Y-65047619D02*
X69424819Y-65047619D01*
X70424819Y-65666667D02*
X69424819Y-65666667D01*
X69424819Y-65666667D02*
X69424819Y-66047619D01*
X69424819Y-66047619D02*
X69472438Y-66142857D01*
X69472438Y-66142857D02*
X69520057Y-66190476D01*
X69520057Y-66190476D02*
X69615295Y-66238095D01*
X69615295Y-66238095D02*
X69758152Y-66238095D01*
X69758152Y-66238095D02*
X69853390Y-66190476D01*
X69853390Y-66190476D02*
X69901009Y-66142857D01*
X69901009Y-66142857D02*
X69948628Y-66047619D01*
X69948628Y-66047619D02*
X69948628Y-65666667D01*
X70424819Y-67190476D02*
X70424819Y-66619048D01*
X70424819Y-66904762D02*
X69424819Y-66904762D01*
X69424819Y-66904762D02*
X69567676Y-66809524D01*
X69567676Y-66809524D02*
X69662914Y-66714286D01*
X69662914Y-66714286D02*
X69710533Y-66619048D01*
X69853390Y-67761905D02*
X69805771Y-67666667D01*
X69805771Y-67666667D02*
X69758152Y-67619048D01*
X69758152Y-67619048D02*
X69662914Y-67571429D01*
X69662914Y-67571429D02*
X69615295Y-67571429D01*
X69615295Y-67571429D02*
X69520057Y-67619048D01*
X69520057Y-67619048D02*
X69472438Y-67666667D01*
X69472438Y-67666667D02*
X69424819Y-67761905D01*
X69424819Y-67761905D02*
X69424819Y-67952381D01*
X69424819Y-67952381D02*
X69472438Y-68047619D01*
X69472438Y-68047619D02*
X69520057Y-68095238D01*
X69520057Y-68095238D02*
X69615295Y-68142857D01*
X69615295Y-68142857D02*
X69662914Y-68142857D01*
X69662914Y-68142857D02*
X69758152Y-68095238D01*
X69758152Y-68095238D02*
X69805771Y-68047619D01*
X69805771Y-68047619D02*
X69853390Y-67952381D01*
X69853390Y-67952381D02*
X69853390Y-67761905D01*
X69853390Y-67761905D02*
X69901009Y-67666667D01*
X69901009Y-67666667D02*
X69948628Y-67619048D01*
X69948628Y-67619048D02*
X70043866Y-67571429D01*
X70043866Y-67571429D02*
X70234342Y-67571429D01*
X70234342Y-67571429D02*
X70329580Y-67619048D01*
X70329580Y-67619048D02*
X70377200Y-67666667D01*
X70377200Y-67666667D02*
X70424819Y-67761905D01*
X70424819Y-67761905D02*
X70424819Y-67952381D01*
X70424819Y-67952381D02*
X70377200Y-68047619D01*
X70377200Y-68047619D02*
X70329580Y-68095238D01*
X70329580Y-68095238D02*
X70234342Y-68142857D01*
X70234342Y-68142857D02*
X70043866Y-68142857D01*
X70043866Y-68142857D02*
X69948628Y-68095238D01*
X69948628Y-68095238D02*
X69901009Y-68047619D01*
X69901009Y-68047619D02*
X69853390Y-67952381D01*
X96254819Y-140431905D02*
X96254819Y-141003333D01*
X97254819Y-140717619D02*
X96254819Y-140717619D01*
X97254819Y-141336667D02*
X96254819Y-141336667D01*
X96254819Y-141336667D02*
X96254819Y-141717619D01*
X96254819Y-141717619D02*
X96302438Y-141812857D01*
X96302438Y-141812857D02*
X96350057Y-141860476D01*
X96350057Y-141860476D02*
X96445295Y-141908095D01*
X96445295Y-141908095D02*
X96588152Y-141908095D01*
X96588152Y-141908095D02*
X96683390Y-141860476D01*
X96683390Y-141860476D02*
X96731009Y-141812857D01*
X96731009Y-141812857D02*
X96778628Y-141717619D01*
X96778628Y-141717619D02*
X96778628Y-141336667D01*
X96350057Y-142289048D02*
X96302438Y-142336667D01*
X96302438Y-142336667D02*
X96254819Y-142431905D01*
X96254819Y-142431905D02*
X96254819Y-142670000D01*
X96254819Y-142670000D02*
X96302438Y-142765238D01*
X96302438Y-142765238D02*
X96350057Y-142812857D01*
X96350057Y-142812857D02*
X96445295Y-142860476D01*
X96445295Y-142860476D02*
X96540533Y-142860476D01*
X96540533Y-142860476D02*
X96683390Y-142812857D01*
X96683390Y-142812857D02*
X97254819Y-142241429D01*
X97254819Y-142241429D02*
X97254819Y-142860476D01*
X97254819Y-143336667D02*
X97254819Y-143527143D01*
X97254819Y-143527143D02*
X97207200Y-143622381D01*
X97207200Y-143622381D02*
X97159580Y-143670000D01*
X97159580Y-143670000D02*
X97016723Y-143765238D01*
X97016723Y-143765238D02*
X96826247Y-143812857D01*
X96826247Y-143812857D02*
X96445295Y-143812857D01*
X96445295Y-143812857D02*
X96350057Y-143765238D01*
X96350057Y-143765238D02*
X96302438Y-143717619D01*
X96302438Y-143717619D02*
X96254819Y-143622381D01*
X96254819Y-143622381D02*
X96254819Y-143431905D01*
X96254819Y-143431905D02*
X96302438Y-143336667D01*
X96302438Y-143336667D02*
X96350057Y-143289048D01*
X96350057Y-143289048D02*
X96445295Y-143241429D01*
X96445295Y-143241429D02*
X96683390Y-143241429D01*
X96683390Y-143241429D02*
X96778628Y-143289048D01*
X96778628Y-143289048D02*
X96826247Y-143336667D01*
X96826247Y-143336667D02*
X96873866Y-143431905D01*
X96873866Y-143431905D02*
X96873866Y-143622381D01*
X96873866Y-143622381D02*
X96826247Y-143717619D01*
X96826247Y-143717619D02*
X96778628Y-143765238D01*
X96778628Y-143765238D02*
X96683390Y-143812857D01*
X73614819Y-64671905D02*
X73614819Y-65243333D01*
X74614819Y-64957619D02*
X73614819Y-64957619D01*
X74614819Y-65576667D02*
X73614819Y-65576667D01*
X73614819Y-65576667D02*
X73614819Y-65957619D01*
X73614819Y-65957619D02*
X73662438Y-66052857D01*
X73662438Y-66052857D02*
X73710057Y-66100476D01*
X73710057Y-66100476D02*
X73805295Y-66148095D01*
X73805295Y-66148095D02*
X73948152Y-66148095D01*
X73948152Y-66148095D02*
X74043390Y-66100476D01*
X74043390Y-66100476D02*
X74091009Y-66052857D01*
X74091009Y-66052857D02*
X74138628Y-65957619D01*
X74138628Y-65957619D02*
X74138628Y-65576667D01*
X73710057Y-66529048D02*
X73662438Y-66576667D01*
X73662438Y-66576667D02*
X73614819Y-66671905D01*
X73614819Y-66671905D02*
X73614819Y-66910000D01*
X73614819Y-66910000D02*
X73662438Y-67005238D01*
X73662438Y-67005238D02*
X73710057Y-67052857D01*
X73710057Y-67052857D02*
X73805295Y-67100476D01*
X73805295Y-67100476D02*
X73900533Y-67100476D01*
X73900533Y-67100476D02*
X74043390Y-67052857D01*
X74043390Y-67052857D02*
X74614819Y-66481429D01*
X74614819Y-66481429D02*
X74614819Y-67100476D01*
X73614819Y-67433810D02*
X73614819Y-68052857D01*
X73614819Y-68052857D02*
X73995771Y-67719524D01*
X73995771Y-67719524D02*
X73995771Y-67862381D01*
X73995771Y-67862381D02*
X74043390Y-67957619D01*
X74043390Y-67957619D02*
X74091009Y-68005238D01*
X74091009Y-68005238D02*
X74186247Y-68052857D01*
X74186247Y-68052857D02*
X74424342Y-68052857D01*
X74424342Y-68052857D02*
X74519580Y-68005238D01*
X74519580Y-68005238D02*
X74567200Y-67957619D01*
X74567200Y-67957619D02*
X74614819Y-67862381D01*
X74614819Y-67862381D02*
X74614819Y-67576667D01*
X74614819Y-67576667D02*
X74567200Y-67481429D01*
X74567200Y-67481429D02*
X74519580Y-67433810D01*
X49455357Y-75534580D02*
X49502976Y-75582200D01*
X49502976Y-75582200D02*
X49645833Y-75629819D01*
X49645833Y-75629819D02*
X49741071Y-75629819D01*
X49741071Y-75629819D02*
X49883928Y-75582200D01*
X49883928Y-75582200D02*
X49979166Y-75486961D01*
X49979166Y-75486961D02*
X50026785Y-75391723D01*
X50026785Y-75391723D02*
X50074404Y-75201247D01*
X50074404Y-75201247D02*
X50074404Y-75058390D01*
X50074404Y-75058390D02*
X50026785Y-74867914D01*
X50026785Y-74867914D02*
X49979166Y-74772676D01*
X49979166Y-74772676D02*
X49883928Y-74677438D01*
X49883928Y-74677438D02*
X49741071Y-74629819D01*
X49741071Y-74629819D02*
X49645833Y-74629819D01*
X49645833Y-74629819D02*
X49502976Y-74677438D01*
X49502976Y-74677438D02*
X49455357Y-74725057D01*
X48598214Y-74629819D02*
X48788690Y-74629819D01*
X48788690Y-74629819D02*
X48883928Y-74677438D01*
X48883928Y-74677438D02*
X48931547Y-74725057D01*
X48931547Y-74725057D02*
X49026785Y-74867914D01*
X49026785Y-74867914D02*
X49074404Y-75058390D01*
X49074404Y-75058390D02*
X49074404Y-75439342D01*
X49074404Y-75439342D02*
X49026785Y-75534580D01*
X49026785Y-75534580D02*
X48979166Y-75582200D01*
X48979166Y-75582200D02*
X48883928Y-75629819D01*
X48883928Y-75629819D02*
X48693452Y-75629819D01*
X48693452Y-75629819D02*
X48598214Y-75582200D01*
X48598214Y-75582200D02*
X48550595Y-75534580D01*
X48550595Y-75534580D02*
X48502976Y-75439342D01*
X48502976Y-75439342D02*
X48502976Y-75201247D01*
X48502976Y-75201247D02*
X48550595Y-75106009D01*
X48550595Y-75106009D02*
X48598214Y-75058390D01*
X48598214Y-75058390D02*
X48693452Y-75010771D01*
X48693452Y-75010771D02*
X48883928Y-75010771D01*
X48883928Y-75010771D02*
X48979166Y-75058390D01*
X48979166Y-75058390D02*
X49026785Y-75106009D01*
X49026785Y-75106009D02*
X49074404Y-75201247D01*
X47645833Y-74963152D02*
X47645833Y-75629819D01*
X47883928Y-74582200D02*
X48122023Y-75296485D01*
X48122023Y-75296485D02*
X47502976Y-75296485D01*
X48006819Y-84488095D02*
X48006819Y-85059523D01*
X49006819Y-84773809D02*
X48006819Y-84773809D01*
X49006819Y-85392857D02*
X48006819Y-85392857D01*
X48006819Y-85392857D02*
X48006819Y-85773809D01*
X48006819Y-85773809D02*
X48054438Y-85869047D01*
X48054438Y-85869047D02*
X48102057Y-85916666D01*
X48102057Y-85916666D02*
X48197295Y-85964285D01*
X48197295Y-85964285D02*
X48340152Y-85964285D01*
X48340152Y-85964285D02*
X48435390Y-85916666D01*
X48435390Y-85916666D02*
X48483009Y-85869047D01*
X48483009Y-85869047D02*
X48530628Y-85773809D01*
X48530628Y-85773809D02*
X48530628Y-85392857D01*
X49006819Y-86916666D02*
X49006819Y-86345238D01*
X49006819Y-86630952D02*
X48006819Y-86630952D01*
X48006819Y-86630952D02*
X48149676Y-86535714D01*
X48149676Y-86535714D02*
X48244914Y-86440476D01*
X48244914Y-86440476D02*
X48292533Y-86345238D01*
X97049523Y-62964819D02*
X97049523Y-63679104D01*
X97049523Y-63679104D02*
X97097142Y-63821961D01*
X97097142Y-63821961D02*
X97192380Y-63917200D01*
X97192380Y-63917200D02*
X97335237Y-63964819D01*
X97335237Y-63964819D02*
X97430475Y-63964819D01*
X96573332Y-63964819D02*
X96573332Y-62964819D01*
X96573332Y-62964819D02*
X96192380Y-62964819D01*
X96192380Y-62964819D02*
X96097142Y-63012438D01*
X96097142Y-63012438D02*
X96049523Y-63060057D01*
X96049523Y-63060057D02*
X96001904Y-63155295D01*
X96001904Y-63155295D02*
X96001904Y-63298152D01*
X96001904Y-63298152D02*
X96049523Y-63393390D01*
X96049523Y-63393390D02*
X96097142Y-63441009D01*
X96097142Y-63441009D02*
X96192380Y-63488628D01*
X96192380Y-63488628D02*
X96573332Y-63488628D01*
X95049523Y-63964819D02*
X95620951Y-63964819D01*
X95335237Y-63964819D02*
X95335237Y-62964819D01*
X95335237Y-62964819D02*
X95430475Y-63107676D01*
X95430475Y-63107676D02*
X95525713Y-63202914D01*
X95525713Y-63202914D02*
X95620951Y-63250533D01*
X94144761Y-62964819D02*
X94620951Y-62964819D01*
X94620951Y-62964819D02*
X94668570Y-63441009D01*
X94668570Y-63441009D02*
X94620951Y-63393390D01*
X94620951Y-63393390D02*
X94525713Y-63345771D01*
X94525713Y-63345771D02*
X94287618Y-63345771D01*
X94287618Y-63345771D02*
X94192380Y-63393390D01*
X94192380Y-63393390D02*
X94144761Y-63441009D01*
X94144761Y-63441009D02*
X94097142Y-63536247D01*
X94097142Y-63536247D02*
X94097142Y-63774342D01*
X94097142Y-63774342D02*
X94144761Y-63869580D01*
X94144761Y-63869580D02*
X94192380Y-63917200D01*
X94192380Y-63917200D02*
X94287618Y-63964819D01*
X94287618Y-63964819D02*
X94525713Y-63964819D01*
X94525713Y-63964819D02*
X94620951Y-63917200D01*
X94620951Y-63917200D02*
X94668570Y-63869580D01*
X79864819Y-92980476D02*
X80579104Y-92980476D01*
X80579104Y-92980476D02*
X80721961Y-92932857D01*
X80721961Y-92932857D02*
X80817200Y-92837619D01*
X80817200Y-92837619D02*
X80864819Y-92694762D01*
X80864819Y-92694762D02*
X80864819Y-92599524D01*
X80864819Y-93456667D02*
X79864819Y-93456667D01*
X79864819Y-93456667D02*
X79864819Y-93837619D01*
X79864819Y-93837619D02*
X79912438Y-93932857D01*
X79912438Y-93932857D02*
X79960057Y-93980476D01*
X79960057Y-93980476D02*
X80055295Y-94028095D01*
X80055295Y-94028095D02*
X80198152Y-94028095D01*
X80198152Y-94028095D02*
X80293390Y-93980476D01*
X80293390Y-93980476D02*
X80341009Y-93932857D01*
X80341009Y-93932857D02*
X80388628Y-93837619D01*
X80388628Y-93837619D02*
X80388628Y-93456667D01*
X80864819Y-94980476D02*
X80864819Y-94409048D01*
X80864819Y-94694762D02*
X79864819Y-94694762D01*
X79864819Y-94694762D02*
X80007676Y-94599524D01*
X80007676Y-94599524D02*
X80102914Y-94504286D01*
X80102914Y-94504286D02*
X80150533Y-94409048D01*
X80198152Y-95837619D02*
X80864819Y-95837619D01*
X79817200Y-95599524D02*
X80531485Y-95361429D01*
X80531485Y-95361429D02*
X80531485Y-95980476D01*
X73514819Y-92980476D02*
X74229104Y-92980476D01*
X74229104Y-92980476D02*
X74371961Y-92932857D01*
X74371961Y-92932857D02*
X74467200Y-92837619D01*
X74467200Y-92837619D02*
X74514819Y-92694762D01*
X74514819Y-92694762D02*
X74514819Y-92599524D01*
X74514819Y-93456667D02*
X73514819Y-93456667D01*
X73514819Y-93456667D02*
X73514819Y-93837619D01*
X73514819Y-93837619D02*
X73562438Y-93932857D01*
X73562438Y-93932857D02*
X73610057Y-93980476D01*
X73610057Y-93980476D02*
X73705295Y-94028095D01*
X73705295Y-94028095D02*
X73848152Y-94028095D01*
X73848152Y-94028095D02*
X73943390Y-93980476D01*
X73943390Y-93980476D02*
X73991009Y-93932857D01*
X73991009Y-93932857D02*
X74038628Y-93837619D01*
X74038628Y-93837619D02*
X74038628Y-93456667D01*
X74514819Y-94980476D02*
X74514819Y-94409048D01*
X74514819Y-94694762D02*
X73514819Y-94694762D01*
X73514819Y-94694762D02*
X73657676Y-94599524D01*
X73657676Y-94599524D02*
X73752914Y-94504286D01*
X73752914Y-94504286D02*
X73800533Y-94409048D01*
X73610057Y-95361429D02*
X73562438Y-95409048D01*
X73562438Y-95409048D02*
X73514819Y-95504286D01*
X73514819Y-95504286D02*
X73514819Y-95742381D01*
X73514819Y-95742381D02*
X73562438Y-95837619D01*
X73562438Y-95837619D02*
X73610057Y-95885238D01*
X73610057Y-95885238D02*
X73705295Y-95932857D01*
X73705295Y-95932857D02*
X73800533Y-95932857D01*
X73800533Y-95932857D02*
X73943390Y-95885238D01*
X73943390Y-95885238D02*
X74514819Y-95313810D01*
X74514819Y-95313810D02*
X74514819Y-95932857D01*
X91122085Y-44554693D02*
X91122085Y-43554693D01*
X91122085Y-43554693D02*
X90883990Y-43554693D01*
X90883990Y-43554693D02*
X90741133Y-43602312D01*
X90741133Y-43602312D02*
X90645895Y-43697550D01*
X90645895Y-43697550D02*
X90598276Y-43792788D01*
X90598276Y-43792788D02*
X90550657Y-43983264D01*
X90550657Y-43983264D02*
X90550657Y-44126121D01*
X90550657Y-44126121D02*
X90598276Y-44316597D01*
X90598276Y-44316597D02*
X90645895Y-44411835D01*
X90645895Y-44411835D02*
X90741133Y-44507074D01*
X90741133Y-44507074D02*
X90883990Y-44554693D01*
X90883990Y-44554693D02*
X91122085Y-44554693D01*
X90169704Y-43649931D02*
X90122085Y-43602312D01*
X90122085Y-43602312D02*
X90026847Y-43554693D01*
X90026847Y-43554693D02*
X89788752Y-43554693D01*
X89788752Y-43554693D02*
X89693514Y-43602312D01*
X89693514Y-43602312D02*
X89645895Y-43649931D01*
X89645895Y-43649931D02*
X89598276Y-43745169D01*
X89598276Y-43745169D02*
X89598276Y-43840407D01*
X89598276Y-43840407D02*
X89645895Y-43983264D01*
X89645895Y-43983264D02*
X90217323Y-44554693D01*
X90217323Y-44554693D02*
X89598276Y-44554693D01*
X88979228Y-43554693D02*
X88883990Y-43554693D01*
X88883990Y-43554693D02*
X88788752Y-43602312D01*
X88788752Y-43602312D02*
X88741133Y-43649931D01*
X88741133Y-43649931D02*
X88693514Y-43745169D01*
X88693514Y-43745169D02*
X88645895Y-43935645D01*
X88645895Y-43935645D02*
X88645895Y-44173740D01*
X88645895Y-44173740D02*
X88693514Y-44364216D01*
X88693514Y-44364216D02*
X88741133Y-44459454D01*
X88741133Y-44459454D02*
X88788752Y-44507074D01*
X88788752Y-44507074D02*
X88883990Y-44554693D01*
X88883990Y-44554693D02*
X88979228Y-44554693D01*
X88979228Y-44554693D02*
X89074466Y-44507074D01*
X89074466Y-44507074D02*
X89122085Y-44459454D01*
X89122085Y-44459454D02*
X89169704Y-44364216D01*
X89169704Y-44364216D02*
X89217323Y-44173740D01*
X89217323Y-44173740D02*
X89217323Y-43935645D01*
X89217323Y-43935645D02*
X89169704Y-43745169D01*
X89169704Y-43745169D02*
X89122085Y-43649931D01*
X89122085Y-43649931D02*
X89074466Y-43602312D01*
X89074466Y-43602312D02*
X88979228Y-43554693D01*
X59872080Y-74332142D02*
X59919700Y-74284523D01*
X59919700Y-74284523D02*
X59967319Y-74141666D01*
X59967319Y-74141666D02*
X59967319Y-74046428D01*
X59967319Y-74046428D02*
X59919700Y-73903571D01*
X59919700Y-73903571D02*
X59824461Y-73808333D01*
X59824461Y-73808333D02*
X59729223Y-73760714D01*
X59729223Y-73760714D02*
X59538747Y-73713095D01*
X59538747Y-73713095D02*
X59395890Y-73713095D01*
X59395890Y-73713095D02*
X59205414Y-73760714D01*
X59205414Y-73760714D02*
X59110176Y-73808333D01*
X59110176Y-73808333D02*
X59014938Y-73903571D01*
X59014938Y-73903571D02*
X58967319Y-74046428D01*
X58967319Y-74046428D02*
X58967319Y-74141666D01*
X58967319Y-74141666D02*
X59014938Y-74284523D01*
X59014938Y-74284523D02*
X59062557Y-74332142D01*
X58967319Y-75189285D02*
X58967319Y-74998809D01*
X58967319Y-74998809D02*
X59014938Y-74903571D01*
X59014938Y-74903571D02*
X59062557Y-74855952D01*
X59062557Y-74855952D02*
X59205414Y-74760714D01*
X59205414Y-74760714D02*
X59395890Y-74713095D01*
X59395890Y-74713095D02*
X59776842Y-74713095D01*
X59776842Y-74713095D02*
X59872080Y-74760714D01*
X59872080Y-74760714D02*
X59919700Y-74808333D01*
X59919700Y-74808333D02*
X59967319Y-74903571D01*
X59967319Y-74903571D02*
X59967319Y-75094047D01*
X59967319Y-75094047D02*
X59919700Y-75189285D01*
X59919700Y-75189285D02*
X59872080Y-75236904D01*
X59872080Y-75236904D02*
X59776842Y-75284523D01*
X59776842Y-75284523D02*
X59538747Y-75284523D01*
X59538747Y-75284523D02*
X59443509Y-75236904D01*
X59443509Y-75236904D02*
X59395890Y-75189285D01*
X59395890Y-75189285D02*
X59348271Y-75094047D01*
X59348271Y-75094047D02*
X59348271Y-74903571D01*
X59348271Y-74903571D02*
X59395890Y-74808333D01*
X59395890Y-74808333D02*
X59443509Y-74760714D01*
X59443509Y-74760714D02*
X59538747Y-74713095D01*
X58967319Y-76189285D02*
X58967319Y-75713095D01*
X58967319Y-75713095D02*
X59443509Y-75665476D01*
X59443509Y-75665476D02*
X59395890Y-75713095D01*
X59395890Y-75713095D02*
X59348271Y-75808333D01*
X59348271Y-75808333D02*
X59348271Y-76046428D01*
X59348271Y-76046428D02*
X59395890Y-76141666D01*
X59395890Y-76141666D02*
X59443509Y-76189285D01*
X59443509Y-76189285D02*
X59538747Y-76236904D01*
X59538747Y-76236904D02*
X59776842Y-76236904D01*
X59776842Y-76236904D02*
X59872080Y-76189285D01*
X59872080Y-76189285D02*
X59919700Y-76141666D01*
X59919700Y-76141666D02*
X59967319Y-76046428D01*
X59967319Y-76046428D02*
X59967319Y-75808333D01*
X59967319Y-75808333D02*
X59919700Y-75713095D01*
X59919700Y-75713095D02*
X59872080Y-75665476D01*
X78333333Y-77829819D02*
X78333333Y-78544104D01*
X78333333Y-78544104D02*
X78380952Y-78686961D01*
X78380952Y-78686961D02*
X78476190Y-78782200D01*
X78476190Y-78782200D02*
X78619047Y-78829819D01*
X78619047Y-78829819D02*
X78714285Y-78829819D01*
X77857142Y-78829819D02*
X77857142Y-77829819D01*
X77857142Y-77829819D02*
X77476190Y-77829819D01*
X77476190Y-77829819D02*
X77380952Y-77877438D01*
X77380952Y-77877438D02*
X77333333Y-77925057D01*
X77333333Y-77925057D02*
X77285714Y-78020295D01*
X77285714Y-78020295D02*
X77285714Y-78163152D01*
X77285714Y-78163152D02*
X77333333Y-78258390D01*
X77333333Y-78258390D02*
X77380952Y-78306009D01*
X77380952Y-78306009D02*
X77476190Y-78353628D01*
X77476190Y-78353628D02*
X77857142Y-78353628D01*
X76428571Y-77829819D02*
X76619047Y-77829819D01*
X76619047Y-77829819D02*
X76714285Y-77877438D01*
X76714285Y-77877438D02*
X76761904Y-77925057D01*
X76761904Y-77925057D02*
X76857142Y-78067914D01*
X76857142Y-78067914D02*
X76904761Y-78258390D01*
X76904761Y-78258390D02*
X76904761Y-78639342D01*
X76904761Y-78639342D02*
X76857142Y-78734580D01*
X76857142Y-78734580D02*
X76809523Y-78782200D01*
X76809523Y-78782200D02*
X76714285Y-78829819D01*
X76714285Y-78829819D02*
X76523809Y-78829819D01*
X76523809Y-78829819D02*
X76428571Y-78782200D01*
X76428571Y-78782200D02*
X76380952Y-78734580D01*
X76380952Y-78734580D02*
X76333333Y-78639342D01*
X76333333Y-78639342D02*
X76333333Y-78401247D01*
X76333333Y-78401247D02*
X76380952Y-78306009D01*
X76380952Y-78306009D02*
X76428571Y-78258390D01*
X76428571Y-78258390D02*
X76523809Y-78210771D01*
X76523809Y-78210771D02*
X76714285Y-78210771D01*
X76714285Y-78210771D02*
X76809523Y-78258390D01*
X76809523Y-78258390D02*
X76857142Y-78306009D01*
X76857142Y-78306009D02*
X76904761Y-78401247D01*
X69660118Y-77829819D02*
X69564880Y-77829819D01*
X69564880Y-77829819D02*
X69469642Y-77877438D01*
X69469642Y-77877438D02*
X69422023Y-77925057D01*
X69422023Y-77925057D02*
X69374404Y-78020295D01*
X69374404Y-78020295D02*
X69326785Y-78210771D01*
X69326785Y-78210771D02*
X69326785Y-78448866D01*
X69326785Y-78448866D02*
X69374404Y-78639342D01*
X69374404Y-78639342D02*
X69422023Y-78734580D01*
X69422023Y-78734580D02*
X69469642Y-78782200D01*
X69469642Y-78782200D02*
X69564880Y-78829819D01*
X69564880Y-78829819D02*
X69660118Y-78829819D01*
X69660118Y-78829819D02*
X69755356Y-78782200D01*
X69755356Y-78782200D02*
X69802975Y-78734580D01*
X69802975Y-78734580D02*
X69850594Y-78639342D01*
X69850594Y-78639342D02*
X69898213Y-78448866D01*
X69898213Y-78448866D02*
X69898213Y-78210771D01*
X69898213Y-78210771D02*
X69850594Y-78020295D01*
X69850594Y-78020295D02*
X69802975Y-77925057D01*
X69802975Y-77925057D02*
X69755356Y-77877438D01*
X69755356Y-77877438D02*
X69660118Y-77829819D01*
X74526785Y-78829819D02*
X75098213Y-78829819D01*
X74812499Y-78829819D02*
X74812499Y-77829819D01*
X74812499Y-77829819D02*
X74907737Y-77972676D01*
X74907737Y-77972676D02*
X75002975Y-78067914D01*
X75002975Y-78067914D02*
X75098213Y-78115533D01*
X68442857Y-78334580D02*
X68490476Y-78382200D01*
X68490476Y-78382200D02*
X68633333Y-78429819D01*
X68633333Y-78429819D02*
X68728571Y-78429819D01*
X68728571Y-78429819D02*
X68871428Y-78382200D01*
X68871428Y-78382200D02*
X68966666Y-78286961D01*
X68966666Y-78286961D02*
X69014285Y-78191723D01*
X69014285Y-78191723D02*
X69061904Y-78001247D01*
X69061904Y-78001247D02*
X69061904Y-77858390D01*
X69061904Y-77858390D02*
X69014285Y-77667914D01*
X69014285Y-77667914D02*
X68966666Y-77572676D01*
X68966666Y-77572676D02*
X68871428Y-77477438D01*
X68871428Y-77477438D02*
X68728571Y-77429819D01*
X68728571Y-77429819D02*
X68633333Y-77429819D01*
X68633333Y-77429819D02*
X68490476Y-77477438D01*
X68490476Y-77477438D02*
X68442857Y-77525057D01*
X67538095Y-77429819D02*
X68014285Y-77429819D01*
X68014285Y-77429819D02*
X68061904Y-77906009D01*
X68061904Y-77906009D02*
X68014285Y-77858390D01*
X68014285Y-77858390D02*
X67919047Y-77810771D01*
X67919047Y-77810771D02*
X67680952Y-77810771D01*
X67680952Y-77810771D02*
X67585714Y-77858390D01*
X67585714Y-77858390D02*
X67538095Y-77906009D01*
X67538095Y-77906009D02*
X67490476Y-78001247D01*
X67490476Y-78001247D02*
X67490476Y-78239342D01*
X67490476Y-78239342D02*
X67538095Y-78334580D01*
X67538095Y-78334580D02*
X67585714Y-78382200D01*
X67585714Y-78382200D02*
X67680952Y-78429819D01*
X67680952Y-78429819D02*
X67919047Y-78429819D01*
X67919047Y-78429819D02*
X68014285Y-78382200D01*
X68014285Y-78382200D02*
X68061904Y-78334580D01*
X67014285Y-78429819D02*
X66823809Y-78429819D01*
X66823809Y-78429819D02*
X66728571Y-78382200D01*
X66728571Y-78382200D02*
X66680952Y-78334580D01*
X66680952Y-78334580D02*
X66585714Y-78191723D01*
X66585714Y-78191723D02*
X66538095Y-78001247D01*
X66538095Y-78001247D02*
X66538095Y-77620295D01*
X66538095Y-77620295D02*
X66585714Y-77525057D01*
X66585714Y-77525057D02*
X66633333Y-77477438D01*
X66633333Y-77477438D02*
X66728571Y-77429819D01*
X66728571Y-77429819D02*
X66919047Y-77429819D01*
X66919047Y-77429819D02*
X67014285Y-77477438D01*
X67014285Y-77477438D02*
X67061904Y-77525057D01*
X67061904Y-77525057D02*
X67109523Y-77620295D01*
X67109523Y-77620295D02*
X67109523Y-77858390D01*
X67109523Y-77858390D02*
X67061904Y-77953628D01*
X67061904Y-77953628D02*
X67014285Y-78001247D01*
X67014285Y-78001247D02*
X66919047Y-78048866D01*
X66919047Y-78048866D02*
X66728571Y-78048866D01*
X66728571Y-78048866D02*
X66633333Y-78001247D01*
X66633333Y-78001247D02*
X66585714Y-77953628D01*
X66585714Y-77953628D02*
X66538095Y-77858390D01*
X90814819Y-61401905D02*
X90814819Y-61973333D01*
X91814819Y-61687619D02*
X90814819Y-61687619D01*
X91814819Y-62306667D02*
X90814819Y-62306667D01*
X90814819Y-62306667D02*
X90814819Y-62687619D01*
X90814819Y-62687619D02*
X90862438Y-62782857D01*
X90862438Y-62782857D02*
X90910057Y-62830476D01*
X90910057Y-62830476D02*
X91005295Y-62878095D01*
X91005295Y-62878095D02*
X91148152Y-62878095D01*
X91148152Y-62878095D02*
X91243390Y-62830476D01*
X91243390Y-62830476D02*
X91291009Y-62782857D01*
X91291009Y-62782857D02*
X91338628Y-62687619D01*
X91338628Y-62687619D02*
X91338628Y-62306667D01*
X90910057Y-63259048D02*
X90862438Y-63306667D01*
X90862438Y-63306667D02*
X90814819Y-63401905D01*
X90814819Y-63401905D02*
X90814819Y-63640000D01*
X90814819Y-63640000D02*
X90862438Y-63735238D01*
X90862438Y-63735238D02*
X90910057Y-63782857D01*
X90910057Y-63782857D02*
X91005295Y-63830476D01*
X91005295Y-63830476D02*
X91100533Y-63830476D01*
X91100533Y-63830476D02*
X91243390Y-63782857D01*
X91243390Y-63782857D02*
X91814819Y-63211429D01*
X91814819Y-63211429D02*
X91814819Y-63830476D01*
X90814819Y-64687619D02*
X90814819Y-64497143D01*
X90814819Y-64497143D02*
X90862438Y-64401905D01*
X90862438Y-64401905D02*
X90910057Y-64354286D01*
X90910057Y-64354286D02*
X91052914Y-64259048D01*
X91052914Y-64259048D02*
X91243390Y-64211429D01*
X91243390Y-64211429D02*
X91624342Y-64211429D01*
X91624342Y-64211429D02*
X91719580Y-64259048D01*
X91719580Y-64259048D02*
X91767200Y-64306667D01*
X91767200Y-64306667D02*
X91814819Y-64401905D01*
X91814819Y-64401905D02*
X91814819Y-64592381D01*
X91814819Y-64592381D02*
X91767200Y-64687619D01*
X91767200Y-64687619D02*
X91719580Y-64735238D01*
X91719580Y-64735238D02*
X91624342Y-64782857D01*
X91624342Y-64782857D02*
X91386247Y-64782857D01*
X91386247Y-64782857D02*
X91291009Y-64735238D01*
X91291009Y-64735238D02*
X91243390Y-64687619D01*
X91243390Y-64687619D02*
X91195771Y-64592381D01*
X91195771Y-64592381D02*
X91195771Y-64401905D01*
X91195771Y-64401905D02*
X91243390Y-64306667D01*
X91243390Y-64306667D02*
X91291009Y-64259048D01*
X91291009Y-64259048D02*
X91386247Y-64211429D01*
X61372080Y-74332142D02*
X61419700Y-74284523D01*
X61419700Y-74284523D02*
X61467319Y-74141666D01*
X61467319Y-74141666D02*
X61467319Y-74046428D01*
X61467319Y-74046428D02*
X61419700Y-73903571D01*
X61419700Y-73903571D02*
X61324461Y-73808333D01*
X61324461Y-73808333D02*
X61229223Y-73760714D01*
X61229223Y-73760714D02*
X61038747Y-73713095D01*
X61038747Y-73713095D02*
X60895890Y-73713095D01*
X60895890Y-73713095D02*
X60705414Y-73760714D01*
X60705414Y-73760714D02*
X60610176Y-73808333D01*
X60610176Y-73808333D02*
X60514938Y-73903571D01*
X60514938Y-73903571D02*
X60467319Y-74046428D01*
X60467319Y-74046428D02*
X60467319Y-74141666D01*
X60467319Y-74141666D02*
X60514938Y-74284523D01*
X60514938Y-74284523D02*
X60562557Y-74332142D01*
X60467319Y-74665476D02*
X60467319Y-75332142D01*
X60467319Y-75332142D02*
X61467319Y-74903571D01*
X60800652Y-76141666D02*
X61467319Y-76141666D01*
X60419700Y-75903571D02*
X61133985Y-75665476D01*
X61133985Y-75665476D02*
X61133985Y-76284523D01*
X58272080Y-74332142D02*
X58319700Y-74284523D01*
X58319700Y-74284523D02*
X58367319Y-74141666D01*
X58367319Y-74141666D02*
X58367319Y-74046428D01*
X58367319Y-74046428D02*
X58319700Y-73903571D01*
X58319700Y-73903571D02*
X58224461Y-73808333D01*
X58224461Y-73808333D02*
X58129223Y-73760714D01*
X58129223Y-73760714D02*
X57938747Y-73713095D01*
X57938747Y-73713095D02*
X57795890Y-73713095D01*
X57795890Y-73713095D02*
X57605414Y-73760714D01*
X57605414Y-73760714D02*
X57510176Y-73808333D01*
X57510176Y-73808333D02*
X57414938Y-73903571D01*
X57414938Y-73903571D02*
X57367319Y-74046428D01*
X57367319Y-74046428D02*
X57367319Y-74141666D01*
X57367319Y-74141666D02*
X57414938Y-74284523D01*
X57414938Y-74284523D02*
X57462557Y-74332142D01*
X57367319Y-75236904D02*
X57367319Y-74760714D01*
X57367319Y-74760714D02*
X57843509Y-74713095D01*
X57843509Y-74713095D02*
X57795890Y-74760714D01*
X57795890Y-74760714D02*
X57748271Y-74855952D01*
X57748271Y-74855952D02*
X57748271Y-75094047D01*
X57748271Y-75094047D02*
X57795890Y-75189285D01*
X57795890Y-75189285D02*
X57843509Y-75236904D01*
X57843509Y-75236904D02*
X57938747Y-75284523D01*
X57938747Y-75284523D02*
X58176842Y-75284523D01*
X58176842Y-75284523D02*
X58272080Y-75236904D01*
X58272080Y-75236904D02*
X58319700Y-75189285D01*
X58319700Y-75189285D02*
X58367319Y-75094047D01*
X58367319Y-75094047D02*
X58367319Y-74855952D01*
X58367319Y-74855952D02*
X58319700Y-74760714D01*
X58319700Y-74760714D02*
X58272080Y-74713095D01*
X57367319Y-76141666D02*
X57367319Y-75951190D01*
X57367319Y-75951190D02*
X57414938Y-75855952D01*
X57414938Y-75855952D02*
X57462557Y-75808333D01*
X57462557Y-75808333D02*
X57605414Y-75713095D01*
X57605414Y-75713095D02*
X57795890Y-75665476D01*
X57795890Y-75665476D02*
X58176842Y-75665476D01*
X58176842Y-75665476D02*
X58272080Y-75713095D01*
X58272080Y-75713095D02*
X58319700Y-75760714D01*
X58319700Y-75760714D02*
X58367319Y-75855952D01*
X58367319Y-75855952D02*
X58367319Y-76046428D01*
X58367319Y-76046428D02*
X58319700Y-76141666D01*
X58319700Y-76141666D02*
X58272080Y-76189285D01*
X58272080Y-76189285D02*
X58176842Y-76236904D01*
X58176842Y-76236904D02*
X57938747Y-76236904D01*
X57938747Y-76236904D02*
X57843509Y-76189285D01*
X57843509Y-76189285D02*
X57795890Y-76141666D01*
X57795890Y-76141666D02*
X57748271Y-76046428D01*
X57748271Y-76046428D02*
X57748271Y-75855952D01*
X57748271Y-75855952D02*
X57795890Y-75760714D01*
X57795890Y-75760714D02*
X57843509Y-75713095D01*
X57843509Y-75713095D02*
X57938747Y-75665476D01*
X93604819Y-140401905D02*
X93604819Y-140973333D01*
X94604819Y-140687619D02*
X93604819Y-140687619D01*
X94604819Y-141306667D02*
X93604819Y-141306667D01*
X93604819Y-141306667D02*
X93604819Y-141687619D01*
X93604819Y-141687619D02*
X93652438Y-141782857D01*
X93652438Y-141782857D02*
X93700057Y-141830476D01*
X93700057Y-141830476D02*
X93795295Y-141878095D01*
X93795295Y-141878095D02*
X93938152Y-141878095D01*
X93938152Y-141878095D02*
X94033390Y-141830476D01*
X94033390Y-141830476D02*
X94081009Y-141782857D01*
X94081009Y-141782857D02*
X94128628Y-141687619D01*
X94128628Y-141687619D02*
X94128628Y-141306667D01*
X93700057Y-142259048D02*
X93652438Y-142306667D01*
X93652438Y-142306667D02*
X93604819Y-142401905D01*
X93604819Y-142401905D02*
X93604819Y-142640000D01*
X93604819Y-142640000D02*
X93652438Y-142735238D01*
X93652438Y-142735238D02*
X93700057Y-142782857D01*
X93700057Y-142782857D02*
X93795295Y-142830476D01*
X93795295Y-142830476D02*
X93890533Y-142830476D01*
X93890533Y-142830476D02*
X94033390Y-142782857D01*
X94033390Y-142782857D02*
X94604819Y-142211429D01*
X94604819Y-142211429D02*
X94604819Y-142830476D01*
X93700057Y-143211429D02*
X93652438Y-143259048D01*
X93652438Y-143259048D02*
X93604819Y-143354286D01*
X93604819Y-143354286D02*
X93604819Y-143592381D01*
X93604819Y-143592381D02*
X93652438Y-143687619D01*
X93652438Y-143687619D02*
X93700057Y-143735238D01*
X93700057Y-143735238D02*
X93795295Y-143782857D01*
X93795295Y-143782857D02*
X93890533Y-143782857D01*
X93890533Y-143782857D02*
X94033390Y-143735238D01*
X94033390Y-143735238D02*
X94604819Y-143163810D01*
X94604819Y-143163810D02*
X94604819Y-143782857D01*
X49555357Y-74034580D02*
X49602976Y-74082200D01*
X49602976Y-74082200D02*
X49745833Y-74129819D01*
X49745833Y-74129819D02*
X49841071Y-74129819D01*
X49841071Y-74129819D02*
X49983928Y-74082200D01*
X49983928Y-74082200D02*
X50079166Y-73986961D01*
X50079166Y-73986961D02*
X50126785Y-73891723D01*
X50126785Y-73891723D02*
X50174404Y-73701247D01*
X50174404Y-73701247D02*
X50174404Y-73558390D01*
X50174404Y-73558390D02*
X50126785Y-73367914D01*
X50126785Y-73367914D02*
X50079166Y-73272676D01*
X50079166Y-73272676D02*
X49983928Y-73177438D01*
X49983928Y-73177438D02*
X49841071Y-73129819D01*
X49841071Y-73129819D02*
X49745833Y-73129819D01*
X49745833Y-73129819D02*
X49602976Y-73177438D01*
X49602976Y-73177438D02*
X49555357Y-73225057D01*
X48698214Y-73129819D02*
X48888690Y-73129819D01*
X48888690Y-73129819D02*
X48983928Y-73177438D01*
X48983928Y-73177438D02*
X49031547Y-73225057D01*
X49031547Y-73225057D02*
X49126785Y-73367914D01*
X49126785Y-73367914D02*
X49174404Y-73558390D01*
X49174404Y-73558390D02*
X49174404Y-73939342D01*
X49174404Y-73939342D02*
X49126785Y-74034580D01*
X49126785Y-74034580D02*
X49079166Y-74082200D01*
X49079166Y-74082200D02*
X48983928Y-74129819D01*
X48983928Y-74129819D02*
X48793452Y-74129819D01*
X48793452Y-74129819D02*
X48698214Y-74082200D01*
X48698214Y-74082200D02*
X48650595Y-74034580D01*
X48650595Y-74034580D02*
X48602976Y-73939342D01*
X48602976Y-73939342D02*
X48602976Y-73701247D01*
X48602976Y-73701247D02*
X48650595Y-73606009D01*
X48650595Y-73606009D02*
X48698214Y-73558390D01*
X48698214Y-73558390D02*
X48793452Y-73510771D01*
X48793452Y-73510771D02*
X48983928Y-73510771D01*
X48983928Y-73510771D02*
X49079166Y-73558390D01*
X49079166Y-73558390D02*
X49126785Y-73606009D01*
X49126785Y-73606009D02*
X49174404Y-73701247D01*
X48269642Y-73129819D02*
X47650595Y-73129819D01*
X47650595Y-73129819D02*
X47983928Y-73510771D01*
X47983928Y-73510771D02*
X47841071Y-73510771D01*
X47841071Y-73510771D02*
X47745833Y-73558390D01*
X47745833Y-73558390D02*
X47698214Y-73606009D01*
X47698214Y-73606009D02*
X47650595Y-73701247D01*
X47650595Y-73701247D02*
X47650595Y-73939342D01*
X47650595Y-73939342D02*
X47698214Y-74034580D01*
X47698214Y-74034580D02*
X47745833Y-74082200D01*
X47745833Y-74082200D02*
X47841071Y-74129819D01*
X47841071Y-74129819D02*
X48126785Y-74129819D01*
X48126785Y-74129819D02*
X48222023Y-74082200D01*
X48222023Y-74082200D02*
X48269642Y-74034580D01*
X100969523Y-62944819D02*
X100969523Y-63659104D01*
X100969523Y-63659104D02*
X101017142Y-63801961D01*
X101017142Y-63801961D02*
X101112380Y-63897200D01*
X101112380Y-63897200D02*
X101255237Y-63944819D01*
X101255237Y-63944819D02*
X101350475Y-63944819D01*
X100493332Y-63944819D02*
X100493332Y-62944819D01*
X100493332Y-62944819D02*
X100112380Y-62944819D01*
X100112380Y-62944819D02*
X100017142Y-62992438D01*
X100017142Y-62992438D02*
X99969523Y-63040057D01*
X99969523Y-63040057D02*
X99921904Y-63135295D01*
X99921904Y-63135295D02*
X99921904Y-63278152D01*
X99921904Y-63278152D02*
X99969523Y-63373390D01*
X99969523Y-63373390D02*
X100017142Y-63421009D01*
X100017142Y-63421009D02*
X100112380Y-63468628D01*
X100112380Y-63468628D02*
X100493332Y-63468628D01*
X98969523Y-63944819D02*
X99540951Y-63944819D01*
X99255237Y-63944819D02*
X99255237Y-62944819D01*
X99255237Y-62944819D02*
X99350475Y-63087676D01*
X99350475Y-63087676D02*
X99445713Y-63182914D01*
X99445713Y-63182914D02*
X99540951Y-63230533D01*
X98112380Y-62944819D02*
X98302856Y-62944819D01*
X98302856Y-62944819D02*
X98398094Y-62992438D01*
X98398094Y-62992438D02*
X98445713Y-63040057D01*
X98445713Y-63040057D02*
X98540951Y-63182914D01*
X98540951Y-63182914D02*
X98588570Y-63373390D01*
X98588570Y-63373390D02*
X98588570Y-63754342D01*
X98588570Y-63754342D02*
X98540951Y-63849580D01*
X98540951Y-63849580D02*
X98493332Y-63897200D01*
X98493332Y-63897200D02*
X98398094Y-63944819D01*
X98398094Y-63944819D02*
X98207618Y-63944819D01*
X98207618Y-63944819D02*
X98112380Y-63897200D01*
X98112380Y-63897200D02*
X98064761Y-63849580D01*
X98064761Y-63849580D02*
X98017142Y-63754342D01*
X98017142Y-63754342D02*
X98017142Y-63516247D01*
X98017142Y-63516247D02*
X98064761Y-63421009D01*
X98064761Y-63421009D02*
X98112380Y-63373390D01*
X98112380Y-63373390D02*
X98207618Y-63325771D01*
X98207618Y-63325771D02*
X98398094Y-63325771D01*
X98398094Y-63325771D02*
X98493332Y-63373390D01*
X98493332Y-63373390D02*
X98540951Y-63421009D01*
X98540951Y-63421009D02*
X98588570Y-63516247D01*
X88854819Y-54861905D02*
X88854819Y-55433333D01*
X89854819Y-55147619D02*
X88854819Y-55147619D01*
X89854819Y-55766667D02*
X88854819Y-55766667D01*
X88854819Y-55766667D02*
X88854819Y-56147619D01*
X88854819Y-56147619D02*
X88902438Y-56242857D01*
X88902438Y-56242857D02*
X88950057Y-56290476D01*
X88950057Y-56290476D02*
X89045295Y-56338095D01*
X89045295Y-56338095D02*
X89188152Y-56338095D01*
X89188152Y-56338095D02*
X89283390Y-56290476D01*
X89283390Y-56290476D02*
X89331009Y-56242857D01*
X89331009Y-56242857D02*
X89378628Y-56147619D01*
X89378628Y-56147619D02*
X89378628Y-55766667D01*
X88950057Y-56719048D02*
X88902438Y-56766667D01*
X88902438Y-56766667D02*
X88854819Y-56861905D01*
X88854819Y-56861905D02*
X88854819Y-57100000D01*
X88854819Y-57100000D02*
X88902438Y-57195238D01*
X88902438Y-57195238D02*
X88950057Y-57242857D01*
X88950057Y-57242857D02*
X89045295Y-57290476D01*
X89045295Y-57290476D02*
X89140533Y-57290476D01*
X89140533Y-57290476D02*
X89283390Y-57242857D01*
X89283390Y-57242857D02*
X89854819Y-56671429D01*
X89854819Y-56671429D02*
X89854819Y-57290476D01*
X88854819Y-57623810D02*
X88854819Y-58290476D01*
X88854819Y-58290476D02*
X89854819Y-57861905D01*
X82022085Y-146654693D02*
X82022085Y-145654693D01*
X82022085Y-145654693D02*
X81783990Y-145654693D01*
X81783990Y-145654693D02*
X81641133Y-145702312D01*
X81641133Y-145702312D02*
X81545895Y-145797550D01*
X81545895Y-145797550D02*
X81498276Y-145892788D01*
X81498276Y-145892788D02*
X81450657Y-146083264D01*
X81450657Y-146083264D02*
X81450657Y-146226121D01*
X81450657Y-146226121D02*
X81498276Y-146416597D01*
X81498276Y-146416597D02*
X81545895Y-146511835D01*
X81545895Y-146511835D02*
X81641133Y-146607074D01*
X81641133Y-146607074D02*
X81783990Y-146654693D01*
X81783990Y-146654693D02*
X82022085Y-146654693D01*
X81069704Y-145749931D02*
X81022085Y-145702312D01*
X81022085Y-145702312D02*
X80926847Y-145654693D01*
X80926847Y-145654693D02*
X80688752Y-145654693D01*
X80688752Y-145654693D02*
X80593514Y-145702312D01*
X80593514Y-145702312D02*
X80545895Y-145749931D01*
X80545895Y-145749931D02*
X80498276Y-145845169D01*
X80498276Y-145845169D02*
X80498276Y-145940407D01*
X80498276Y-145940407D02*
X80545895Y-146083264D01*
X80545895Y-146083264D02*
X81117323Y-146654693D01*
X81117323Y-146654693D02*
X80498276Y-146654693D01*
X80117323Y-145749931D02*
X80069704Y-145702312D01*
X80069704Y-145702312D02*
X79974466Y-145654693D01*
X79974466Y-145654693D02*
X79736371Y-145654693D01*
X79736371Y-145654693D02*
X79641133Y-145702312D01*
X79641133Y-145702312D02*
X79593514Y-145749931D01*
X79593514Y-145749931D02*
X79545895Y-145845169D01*
X79545895Y-145845169D02*
X79545895Y-145940407D01*
X79545895Y-145940407D02*
X79593514Y-146083264D01*
X79593514Y-146083264D02*
X80164942Y-146654693D01*
X80164942Y-146654693D02*
X79545895Y-146654693D01*
X143289523Y-121834819D02*
X143289523Y-122549104D01*
X143289523Y-122549104D02*
X143337142Y-122691961D01*
X143337142Y-122691961D02*
X143432380Y-122787200D01*
X143432380Y-122787200D02*
X143575237Y-122834819D01*
X143575237Y-122834819D02*
X143670475Y-122834819D01*
X142813332Y-122834819D02*
X142813332Y-121834819D01*
X142813332Y-121834819D02*
X142432380Y-121834819D01*
X142432380Y-121834819D02*
X142337142Y-121882438D01*
X142337142Y-121882438D02*
X142289523Y-121930057D01*
X142289523Y-121930057D02*
X142241904Y-122025295D01*
X142241904Y-122025295D02*
X142241904Y-122168152D01*
X142241904Y-122168152D02*
X142289523Y-122263390D01*
X142289523Y-122263390D02*
X142337142Y-122311009D01*
X142337142Y-122311009D02*
X142432380Y-122358628D01*
X142432380Y-122358628D02*
X142813332Y-122358628D01*
X141289523Y-122834819D02*
X141860951Y-122834819D01*
X141575237Y-122834819D02*
X141575237Y-121834819D01*
X141575237Y-121834819D02*
X141670475Y-121977676D01*
X141670475Y-121977676D02*
X141765713Y-122072914D01*
X141765713Y-122072914D02*
X141860951Y-122120533D01*
X140956189Y-121834819D02*
X140289523Y-121834819D01*
X140289523Y-121834819D02*
X140718094Y-122834819D01*
X106838094Y-88106819D02*
X106266666Y-88106819D01*
X106552380Y-89106819D02*
X106552380Y-88106819D01*
X105933332Y-89106819D02*
X105933332Y-88106819D01*
X105933332Y-88106819D02*
X105552380Y-88106819D01*
X105552380Y-88106819D02*
X105457142Y-88154438D01*
X105457142Y-88154438D02*
X105409523Y-88202057D01*
X105409523Y-88202057D02*
X105361904Y-88297295D01*
X105361904Y-88297295D02*
X105361904Y-88440152D01*
X105361904Y-88440152D02*
X105409523Y-88535390D01*
X105409523Y-88535390D02*
X105457142Y-88583009D01*
X105457142Y-88583009D02*
X105552380Y-88630628D01*
X105552380Y-88630628D02*
X105933332Y-88630628D01*
X104409523Y-89106819D02*
X104980951Y-89106819D01*
X104695237Y-89106819D02*
X104695237Y-88106819D01*
X104695237Y-88106819D02*
X104790475Y-88249676D01*
X104790475Y-88249676D02*
X104885713Y-88344914D01*
X104885713Y-88344914D02*
X104980951Y-88392533D01*
X103552380Y-88440152D02*
X103552380Y-89106819D01*
X103790475Y-88059200D02*
X104028570Y-88773485D01*
X104028570Y-88773485D02*
X103409523Y-88773485D01*
X60672080Y-84032142D02*
X60719700Y-83984523D01*
X60719700Y-83984523D02*
X60767319Y-83841666D01*
X60767319Y-83841666D02*
X60767319Y-83746428D01*
X60767319Y-83746428D02*
X60719700Y-83603571D01*
X60719700Y-83603571D02*
X60624461Y-83508333D01*
X60624461Y-83508333D02*
X60529223Y-83460714D01*
X60529223Y-83460714D02*
X60338747Y-83413095D01*
X60338747Y-83413095D02*
X60195890Y-83413095D01*
X60195890Y-83413095D02*
X60005414Y-83460714D01*
X60005414Y-83460714D02*
X59910176Y-83508333D01*
X59910176Y-83508333D02*
X59814938Y-83603571D01*
X59814938Y-83603571D02*
X59767319Y-83746428D01*
X59767319Y-83746428D02*
X59767319Y-83841666D01*
X59767319Y-83841666D02*
X59814938Y-83984523D01*
X59814938Y-83984523D02*
X59862557Y-84032142D01*
X59767319Y-84365476D02*
X59767319Y-85032142D01*
X59767319Y-85032142D02*
X60767319Y-84603571D01*
X60767319Y-85936904D02*
X60767319Y-85365476D01*
X60767319Y-85651190D02*
X59767319Y-85651190D01*
X59767319Y-85651190D02*
X59910176Y-85555952D01*
X59910176Y-85555952D02*
X60005414Y-85460714D01*
X60005414Y-85460714D02*
X60053033Y-85365476D01*
X77018094Y-101786819D02*
X76446666Y-101786819D01*
X76732380Y-102786819D02*
X76732380Y-101786819D01*
X76113332Y-102786819D02*
X76113332Y-101786819D01*
X76113332Y-101786819D02*
X75732380Y-101786819D01*
X75732380Y-101786819D02*
X75637142Y-101834438D01*
X75637142Y-101834438D02*
X75589523Y-101882057D01*
X75589523Y-101882057D02*
X75541904Y-101977295D01*
X75541904Y-101977295D02*
X75541904Y-102120152D01*
X75541904Y-102120152D02*
X75589523Y-102215390D01*
X75589523Y-102215390D02*
X75637142Y-102263009D01*
X75637142Y-102263009D02*
X75732380Y-102310628D01*
X75732380Y-102310628D02*
X76113332Y-102310628D01*
X74589523Y-102786819D02*
X75160951Y-102786819D01*
X74875237Y-102786819D02*
X74875237Y-101786819D01*
X74875237Y-101786819D02*
X74970475Y-101929676D01*
X74970475Y-101929676D02*
X75065713Y-102024914D01*
X75065713Y-102024914D02*
X75160951Y-102072533D01*
X73970475Y-101786819D02*
X73875237Y-101786819D01*
X73875237Y-101786819D02*
X73779999Y-101834438D01*
X73779999Y-101834438D02*
X73732380Y-101882057D01*
X73732380Y-101882057D02*
X73684761Y-101977295D01*
X73684761Y-101977295D02*
X73637142Y-102167771D01*
X73637142Y-102167771D02*
X73637142Y-102405866D01*
X73637142Y-102405866D02*
X73684761Y-102596342D01*
X73684761Y-102596342D02*
X73732380Y-102691580D01*
X73732380Y-102691580D02*
X73779999Y-102739200D01*
X73779999Y-102739200D02*
X73875237Y-102786819D01*
X73875237Y-102786819D02*
X73970475Y-102786819D01*
X73970475Y-102786819D02*
X74065713Y-102739200D01*
X74065713Y-102739200D02*
X74113332Y-102691580D01*
X74113332Y-102691580D02*
X74160951Y-102596342D01*
X74160951Y-102596342D02*
X74208570Y-102405866D01*
X74208570Y-102405866D02*
X74208570Y-102167771D01*
X74208570Y-102167771D02*
X74160951Y-101977295D01*
X74160951Y-101977295D02*
X74113332Y-101882057D01*
X74113332Y-101882057D02*
X74065713Y-101834438D01*
X74065713Y-101834438D02*
X73970475Y-101786819D01*
X103238094Y-38676819D02*
X102666666Y-38676819D01*
X102952380Y-39676819D02*
X102952380Y-38676819D01*
X102333332Y-39676819D02*
X102333332Y-38676819D01*
X102333332Y-38676819D02*
X101952380Y-38676819D01*
X101952380Y-38676819D02*
X101857142Y-38724438D01*
X101857142Y-38724438D02*
X101809523Y-38772057D01*
X101809523Y-38772057D02*
X101761904Y-38867295D01*
X101761904Y-38867295D02*
X101761904Y-39010152D01*
X101761904Y-39010152D02*
X101809523Y-39105390D01*
X101809523Y-39105390D02*
X101857142Y-39153009D01*
X101857142Y-39153009D02*
X101952380Y-39200628D01*
X101952380Y-39200628D02*
X102333332Y-39200628D01*
X101380951Y-38772057D02*
X101333332Y-38724438D01*
X101333332Y-38724438D02*
X101238094Y-38676819D01*
X101238094Y-38676819D02*
X100999999Y-38676819D01*
X100999999Y-38676819D02*
X100904761Y-38724438D01*
X100904761Y-38724438D02*
X100857142Y-38772057D01*
X100857142Y-38772057D02*
X100809523Y-38867295D01*
X100809523Y-38867295D02*
X100809523Y-38962533D01*
X100809523Y-38962533D02*
X100857142Y-39105390D01*
X100857142Y-39105390D02*
X101428570Y-39676819D01*
X101428570Y-39676819D02*
X100809523Y-39676819D01*
X100238094Y-39105390D02*
X100333332Y-39057771D01*
X100333332Y-39057771D02*
X100380951Y-39010152D01*
X100380951Y-39010152D02*
X100428570Y-38914914D01*
X100428570Y-38914914D02*
X100428570Y-38867295D01*
X100428570Y-38867295D02*
X100380951Y-38772057D01*
X100380951Y-38772057D02*
X100333332Y-38724438D01*
X100333332Y-38724438D02*
X100238094Y-38676819D01*
X100238094Y-38676819D02*
X100047618Y-38676819D01*
X100047618Y-38676819D02*
X99952380Y-38724438D01*
X99952380Y-38724438D02*
X99904761Y-38772057D01*
X99904761Y-38772057D02*
X99857142Y-38867295D01*
X99857142Y-38867295D02*
X99857142Y-38914914D01*
X99857142Y-38914914D02*
X99904761Y-39010152D01*
X99904761Y-39010152D02*
X99952380Y-39057771D01*
X99952380Y-39057771D02*
X100047618Y-39105390D01*
X100047618Y-39105390D02*
X100238094Y-39105390D01*
X100238094Y-39105390D02*
X100333332Y-39153009D01*
X100333332Y-39153009D02*
X100380951Y-39200628D01*
X100380951Y-39200628D02*
X100428570Y-39295866D01*
X100428570Y-39295866D02*
X100428570Y-39486342D01*
X100428570Y-39486342D02*
X100380951Y-39581580D01*
X100380951Y-39581580D02*
X100333332Y-39629200D01*
X100333332Y-39629200D02*
X100238094Y-39676819D01*
X100238094Y-39676819D02*
X100047618Y-39676819D01*
X100047618Y-39676819D02*
X99952380Y-39629200D01*
X99952380Y-39629200D02*
X99904761Y-39581580D01*
X99904761Y-39581580D02*
X99857142Y-39486342D01*
X99857142Y-39486342D02*
X99857142Y-39295866D01*
X99857142Y-39295866D02*
X99904761Y-39200628D01*
X99904761Y-39200628D02*
X99952380Y-39153009D01*
X99952380Y-39153009D02*
X100047618Y-39105390D01*
X59072080Y-84032142D02*
X59119700Y-83984523D01*
X59119700Y-83984523D02*
X59167319Y-83841666D01*
X59167319Y-83841666D02*
X59167319Y-83746428D01*
X59167319Y-83746428D02*
X59119700Y-83603571D01*
X59119700Y-83603571D02*
X59024461Y-83508333D01*
X59024461Y-83508333D02*
X58929223Y-83460714D01*
X58929223Y-83460714D02*
X58738747Y-83413095D01*
X58738747Y-83413095D02*
X58595890Y-83413095D01*
X58595890Y-83413095D02*
X58405414Y-83460714D01*
X58405414Y-83460714D02*
X58310176Y-83508333D01*
X58310176Y-83508333D02*
X58214938Y-83603571D01*
X58214938Y-83603571D02*
X58167319Y-83746428D01*
X58167319Y-83746428D02*
X58167319Y-83841666D01*
X58167319Y-83841666D02*
X58214938Y-83984523D01*
X58214938Y-83984523D02*
X58262557Y-84032142D01*
X58167319Y-84889285D02*
X58167319Y-84698809D01*
X58167319Y-84698809D02*
X58214938Y-84603571D01*
X58214938Y-84603571D02*
X58262557Y-84555952D01*
X58262557Y-84555952D02*
X58405414Y-84460714D01*
X58405414Y-84460714D02*
X58595890Y-84413095D01*
X58595890Y-84413095D02*
X58976842Y-84413095D01*
X58976842Y-84413095D02*
X59072080Y-84460714D01*
X59072080Y-84460714D02*
X59119700Y-84508333D01*
X59119700Y-84508333D02*
X59167319Y-84603571D01*
X59167319Y-84603571D02*
X59167319Y-84794047D01*
X59167319Y-84794047D02*
X59119700Y-84889285D01*
X59119700Y-84889285D02*
X59072080Y-84936904D01*
X59072080Y-84936904D02*
X58976842Y-84984523D01*
X58976842Y-84984523D02*
X58738747Y-84984523D01*
X58738747Y-84984523D02*
X58643509Y-84936904D01*
X58643509Y-84936904D02*
X58595890Y-84889285D01*
X58595890Y-84889285D02*
X58548271Y-84794047D01*
X58548271Y-84794047D02*
X58548271Y-84603571D01*
X58548271Y-84603571D02*
X58595890Y-84508333D01*
X58595890Y-84508333D02*
X58643509Y-84460714D01*
X58643509Y-84460714D02*
X58738747Y-84413095D01*
X59167319Y-85460714D02*
X59167319Y-85651190D01*
X59167319Y-85651190D02*
X59119700Y-85746428D01*
X59119700Y-85746428D02*
X59072080Y-85794047D01*
X59072080Y-85794047D02*
X58929223Y-85889285D01*
X58929223Y-85889285D02*
X58738747Y-85936904D01*
X58738747Y-85936904D02*
X58357795Y-85936904D01*
X58357795Y-85936904D02*
X58262557Y-85889285D01*
X58262557Y-85889285D02*
X58214938Y-85841666D01*
X58214938Y-85841666D02*
X58167319Y-85746428D01*
X58167319Y-85746428D02*
X58167319Y-85555952D01*
X58167319Y-85555952D02*
X58214938Y-85460714D01*
X58214938Y-85460714D02*
X58262557Y-85413095D01*
X58262557Y-85413095D02*
X58357795Y-85365476D01*
X58357795Y-85365476D02*
X58595890Y-85365476D01*
X58595890Y-85365476D02*
X58691128Y-85413095D01*
X58691128Y-85413095D02*
X58738747Y-85460714D01*
X58738747Y-85460714D02*
X58786366Y-85555952D01*
X58786366Y-85555952D02*
X58786366Y-85746428D01*
X58786366Y-85746428D02*
X58738747Y-85841666D01*
X58738747Y-85841666D02*
X58691128Y-85889285D01*
X58691128Y-85889285D02*
X58595890Y-85936904D01*
X68442857Y-74834580D02*
X68490476Y-74882200D01*
X68490476Y-74882200D02*
X68633333Y-74929819D01*
X68633333Y-74929819D02*
X68728571Y-74929819D01*
X68728571Y-74929819D02*
X68871428Y-74882200D01*
X68871428Y-74882200D02*
X68966666Y-74786961D01*
X68966666Y-74786961D02*
X69014285Y-74691723D01*
X69014285Y-74691723D02*
X69061904Y-74501247D01*
X69061904Y-74501247D02*
X69061904Y-74358390D01*
X69061904Y-74358390D02*
X69014285Y-74167914D01*
X69014285Y-74167914D02*
X68966666Y-74072676D01*
X68966666Y-74072676D02*
X68871428Y-73977438D01*
X68871428Y-73977438D02*
X68728571Y-73929819D01*
X68728571Y-73929819D02*
X68633333Y-73929819D01*
X68633333Y-73929819D02*
X68490476Y-73977438D01*
X68490476Y-73977438D02*
X68442857Y-74025057D01*
X67538095Y-73929819D02*
X68014285Y-73929819D01*
X68014285Y-73929819D02*
X68061904Y-74406009D01*
X68061904Y-74406009D02*
X68014285Y-74358390D01*
X68014285Y-74358390D02*
X67919047Y-74310771D01*
X67919047Y-74310771D02*
X67680952Y-74310771D01*
X67680952Y-74310771D02*
X67585714Y-74358390D01*
X67585714Y-74358390D02*
X67538095Y-74406009D01*
X67538095Y-74406009D02*
X67490476Y-74501247D01*
X67490476Y-74501247D02*
X67490476Y-74739342D01*
X67490476Y-74739342D02*
X67538095Y-74834580D01*
X67538095Y-74834580D02*
X67585714Y-74882200D01*
X67585714Y-74882200D02*
X67680952Y-74929819D01*
X67680952Y-74929819D02*
X67919047Y-74929819D01*
X67919047Y-74929819D02*
X68014285Y-74882200D01*
X68014285Y-74882200D02*
X68061904Y-74834580D01*
X66585714Y-73929819D02*
X67061904Y-73929819D01*
X67061904Y-73929819D02*
X67109523Y-74406009D01*
X67109523Y-74406009D02*
X67061904Y-74358390D01*
X67061904Y-74358390D02*
X66966666Y-74310771D01*
X66966666Y-74310771D02*
X66728571Y-74310771D01*
X66728571Y-74310771D02*
X66633333Y-74358390D01*
X66633333Y-74358390D02*
X66585714Y-74406009D01*
X66585714Y-74406009D02*
X66538095Y-74501247D01*
X66538095Y-74501247D02*
X66538095Y-74739342D01*
X66538095Y-74739342D02*
X66585714Y-74834580D01*
X66585714Y-74834580D02*
X66633333Y-74882200D01*
X66633333Y-74882200D02*
X66728571Y-74929819D01*
X66728571Y-74929819D02*
X66966666Y-74929819D01*
X66966666Y-74929819D02*
X67061904Y-74882200D01*
X67061904Y-74882200D02*
X67109523Y-74834580D01*
X48298214Y-37945180D02*
X48298214Y-38945180D01*
X48298214Y-38945180D02*
X48536309Y-38945180D01*
X48536309Y-38945180D02*
X48679166Y-38897561D01*
X48679166Y-38897561D02*
X48774404Y-38802323D01*
X48774404Y-38802323D02*
X48822023Y-38707085D01*
X48822023Y-38707085D02*
X48869642Y-38516609D01*
X48869642Y-38516609D02*
X48869642Y-38373752D01*
X48869642Y-38373752D02*
X48822023Y-38183276D01*
X48822023Y-38183276D02*
X48774404Y-38088038D01*
X48774404Y-38088038D02*
X48679166Y-37992800D01*
X48679166Y-37992800D02*
X48536309Y-37945180D01*
X48536309Y-37945180D02*
X48298214Y-37945180D01*
X49822023Y-37945180D02*
X49250595Y-37945180D01*
X49536309Y-37945180D02*
X49536309Y-38945180D01*
X49536309Y-38945180D02*
X49441071Y-38802323D01*
X49441071Y-38802323D02*
X49345833Y-38707085D01*
X49345833Y-38707085D02*
X49250595Y-38659466D01*
X50155357Y-38945180D02*
X50774404Y-38945180D01*
X50774404Y-38945180D02*
X50441071Y-38564228D01*
X50441071Y-38564228D02*
X50583928Y-38564228D01*
X50583928Y-38564228D02*
X50679166Y-38516609D01*
X50679166Y-38516609D02*
X50726785Y-38468990D01*
X50726785Y-38468990D02*
X50774404Y-38373752D01*
X50774404Y-38373752D02*
X50774404Y-38135657D01*
X50774404Y-38135657D02*
X50726785Y-38040419D01*
X50726785Y-38040419D02*
X50679166Y-37992800D01*
X50679166Y-37992800D02*
X50583928Y-37945180D01*
X50583928Y-37945180D02*
X50298214Y-37945180D01*
X50298214Y-37945180D02*
X50202976Y-37992800D01*
X50202976Y-37992800D02*
X50155357Y-38040419D01*
X55345833Y-86829819D02*
X55345833Y-87544104D01*
X55345833Y-87544104D02*
X55393452Y-87686961D01*
X55393452Y-87686961D02*
X55488690Y-87782200D01*
X55488690Y-87782200D02*
X55631547Y-87829819D01*
X55631547Y-87829819D02*
X55726785Y-87829819D01*
X54869642Y-87829819D02*
X54869642Y-86829819D01*
X54869642Y-86829819D02*
X54488690Y-86829819D01*
X54488690Y-86829819D02*
X54393452Y-86877438D01*
X54393452Y-86877438D02*
X54345833Y-86925057D01*
X54345833Y-86925057D02*
X54298214Y-87020295D01*
X54298214Y-87020295D02*
X54298214Y-87163152D01*
X54298214Y-87163152D02*
X54345833Y-87258390D01*
X54345833Y-87258390D02*
X54393452Y-87306009D01*
X54393452Y-87306009D02*
X54488690Y-87353628D01*
X54488690Y-87353628D02*
X54869642Y-87353628D01*
X53441071Y-87163152D02*
X53441071Y-87829819D01*
X53679166Y-86782200D02*
X53917261Y-87496485D01*
X53917261Y-87496485D02*
X53298214Y-87496485D01*
X57854819Y-85047619D02*
X57854819Y-84571429D01*
X57854819Y-84571429D02*
X56854819Y-84571429D01*
X57854819Y-85380953D02*
X56854819Y-85380953D01*
X57854819Y-85857143D02*
X56854819Y-85857143D01*
X56854819Y-85857143D02*
X57854819Y-86428571D01*
X57854819Y-86428571D02*
X56854819Y-86428571D01*
X57854819Y-86904762D02*
X56854819Y-86904762D01*
X57854819Y-87476190D02*
X57283390Y-87047619D01*
X56854819Y-87476190D02*
X57426247Y-86904762D01*
X52154819Y-84551191D02*
X51154819Y-84551191D01*
X52154819Y-85027381D02*
X51154819Y-85027381D01*
X51154819Y-85027381D02*
X52154819Y-85598809D01*
X52154819Y-85598809D02*
X51154819Y-85598809D01*
X52154819Y-86075000D02*
X51154819Y-86075000D01*
X51154819Y-86075000D02*
X51154819Y-86313095D01*
X51154819Y-86313095D02*
X51202438Y-86455952D01*
X51202438Y-86455952D02*
X51297676Y-86551190D01*
X51297676Y-86551190D02*
X51392914Y-86598809D01*
X51392914Y-86598809D02*
X51583390Y-86646428D01*
X51583390Y-86646428D02*
X51726247Y-86646428D01*
X51726247Y-86646428D02*
X51916723Y-86598809D01*
X51916723Y-86598809D02*
X52011961Y-86551190D01*
X52011961Y-86551190D02*
X52107200Y-86455952D01*
X52107200Y-86455952D02*
X52154819Y-86313095D01*
X52154819Y-86313095D02*
X52154819Y-86075000D01*
X52755357Y-80434580D02*
X52802976Y-80482200D01*
X52802976Y-80482200D02*
X52945833Y-80529819D01*
X52945833Y-80529819D02*
X53041071Y-80529819D01*
X53041071Y-80529819D02*
X53183928Y-80482200D01*
X53183928Y-80482200D02*
X53279166Y-80386961D01*
X53279166Y-80386961D02*
X53326785Y-80291723D01*
X53326785Y-80291723D02*
X53374404Y-80101247D01*
X53374404Y-80101247D02*
X53374404Y-79958390D01*
X53374404Y-79958390D02*
X53326785Y-79767914D01*
X53326785Y-79767914D02*
X53279166Y-79672676D01*
X53279166Y-79672676D02*
X53183928Y-79577438D01*
X53183928Y-79577438D02*
X53041071Y-79529819D01*
X53041071Y-79529819D02*
X52945833Y-79529819D01*
X52945833Y-79529819D02*
X52802976Y-79577438D01*
X52802976Y-79577438D02*
X52755357Y-79625057D01*
X52422023Y-79529819D02*
X51755357Y-79529819D01*
X51755357Y-79529819D02*
X52183928Y-80529819D01*
X51231547Y-79958390D02*
X51326785Y-79910771D01*
X51326785Y-79910771D02*
X51374404Y-79863152D01*
X51374404Y-79863152D02*
X51422023Y-79767914D01*
X51422023Y-79767914D02*
X51422023Y-79720295D01*
X51422023Y-79720295D02*
X51374404Y-79625057D01*
X51374404Y-79625057D02*
X51326785Y-79577438D01*
X51326785Y-79577438D02*
X51231547Y-79529819D01*
X51231547Y-79529819D02*
X51041071Y-79529819D01*
X51041071Y-79529819D02*
X50945833Y-79577438D01*
X50945833Y-79577438D02*
X50898214Y-79625057D01*
X50898214Y-79625057D02*
X50850595Y-79720295D01*
X50850595Y-79720295D02*
X50850595Y-79767914D01*
X50850595Y-79767914D02*
X50898214Y-79863152D01*
X50898214Y-79863152D02*
X50945833Y-79910771D01*
X50945833Y-79910771D02*
X51041071Y-79958390D01*
X51041071Y-79958390D02*
X51231547Y-79958390D01*
X51231547Y-79958390D02*
X51326785Y-80006009D01*
X51326785Y-80006009D02*
X51374404Y-80053628D01*
X51374404Y-80053628D02*
X51422023Y-80148866D01*
X51422023Y-80148866D02*
X51422023Y-80339342D01*
X51422023Y-80339342D02*
X51374404Y-80434580D01*
X51374404Y-80434580D02*
X51326785Y-80482200D01*
X51326785Y-80482200D02*
X51231547Y-80529819D01*
X51231547Y-80529819D02*
X51041071Y-80529819D01*
X51041071Y-80529819D02*
X50945833Y-80482200D01*
X50945833Y-80482200D02*
X50898214Y-80434580D01*
X50898214Y-80434580D02*
X50850595Y-80339342D01*
X50850595Y-80339342D02*
X50850595Y-80148866D01*
X50850595Y-80148866D02*
X50898214Y-80053628D01*
X50898214Y-80053628D02*
X50945833Y-80006009D01*
X50945833Y-80006009D02*
X51041071Y-79958390D01*
X65572080Y-84032142D02*
X65619700Y-83984523D01*
X65619700Y-83984523D02*
X65667319Y-83841666D01*
X65667319Y-83841666D02*
X65667319Y-83746428D01*
X65667319Y-83746428D02*
X65619700Y-83603571D01*
X65619700Y-83603571D02*
X65524461Y-83508333D01*
X65524461Y-83508333D02*
X65429223Y-83460714D01*
X65429223Y-83460714D02*
X65238747Y-83413095D01*
X65238747Y-83413095D02*
X65095890Y-83413095D01*
X65095890Y-83413095D02*
X64905414Y-83460714D01*
X64905414Y-83460714D02*
X64810176Y-83508333D01*
X64810176Y-83508333D02*
X64714938Y-83603571D01*
X64714938Y-83603571D02*
X64667319Y-83746428D01*
X64667319Y-83746428D02*
X64667319Y-83841666D01*
X64667319Y-83841666D02*
X64714938Y-83984523D01*
X64714938Y-83984523D02*
X64762557Y-84032142D01*
X64667319Y-84365476D02*
X64667319Y-85032142D01*
X64667319Y-85032142D02*
X65667319Y-84603571D01*
X64667319Y-85317857D02*
X64667319Y-85984523D01*
X64667319Y-85984523D02*
X65667319Y-85555952D01*
X52755357Y-72034580D02*
X52802976Y-72082200D01*
X52802976Y-72082200D02*
X52945833Y-72129819D01*
X52945833Y-72129819D02*
X53041071Y-72129819D01*
X53041071Y-72129819D02*
X53183928Y-72082200D01*
X53183928Y-72082200D02*
X53279166Y-71986961D01*
X53279166Y-71986961D02*
X53326785Y-71891723D01*
X53326785Y-71891723D02*
X53374404Y-71701247D01*
X53374404Y-71701247D02*
X53374404Y-71558390D01*
X53374404Y-71558390D02*
X53326785Y-71367914D01*
X53326785Y-71367914D02*
X53279166Y-71272676D01*
X53279166Y-71272676D02*
X53183928Y-71177438D01*
X53183928Y-71177438D02*
X53041071Y-71129819D01*
X53041071Y-71129819D02*
X52945833Y-71129819D01*
X52945833Y-71129819D02*
X52802976Y-71177438D01*
X52802976Y-71177438D02*
X52755357Y-71225057D01*
X52422023Y-71129819D02*
X51755357Y-71129819D01*
X51755357Y-71129819D02*
X52183928Y-72129819D01*
X50898214Y-71129819D02*
X51374404Y-71129819D01*
X51374404Y-71129819D02*
X51422023Y-71606009D01*
X51422023Y-71606009D02*
X51374404Y-71558390D01*
X51374404Y-71558390D02*
X51279166Y-71510771D01*
X51279166Y-71510771D02*
X51041071Y-71510771D01*
X51041071Y-71510771D02*
X50945833Y-71558390D01*
X50945833Y-71558390D02*
X50898214Y-71606009D01*
X50898214Y-71606009D02*
X50850595Y-71701247D01*
X50850595Y-71701247D02*
X50850595Y-71939342D01*
X50850595Y-71939342D02*
X50898214Y-72034580D01*
X50898214Y-72034580D02*
X50945833Y-72082200D01*
X50945833Y-72082200D02*
X51041071Y-72129819D01*
X51041071Y-72129819D02*
X51279166Y-72129819D01*
X51279166Y-72129819D02*
X51374404Y-72082200D01*
X51374404Y-72082200D02*
X51422023Y-72034580D01*
X78333333Y-80529819D02*
X78333333Y-81244104D01*
X78333333Y-81244104D02*
X78380952Y-81386961D01*
X78380952Y-81386961D02*
X78476190Y-81482200D01*
X78476190Y-81482200D02*
X78619047Y-81529819D01*
X78619047Y-81529819D02*
X78714285Y-81529819D01*
X77857142Y-81529819D02*
X77857142Y-80529819D01*
X77857142Y-80529819D02*
X77476190Y-80529819D01*
X77476190Y-80529819D02*
X77380952Y-80577438D01*
X77380952Y-80577438D02*
X77333333Y-80625057D01*
X77333333Y-80625057D02*
X77285714Y-80720295D01*
X77285714Y-80720295D02*
X77285714Y-80863152D01*
X77285714Y-80863152D02*
X77333333Y-80958390D01*
X77333333Y-80958390D02*
X77380952Y-81006009D01*
X77380952Y-81006009D02*
X77476190Y-81053628D01*
X77476190Y-81053628D02*
X77857142Y-81053628D01*
X76380952Y-80529819D02*
X76857142Y-80529819D01*
X76857142Y-80529819D02*
X76904761Y-81006009D01*
X76904761Y-81006009D02*
X76857142Y-80958390D01*
X76857142Y-80958390D02*
X76761904Y-80910771D01*
X76761904Y-80910771D02*
X76523809Y-80910771D01*
X76523809Y-80910771D02*
X76428571Y-80958390D01*
X76428571Y-80958390D02*
X76380952Y-81006009D01*
X76380952Y-81006009D02*
X76333333Y-81101247D01*
X76333333Y-81101247D02*
X76333333Y-81339342D01*
X76333333Y-81339342D02*
X76380952Y-81434580D01*
X76380952Y-81434580D02*
X76428571Y-81482200D01*
X76428571Y-81482200D02*
X76523809Y-81529819D01*
X76523809Y-81529819D02*
X76761904Y-81529819D01*
X76761904Y-81529819D02*
X76857142Y-81482200D01*
X76857142Y-81482200D02*
X76904761Y-81434580D01*
X69660118Y-80429819D02*
X69564880Y-80429819D01*
X69564880Y-80429819D02*
X69469642Y-80477438D01*
X69469642Y-80477438D02*
X69422023Y-80525057D01*
X69422023Y-80525057D02*
X69374404Y-80620295D01*
X69374404Y-80620295D02*
X69326785Y-80810771D01*
X69326785Y-80810771D02*
X69326785Y-81048866D01*
X69326785Y-81048866D02*
X69374404Y-81239342D01*
X69374404Y-81239342D02*
X69422023Y-81334580D01*
X69422023Y-81334580D02*
X69469642Y-81382200D01*
X69469642Y-81382200D02*
X69564880Y-81429819D01*
X69564880Y-81429819D02*
X69660118Y-81429819D01*
X69660118Y-81429819D02*
X69755356Y-81382200D01*
X69755356Y-81382200D02*
X69802975Y-81334580D01*
X69802975Y-81334580D02*
X69850594Y-81239342D01*
X69850594Y-81239342D02*
X69898213Y-81048866D01*
X69898213Y-81048866D02*
X69898213Y-80810771D01*
X69898213Y-80810771D02*
X69850594Y-80620295D01*
X69850594Y-80620295D02*
X69802975Y-80525057D01*
X69802975Y-80525057D02*
X69755356Y-80477438D01*
X69755356Y-80477438D02*
X69660118Y-80429819D01*
X74526785Y-81429819D02*
X75098213Y-81429819D01*
X74812499Y-81429819D02*
X74812499Y-80429819D01*
X74812499Y-80429819D02*
X74907737Y-80572676D01*
X74907737Y-80572676D02*
X75002975Y-80667914D01*
X75002975Y-80667914D02*
X75098213Y-80715533D01*
X119901904Y-91982819D02*
X119330476Y-91982819D01*
X119616190Y-92982819D02*
X119616190Y-91982819D01*
X118997142Y-92982819D02*
X118997142Y-91982819D01*
X118997142Y-91982819D02*
X118616190Y-91982819D01*
X118616190Y-91982819D02*
X118520952Y-92030438D01*
X118520952Y-92030438D02*
X118473333Y-92078057D01*
X118473333Y-92078057D02*
X118425714Y-92173295D01*
X118425714Y-92173295D02*
X118425714Y-92316152D01*
X118425714Y-92316152D02*
X118473333Y-92411390D01*
X118473333Y-92411390D02*
X118520952Y-92459009D01*
X118520952Y-92459009D02*
X118616190Y-92506628D01*
X118616190Y-92506628D02*
X118997142Y-92506628D01*
X118092380Y-91982819D02*
X117425714Y-91982819D01*
X117425714Y-91982819D02*
X117854285Y-92982819D01*
X146534819Y-150661905D02*
X146534819Y-151233333D01*
X147534819Y-150947619D02*
X146534819Y-150947619D01*
X147534819Y-151566667D02*
X146534819Y-151566667D01*
X146534819Y-151566667D02*
X146534819Y-151947619D01*
X146534819Y-151947619D02*
X146582438Y-152042857D01*
X146582438Y-152042857D02*
X146630057Y-152090476D01*
X146630057Y-152090476D02*
X146725295Y-152138095D01*
X146725295Y-152138095D02*
X146868152Y-152138095D01*
X146868152Y-152138095D02*
X146963390Y-152090476D01*
X146963390Y-152090476D02*
X147011009Y-152042857D01*
X147011009Y-152042857D02*
X147058628Y-151947619D01*
X147058628Y-151947619D02*
X147058628Y-151566667D01*
X146534819Y-152471429D02*
X146534819Y-153090476D01*
X146534819Y-153090476D02*
X146915771Y-152757143D01*
X146915771Y-152757143D02*
X146915771Y-152900000D01*
X146915771Y-152900000D02*
X146963390Y-152995238D01*
X146963390Y-152995238D02*
X147011009Y-153042857D01*
X147011009Y-153042857D02*
X147106247Y-153090476D01*
X147106247Y-153090476D02*
X147344342Y-153090476D01*
X147344342Y-153090476D02*
X147439580Y-153042857D01*
X147439580Y-153042857D02*
X147487200Y-152995238D01*
X147487200Y-152995238D02*
X147534819Y-152900000D01*
X147534819Y-152900000D02*
X147534819Y-152614286D01*
X147534819Y-152614286D02*
X147487200Y-152519048D01*
X147487200Y-152519048D02*
X147439580Y-152471429D01*
X146630057Y-153471429D02*
X146582438Y-153519048D01*
X146582438Y-153519048D02*
X146534819Y-153614286D01*
X146534819Y-153614286D02*
X146534819Y-153852381D01*
X146534819Y-153852381D02*
X146582438Y-153947619D01*
X146582438Y-153947619D02*
X146630057Y-153995238D01*
X146630057Y-153995238D02*
X146725295Y-154042857D01*
X146725295Y-154042857D02*
X146820533Y-154042857D01*
X146820533Y-154042857D02*
X146963390Y-153995238D01*
X146963390Y-153995238D02*
X147534819Y-153423810D01*
X147534819Y-153423810D02*
X147534819Y-154042857D01*
X99004819Y-140521905D02*
X99004819Y-141093333D01*
X100004819Y-140807619D02*
X99004819Y-140807619D01*
X100004819Y-141426667D02*
X99004819Y-141426667D01*
X99004819Y-141426667D02*
X99004819Y-141807619D01*
X99004819Y-141807619D02*
X99052438Y-141902857D01*
X99052438Y-141902857D02*
X99100057Y-141950476D01*
X99100057Y-141950476D02*
X99195295Y-141998095D01*
X99195295Y-141998095D02*
X99338152Y-141998095D01*
X99338152Y-141998095D02*
X99433390Y-141950476D01*
X99433390Y-141950476D02*
X99481009Y-141902857D01*
X99481009Y-141902857D02*
X99528628Y-141807619D01*
X99528628Y-141807619D02*
X99528628Y-141426667D01*
X99004819Y-142331429D02*
X99004819Y-142950476D01*
X99004819Y-142950476D02*
X99385771Y-142617143D01*
X99385771Y-142617143D02*
X99385771Y-142760000D01*
X99385771Y-142760000D02*
X99433390Y-142855238D01*
X99433390Y-142855238D02*
X99481009Y-142902857D01*
X99481009Y-142902857D02*
X99576247Y-142950476D01*
X99576247Y-142950476D02*
X99814342Y-142950476D01*
X99814342Y-142950476D02*
X99909580Y-142902857D01*
X99909580Y-142902857D02*
X99957200Y-142855238D01*
X99957200Y-142855238D02*
X100004819Y-142760000D01*
X100004819Y-142760000D02*
X100004819Y-142474286D01*
X100004819Y-142474286D02*
X99957200Y-142379048D01*
X99957200Y-142379048D02*
X99909580Y-142331429D01*
X99004819Y-143569524D02*
X99004819Y-143664762D01*
X99004819Y-143664762D02*
X99052438Y-143760000D01*
X99052438Y-143760000D02*
X99100057Y-143807619D01*
X99100057Y-143807619D02*
X99195295Y-143855238D01*
X99195295Y-143855238D02*
X99385771Y-143902857D01*
X99385771Y-143902857D02*
X99623866Y-143902857D01*
X99623866Y-143902857D02*
X99814342Y-143855238D01*
X99814342Y-143855238D02*
X99909580Y-143807619D01*
X99909580Y-143807619D02*
X99957200Y-143760000D01*
X99957200Y-143760000D02*
X100004819Y-143664762D01*
X100004819Y-143664762D02*
X100004819Y-143569524D01*
X100004819Y-143569524D02*
X99957200Y-143474286D01*
X99957200Y-143474286D02*
X99909580Y-143426667D01*
X99909580Y-143426667D02*
X99814342Y-143379048D01*
X99814342Y-143379048D02*
X99623866Y-143331429D01*
X99623866Y-143331429D02*
X99385771Y-143331429D01*
X99385771Y-143331429D02*
X99195295Y-143379048D01*
X99195295Y-143379048D02*
X99100057Y-143426667D01*
X99100057Y-143426667D02*
X99052438Y-143474286D01*
X99052438Y-143474286D02*
X99004819Y-143569524D01*
X76474404Y-105506819D02*
X75902976Y-105506819D01*
X76188690Y-106506819D02*
X76188690Y-105506819D01*
X75569642Y-106506819D02*
X75569642Y-105506819D01*
X75569642Y-105506819D02*
X75188690Y-105506819D01*
X75188690Y-105506819D02*
X75093452Y-105554438D01*
X75093452Y-105554438D02*
X75045833Y-105602057D01*
X75045833Y-105602057D02*
X74998214Y-105697295D01*
X74998214Y-105697295D02*
X74998214Y-105840152D01*
X74998214Y-105840152D02*
X75045833Y-105935390D01*
X75045833Y-105935390D02*
X75093452Y-105983009D01*
X75093452Y-105983009D02*
X75188690Y-106030628D01*
X75188690Y-106030628D02*
X75569642Y-106030628D01*
X74617261Y-105602057D02*
X74569642Y-105554438D01*
X74569642Y-105554438D02*
X74474404Y-105506819D01*
X74474404Y-105506819D02*
X74236309Y-105506819D01*
X74236309Y-105506819D02*
X74141071Y-105554438D01*
X74141071Y-105554438D02*
X74093452Y-105602057D01*
X74093452Y-105602057D02*
X74045833Y-105697295D01*
X74045833Y-105697295D02*
X74045833Y-105792533D01*
X74045833Y-105792533D02*
X74093452Y-105935390D01*
X74093452Y-105935390D02*
X74664880Y-106506819D01*
X74664880Y-106506819D02*
X74045833Y-106506819D01*
X94841904Y-132696819D02*
X94270476Y-132696819D01*
X94556190Y-133696819D02*
X94556190Y-132696819D01*
X93937142Y-133696819D02*
X93937142Y-132696819D01*
X93937142Y-132696819D02*
X93556190Y-132696819D01*
X93556190Y-132696819D02*
X93460952Y-132744438D01*
X93460952Y-132744438D02*
X93413333Y-132792057D01*
X93413333Y-132792057D02*
X93365714Y-132887295D01*
X93365714Y-132887295D02*
X93365714Y-133030152D01*
X93365714Y-133030152D02*
X93413333Y-133125390D01*
X93413333Y-133125390D02*
X93460952Y-133173009D01*
X93460952Y-133173009D02*
X93556190Y-133220628D01*
X93556190Y-133220628D02*
X93937142Y-133220628D01*
X92460952Y-132696819D02*
X92937142Y-132696819D01*
X92937142Y-132696819D02*
X92984761Y-133173009D01*
X92984761Y-133173009D02*
X92937142Y-133125390D01*
X92937142Y-133125390D02*
X92841904Y-133077771D01*
X92841904Y-133077771D02*
X92603809Y-133077771D01*
X92603809Y-133077771D02*
X92508571Y-133125390D01*
X92508571Y-133125390D02*
X92460952Y-133173009D01*
X92460952Y-133173009D02*
X92413333Y-133268247D01*
X92413333Y-133268247D02*
X92413333Y-133506342D01*
X92413333Y-133506342D02*
X92460952Y-133601580D01*
X92460952Y-133601580D02*
X92508571Y-133649200D01*
X92508571Y-133649200D02*
X92603809Y-133696819D01*
X92603809Y-133696819D02*
X92841904Y-133696819D01*
X92841904Y-133696819D02*
X92937142Y-133649200D01*
X92937142Y-133649200D02*
X92984761Y-133601580D01*
X105701904Y-72786819D02*
X105130476Y-72786819D01*
X105416190Y-73786819D02*
X105416190Y-72786819D01*
X104797142Y-73786819D02*
X104797142Y-72786819D01*
X104797142Y-72786819D02*
X104416190Y-72786819D01*
X104416190Y-72786819D02*
X104320952Y-72834438D01*
X104320952Y-72834438D02*
X104273333Y-72882057D01*
X104273333Y-72882057D02*
X104225714Y-72977295D01*
X104225714Y-72977295D02*
X104225714Y-73120152D01*
X104225714Y-73120152D02*
X104273333Y-73215390D01*
X104273333Y-73215390D02*
X104320952Y-73263009D01*
X104320952Y-73263009D02*
X104416190Y-73310628D01*
X104416190Y-73310628D02*
X104797142Y-73310628D01*
X103368571Y-72786819D02*
X103559047Y-72786819D01*
X103559047Y-72786819D02*
X103654285Y-72834438D01*
X103654285Y-72834438D02*
X103701904Y-72882057D01*
X103701904Y-72882057D02*
X103797142Y-73024914D01*
X103797142Y-73024914D02*
X103844761Y-73215390D01*
X103844761Y-73215390D02*
X103844761Y-73596342D01*
X103844761Y-73596342D02*
X103797142Y-73691580D01*
X103797142Y-73691580D02*
X103749523Y-73739200D01*
X103749523Y-73739200D02*
X103654285Y-73786819D01*
X103654285Y-73786819D02*
X103463809Y-73786819D01*
X103463809Y-73786819D02*
X103368571Y-73739200D01*
X103368571Y-73739200D02*
X103320952Y-73691580D01*
X103320952Y-73691580D02*
X103273333Y-73596342D01*
X103273333Y-73596342D02*
X103273333Y-73358247D01*
X103273333Y-73358247D02*
X103320952Y-73263009D01*
X103320952Y-73263009D02*
X103368571Y-73215390D01*
X103368571Y-73215390D02*
X103463809Y-73167771D01*
X103463809Y-73167771D02*
X103654285Y-73167771D01*
X103654285Y-73167771D02*
X103749523Y-73215390D01*
X103749523Y-73215390D02*
X103797142Y-73263009D01*
X103797142Y-73263009D02*
X103844761Y-73358247D01*
X67464819Y-65288095D02*
X67464819Y-65859523D01*
X68464819Y-65573809D02*
X67464819Y-65573809D01*
X68464819Y-66192857D02*
X67464819Y-66192857D01*
X67464819Y-66192857D02*
X67464819Y-66573809D01*
X67464819Y-66573809D02*
X67512438Y-66669047D01*
X67512438Y-66669047D02*
X67560057Y-66716666D01*
X67560057Y-66716666D02*
X67655295Y-66764285D01*
X67655295Y-66764285D02*
X67798152Y-66764285D01*
X67798152Y-66764285D02*
X67893390Y-66716666D01*
X67893390Y-66716666D02*
X67941009Y-66669047D01*
X67941009Y-66669047D02*
X67988628Y-66573809D01*
X67988628Y-66573809D02*
X67988628Y-66192857D01*
X68464819Y-67240476D02*
X68464819Y-67430952D01*
X68464819Y-67430952D02*
X68417200Y-67526190D01*
X68417200Y-67526190D02*
X68369580Y-67573809D01*
X68369580Y-67573809D02*
X68226723Y-67669047D01*
X68226723Y-67669047D02*
X68036247Y-67716666D01*
X68036247Y-67716666D02*
X67655295Y-67716666D01*
X67655295Y-67716666D02*
X67560057Y-67669047D01*
X67560057Y-67669047D02*
X67512438Y-67621428D01*
X67512438Y-67621428D02*
X67464819Y-67526190D01*
X67464819Y-67526190D02*
X67464819Y-67335714D01*
X67464819Y-67335714D02*
X67512438Y-67240476D01*
X67512438Y-67240476D02*
X67560057Y-67192857D01*
X67560057Y-67192857D02*
X67655295Y-67145238D01*
X67655295Y-67145238D02*
X67893390Y-67145238D01*
X67893390Y-67145238D02*
X67988628Y-67192857D01*
X67988628Y-67192857D02*
X68036247Y-67240476D01*
X68036247Y-67240476D02*
X68083866Y-67335714D01*
X68083866Y-67335714D02*
X68083866Y-67526190D01*
X68083866Y-67526190D02*
X68036247Y-67621428D01*
X68036247Y-67621428D02*
X67988628Y-67669047D01*
X67988628Y-67669047D02*
X67893390Y-67716666D01*
X71604819Y-64781905D02*
X71604819Y-65353333D01*
X72604819Y-65067619D02*
X71604819Y-65067619D01*
X72604819Y-65686667D02*
X71604819Y-65686667D01*
X71604819Y-65686667D02*
X71604819Y-66067619D01*
X71604819Y-66067619D02*
X71652438Y-66162857D01*
X71652438Y-66162857D02*
X71700057Y-66210476D01*
X71700057Y-66210476D02*
X71795295Y-66258095D01*
X71795295Y-66258095D02*
X71938152Y-66258095D01*
X71938152Y-66258095D02*
X72033390Y-66210476D01*
X72033390Y-66210476D02*
X72081009Y-66162857D01*
X72081009Y-66162857D02*
X72128628Y-66067619D01*
X72128628Y-66067619D02*
X72128628Y-65686667D01*
X71700057Y-66639048D02*
X71652438Y-66686667D01*
X71652438Y-66686667D02*
X71604819Y-66781905D01*
X71604819Y-66781905D02*
X71604819Y-67020000D01*
X71604819Y-67020000D02*
X71652438Y-67115238D01*
X71652438Y-67115238D02*
X71700057Y-67162857D01*
X71700057Y-67162857D02*
X71795295Y-67210476D01*
X71795295Y-67210476D02*
X71890533Y-67210476D01*
X71890533Y-67210476D02*
X72033390Y-67162857D01*
X72033390Y-67162857D02*
X72604819Y-66591429D01*
X72604819Y-66591429D02*
X72604819Y-67210476D01*
X71938152Y-68067619D02*
X72604819Y-68067619D01*
X71557200Y-67829524D02*
X72271485Y-67591429D01*
X72271485Y-67591429D02*
X72271485Y-68210476D01*
X138408094Y-95716819D02*
X137836666Y-95716819D01*
X138122380Y-96716819D02*
X138122380Y-95716819D01*
X137503332Y-96716819D02*
X137503332Y-95716819D01*
X137503332Y-95716819D02*
X137122380Y-95716819D01*
X137122380Y-95716819D02*
X137027142Y-95764438D01*
X137027142Y-95764438D02*
X136979523Y-95812057D01*
X136979523Y-95812057D02*
X136931904Y-95907295D01*
X136931904Y-95907295D02*
X136931904Y-96050152D01*
X136931904Y-96050152D02*
X136979523Y-96145390D01*
X136979523Y-96145390D02*
X137027142Y-96193009D01*
X137027142Y-96193009D02*
X137122380Y-96240628D01*
X137122380Y-96240628D02*
X137503332Y-96240628D01*
X135979523Y-96716819D02*
X136550951Y-96716819D01*
X136265237Y-96716819D02*
X136265237Y-95716819D01*
X136265237Y-95716819D02*
X136360475Y-95859676D01*
X136360475Y-95859676D02*
X136455713Y-95954914D01*
X136455713Y-95954914D02*
X136550951Y-96002533D01*
X135646189Y-95716819D02*
X135027142Y-95716819D01*
X135027142Y-95716819D02*
X135360475Y-96097771D01*
X135360475Y-96097771D02*
X135217618Y-96097771D01*
X135217618Y-96097771D02*
X135122380Y-96145390D01*
X135122380Y-96145390D02*
X135074761Y-96193009D01*
X135074761Y-96193009D02*
X135027142Y-96288247D01*
X135027142Y-96288247D02*
X135027142Y-96526342D01*
X135027142Y-96526342D02*
X135074761Y-96621580D01*
X135074761Y-96621580D02*
X135122380Y-96669200D01*
X135122380Y-96669200D02*
X135217618Y-96716819D01*
X135217618Y-96716819D02*
X135503332Y-96716819D01*
X135503332Y-96716819D02*
X135598570Y-96669200D01*
X135598570Y-96669200D02*
X135646189Y-96621580D01*
X52755357Y-78834580D02*
X52802976Y-78882200D01*
X52802976Y-78882200D02*
X52945833Y-78929819D01*
X52945833Y-78929819D02*
X53041071Y-78929819D01*
X53041071Y-78929819D02*
X53183928Y-78882200D01*
X53183928Y-78882200D02*
X53279166Y-78786961D01*
X53279166Y-78786961D02*
X53326785Y-78691723D01*
X53326785Y-78691723D02*
X53374404Y-78501247D01*
X53374404Y-78501247D02*
X53374404Y-78358390D01*
X53374404Y-78358390D02*
X53326785Y-78167914D01*
X53326785Y-78167914D02*
X53279166Y-78072676D01*
X53279166Y-78072676D02*
X53183928Y-77977438D01*
X53183928Y-77977438D02*
X53041071Y-77929819D01*
X53041071Y-77929819D02*
X52945833Y-77929819D01*
X52945833Y-77929819D02*
X52802976Y-77977438D01*
X52802976Y-77977438D02*
X52755357Y-78025057D01*
X52422023Y-77929819D02*
X51755357Y-77929819D01*
X51755357Y-77929819D02*
X52183928Y-78929819D01*
X51422023Y-78025057D02*
X51374404Y-77977438D01*
X51374404Y-77977438D02*
X51279166Y-77929819D01*
X51279166Y-77929819D02*
X51041071Y-77929819D01*
X51041071Y-77929819D02*
X50945833Y-77977438D01*
X50945833Y-77977438D02*
X50898214Y-78025057D01*
X50898214Y-78025057D02*
X50850595Y-78120295D01*
X50850595Y-78120295D02*
X50850595Y-78215533D01*
X50850595Y-78215533D02*
X50898214Y-78358390D01*
X50898214Y-78358390D02*
X51469642Y-78929819D01*
X51469642Y-78929819D02*
X50850595Y-78929819D01*
X138958094Y-115416819D02*
X138386666Y-115416819D01*
X138672380Y-116416819D02*
X138672380Y-115416819D01*
X138053332Y-116416819D02*
X138053332Y-115416819D01*
X138053332Y-115416819D02*
X137672380Y-115416819D01*
X137672380Y-115416819D02*
X137577142Y-115464438D01*
X137577142Y-115464438D02*
X137529523Y-115512057D01*
X137529523Y-115512057D02*
X137481904Y-115607295D01*
X137481904Y-115607295D02*
X137481904Y-115750152D01*
X137481904Y-115750152D02*
X137529523Y-115845390D01*
X137529523Y-115845390D02*
X137577142Y-115893009D01*
X137577142Y-115893009D02*
X137672380Y-115940628D01*
X137672380Y-115940628D02*
X138053332Y-115940628D01*
X136529523Y-116416819D02*
X137100951Y-116416819D01*
X136815237Y-116416819D02*
X136815237Y-115416819D01*
X136815237Y-115416819D02*
X136910475Y-115559676D01*
X136910475Y-115559676D02*
X137005713Y-115654914D01*
X137005713Y-115654914D02*
X137100951Y-115702533D01*
X136196189Y-115416819D02*
X135529523Y-115416819D01*
X135529523Y-115416819D02*
X135958094Y-116416819D01*
X72174404Y-84177819D02*
X71602976Y-84177819D01*
X71888690Y-85177819D02*
X71888690Y-84177819D01*
X71269642Y-85177819D02*
X71269642Y-84177819D01*
X71269642Y-84177819D02*
X70888690Y-84177819D01*
X70888690Y-84177819D02*
X70793452Y-84225438D01*
X70793452Y-84225438D02*
X70745833Y-84273057D01*
X70745833Y-84273057D02*
X70698214Y-84368295D01*
X70698214Y-84368295D02*
X70698214Y-84511152D01*
X70698214Y-84511152D02*
X70745833Y-84606390D01*
X70745833Y-84606390D02*
X70793452Y-84654009D01*
X70793452Y-84654009D02*
X70888690Y-84701628D01*
X70888690Y-84701628D02*
X71269642Y-84701628D01*
X70364880Y-84177819D02*
X69745833Y-84177819D01*
X69745833Y-84177819D02*
X70079166Y-84558771D01*
X70079166Y-84558771D02*
X69936309Y-84558771D01*
X69936309Y-84558771D02*
X69841071Y-84606390D01*
X69841071Y-84606390D02*
X69793452Y-84654009D01*
X69793452Y-84654009D02*
X69745833Y-84749247D01*
X69745833Y-84749247D02*
X69745833Y-84987342D01*
X69745833Y-84987342D02*
X69793452Y-85082580D01*
X69793452Y-85082580D02*
X69841071Y-85130200D01*
X69841071Y-85130200D02*
X69936309Y-85177819D01*
X69936309Y-85177819D02*
X70222023Y-85177819D01*
X70222023Y-85177819D02*
X70317261Y-85130200D01*
X70317261Y-85130200D02*
X70364880Y-85082580D01*
X63072080Y-74332142D02*
X63119700Y-74284523D01*
X63119700Y-74284523D02*
X63167319Y-74141666D01*
X63167319Y-74141666D02*
X63167319Y-74046428D01*
X63167319Y-74046428D02*
X63119700Y-73903571D01*
X63119700Y-73903571D02*
X63024461Y-73808333D01*
X63024461Y-73808333D02*
X62929223Y-73760714D01*
X62929223Y-73760714D02*
X62738747Y-73713095D01*
X62738747Y-73713095D02*
X62595890Y-73713095D01*
X62595890Y-73713095D02*
X62405414Y-73760714D01*
X62405414Y-73760714D02*
X62310176Y-73808333D01*
X62310176Y-73808333D02*
X62214938Y-73903571D01*
X62214938Y-73903571D02*
X62167319Y-74046428D01*
X62167319Y-74046428D02*
X62167319Y-74141666D01*
X62167319Y-74141666D02*
X62214938Y-74284523D01*
X62214938Y-74284523D02*
X62262557Y-74332142D01*
X62167319Y-74665476D02*
X62167319Y-75332142D01*
X62167319Y-75332142D02*
X63167319Y-74903571D01*
X62167319Y-76141666D02*
X62167319Y-75951190D01*
X62167319Y-75951190D02*
X62214938Y-75855952D01*
X62214938Y-75855952D02*
X62262557Y-75808333D01*
X62262557Y-75808333D02*
X62405414Y-75713095D01*
X62405414Y-75713095D02*
X62595890Y-75665476D01*
X62595890Y-75665476D02*
X62976842Y-75665476D01*
X62976842Y-75665476D02*
X63072080Y-75713095D01*
X63072080Y-75713095D02*
X63119700Y-75760714D01*
X63119700Y-75760714D02*
X63167319Y-75855952D01*
X63167319Y-75855952D02*
X63167319Y-76046428D01*
X63167319Y-76046428D02*
X63119700Y-76141666D01*
X63119700Y-76141666D02*
X63072080Y-76189285D01*
X63072080Y-76189285D02*
X62976842Y-76236904D01*
X62976842Y-76236904D02*
X62738747Y-76236904D01*
X62738747Y-76236904D02*
X62643509Y-76189285D01*
X62643509Y-76189285D02*
X62595890Y-76141666D01*
X62595890Y-76141666D02*
X62548271Y-76046428D01*
X62548271Y-76046428D02*
X62548271Y-75855952D01*
X62548271Y-75855952D02*
X62595890Y-75760714D01*
X62595890Y-75760714D02*
X62643509Y-75713095D01*
X62643509Y-75713095D02*
X62738747Y-75665476D01*
X78333333Y-72729819D02*
X78333333Y-73444104D01*
X78333333Y-73444104D02*
X78380952Y-73586961D01*
X78380952Y-73586961D02*
X78476190Y-73682200D01*
X78476190Y-73682200D02*
X78619047Y-73729819D01*
X78619047Y-73729819D02*
X78714285Y-73729819D01*
X77857142Y-73729819D02*
X77857142Y-72729819D01*
X77857142Y-72729819D02*
X77476190Y-72729819D01*
X77476190Y-72729819D02*
X77380952Y-72777438D01*
X77380952Y-72777438D02*
X77333333Y-72825057D01*
X77333333Y-72825057D02*
X77285714Y-72920295D01*
X77285714Y-72920295D02*
X77285714Y-73063152D01*
X77285714Y-73063152D02*
X77333333Y-73158390D01*
X77333333Y-73158390D02*
X77380952Y-73206009D01*
X77380952Y-73206009D02*
X77476190Y-73253628D01*
X77476190Y-73253628D02*
X77857142Y-73253628D01*
X76952380Y-72729819D02*
X76285714Y-72729819D01*
X76285714Y-72729819D02*
X76714285Y-73729819D01*
X69660118Y-72629819D02*
X69564880Y-72629819D01*
X69564880Y-72629819D02*
X69469642Y-72677438D01*
X69469642Y-72677438D02*
X69422023Y-72725057D01*
X69422023Y-72725057D02*
X69374404Y-72820295D01*
X69374404Y-72820295D02*
X69326785Y-73010771D01*
X69326785Y-73010771D02*
X69326785Y-73248866D01*
X69326785Y-73248866D02*
X69374404Y-73439342D01*
X69374404Y-73439342D02*
X69422023Y-73534580D01*
X69422023Y-73534580D02*
X69469642Y-73582200D01*
X69469642Y-73582200D02*
X69564880Y-73629819D01*
X69564880Y-73629819D02*
X69660118Y-73629819D01*
X69660118Y-73629819D02*
X69755356Y-73582200D01*
X69755356Y-73582200D02*
X69802975Y-73534580D01*
X69802975Y-73534580D02*
X69850594Y-73439342D01*
X69850594Y-73439342D02*
X69898213Y-73248866D01*
X69898213Y-73248866D02*
X69898213Y-73010771D01*
X69898213Y-73010771D02*
X69850594Y-72820295D01*
X69850594Y-72820295D02*
X69802975Y-72725057D01*
X69802975Y-72725057D02*
X69755356Y-72677438D01*
X69755356Y-72677438D02*
X69660118Y-72629819D01*
X74526785Y-73629819D02*
X75098213Y-73629819D01*
X74812499Y-73629819D02*
X74812499Y-72629819D01*
X74812499Y-72629819D02*
X74907737Y-72772676D01*
X74907737Y-72772676D02*
X75002975Y-72867914D01*
X75002975Y-72867914D02*
X75098213Y-72915533D01*
X51250594Y-161854819D02*
X51250594Y-160854819D01*
X51250594Y-160854819D02*
X51012499Y-160854819D01*
X51012499Y-160854819D02*
X50869642Y-160902438D01*
X50869642Y-160902438D02*
X50774404Y-160997676D01*
X50774404Y-160997676D02*
X50726785Y-161092914D01*
X50726785Y-161092914D02*
X50679166Y-161283390D01*
X50679166Y-161283390D02*
X50679166Y-161426247D01*
X50679166Y-161426247D02*
X50726785Y-161616723D01*
X50726785Y-161616723D02*
X50774404Y-161711961D01*
X50774404Y-161711961D02*
X50869642Y-161807200D01*
X50869642Y-161807200D02*
X51012499Y-161854819D01*
X51012499Y-161854819D02*
X51250594Y-161854819D01*
X50107737Y-161283390D02*
X50202975Y-161235771D01*
X50202975Y-161235771D02*
X50250594Y-161188152D01*
X50250594Y-161188152D02*
X50298213Y-161092914D01*
X50298213Y-161092914D02*
X50298213Y-161045295D01*
X50298213Y-161045295D02*
X50250594Y-160950057D01*
X50250594Y-160950057D02*
X50202975Y-160902438D01*
X50202975Y-160902438D02*
X50107737Y-160854819D01*
X50107737Y-160854819D02*
X49917261Y-160854819D01*
X49917261Y-160854819D02*
X49822023Y-160902438D01*
X49822023Y-160902438D02*
X49774404Y-160950057D01*
X49774404Y-160950057D02*
X49726785Y-161045295D01*
X49726785Y-161045295D02*
X49726785Y-161092914D01*
X49726785Y-161092914D02*
X49774404Y-161188152D01*
X49774404Y-161188152D02*
X49822023Y-161235771D01*
X49822023Y-161235771D02*
X49917261Y-161283390D01*
X49917261Y-161283390D02*
X50107737Y-161283390D01*
X50107737Y-161283390D02*
X50202975Y-161331009D01*
X50202975Y-161331009D02*
X50250594Y-161378628D01*
X50250594Y-161378628D02*
X50298213Y-161473866D01*
X50298213Y-161473866D02*
X50298213Y-161664342D01*
X50298213Y-161664342D02*
X50250594Y-161759580D01*
X50250594Y-161759580D02*
X50202975Y-161807200D01*
X50202975Y-161807200D02*
X50107737Y-161854819D01*
X50107737Y-161854819D02*
X49917261Y-161854819D01*
X49917261Y-161854819D02*
X49822023Y-161807200D01*
X49822023Y-161807200D02*
X49774404Y-161759580D01*
X49774404Y-161759580D02*
X49726785Y-161664342D01*
X49726785Y-161664342D02*
X49726785Y-161473866D01*
X49726785Y-161473866D02*
X49774404Y-161378628D01*
X49774404Y-161378628D02*
X49822023Y-161331009D01*
X49822023Y-161331009D02*
X49917261Y-161283390D01*
X92894819Y-61451905D02*
X92894819Y-62023333D01*
X93894819Y-61737619D02*
X92894819Y-61737619D01*
X93894819Y-62356667D02*
X92894819Y-62356667D01*
X92894819Y-62356667D02*
X92894819Y-62737619D01*
X92894819Y-62737619D02*
X92942438Y-62832857D01*
X92942438Y-62832857D02*
X92990057Y-62880476D01*
X92990057Y-62880476D02*
X93085295Y-62928095D01*
X93085295Y-62928095D02*
X93228152Y-62928095D01*
X93228152Y-62928095D02*
X93323390Y-62880476D01*
X93323390Y-62880476D02*
X93371009Y-62832857D01*
X93371009Y-62832857D02*
X93418628Y-62737619D01*
X93418628Y-62737619D02*
X93418628Y-62356667D01*
X92990057Y-63309048D02*
X92942438Y-63356667D01*
X92942438Y-63356667D02*
X92894819Y-63451905D01*
X92894819Y-63451905D02*
X92894819Y-63690000D01*
X92894819Y-63690000D02*
X92942438Y-63785238D01*
X92942438Y-63785238D02*
X92990057Y-63832857D01*
X92990057Y-63832857D02*
X93085295Y-63880476D01*
X93085295Y-63880476D02*
X93180533Y-63880476D01*
X93180533Y-63880476D02*
X93323390Y-63832857D01*
X93323390Y-63832857D02*
X93894819Y-63261429D01*
X93894819Y-63261429D02*
X93894819Y-63880476D01*
X93894819Y-64832857D02*
X93894819Y-64261429D01*
X93894819Y-64547143D02*
X92894819Y-64547143D01*
X92894819Y-64547143D02*
X93037676Y-64451905D01*
X93037676Y-64451905D02*
X93132914Y-64356667D01*
X93132914Y-64356667D02*
X93180533Y-64261429D01*
X52755357Y-82034580D02*
X52802976Y-82082200D01*
X52802976Y-82082200D02*
X52945833Y-82129819D01*
X52945833Y-82129819D02*
X53041071Y-82129819D01*
X53041071Y-82129819D02*
X53183928Y-82082200D01*
X53183928Y-82082200D02*
X53279166Y-81986961D01*
X53279166Y-81986961D02*
X53326785Y-81891723D01*
X53326785Y-81891723D02*
X53374404Y-81701247D01*
X53374404Y-81701247D02*
X53374404Y-81558390D01*
X53374404Y-81558390D02*
X53326785Y-81367914D01*
X53326785Y-81367914D02*
X53279166Y-81272676D01*
X53279166Y-81272676D02*
X53183928Y-81177438D01*
X53183928Y-81177438D02*
X53041071Y-81129819D01*
X53041071Y-81129819D02*
X52945833Y-81129819D01*
X52945833Y-81129819D02*
X52802976Y-81177438D01*
X52802976Y-81177438D02*
X52755357Y-81225057D01*
X51898214Y-81129819D02*
X52088690Y-81129819D01*
X52088690Y-81129819D02*
X52183928Y-81177438D01*
X52183928Y-81177438D02*
X52231547Y-81225057D01*
X52231547Y-81225057D02*
X52326785Y-81367914D01*
X52326785Y-81367914D02*
X52374404Y-81558390D01*
X52374404Y-81558390D02*
X52374404Y-81939342D01*
X52374404Y-81939342D02*
X52326785Y-82034580D01*
X52326785Y-82034580D02*
X52279166Y-82082200D01*
X52279166Y-82082200D02*
X52183928Y-82129819D01*
X52183928Y-82129819D02*
X51993452Y-82129819D01*
X51993452Y-82129819D02*
X51898214Y-82082200D01*
X51898214Y-82082200D02*
X51850595Y-82034580D01*
X51850595Y-82034580D02*
X51802976Y-81939342D01*
X51802976Y-81939342D02*
X51802976Y-81701247D01*
X51802976Y-81701247D02*
X51850595Y-81606009D01*
X51850595Y-81606009D02*
X51898214Y-81558390D01*
X51898214Y-81558390D02*
X51993452Y-81510771D01*
X51993452Y-81510771D02*
X52183928Y-81510771D01*
X52183928Y-81510771D02*
X52279166Y-81558390D01*
X52279166Y-81558390D02*
X52326785Y-81606009D01*
X52326785Y-81606009D02*
X52374404Y-81701247D01*
X50850595Y-82129819D02*
X51422023Y-82129819D01*
X51136309Y-82129819D02*
X51136309Y-81129819D01*
X51136309Y-81129819D02*
X51231547Y-81272676D01*
X51231547Y-81272676D02*
X51326785Y-81367914D01*
X51326785Y-81367914D02*
X51422023Y-81415533D01*
X129938094Y-58906819D02*
X129366666Y-58906819D01*
X129652380Y-59906819D02*
X129652380Y-58906819D01*
X129033332Y-59906819D02*
X129033332Y-58906819D01*
X129033332Y-58906819D02*
X128652380Y-58906819D01*
X128652380Y-58906819D02*
X128557142Y-58954438D01*
X128557142Y-58954438D02*
X128509523Y-59002057D01*
X128509523Y-59002057D02*
X128461904Y-59097295D01*
X128461904Y-59097295D02*
X128461904Y-59240152D01*
X128461904Y-59240152D02*
X128509523Y-59335390D01*
X128509523Y-59335390D02*
X128557142Y-59383009D01*
X128557142Y-59383009D02*
X128652380Y-59430628D01*
X128652380Y-59430628D02*
X129033332Y-59430628D01*
X128080951Y-59002057D02*
X128033332Y-58954438D01*
X128033332Y-58954438D02*
X127938094Y-58906819D01*
X127938094Y-58906819D02*
X127699999Y-58906819D01*
X127699999Y-58906819D02*
X127604761Y-58954438D01*
X127604761Y-58954438D02*
X127557142Y-59002057D01*
X127557142Y-59002057D02*
X127509523Y-59097295D01*
X127509523Y-59097295D02*
X127509523Y-59192533D01*
X127509523Y-59192533D02*
X127557142Y-59335390D01*
X127557142Y-59335390D02*
X128128570Y-59906819D01*
X128128570Y-59906819D02*
X127509523Y-59906819D01*
X126890475Y-58906819D02*
X126795237Y-58906819D01*
X126795237Y-58906819D02*
X126699999Y-58954438D01*
X126699999Y-58954438D02*
X126652380Y-59002057D01*
X126652380Y-59002057D02*
X126604761Y-59097295D01*
X126604761Y-59097295D02*
X126557142Y-59287771D01*
X126557142Y-59287771D02*
X126557142Y-59525866D01*
X126557142Y-59525866D02*
X126604761Y-59716342D01*
X126604761Y-59716342D02*
X126652380Y-59811580D01*
X126652380Y-59811580D02*
X126699999Y-59859200D01*
X126699999Y-59859200D02*
X126795237Y-59906819D01*
X126795237Y-59906819D02*
X126890475Y-59906819D01*
X126890475Y-59906819D02*
X126985713Y-59859200D01*
X126985713Y-59859200D02*
X127033332Y-59811580D01*
X127033332Y-59811580D02*
X127080951Y-59716342D01*
X127080951Y-59716342D02*
X127128570Y-59525866D01*
X127128570Y-59525866D02*
X127128570Y-59287771D01*
X127128570Y-59287771D02*
X127080951Y-59097295D01*
X127080951Y-59097295D02*
X127033332Y-59002057D01*
X127033332Y-59002057D02*
X126985713Y-58954438D01*
X126985713Y-58954438D02*
X126890475Y-58906819D01*
D11*
%TO.C,JP18*%
X154400000Y-51820000D02*
X154400000Y-52420000D01*
X152300000Y-51120000D02*
X153700000Y-51120000D01*
X153700000Y-53120000D02*
X152300000Y-53120000D01*
X151600000Y-52420000D02*
X151600000Y-51820000D01*
X153700000Y-51120000D02*
G75*
G02*
X154400000Y-51820000I1J-699999D01*
G01*
X154400000Y-52420000D02*
G75*
G02*
X153700000Y-53120000I-699999J-1D01*
G01*
X151600000Y-51820000D02*
G75*
G02*
X152300000Y-51120000I700000J0D01*
G01*
X152300000Y-53120000D02*
G75*
G02*
X151600000Y-52420000I0J700000D01*
G01*
%TO.C,JP3*%
X144200000Y-59100000D02*
X144200000Y-58500000D01*
X146300000Y-59800000D02*
X144900000Y-59800000D01*
X144900000Y-57800000D02*
X146300000Y-57800000D01*
X147000000Y-58500000D02*
X147000000Y-59100000D01*
X144900000Y-59800000D02*
G75*
G02*
X144200000Y-59100000I-1J699999D01*
G01*
X144200000Y-58500000D02*
G75*
G02*
X144900000Y-57800000I699999J1D01*
G01*
X147000000Y-59100000D02*
G75*
G02*
X146300000Y-59800000I-700000J0D01*
G01*
X146300000Y-57800000D02*
G75*
G02*
X147000000Y-58500000I0J-700000D01*
G01*
%TO.C,JP2*%
X151760000Y-35790000D02*
X151160000Y-35790000D01*
X152460000Y-32340000D02*
X152460000Y-35140000D01*
X150460000Y-35140000D02*
X150460000Y-32340000D01*
X151160000Y-31690000D02*
X151760000Y-31690000D01*
X152460000Y-35090000D02*
G75*
G02*
X151760000Y-35790000I-699999J-1D01*
G01*
X151160000Y-35790000D02*
G75*
G02*
X150460000Y-35090000I-1J699999D01*
G01*
X151760000Y-31690000D02*
G75*
G02*
X152460000Y-32390000I0J-700000D01*
G01*
X150460000Y-32390000D02*
G75*
G02*
X151160000Y-31690000I700000J0D01*
G01*
%TO.C,JP1*%
X148130000Y-35820000D02*
X147530000Y-35820000D01*
X148830000Y-32370000D02*
X148830000Y-35170000D01*
X146830000Y-35170000D02*
X146830000Y-32370000D01*
X147530000Y-31720000D02*
X148130000Y-31720000D01*
X148830000Y-35120000D02*
G75*
G02*
X148130000Y-35820000I-699999J-1D01*
G01*
X147530000Y-35820000D02*
G75*
G02*
X146830000Y-35120000I-1J699999D01*
G01*
X148130000Y-31720000D02*
G75*
G02*
X148830000Y-32420000I0J-700000D01*
G01*
X146830000Y-32420000D02*
G75*
G02*
X147530000Y-31720000I700000J0D01*
G01*
%TO.C,C53*%
X52002500Y-74334420D02*
X52002500Y-74615580D01*
X53022500Y-74334420D02*
X53022500Y-74615580D01*
%TO.C,C60*%
X61402500Y-81534420D02*
X61402500Y-81815580D01*
X62422500Y-81534420D02*
X62422500Y-81815580D01*
%TO.C,C62*%
X64871920Y-72265000D02*
X65153080Y-72265000D01*
X64871920Y-73285000D02*
X65153080Y-73285000D01*
%TO.C,TP16*%
X66390000Y-69380000D02*
G75*
G02*
X64990000Y-69380000I-700000J0D01*
G01*
X64990000Y-69380000D02*
G75*
G02*
X66390000Y-69380000I700000J0D01*
G01*
%TO.C,C54*%
X64871920Y-70665000D02*
X65153080Y-70665000D01*
X64871920Y-71685000D02*
X65153080Y-71685000D01*
%TO.C,TP25*%
X64350000Y-69380000D02*
G75*
G02*
X62950000Y-69380000I-700000J0D01*
G01*
X62950000Y-69380000D02*
G75*
G02*
X64350000Y-69380000I700000J0D01*
G01*
%TO.C,TP31*%
X149640000Y-149330000D02*
G75*
G02*
X148240000Y-149330000I-700000J0D01*
G01*
X148240000Y-149330000D02*
G75*
G02*
X149640000Y-149330000I700000J0D01*
G01*
D12*
%TO.C,D35*%
X68788600Y-35168100D02*
X70236400Y-35168100D01*
X70236400Y-35168100D02*
X70236400Y-35465534D01*
X70236400Y-37334466D02*
X70236400Y-37631900D01*
X70236400Y-37631900D02*
X68788600Y-37631900D01*
X68278060Y-37223829D02*
G75*
G02*
X68278060Y-37076171I-18860J73829D01*
G01*
D11*
%TO.C,C73*%
X54971920Y-69565000D02*
X55253080Y-69565000D01*
X54971920Y-70585000D02*
X55253080Y-70585000D01*
D12*
%TO.C,D14*%
X68788600Y-162168100D02*
X70236400Y-162168100D01*
X68788600Y-162465534D02*
X68788600Y-162168100D01*
X68788600Y-164631900D02*
X68788600Y-164334466D01*
X70236400Y-164631900D02*
X68788600Y-164631900D01*
X70746940Y-162576171D02*
G75*
G02*
X70746940Y-162723829I18860J-73829D01*
G01*
D11*
%TO.C,TP33*%
X145440000Y-149330000D02*
G75*
G02*
X144040000Y-149330000I-700000J0D01*
G01*
X144040000Y-149330000D02*
G75*
G02*
X145440000Y-149330000I700000J0D01*
G01*
%TO.C,C66*%
X54971920Y-76365000D02*
X55253080Y-76365000D01*
X54971920Y-77385000D02*
X55253080Y-77385000D01*
%TO.C,TP12*%
X125200000Y-63800000D02*
G75*
G02*
X123800000Y-63800000I-700000J0D01*
G01*
X123800000Y-63800000D02*
G75*
G02*
X125200000Y-63800000I700000J0D01*
G01*
%TO.C,JP8*%
X70162500Y-75475000D02*
X70162500Y-76075000D01*
X70812500Y-76775000D02*
X73612500Y-76775000D01*
X73612500Y-74775000D02*
X70812500Y-74775000D01*
X74262500Y-76075000D02*
X74262500Y-75475000D01*
X70162500Y-75475000D02*
G75*
G02*
X70862500Y-74775000I700000J0D01*
G01*
X70862500Y-76775000D02*
G75*
G02*
X70162500Y-76075000I0J700000D01*
G01*
X73562500Y-74775000D02*
G75*
G02*
X74262500Y-75475000I1J-699999D01*
G01*
X74262500Y-76075000D02*
G75*
G02*
X73562500Y-76775000I-699999J-1D01*
G01*
%TO.C,TP4*%
X92130000Y-53760000D02*
G75*
G02*
X90730000Y-53760000I-700000J0D01*
G01*
X90730000Y-53760000D02*
G75*
G02*
X92130000Y-53760000I700000J0D01*
G01*
%TO.C,C68*%
X63002500Y-81815580D02*
X63002500Y-81534420D01*
X64022500Y-81815580D02*
X64022500Y-81534420D01*
%TO.C,C70*%
X54971920Y-82765000D02*
X55253080Y-82765000D01*
X54971920Y-83785000D02*
X55253080Y-83785000D01*
%TO.C,TP11*%
X94380000Y-121290000D02*
G75*
G02*
X92980000Y-121290000I-700000J0D01*
G01*
X92980000Y-121290000D02*
G75*
G02*
X94380000Y-121290000I700000J0D01*
G01*
%TO.C,C67*%
X64871920Y-75765000D02*
X65153080Y-75765000D01*
X64871920Y-76785000D02*
X65153080Y-76785000D01*
%TO.C,TP15*%
X105740000Y-94060000D02*
G75*
G02*
X104340000Y-94060000I-700000J0D01*
G01*
X104340000Y-94060000D02*
G75*
G02*
X105740000Y-94060000I700000J0D01*
G01*
%TO.C,TP18*%
X70610000Y-69380000D02*
G75*
G02*
X69210000Y-69380000I-700000J0D01*
G01*
X69210000Y-69380000D02*
G75*
G02*
X70610000Y-69380000I700000J0D01*
G01*
%TO.C,TP29*%
X97520000Y-139410000D02*
G75*
G02*
X96120000Y-139410000I-700000J0D01*
G01*
X96120000Y-139410000D02*
G75*
G02*
X97520000Y-139410000I700000J0D01*
G01*
%TO.C,TP23*%
X74720000Y-69380000D02*
G75*
G02*
X73320000Y-69380000I-700000J0D01*
G01*
X73320000Y-69380000D02*
G75*
G02*
X74720000Y-69380000I700000J0D01*
G01*
%TO.C,C64*%
X55253080Y-74765000D02*
X54971920Y-74765000D01*
X55253080Y-75785000D02*
X54971920Y-75785000D01*
%TO.C,TP1*%
X50700000Y-85600000D02*
G75*
G02*
X49300000Y-85600000I-700000J0D01*
G01*
X49300000Y-85600000D02*
G75*
G02*
X50700000Y-85600000I700000J0D01*
G01*
%TO.C,JP15*%
X94600000Y-61880000D02*
X94600000Y-61280000D01*
X95300000Y-60580000D02*
X96700000Y-60580000D01*
X96700000Y-62580000D02*
X95300000Y-62580000D01*
X97400000Y-61280000D02*
X97400000Y-61880000D01*
X94600000Y-61280000D02*
G75*
G02*
X95300000Y-60580000I699999J1D01*
G01*
X95300000Y-62580000D02*
G75*
G02*
X94600000Y-61880000I-1J699999D01*
G01*
X96700000Y-60580000D02*
G75*
G02*
X97400000Y-61280000I0J-700000D01*
G01*
X97400000Y-61880000D02*
G75*
G02*
X96700000Y-62580000I-700000J0D01*
G01*
%TO.C,JP14*%
X77410000Y-93590000D02*
X77410000Y-94990000D01*
X78110000Y-95690000D02*
X78710000Y-95690000D01*
X78710000Y-92890000D02*
X78110000Y-92890000D01*
X79410000Y-94990000D02*
X79410000Y-93590000D01*
X77410000Y-93590000D02*
G75*
G02*
X78110000Y-92890000I699999J1D01*
G01*
X78110000Y-95690000D02*
G75*
G02*
X77410000Y-94990000I0J700000D01*
G01*
X78710000Y-92890000D02*
G75*
G02*
X79410000Y-93590000I1J-699999D01*
G01*
X79410000Y-94990000D02*
G75*
G02*
X78710000Y-95690000I-700000J0D01*
G01*
%TO.C,JP12*%
X74860000Y-93590000D02*
X74860000Y-94990000D01*
X75560000Y-95690000D02*
X76160000Y-95690000D01*
X76160000Y-92890000D02*
X75560000Y-92890000D01*
X76860000Y-94990000D02*
X76860000Y-93590000D01*
X74860000Y-93590000D02*
G75*
G02*
X75560000Y-92890000I699999J1D01*
G01*
X75560000Y-95690000D02*
G75*
G02*
X74860000Y-94990000I0J700000D01*
G01*
X76160000Y-92890000D02*
G75*
G02*
X76860000Y-93590000I1J-699999D01*
G01*
X76860000Y-94990000D02*
G75*
G02*
X76160000Y-95690000I-700000J0D01*
G01*
D12*
%TO.C,D20*%
X89183900Y-44867974D02*
X90631700Y-44867974D01*
X89183900Y-45165408D02*
X89183900Y-44867974D01*
X89183900Y-47331774D02*
X89183900Y-47034340D01*
X90631700Y-47331774D02*
X89183900Y-47331774D01*
X91142240Y-45276045D02*
G75*
G02*
X91142240Y-45423703I18860J-73829D01*
G01*
D11*
%TO.C,C65*%
X59002500Y-72115580D02*
X59002500Y-71834420D01*
X60022500Y-72115580D02*
X60022500Y-71834420D01*
%TO.C,JP6*%
X70162500Y-78075000D02*
X70162500Y-78675000D01*
X70812500Y-79375000D02*
X73612500Y-79375000D01*
X73612500Y-77375000D02*
X70812500Y-77375000D01*
X74262500Y-78675000D02*
X74262500Y-78075000D01*
X70162500Y-78075000D02*
G75*
G02*
X70862500Y-77375000I700000J0D01*
G01*
X70862500Y-79375000D02*
G75*
G02*
X70162500Y-78675000I0J700000D01*
G01*
X73562500Y-77375000D02*
G75*
G02*
X74262500Y-78075000I1J-699999D01*
G01*
X74262500Y-78675000D02*
G75*
G02*
X73562500Y-79375000I-699999J-1D01*
G01*
%TO.C,C59*%
X65153080Y-77465000D02*
X64871920Y-77465000D01*
X65153080Y-78485000D02*
X64871920Y-78485000D01*
%TO.C,TP26*%
X92060000Y-60270000D02*
G75*
G02*
X90660000Y-60270000I-700000J0D01*
G01*
X90660000Y-60270000D02*
G75*
G02*
X92060000Y-60270000I700000J0D01*
G01*
%TO.C,C74*%
X60602500Y-71834420D02*
X60602500Y-72115580D01*
X61622500Y-71834420D02*
X61622500Y-72115580D01*
%TO.C,C56*%
X57402500Y-72115580D02*
X57402500Y-71834420D01*
X58422500Y-72115580D02*
X58422500Y-71834420D01*
%TO.C,TP22*%
X94810000Y-139410000D02*
G75*
G02*
X93410000Y-139410000I-700000J0D01*
G01*
X93410000Y-139410000D02*
G75*
G02*
X94810000Y-139410000I700000J0D01*
G01*
%TO.C,C63*%
X54971920Y-73165000D02*
X55253080Y-73165000D01*
X54971920Y-74185000D02*
X55253080Y-74185000D01*
%TO.C,JP16*%
X97970000Y-61880000D02*
X97970000Y-61280000D01*
X98670000Y-60580000D02*
X100070000Y-60580000D01*
X100070000Y-62580000D02*
X98670000Y-62580000D01*
X100770000Y-61280000D02*
X100770000Y-61880000D01*
X97970000Y-61280000D02*
G75*
G02*
X98670000Y-60580000I699999J1D01*
G01*
X98670000Y-62580000D02*
G75*
G02*
X97970000Y-61880000I-1J699999D01*
G01*
X100070000Y-60580000D02*
G75*
G02*
X100770000Y-61280000I0J-700000D01*
G01*
X100770000Y-61880000D02*
G75*
G02*
X100070000Y-62580000I-700000J0D01*
G01*
%TO.C,TP27*%
X90020000Y-53790000D02*
G75*
G02*
X88620000Y-53790000I-700000J0D01*
G01*
X88620000Y-53790000D02*
G75*
G02*
X90020000Y-53790000I700000J0D01*
G01*
D12*
%TO.C,D22*%
X80083900Y-146967974D02*
X81531700Y-146967974D01*
X80083900Y-147265408D02*
X80083900Y-146967974D01*
X80083900Y-149431774D02*
X80083900Y-149134340D01*
X81531700Y-149431774D02*
X80083900Y-149431774D01*
X82042240Y-147376045D02*
G75*
G02*
X82042240Y-147523703I18860J-73829D01*
G01*
D11*
%TO.C,JP17*%
X140580000Y-124480000D02*
X140580000Y-123880000D01*
X141280000Y-123180000D02*
X142680000Y-123180000D01*
X142680000Y-125180000D02*
X141280000Y-125180000D01*
X143380000Y-123880000D02*
X143380000Y-124480000D01*
X140580000Y-123880000D02*
G75*
G02*
X141280000Y-123180000I700000J0D01*
G01*
X141280000Y-125180000D02*
G75*
G02*
X140580000Y-124480000I0J700000D01*
G01*
X142680000Y-123180000D02*
G75*
G02*
X143380000Y-123880000I1J-699999D01*
G01*
X143380000Y-124480000D02*
G75*
G02*
X142680000Y-125180000I-699999J-1D01*
G01*
%TO.C,TP14*%
X105800000Y-90100000D02*
G75*
G02*
X104400000Y-90100000I-700000J0D01*
G01*
X104400000Y-90100000D02*
G75*
G02*
X105800000Y-90100000I700000J0D01*
G01*
%TO.C,C71*%
X59802500Y-81534420D02*
X59802500Y-81815580D01*
X60822500Y-81534420D02*
X60822500Y-81815580D01*
%TO.C,TP10*%
X75980000Y-103780000D02*
G75*
G02*
X74580000Y-103780000I-700000J0D01*
G01*
X74580000Y-103780000D02*
G75*
G02*
X75980000Y-103780000I700000J0D01*
G01*
%TO.C,TP28*%
X102200000Y-40670000D02*
G75*
G02*
X100800000Y-40670000I-700000J0D01*
G01*
X100800000Y-40670000D02*
G75*
G02*
X102200000Y-40670000I700000J0D01*
G01*
%TO.C,C69*%
X58202500Y-81534420D02*
X58202500Y-81815580D01*
X59222500Y-81534420D02*
X59222500Y-81815580D01*
%TO.C,C55*%
X65153080Y-73965000D02*
X64871920Y-73965000D01*
X65153080Y-74985000D02*
X64871920Y-74985000D01*
D12*
%TO.C,D13*%
X48788600Y-35168100D02*
X50236400Y-35168100D01*
X50236400Y-35168100D02*
X50236400Y-35465534D01*
X50236400Y-37334466D02*
X50236400Y-37631900D01*
X50236400Y-37631900D02*
X48788600Y-37631900D01*
X48278060Y-37223829D02*
G75*
G02*
X48278060Y-37076171I-18860J73829D01*
G01*
D11*
%TO.C,JP4*%
X52462500Y-85275000D02*
X52462500Y-85875000D01*
X53112500Y-86575000D02*
X55912500Y-86575000D01*
X55912500Y-84575000D02*
X53112500Y-84575000D01*
X56562500Y-85875000D02*
X56562500Y-85275000D01*
X52462500Y-85275000D02*
G75*
G02*
X53162500Y-84575000I699999J1D01*
G01*
X53162500Y-86575000D02*
G75*
G02*
X52462500Y-85875000I-1J699999D01*
G01*
X55862500Y-84575000D02*
G75*
G02*
X56562500Y-85275000I0J-700000D01*
G01*
X56562500Y-85875000D02*
G75*
G02*
X55862500Y-86575000I-700000J0D01*
G01*
%TO.C,C78*%
X54971920Y-79565000D02*
X55253080Y-79565000D01*
X54971920Y-80585000D02*
X55253080Y-80585000D01*
%TO.C,C77*%
X64602500Y-81534420D02*
X64602500Y-81815580D01*
X65622500Y-81534420D02*
X65622500Y-81815580D01*
%TO.C,C75*%
X54971920Y-71165000D02*
X55253080Y-71165000D01*
X54971920Y-72185000D02*
X55253080Y-72185000D01*
%TO.C,JP5*%
X70162500Y-80675000D02*
X70162500Y-81275000D01*
X70812500Y-81975000D02*
X73612500Y-81975000D01*
X73612500Y-79975000D02*
X70812500Y-79975000D01*
X74262500Y-81275000D02*
X74262500Y-80675000D01*
X70162500Y-80675000D02*
G75*
G02*
X70862500Y-79975000I700000J0D01*
G01*
X70862500Y-81975000D02*
G75*
G02*
X70162500Y-81275000I0J700000D01*
G01*
X73562500Y-79975000D02*
G75*
G02*
X74262500Y-80675000I1J-699999D01*
G01*
X74262500Y-81275000D02*
G75*
G02*
X73562500Y-81975000I-699999J-1D01*
G01*
%TO.C,TP7*%
X119340000Y-91080000D02*
G75*
G02*
X117940000Y-91080000I-700000J0D01*
G01*
X117940000Y-91080000D02*
G75*
G02*
X119340000Y-91080000I700000J0D01*
G01*
%TO.C,TP32*%
X147560000Y-149330000D02*
G75*
G02*
X146160000Y-149330000I-700000J0D01*
G01*
X146160000Y-149330000D02*
G75*
G02*
X147560000Y-149330000I700000J0D01*
G01*
%TO.C,TP30*%
X100120000Y-139410000D02*
G75*
G02*
X98720000Y-139410000I-700000J0D01*
G01*
X98720000Y-139410000D02*
G75*
G02*
X100120000Y-139410000I700000J0D01*
G01*
%TO.C,TP2*%
X75912500Y-107500000D02*
G75*
G02*
X74512500Y-107500000I-700000J0D01*
G01*
X74512500Y-107500000D02*
G75*
G02*
X75912500Y-107500000I700000J0D01*
G01*
%TO.C,TP5*%
X94280000Y-134690000D02*
G75*
G02*
X92880000Y-134690000I-700000J0D01*
G01*
X92880000Y-134690000D02*
G75*
G02*
X94280000Y-134690000I700000J0D01*
G01*
%TO.C,TP6*%
X105140000Y-74780000D02*
G75*
G02*
X103740000Y-74780000I-700000J0D01*
G01*
X103740000Y-74780000D02*
G75*
G02*
X105140000Y-74780000I700000J0D01*
G01*
%TO.C,TP9*%
X68520000Y-69380000D02*
G75*
G02*
X67120000Y-69380000I-700000J0D01*
G01*
X67120000Y-69380000D02*
G75*
G02*
X68520000Y-69380000I700000J0D01*
G01*
%TO.C,TP24*%
X72670000Y-69380000D02*
G75*
G02*
X71270000Y-69380000I-700000J0D01*
G01*
X71270000Y-69380000D02*
G75*
G02*
X72670000Y-69380000I700000J0D01*
G01*
%TO.C,TP13*%
X137370000Y-97710000D02*
G75*
G02*
X135970000Y-97710000I-700000J0D01*
G01*
X135970000Y-97710000D02*
G75*
G02*
X137370000Y-97710000I700000J0D01*
G01*
%TO.C,C72*%
X54971920Y-77965000D02*
X55253080Y-77965000D01*
X54971920Y-78985000D02*
X55253080Y-78985000D01*
%TO.C,TP17*%
X137920000Y-117410000D02*
G75*
G02*
X136520000Y-117410000I-700000J0D01*
G01*
X136520000Y-117410000D02*
G75*
G02*
X137920000Y-117410000I700000J0D01*
G01*
%TO.C,TP3*%
X71612500Y-83275000D02*
G75*
G02*
X70212500Y-83275000I-700000J0D01*
G01*
X70212500Y-83275000D02*
G75*
G02*
X71612500Y-83275000I700000J0D01*
G01*
%TO.C,C76*%
X62202500Y-71834420D02*
X62202500Y-72115580D01*
X63222500Y-71834420D02*
X63222500Y-72115580D01*
%TO.C,JP7*%
X70162500Y-72875000D02*
X70162500Y-73475000D01*
X70812500Y-74175000D02*
X73612500Y-74175000D01*
X73612500Y-72175000D02*
X70812500Y-72175000D01*
X74262500Y-73475000D02*
X74262500Y-72875000D01*
X70162500Y-72875000D02*
G75*
G02*
X70862500Y-72175000I700000J0D01*
G01*
X70862500Y-74175000D02*
G75*
G02*
X70162500Y-73475000I0J700000D01*
G01*
X73562500Y-72175000D02*
G75*
G02*
X74262500Y-72875000I1J-699999D01*
G01*
X74262500Y-73475000D02*
G75*
G02*
X73562500Y-74175000I-699999J-1D01*
G01*
D12*
%TO.C,D8*%
X49788600Y-162168100D02*
X51236400Y-162168100D01*
X49788600Y-162465534D02*
X49788600Y-162168100D01*
X49788600Y-164631900D02*
X49788600Y-164334466D01*
X51236400Y-164631900D02*
X49788600Y-164631900D01*
X51746940Y-162576171D02*
G75*
G02*
X51746940Y-162723829I18860J-73829D01*
G01*
D11*
%TO.C,TP21*%
X94160000Y-60300000D02*
G75*
G02*
X92760000Y-60300000I-700000J0D01*
G01*
X92760000Y-60300000D02*
G75*
G02*
X94160000Y-60300000I700000J0D01*
G01*
%TO.C,C61*%
X54971920Y-81165000D02*
X55253080Y-81165000D01*
X54971920Y-82185000D02*
X55253080Y-82185000D01*
%TO.C,TP20*%
X128900000Y-60900000D02*
G75*
G02*
X127500000Y-60900000I-700000J0D01*
G01*
X127500000Y-60900000D02*
G75*
G02*
X128900000Y-60900000I700000J0D01*
G01*
%TD*%
M02*
