M48
; DRILL file {KiCad 7.0.2} date Thu Oct 19 22:38:55 2023
; FORMAT={-:-/ absolute / inch / decimal}
; #@! TF.CreationDate,2023-10-19T22:38:55-04:00
; #@! TF.GenerationSoftware,Kicad,Pcbnew,7.0.2
; #@! TF.FileFunction,Plated,1,4,PTH
FMAT,2
INCH
; #@! TA.AperFunction,Plated,PTH,ComponentDrill
T1C0.0079
; #@! TA.AperFunction,Plated,PTH,ComponentDrill
T2C0.0080
; #@! TA.AperFunction,Plated,PTH,ViaDrill
T3C0.0118
; #@! TA.AperFunction,Plated,PTH,ViaDrill
T4C0.0157
; #@! TA.AperFunction,Plated,PTH,ViaDrill
T5C0.0197
; #@! TA.AperFunction,Plated,PTH,ComponentDrill
T6C0.0236
; #@! TA.AperFunction,Plated,PTH,ComponentDrill
T7C0.0276
; #@! TA.AperFunction,Plated,PTH,ComponentDrill
T8C0.0394
; #@! TA.AperFunction,Plated,PTH,ComponentDrill
T9C0.0433
; #@! TA.AperFunction,Plated,PTH,ComponentDrill
T10C0.0591
; #@! TA.AperFunction,Plated,PTH,ComponentDrill
T11C0.0925
; #@! TA.AperFunction,Plated,PTH,ComponentDrill
T12C0.1673
%
G90
G05
T1
X4.9193Y-3.5807
X4.9193Y-3.624
X4.9626Y-3.5807
X4.9626Y-3.624
X5.3602Y-2.8484
X5.3602Y-2.9075
X5.4193Y-2.8484
X5.4193Y-2.9075
T2
X5.4941Y-4.3002
X5.5492Y-4.2451
X5.5492Y-4.3002
X5.5492Y-4.3553
X5.6043Y-4.3002
T3
X0.9843Y-1.378
X0.9843Y-1.5748
X0.9843Y-1.7717
X0.9843Y-1.9685
X0.9843Y-2.1654
X0.9843Y-2.3622
X0.9843Y-2.5591
X0.9843Y-2.7559
X0.9843Y-2.9528
X0.9843Y-3.1496
X0.9843Y-3.3465
X0.9843Y-3.5433
X0.9843Y-3.7402
X0.9843Y-3.937
X0.9843Y-4.1339
X0.9843Y-4.3307
X0.9843Y-4.5276
X0.9843Y-4.7244
X0.9843Y-4.9213
X0.9843Y-5.1181
X0.9843Y-5.315
X0.9843Y-5.5118
X0.9843Y-5.7087
X0.9843Y-5.9055
X0.9843Y-6.1024
X0.9843Y-6.2992
X0.9843Y-6.4961
X1.1811Y-1.5748
X1.1811Y-1.7717
X1.1811Y-1.9685
X1.1811Y-2.1654
X1.1811Y-2.3622
X1.1811Y-2.5591
X1.1811Y-2.7559
X1.1811Y-2.9528
X1.1811Y-3.1496
X1.1811Y-3.3465
X1.1811Y-3.5433
X1.1811Y-3.7402
X1.1811Y-3.937
X1.1811Y-4.1339
X1.1811Y-4.3307
X1.1811Y-4.5276
X1.1811Y-4.7244
X1.1811Y-4.9213
X1.1811Y-5.1181
X1.1811Y-5.315
X1.1811Y-5.5118
X1.1811Y-5.7087
X1.1811Y-5.9055
X1.1811Y-6.1024
X1.1811Y-6.2992
X1.1811Y-6.4961
X1.1861Y-1.38
X1.378Y-1.7717
X1.378Y-1.9685
X1.378Y-2.1654
X1.378Y-2.3622
X1.378Y-2.5591
X1.378Y-2.7559
X1.378Y-2.9528
X1.378Y-3.1496
X1.378Y-3.3465
X1.378Y-3.5433
X1.378Y-3.7402
X1.378Y-3.937
X1.378Y-4.1339
X1.378Y-4.3307
X1.378Y-4.5276
X1.378Y-4.7244
X1.378Y-4.9213
X1.378Y-5.1181
X1.378Y-5.315
X1.378Y-5.5118
X1.378Y-5.7087
X1.378Y-5.9055
X1.378Y-6.1024
X1.378Y-6.2992
X1.378Y-6.4961
X1.3782Y-1.5749
X1.3796Y-1.3786
X1.5748Y-1.378
X1.5748Y-1.5748
X1.5748Y-1.7717
X1.5748Y-1.9685
X1.5748Y-2.1654
X1.5748Y-2.3622
X1.5748Y-2.5591
X1.5748Y-2.7559
X1.5748Y-2.9528
X1.5748Y-4.9213
X1.5748Y-5.1181
X1.5748Y-5.315
X1.5748Y-5.5118
X1.5748Y-5.7087
X1.5748Y-6.2992
X1.5748Y-6.4961
X1.584Y-3.4162
X1.6147Y-2.9252
X1.6155Y-3.4162
X1.6462Y-2.9252
X1.7328Y-2.8809
X1.7564Y-3.4449
X1.7564Y-3.4764
X1.7632Y-4.9994
X1.7643Y-2.8809
X1.77Y-5.9825
X1.7708Y-1.9648
X1.7717Y-1.378
X1.7717Y-1.5748
X1.7717Y-1.7717
X1.7717Y-3.7402
X1.7717Y-4.1339
X1.7717Y-4.3307
X1.7717Y-4.5276
X1.7717Y-5.315
X1.7717Y-5.5118
X1.7717Y-5.7087
X1.7717Y-5.9055
X1.7782Y-3.39
X1.7782Y-3.4214
X1.7807Y-2.3393
X1.7958Y-3.3346
X1.7958Y-3.3661
X1.803Y-2.3615
X1.809Y-4.9828
X1.8313Y-4.9605
X1.8791Y-4.9875
X1.8942Y-1.4488
X1.9014Y-4.9652
X1.9021Y-2.4911
X1.9021Y-2.7077
X1.9296Y-1.7677
X1.9539Y-4.9954
X1.9611Y-1.7677
X1.9685Y-1.378
X1.9685Y-3.937
X1.9685Y-4.1339
X1.9685Y-4.3307
X1.9685Y-4.5276
X1.9685Y-4.7244
X1.9685Y-5.1181
X1.9685Y-5.5118
X1.9685Y-5.7087
X1.9685Y-6.4961
X1.9762Y-4.9731
X1.9769Y-6.0709
X2.0084Y-6.0709
X2.0236Y-3.1929
X2.0399Y-6.4213
X2.0445Y-5.7487
X2.0667Y-5.771
X2.0861Y-3.2165
X2.0861Y-3.2746
X2.091Y-3.1811
X2.1068Y-3.2392
X2.1304Y-2.688
X2.1383Y-2.7904
X2.1462Y-3.2519
X2.1649Y-2.8967
X2.1649Y-3.0856
X2.1654Y-1.378
X2.1654Y-1.5748
X2.1654Y-3.7402
X2.1654Y-3.937
X2.1654Y-4.1339
X2.1654Y-4.3307
X2.1654Y-4.5276
X2.1654Y-4.7244
X2.1654Y-5.315
X2.1654Y-5.9055
X2.1654Y-6.2992
X2.1654Y-6.4961
X2.1658Y-2.8494
X2.1685Y-3.003
X2.1687Y-3.192
X2.1737Y-1.7835
X2.189Y-2.5354
X2.2163Y-5.2137
X2.2286Y-2.5552
X2.2288Y-2.8455
X2.2374Y-5.1607
X2.2386Y-5.1915
X2.2509Y-2.5774
X2.2597Y-5.1385
X2.2795Y-2.5708
X2.28Y-2.8288
X2.3018Y-2.5931
X2.3284Y-2.8292
X2.3319Y-2.5873
X2.3395Y-3.2133
X2.3541Y-2.6096
X2.3622Y-1.378
X2.3622Y-1.5748
X2.3622Y-1.9685
X2.3622Y-2.1654
X2.3622Y-6.2992
X2.3622Y-6.4961
X2.4025Y-3.2133
X2.4055Y-5.6575
X2.4375Y-2.8288
X2.4655Y-3.2133
X2.4922Y-2.8323
X2.532Y-3.2133
X2.5359Y-5.937
X2.5438Y-3.1211
X2.5491Y-3.0369
X2.5491Y-2.8991
X2.5491Y-2.9675
X2.5523Y-5.8733
X2.5581Y-4.9134
X2.5591Y-1.378
X2.5591Y-1.5748
X2.5591Y-1.7717
X2.5591Y-1.9685
X2.5591Y-2.1654
X2.5591Y-5.315
X2.5591Y-5.7087
X2.5591Y-6.2992
X2.5591Y-6.4961
X2.563Y-4.9606
X2.5746Y-5.8511
X2.5906Y-3.6024
X2.6225Y-3.1526
X2.6265Y-2.9085
X2.6265Y-3.0148
X2.6305Y-3.1789
X2.6314Y-2.1339
X2.6344Y-3.0581
X2.6462Y-2.5669
X2.6462Y-2.5984
X2.6629Y-2.1339
X2.6713Y-3.0504
X2.6895Y-2.5197
X2.6895Y-2.5512
X2.6925Y-1.4432
X2.6929Y-3.4016
X2.721Y-6.063
X2.7288Y-2.4724
X2.7288Y-2.5039
X2.7289Y-3.2127
X2.7328Y-1.7638
X2.7525Y-2.8809
X2.7525Y-3.003
X2.7525Y-6.063
X2.7559Y-1.378
X2.7559Y-2.1654
X2.7559Y-4.1339
X2.7559Y-4.3307
X2.7559Y-4.5276
X2.7559Y-4.7244
X2.7559Y-4.9213
X2.7559Y-5.5118
X2.7559Y-5.9055
X2.7559Y-6.4961
X2.7564Y-3.1132
X2.7564Y-3.2116
X2.7603Y-1.9528
X2.7719Y-3.4176
X2.7918Y-1.9528
X2.7918Y-6.4213
X2.8191Y-3.3703
X2.8312Y-3.9646
X2.8312Y-3.9961
X2.8457Y-5.6509
X2.8543Y-2.7677
X2.8583Y-2.7992
X2.8679Y-5.6286
X2.8701Y-2.4134
X2.8829Y-5.6803
X2.8863Y-5.7362
X2.8863Y-5.7677
X2.8937Y-2.9252
X2.9016Y-2.8268
X2.9052Y-5.658
X2.9099Y-5.5591
X2.9257Y-1.7795
X2.9291Y-3.0394
X2.9296Y-3.8622
X2.9414Y-5.5591
X2.9528Y-1.378
X2.9528Y-1.5748
X2.9528Y-2.1654
X2.9528Y-4.3307
X2.9528Y-4.5276
X2.9528Y-4.7244
X2.9528Y-4.9213
X2.9528Y-5.1181
X2.9528Y-5.9055
X2.9611Y-3.6339
X2.9769Y-5.5079
X3.0012Y-3.9731
X3.0084Y-5.5079
X3.0217Y-3.0394
X3.0234Y-3.9954
X3.0389Y-6.0039
X3.0591Y-2.9606
X3.0591Y-3.0433
X3.0591Y-3.122
X3.0699Y-6.1372
X3.072Y-5.4403
X3.0866Y-2.8425
X3.091Y-5.5157
X3.0921Y-6.1149
X3.0943Y-5.418
X3.1017Y-6.088
X3.1225Y-5.5157
X3.1239Y-6.0658
X3.1375Y-6.0366
X3.1383Y-1.9055
X3.1422Y-1.7795
X3.1496Y-4.3307
X3.1496Y-4.5276
X3.1496Y-4.7244
X3.1496Y-4.9213
X3.1496Y-5.1181
X3.1496Y-6.4961
X3.1598Y-6.0144
X3.1693Y-3.2362
X3.1697Y-5.7481
X3.1698Y-1.9055
X3.1737Y-1.7795
X3.1753Y-5.9915
X3.1855Y-3.75
X3.1855Y-4.0394
X3.1973Y-3.8307
X3.1976Y-5.9692
X3.2032Y-5.7816
X3.2138Y-5.9442
X3.221Y-1.7795
X3.2338Y-3.75
X3.2356Y-3.8307
X3.236Y-5.9219
X3.2406Y-4.1732
X3.2457Y-5.8263
X3.2525Y-1.7795
X3.2775Y-1.4424
X3.284Y-5.8504
X3.2958Y-6.4803
X3.3076Y-6.4528
X3.311Y-5.524
X3.3115Y-1.4843
X3.3115Y-5.7402
X3.3189Y-2.5
X3.3189Y-2.7717
X3.3189Y-2.9094
X3.3194Y-6.3878
X3.3194Y-6.4803
X3.3273Y-6.4252
X3.3312Y-1.3858
X3.3328Y-1.4244
X3.3328Y-1.4846
X3.3351Y-5.5512
X3.3391Y-5.3622
X3.3391Y-5.3898
X3.3391Y-5.7244
X3.3412Y-6.3878
X3.3465Y-4.1339
X3.3465Y-4.3307
X3.3465Y-4.5276
X3.3465Y-4.7244
X3.3465Y-4.9213
X3.3469Y-6.4449
X3.3509Y-3.1614
X3.3543Y-2.8937
X3.3548Y-1.3858
X3.3548Y-1.4409
X3.3548Y-5.7435
X3.3548Y-5.7671
X3.3548Y-5.8498
X3.3548Y-5.8774
X3.3583Y-3.0787
X3.3588Y-3.878
X3.3588Y-3.9252
X3.3706Y-1.8189
X3.3706Y-6.2992
X3.3745Y-6.5709
X3.3784Y-1.5669
X3.3784Y-5.5669
X3.3824Y-1.3031
X3.3942Y-5.2008
X3.3981Y-2.2165
X3.3981Y-6.2992
X3.3981Y-6.5709
X3.4021Y-1.5669
X3.4056Y-2.1854
X3.406Y-1.3031
X3.4099Y-2.5
X3.4178Y-5.8656
X3.4186Y-1.8788
X3.4285Y-5.5677
X3.4296Y-5.6427
X3.4336Y-6.2028
X3.4564Y-1.6795
X3.4603Y-1.8732
X3.4603Y-2.0108
X3.4611Y-2.1575
X3.4611Y-6.2283
X3.4729Y-1.6575
X3.4808Y-5.5906
X3.4808Y-5.7435
X3.4808Y-5.7671
X3.4808Y-5.8498
X3.4808Y-5.8774
X3.4887Y-5.5276
X3.4926Y-6.2992
X3.4926Y-6.5709
X3.4966Y-1.3031
X3.4966Y-1.5669
X3.504Y-1.9259
X3.5162Y-6.5709
X3.5202Y-1.3031
X3.5202Y-1.5669
X3.5202Y-6.2992
X3.5241Y-2.0689
X3.5241Y-2.1339
X3.5263Y-1.9481
X3.532Y-2.3819
X3.5389Y-2.4665
X3.5407Y-6.4193
X3.5433Y-3.937
X3.5433Y-4.1339
X3.5433Y-4.3307
X3.5433Y-4.5276
X3.5433Y-4.7244
X3.5433Y-4.9213
X3.5438Y-1.4213
X3.5438Y-1.4803
X3.5451Y-6.4803
X3.5491Y-5.6274
X3.5491Y-5.651
X3.5491Y-5.6746
X3.5491Y-5.6982
X3.5517Y-5.4724
X3.5517Y-5.5079
X3.5543Y-1.378
X3.5635Y-6.4409
X3.5653Y-1.4385
X3.5674Y-1.4803
X3.5674Y-6.4803
X3.5675Y-6.3826
X3.5694Y-1.411
X3.5792Y-1.378
X3.5793Y-1.8799
X3.5832Y-5.2008
X3.5832Y-5.2628
X3.5832Y-5.8498
X3.5832Y-5.8774
X3.591Y-1.8031
X3.591Y-6.3819
X3.591Y-6.4567
X3.5989Y-2.5
X3.6383Y-1.8622
X3.6462Y-2.2047
X3.6462Y-5.8656
X3.6698Y-2.2294
X3.6855Y-1.8346
X3.7092Y-5.8498
X3.7092Y-5.8774
X3.7131Y-1.8504
X3.7402Y-1.378
X3.7402Y-1.9685
X3.7402Y-2.3622
X3.7402Y-3.937
X3.7402Y-4.1339
X3.7402Y-4.3307
X3.7402Y-4.5276
X3.7402Y-4.7244
X3.7402Y-4.9213
X3.7402Y-6.1024
X3.7402Y-6.4961
X3.8115Y-1.9724
X3.8115Y-2.2835
X3.8332Y-2.6437
X3.874Y-5.2933
X3.9094Y-2.7638
X3.9094Y-3.0
X3.9099Y-2.2835
X3.9291Y-3.7205
X3.937Y-1.378
X3.937Y-1.5748
X3.937Y-1.7717
X3.937Y-2.9528
X3.937Y-5.9055
X3.937Y-6.1024
X3.937Y-6.2992
X3.937Y-6.4961
X3.9454Y-5.7087
X3.9532Y-2.122
X3.9567Y-3.3976
X3.9606Y-3.7205
X3.9852Y-3.0787
X3.9852Y-3.1496
X3.9852Y-3.2205
X3.9926Y-1.5433
X4.0148Y-2.7244
X4.0157Y-3.3976
X4.0162Y-3.8031
X4.0202Y-2.4646
X4.0595Y-5.5118
X4.0866Y-2.4961
X4.0871Y-2.4331
X4.1206Y-2.2913
X4.1339Y-5.9055
X4.1339Y-6.1024
X4.1339Y-6.2992
X4.1339Y-6.4961
X4.1369Y-1.4016
X4.1369Y-1.5315
X4.1383Y-2.2638
X4.1417Y-1.8858
X4.1422Y-1.6339
X4.1422Y-1.7638
X4.1487Y-1.4646
X4.154Y-1.6969
X4.1645Y-1.4016
X4.1645Y-1.5315
X4.1698Y-1.6339
X4.1698Y-1.7638
X4.1944Y-4.8976
X4.2402Y-3.7205
X4.2446Y-2.4409
X4.2485Y-1.4016
X4.2485Y-1.5315
X4.2761Y-1.4016
X4.2761Y-1.5315
X4.3194Y-1.6142
X4.3307Y-1.378
X4.3307Y-1.5748
X4.3307Y-1.9685
X4.3307Y-2.1654
X4.3307Y-5.7087
X4.3307Y-5.9055
X4.3307Y-6.1024
X4.3307Y-6.2992
X4.3307Y-6.4961
X4.3353Y-2.4967
X4.343Y-1.6142
X4.3664Y-2.4963
X4.3666Y-1.6142
X4.3701Y-2.2126
X4.3903Y-1.6142
X4.4606Y-4.9173
X4.4685Y-2.4606
X4.4843Y-2.8607
X4.4843Y-2.9277
X4.5236Y-3.248
X4.5276Y-1.378
X4.5276Y-1.5748
X4.5276Y-4.0157
X4.5276Y-4.4488
X4.5276Y-5.7087
X4.5276Y-5.9055
X4.5276Y-6.1024
X4.5276Y-6.2992
X4.5276Y-6.4961
X4.5433Y-3.0157
X4.5433Y-3.1654
X4.5512Y-2.4291
X4.5906Y-3.2441
X4.622Y-3.1339
X4.6299Y-4.9213
X4.6654Y-3.7205
X4.7087Y-3.7815
X4.7244Y-1.378
X4.7244Y-5.7087
X4.7244Y-6.1024
X4.7244Y-6.4961
X4.7323Y-3.8858
X4.7365Y-5.5669
X4.7441Y-3.5797
X4.748Y-2.8174
X4.748Y-2.8804
X4.748Y-2.9434
X4.7795Y-4.9173
X4.8031Y-1.2795
X4.8031Y-1.3425
X4.8071Y-2.8701
X4.8071Y-2.9331
X4.8465Y-3.5896
X4.8501Y-4.0977
X4.8701Y-2.8686
X4.8701Y-2.9316
X4.8701Y-3.6732
X4.8721Y-4.0811
X4.8819Y-3.437
X4.8937Y-3.7441
X4.8937Y-4.0591
X4.9213Y-1.378
X4.9213Y-1.5748
X4.9213Y-5.9055
X4.9213Y-6.2992
X4.9213Y-6.4961
X4.9311Y-3.7441
X4.9331Y-4.9105
X4.9363Y-3.5039
X4.939Y-4.3957
X4.9409Y-4.0354
X4.998Y-3.9911
X5.0079Y-2.4606
X5.0377Y-4.1276
X5.0433Y-2.6654
X5.0453Y-4.2589
X5.0709Y-4.8927
X5.1004Y-3.0689
X5.1024Y-2.0938
X5.1181Y-5.9055
X5.1181Y-6.1024
X5.1181Y-6.4961
X5.1476Y-2.9429
X5.1772Y-2.6614
X5.1791Y-4.4675
X5.1831Y-3.9715
X5.2186Y-3.6202
X5.2205Y-3.4213
X5.2205Y-3.4882
X5.2205Y-3.5551
X5.2205Y-3.6929
X5.2205Y-3.7598
X5.2244Y-3.2874
X5.2244Y-3.3543
X5.2303Y-2.124
X5.2972Y-3.0689
X5.2982Y-4.2913
X5.3012Y-4.1919
X5.315Y-5.7087
X5.315Y-6.2992
X5.315Y-6.4961
X5.3189Y-1.9961
X5.3337Y-2.3228
X5.3344Y-2.9604
X5.3351Y-6.0394
X5.3391Y-5.9173
X5.3514Y-3.4291
X5.3514Y-3.4961
X5.3514Y-3.563
X5.3514Y-3.6299
X5.3514Y-3.6969
X5.3543Y-4.3031
X5.3563Y-2.6791
X5.3602Y-4.0896
X5.3642Y-4.5659
X5.3701Y-2.9882
X5.3819Y-3.815
X5.3898Y-4.9606
X5.3976Y-4.3071
X5.4173Y-4.9882
X5.4218Y-5.4961
X5.437Y-1.9469
X5.4375Y-6.0519
X5.4379Y-5.9979
X5.4414Y-5.937
X5.4414Y-5.9685
X5.4454Y-6.1772
X5.4469Y-4.5659
X5.4469Y-2.0157
X5.4532Y-5.5669
X5.4562Y-2.8189
X5.4576Y-6.0761
X5.4626Y-4.251
X5.4645Y-4.2156
X5.4646Y-4.2795
X5.4705Y-4.1565
X5.4754Y-5.1142
X5.4764Y-2.2224
X5.4774Y-5.7908
X5.5118Y-6.2992
X5.5118Y-6.4961
X5.5138Y-4.5659
X5.5167Y-2.4843
X5.5241Y-5.7677
X5.5315Y-4.9606
X5.532Y-6.1024
X5.532Y-6.1535
X5.5335Y-5.1841
X5.5354Y-5.0591
X5.5399Y-3.094
X5.5419Y-5.9258
X5.5438Y-5.5148
X5.5477Y-5.9528
X5.5477Y-6.0519
X5.5477Y-6.0794
X5.5477Y-6.1299
X5.5477Y-6.1772
X5.5482Y-2.2165
X5.5492Y-4.0738
X5.5497Y-1.8716
X5.5635Y-5.5364
X5.5669Y-2.8878
X5.5758Y-2.6043
X5.5981Y-4.5659
X5.5989Y-5.8189
X5.6147Y-5.5118
X5.6316Y-4.2155
X5.6535Y-5.0394
X5.6594Y-4.8061
X5.7008Y-5.1181
X5.7062Y-4.1009
X5.7087Y-5.5118
X5.7087Y-5.7087
X5.7087Y-6.1024
X5.7087Y-6.2992
X5.7087Y-6.4961
X5.7224Y-4.2589
X5.7343Y-4.562
X5.7343Y-1.3721
X5.7537Y-4.1956
X5.7559Y-1.3937
X5.7598Y-2.0512
X5.7697Y-4.2667
X5.7913Y-2.0512
X5.7992Y-2.252
X5.813Y-4.2746
X5.8228Y-1.9252
X5.872Y-1.3327
X5.9055Y-5.5118
X5.9055Y-5.7087
X5.9055Y-6.1024
X5.9055Y-6.2992
X5.9055Y-6.4961
X5.9114Y-1.3327
X5.9252Y-2.2795
X5.9252Y-2.311
X5.9262Y-2.0748
X5.9508Y-2.6024
X5.9882Y-2.1024
X6.0044Y-6.0394
X6.0084Y-6.1969
X6.0084Y-6.3543
X6.0256Y-4.4872
X6.0315Y-4.2018
X6.0323Y-4.0454
X6.0748Y-4.9094
X6.0846Y-3.9636
X6.0997Y-2.0066
X6.1019Y-1.96
X6.1024Y-5.5118
X6.1024Y-6.4961
X6.128Y-3.9636
X6.1654Y-2.0787
X6.1929Y-4.496
X6.2244Y-4.9055
X6.2992Y-5.5118
X6.2992Y-6.2992
X6.2992Y-6.4961
X6.3858Y-4.9055
X6.3981Y-5.8819
X6.3981Y-6.0394
X6.4961Y-5.5118
X6.4961Y-5.7087
X6.4961Y-6.4961
X6.5399Y-4.8942
X6.6929Y-5.5118
X6.6929Y-5.7087
X6.6929Y-5.9055
X6.6929Y-6.1024
X6.6929Y-6.2992
X6.6929Y-6.4961
X6.7047Y-4.9094
T4
X5.2008Y-1.8287
X5.3091Y-2.0846
X5.3091Y-2.1634
X5.3386Y-2.124
X5.3681Y-2.0846
X5.3681Y-2.1634
X5.4272Y-4.4478
X5.4744Y-4.7707
X5.6929Y-4.4351
X5.7461Y-5.2195
X5.75Y-5.2864
X5.7618Y-4.8809
X5.7815Y-4.7982
X5.7815Y-4.8415
X5.8701Y-2.1929
T5
X1.6457Y-6.0591
X1.9685Y-3.7008
X2.2406Y-2.9049
X2.2406Y-3.1411
X2.2835Y-2.4173
X2.3588Y-3.023
X2.4016Y-6.0512
X2.4769Y-2.9049
X2.9646Y-2.4173
X3.2008Y-5.6417
X3.2131Y-3.9528
X3.4257Y-5.4488
X3.5241Y-2.252
X4.2835Y-2.6732
X4.2835Y-2.8701
X4.2835Y-3.0669
X4.2835Y-3.2638
X4.2835Y-3.4606
X4.2835Y-3.6575
X4.2835Y-3.8543
X4.2835Y-4.0512
X4.2835Y-4.248
X4.2835Y-4.4449
X4.2835Y-4.6417
X4.2835Y-4.8386
X4.2835Y-4.937
X4.2835Y-5.0354
X4.2835Y-5.1339
X4.2835Y-5.2323
X4.2835Y-5.3307
X4.2835Y-5.4291
X4.3819Y-5.4291
X4.4803Y-2.6732
X4.4829Y-5.4272
X4.5787Y-5.4291
X4.6772Y-1.7874
X4.6772Y-1.8858
X4.6772Y-1.9843
X4.6772Y-2.0827
X4.6772Y-2.1811
X4.6772Y-2.2795
X4.6772Y-2.378
X4.6772Y-2.4764
X4.6772Y-2.6732
X4.6772Y-5.4291
X4.7756Y-1.7874
X4.7756Y-5.4291
X4.7953Y-3.9291
X4.7953Y-3.9724
X4.8031Y-3.8858
X4.8076Y-1.6181
X4.815Y-2.2717
X4.8189Y-2.2244
X4.8465Y-3.8858
X4.8661Y-2.2244
X4.874Y-1.7874
X4.874Y-5.4291
X4.8898Y-3.8858
X4.8898Y-3.9291
X4.8898Y-3.9724
X4.9134Y-2.2244
X4.9173Y-1.9685
X4.9173Y-2.0197
X4.9331Y-1.9213
X4.937Y-2.5709
X4.937Y-2.622
X4.937Y-2.6732
X4.937Y-2.7205
X4.937Y-2.7677
X4.9724Y-1.2283
X4.9724Y-1.3937
X4.9724Y-1.4921
X4.9724Y-1.5906
X4.9724Y-1.7874
X4.9724Y-5.4291
X4.9803Y-1.9213
X4.9843Y-2.5709
X5.0276Y-1.9213
X5.0492Y-4.062
X5.0709Y-5.4291
X5.0807Y-4.3022
X5.0965Y-4.062
X5.128Y-4.3022
X5.1437Y-4.062
X5.1693Y-5.4291
X5.1752Y-4.3022
X5.1909Y-4.062
X5.2677Y-5.4291
X5.3661Y-5.4291
X5.4646Y-5.4291
X5.4724Y-2.1213
X5.5276Y-2.1213
X5.563Y-5.4291
X5.6555Y-2.7992
X5.6555Y-2.8484
X5.6555Y-2.8976
X5.6555Y-2.9469
X5.6555Y-3.1732
X5.6555Y-3.2224
X5.6555Y-3.2717
X5.6555Y-3.3209
X5.6614Y-5.4291
X5.6831Y-3.0059
X5.6949Y-3.3504
X5.7441Y-3.0059
X5.7441Y-3.3504
X5.7598Y-5.4291
X5.7736Y-2.6516
X5.7933Y-3.0059
X5.7933Y-3.3504
X5.8228Y-2.6516
X5.8425Y-3.0059
X5.8425Y-3.3504
X5.8583Y-5.4291
X5.872Y-2.6516
X5.8917Y-4.2746
X5.8917Y-3.0059
X5.8917Y-3.3504
X5.9035Y-4.0305
X5.9075Y-3.628
X5.9075Y-3.6772
X5.9075Y-3.7264
X5.9114Y-3.252
X5.9213Y-2.6516
X5.9213Y-2.7008
X5.939Y-4.2746
X5.9409Y-2.7992
X5.9409Y-2.8484
X5.9409Y-2.8976
X5.9409Y-2.9469
X5.9409Y-2.9961
X5.9409Y-3.0453
X5.9409Y-3.0945
X5.9409Y-3.1437
X5.9409Y-3.3012
X5.9409Y-3.3504
X5.9508Y-4.0305
X5.9567Y-3.628
X5.9567Y-3.6772
X5.9567Y-3.7264
X5.9567Y-5.4291
X5.9862Y-4.2746
X5.998Y-4.0305
X6.0059Y-3.687
X6.0059Y-3.7362
X6.0335Y-4.2746
X6.0547Y-5.43
X6.0551Y-3.687
X6.0551Y-3.7362
X6.1043Y-3.687
X6.1043Y-3.7362
X6.1535Y-3.687
X6.1535Y-3.7362
X6.1579Y-5.4314
X6.2008Y-3.8465
X6.2441Y-3.8465
X6.252Y-5.4291
X6.2874Y-3.8465
X6.2874Y-3.8898
X6.2874Y-3.9331
X6.3504Y-5.4291
X6.4488Y-5.4291
X6.4823Y-3.5276
X6.4823Y-3.626
X6.4921Y-2.4154
X6.5315Y-2.3366
X6.5315Y-2.4941
X6.5472Y-5.4291
X6.5709Y-3.498
X6.5709Y-3.6555
X6.6299Y-2.3366
X6.6299Y-2.4941
X6.6457Y-5.4291
X6.6693Y-3.498
X6.6693Y-3.6555
X6.7185Y-3.5472
X6.7185Y-3.5965
X6.7283Y-2.3366
X6.7283Y-2.4843
X6.7402Y-5.4291
X6.8307Y-5.4291
T7
X1.7918Y-1.6742
X1.8115Y-1.6152
X1.8312Y-6.1919
X1.8509Y-6.251
X1.8706Y-1.6742
X1.9099Y-1.6152
X1.9099Y-6.1919
X1.9493Y-1.6742
X1.9493Y-6.251
X1.9887Y-1.6152
X1.9887Y-6.1919
X2.0281Y-1.6742
X2.0281Y-6.251
X2.0674Y-6.1919
X2.0871Y-1.6152
X2.1068Y-1.6742
X2.1265Y-6.251
X2.1462Y-6.1919
X2.5792Y-1.6742
X2.5792Y-6.1919
X2.5989Y-1.6152
X2.5989Y-6.251
X2.658Y-1.6742
X2.658Y-6.1919
X2.6973Y-1.6152
X2.6973Y-6.251
X2.7367Y-1.6742
X2.7367Y-6.1919
X2.7761Y-1.6152
X2.7761Y-6.251
X2.8155Y-1.6742
X2.8155Y-6.1919
X2.8745Y-1.6152
X2.8745Y-6.251
X2.8942Y-1.6742
X2.8942Y-6.1919
T8
X1.8863Y-3.2638
X2.9375Y-4.0709
X2.9778Y-3.2931
X2.9778Y-3.3931
X2.9778Y-3.4931
X3.0778Y-3.2931
X3.0778Y-3.3931
X3.0778Y-3.4931
X4.6127Y-5.7757
X4.6127Y-6.3757
X4.7127Y-5.7757
X4.7127Y-6.3757
X4.8127Y-5.7757
X4.8127Y-6.3757
X4.9127Y-5.7757
X4.9127Y-6.3757
X5.0127Y-5.7757
X5.0127Y-6.3757
X5.1127Y-5.7757
X5.1127Y-6.3757
T9
X3.8686Y-3.9823
X3.8686Y-4.2382
X3.8686Y-4.435
X3.8686Y-4.6909
X3.8686Y-4.8878
X3.8686Y-5.1437
X4.0458Y-3.9823
X4.0458Y-4.2382
X4.0458Y-4.435
X4.0458Y-4.6909
X4.0458Y-4.8878
X4.0458Y-5.1437
T10
X5.7815Y-1.5689
X5.8366Y-1.6713
X5.8917Y-1.5689
X5.9469Y-1.6713
X6.002Y-1.5689
T11
X5.2382Y-1.5768
X6.5453Y-1.5768
T12
X5.624Y-1.6752
X6.1594Y-1.6752
T6
G00X1.6973Y-1.3258
M15
G01X1.6973Y-1.2943
M16
G05
G00X1.6973Y-1.6663
M15
G01X1.6973Y-1.623
M16
G05
G00X1.7367Y-6.1998
M15
G01X1.7367Y-6.2431
M16
G05
G00X1.7367Y-6.5404
M15
G01X1.7367Y-6.5719
M16
G05
G00X2.2013Y-1.3258
M15
G01X2.2013Y-1.2943
M16
G05
G00X2.2013Y-1.6663
M15
G01X2.2013Y-1.623
M16
G05
G00X2.2406Y-6.1998
M15
G01X2.2406Y-6.2431
M16
G05
G00X2.2406Y-6.5404
M15
G01X2.2406Y-6.5719
M16
G05
G00X2.4847Y-1.3258
M15
G01X2.4847Y-1.2943
M16
G05
G00X2.4847Y-1.6663
M15
G01X2.4847Y-1.623
M16
G05
G00X2.4847Y-6.1998
M15
G01X2.4847Y-6.2431
M16
G05
G00X2.4847Y-6.5404
M15
G01X2.4847Y-6.5719
M16
G05
G00X2.9887Y-1.3258
M15
G01X2.9887Y-1.2943
M16
G05
G00X2.9887Y-1.6663
M15
G01X2.9887Y-1.623
M16
G05
G00X2.9887Y-6.1998
M15
G01X2.9887Y-6.2431
M16
G05
G00X2.9887Y-6.5404
M15
G01X2.9887Y-6.5719
M16
G05
G00X3.3273Y-6.251
M15
G01X3.3273Y-6.2923
M16
G05
G00X3.3273Y-6.5699
M15
G01X3.3273Y-6.6112
M16
G05
G00X3.3312Y-1.2943
M15
G01X3.3312Y-1.253
M16
G05
G00X3.3312Y-1.6132
M15
G01X3.3312Y-1.5719
M16
G05
G00X3.5635Y-6.251
M15
G01X3.5635Y-6.2923
M16
G05
G00X3.5635Y-6.5699
M15
G01X3.5635Y-6.6112
M16
G05
G00X3.5674Y-1.2943
M15
G01X3.5674Y-1.253
M16
G05
G00X3.5674Y-1.6132
M15
G01X3.5674Y-1.5719
M16
G05
T0
M30
